<?xml version="1.0" standalone="no"?>
 <!DOCTYPE svg PUBLIC "-//W3C//DTD SVG 1.1//EN" 
 "http://www.w3.org/Graphics/SVG/1.1/DTD/svg11.dtd"> 
<svg
  xmlns:svg="http://www.w3.org/2000/svg"
  xmlns="http://www.w3.org/2000/svg"
  xmlns:xlink="http://www.w3.org/1999/xlink"
  version="1.1"
  width="28.0924mm" height="130.0988mm" viewBox="0.0000 0.0000 28.0924 130.0988">
<title>SVG Image created as kicad-brd.svg date 2025/03/22 12:34:22 </title>
  <desc>Image generated by PCBNEW </desc>
<g style="fill:#000000; fill-opacity:1.0000;stroke:#000000; stroke-opacity:1.0000;
stroke-linecap:round; stroke-linejoin:round;"
 transform="translate(0 0) scale(1 1)">
</g>
<g style="fill:#000000; fill-opacity:0.0; 
stroke:#000000; stroke-width:0.0000; stroke-opacity:1; 
stroke-linecap:round; stroke-linejoin:round;">
</g>
<g style="fill:#E8B2A7; fill-opacity:0.0; 
stroke:#E8B2A7; stroke-width:0.0000; stroke-opacity:1; 
stroke-linecap:round; stroke-linejoin:round;">
</g>
<g style="fill:#E8B2A7; fill-opacity:0.0; 
stroke:#E8B2A7; stroke-width:0.3000; stroke-opacity:1; 
stroke-linecap:round; stroke-linejoin:round;">
<g transform="rotate(-90.000000 22.0424 42.3000)">
<text x="22.0424" y="42.3000"
textLength="5.1714" font-size="2.0000" lengthAdjust="spacingAndGlyphs"
text-anchor="start" opacity="0">+5V</text>
</g>
<g class="stroked-text"><desc>+5V</desc>
<path d="M21.2718 41.7455
L21.2718 40.6026
" />
<path d="M21.8432 41.1741
L20.7004 41.1741
" />
<path d="M20.3432 39.1741
L20.3432 39.8883
" />
<path d="M20.3432 39.8883
L21.0575 39.9598
" />
<path d="M21.0575 39.9598
L20.9861 39.8883
" />
<path d="M20.9861 39.8883
L20.9147 39.7455
" />
<path d="M20.9147 39.7455
L20.9147 39.3883
" />
<path d="M20.9147 39.3883
L20.9861 39.2455
" />
<path d="M20.9861 39.2455
L21.0575 39.1741
" />
<path d="M21.0575 39.1741
L21.2004 39.1026
" />
<path d="M21.2004 39.1026
L21.5575 39.1026
" />
<path d="M21.5575 39.1026
L21.7004 39.1741
" />
<path d="M21.7004 39.1741
L21.7718 39.2455
" />
<path d="M21.7718 39.2455
L21.8432 39.3883
" />
<path d="M21.8432 39.3883
L21.8432 39.7455
" />
<path d="M21.8432 39.7455
L21.7718 39.8883
" />
<path d="M21.7718 39.8883
L21.7004 39.9598
" />
<path d="M20.3432 38.6741
L21.8432 38.1741
" />
<path d="M21.8432 38.1741
L20.3432 37.6741
" />
</g><g transform="rotate(-90.000000 6.0424 42.3000)">
<text x="6.0424" y="42.3000"
textLength="4.6714" font-size="2.0000" lengthAdjust="spacingAndGlyphs"
text-anchor="start" opacity="0">LED</text>
</g>
<g class="stroked-text"><desc>LED</desc>
<path d="M5.8432 41.0312
L5.8432 41.7455
" />
<path d="M5.8432 41.7455
L4.3432 41.7455
" />
<path d="M5.0575 40.5312
L5.0575 40.0312
" />
<path d="M5.8432 39.8169
L5.8432 40.5312
" />
<path d="M5.8432 40.5312
L4.3432 40.5312
" />
<path d="M4.3432 40.5312
L4.3432 39.8169
" />
<path d="M5.8432 39.1741
L4.3432 39.1741
" />
<path d="M4.3432 39.1741
L4.3432 38.8169
" />
<path d="M4.3432 38.8169
L4.4147 38.6026
" />
<path d="M4.4147 38.6026
L4.5575 38.4598
" />
<path d="M4.5575 38.4598
L4.7004 38.3883
" />
<path d="M4.7004 38.3883
L4.9861 38.3169
" />
<path d="M4.9861 38.3169
L5.2004 38.3169
" />
<path d="M5.2004 38.3169
L5.4861 38.3883
" />
<path d="M5.4861 38.3883
L5.6289 38.4598
" />
<path d="M5.6289 38.4598
L5.7718 38.6026
" />
<path d="M5.7718 38.6026
L5.8432 38.8169
" />
<path d="M5.8432 38.8169
L5.8432 39.1741
" />
</g><g transform="rotate(-90.000000 17.0424 42.5500)">
<text x="17.0424" y="42.5500"
textLength="5.1714" font-size="2.0000" lengthAdjust="spacingAndGlyphs"
text-anchor="start" opacity="0">GND</text>
</g>
<g class="stroked-text"><desc>GND</desc>
<path d="M15.4147 41.2098
L15.3432 41.3526
" />
<path d="M15.3432 41.3526
L15.3432 41.5669
" />
<path d="M15.3432 41.5669
L15.4147 41.7812
" />
<path d="M15.4147 41.7812
L15.5575 41.9241
" />
<path d="M15.5575 41.9241
L15.7004 41.9955
" />
<path d="M15.7004 41.9955
L15.9861 42.0669
" />
<path d="M15.9861 42.0669
L16.2004 42.0669
" />
<path d="M16.2004 42.0669
L16.4861 41.9955
" />
<path d="M16.4861 41.9955
L16.6289 41.9241
" />
<path d="M16.6289 41.9241
L16.7718 41.7812
" />
<path d="M16.7718 41.7812
L16.8432 41.5669
" />
<path d="M16.8432 41.5669
L16.8432 41.4241
" />
<path d="M16.8432 41.4241
L16.7718 41.2098
" />
<path d="M16.7718 41.2098
L16.7004 41.1383
" />
<path d="M16.7004 41.1383
L16.2004 41.1383
" />
<path d="M16.2004 41.1383
L16.2004 41.4241
" />
<path d="M16.8432 40.4955
L15.3432 40.4955
" />
<path d="M15.3432 40.4955
L16.8432 39.6383
" />
<path d="M16.8432 39.6383
L15.3432 39.6383
" />
<path d="M16.8432 38.9241
L15.3432 38.9241
" />
<path d="M15.3432 38.9241
L15.3432 38.5669
" />
<path d="M15.3432 38.5669
L15.4147 38.3526
" />
<path d="M15.4147 38.3526
L15.5575 38.2098
" />
<path d="M15.5575 38.2098
L15.7004 38.1383
" />
<path d="M15.7004 38.1383
L15.9861 38.0669
" />
<path d="M15.9861 38.0669
L16.2004 38.0669
" />
<path d="M16.2004 38.0669
L16.4861 38.1383
" />
<path d="M16.4861 38.1383
L16.6289 38.2098
" />
<path d="M16.6289 38.2098
L16.7718 38.3526
" />
<path d="M16.7718 38.3526
L16.8432 38.5669
" />
<path d="M16.8432 38.5669
L16.8432 38.9241
" />
</g><g transform="rotate(-90.000000 15.0424 42.3000)">
<text x="15.0424" y="42.3000"
textLength="4.6714" font-size="2.0000" lengthAdjust="spacingAndGlyphs"
text-anchor="start" opacity="0">LED</text>
</g>
<g class="stroked-text"><desc>LED</desc>
<path d="M14.8432 41.0312
L14.8432 41.7455
" />
<path d="M14.8432 41.7455
L13.3432 41.7455
" />
<path d="M14.0575 40.5312
L14.0575 40.0312
" />
<path d="M14.8432 39.8169
L14.8432 40.5312
" />
<path d="M14.8432 40.5312
L13.3432 40.5312
" />
<path d="M13.3432 40.5312
L13.3432 39.8169
" />
<path d="M14.8432 39.1741
L13.3432 39.1741
" />
<path d="M13.3432 39.1741
L13.3432 38.8169
" />
<path d="M13.3432 38.8169
L13.4147 38.6026
" />
<path d="M13.4147 38.6026
L13.5575 38.4598
" />
<path d="M13.5575 38.4598
L13.7004 38.3883
" />
<path d="M13.7004 38.3883
L13.9861 38.3169
" />
<path d="M13.9861 38.3169
L14.2004 38.3169
" />
<path d="M14.2004 38.3169
L14.4861 38.3883
" />
<path d="M14.4861 38.3883
L14.6289 38.4598
" />
<path d="M14.6289 38.4598
L14.7718 38.6026
" />
<path d="M14.7718 38.6026
L14.8432 38.8169
" />
<path d="M14.8432 38.8169
L14.8432 39.1741
" />
</g><g transform="rotate(-90.000000 26.0424 42.5500)">
<text x="26.0424" y="42.5500"
textLength="5.1714" font-size="2.0000" lengthAdjust="spacingAndGlyphs"
text-anchor="start" opacity="0">GND</text>
</g>
<g class="stroked-text"><desc>GND</desc>
<path d="M24.4147 41.2098
L24.3432 41.3526
" />
<path d="M24.3432 41.3526
L24.3432 41.5669
" />
<path d="M24.3432 41.5669
L24.4147 41.7812
" />
<path d="M24.4147 41.7812
L24.5575 41.9241
" />
<path d="M24.5575 41.9241
L24.7004 41.9955
" />
<path d="M24.7004 41.9955
L24.9861 42.0669
" />
<path d="M24.9861 42.0669
L25.2004 42.0669
" />
<path d="M25.2004 42.0669
L25.4861 41.9955
" />
<path d="M25.4861 41.9955
L25.6289 41.9241
" />
<path d="M25.6289 41.9241
L25.7718 41.7812
" />
<path d="M25.7718 41.7812
L25.8432 41.5669
" />
<path d="M25.8432 41.5669
L25.8432 41.4241
" />
<path d="M25.8432 41.4241
L25.7718 41.2098
" />
<path d="M25.7718 41.2098
L25.7004 41.1383
" />
<path d="M25.7004 41.1383
L25.2004 41.1383
" />
<path d="M25.2004 41.1383
L25.2004 41.4241
" />
<path d="M25.8432 40.4955
L24.3432 40.4955
" />
<path d="M24.3432 40.4955
L25.8432 39.6383
" />
<path d="M25.8432 39.6383
L24.3432 39.6383
" />
<path d="M25.8432 38.9241
L24.3432 38.9241
" />
<path d="M24.3432 38.9241
L24.3432 38.5669
" />
<path d="M24.3432 38.5669
L24.4147 38.3526
" />
<path d="M24.4147 38.3526
L24.5575 38.2098
" />
<path d="M24.5575 38.2098
L24.7004 38.1383
" />
<path d="M24.7004 38.1383
L24.9861 38.0669
" />
<path d="M24.9861 38.0669
L25.2004 38.0669
" />
<path d="M25.2004 38.0669
L25.4861 38.1383
" />
<path d="M25.4861 38.1383
L25.6289 38.2098
" />
<path d="M25.6289 38.2098
L25.7718 38.3526
" />
<path d="M25.7718 38.3526
L25.8432 38.5669
" />
<path d="M25.8432 38.5669
L25.8432 38.9241
" />
</g><g transform="rotate(-90.000000 13.0424 42.3000)">
<text x="13.0424" y="42.3000"
textLength="5.1714" font-size="2.0000" lengthAdjust="spacingAndGlyphs"
text-anchor="start" opacity="0">+5V</text>
</g>
<g class="stroked-text"><desc>+5V</desc>
<path d="M12.2718 41.7455
L12.2718 40.6026
" />
<path d="M12.8432 41.1741
L11.7004 41.1741
" />
<path d="M11.3432 39.1741
L11.3432 39.8883
" />
<path d="M11.3432 39.8883
L12.0575 39.9598
" />
<path d="M12.0575 39.9598
L11.9861 39.8883
" />
<path d="M11.9861 39.8883
L11.9147 39.7455
" />
<path d="M11.9147 39.7455
L11.9147 39.3883
" />
<path d="M11.9147 39.3883
L11.9861 39.2455
" />
<path d="M11.9861 39.2455
L12.0575 39.1741
" />
<path d="M12.0575 39.1741
L12.2004 39.1026
" />
<path d="M12.2004 39.1026
L12.5575 39.1026
" />
<path d="M12.5575 39.1026
L12.7004 39.1741
" />
<path d="M12.7004 39.1741
L12.7718 39.2455
" />
<path d="M12.7718 39.2455
L12.8432 39.3883
" />
<path d="M12.8432 39.3883
L12.8432 39.7455
" />
<path d="M12.8432 39.7455
L12.7718 39.8883
" />
<path d="M12.7718 39.8883
L12.7004 39.9598
" />
<path d="M11.3432 38.6741
L12.8432 38.1741
" />
<path d="M12.8432 38.1741
L11.3432 37.6741
" />
</g><g transform="rotate(-90.000000 4.0424 42.3000)">
<text x="4.0424" y="42.3000"
textLength="5.1714" font-size="2.0000" lengthAdjust="spacingAndGlyphs"
text-anchor="start" opacity="0">+5V</text>
</g>
<g class="stroked-text"><desc>+5V</desc>
<path d="M3.2718 41.7455
L3.2718 40.6026
" />
<path d="M3.8432 41.1741
L2.7004 41.1741
" />
<path d="M2.3432 39.1741
L2.3432 39.8883
" />
<path d="M2.3432 39.8883
L3.0575 39.9598
" />
<path d="M3.0575 39.9598
L2.9861 39.8883
" />
<path d="M2.9861 39.8883
L2.9147 39.7455
" />
<path d="M2.9147 39.7455
L2.9147 39.3883
" />
<path d="M2.9147 39.3883
L2.9861 39.2455
" />
<path d="M2.9861 39.2455
L3.0575 39.1741
" />
<path d="M3.0575 39.1741
L3.2004 39.1026
" />
<path d="M3.2004 39.1026
L3.5575 39.1026
" />
<path d="M3.5575 39.1026
L3.7004 39.1741
" />
<path d="M3.7004 39.1741
L3.7718 39.2455
" />
<path d="M3.7718 39.2455
L3.8432 39.3883
" />
<path d="M3.8432 39.3883
L3.8432 39.7455
" />
<path d="M3.8432 39.7455
L3.7718 39.8883
" />
<path d="M3.7718 39.8883
L3.7004 39.9598
" />
<path d="M2.3432 38.6741
L3.8432 38.1741
" />
<path d="M3.8432 38.1741
L2.3432 37.6741
" />
</g><g transform="rotate(-90.000000 8.0424 42.5500)">
<text x="8.0424" y="42.5500"
textLength="5.1714" font-size="2.0000" lengthAdjust="spacingAndGlyphs"
text-anchor="start" opacity="0">GND</text>
</g>
<g class="stroked-text"><desc>GND</desc>
<path d="M6.4147 41.2098
L6.3432 41.3526
" />
<path d="M6.3432 41.3526
L6.3432 41.5669
" />
<path d="M6.3432 41.5669
L6.4147 41.7812
" />
<path d="M6.4147 41.7812
L6.5575 41.9241
" />
<path d="M6.5575 41.9241
L6.7004 41.9955
" />
<path d="M6.7004 41.9955
L6.9861 42.0669
" />
<path d="M6.9861 42.0669
L7.2004 42.0669
" />
<path d="M7.2004 42.0669
L7.4861 41.9955
" />
<path d="M7.4861 41.9955
L7.6289 41.9241
" />
<path d="M7.6289 41.9241
L7.7718 41.7812
" />
<path d="M7.7718 41.7812
L7.8432 41.5669
" />
<path d="M7.8432 41.5669
L7.8432 41.4241
" />
<path d="M7.8432 41.4241
L7.7718 41.2098
" />
<path d="M7.7718 41.2098
L7.7004 41.1383
" />
<path d="M7.7004 41.1383
L7.2004 41.1383
" />
<path d="M7.2004 41.1383
L7.2004 41.4241
" />
<path d="M7.8432 40.4955
L6.3432 40.4955
" />
<path d="M6.3432 40.4955
L7.8432 39.6383
" />
<path d="M7.8432 39.6383
L6.3432 39.6383
" />
<path d="M7.8432 38.9241
L6.3432 38.9241
" />
<path d="M6.3432 38.9241
L6.3432 38.5669
" />
<path d="M6.3432 38.5669
L6.4147 38.3526
" />
<path d="M6.4147 38.3526
L6.5575 38.2098
" />
<path d="M6.5575 38.2098
L6.7004 38.1383
" />
<path d="M6.7004 38.1383
L6.9861 38.0669
" />
<path d="M6.9861 38.0669
L7.2004 38.0669
" />
<path d="M7.2004 38.0669
L7.4861 38.1383
" />
<path d="M7.4861 38.1383
L7.6289 38.2098
" />
<path d="M7.6289 38.2098
L7.7718 38.3526
" />
<path d="M7.7718 38.3526
L7.8432 38.5669
" />
<path d="M7.8432 38.5669
L7.8432 38.9241
" />
</g><g transform="rotate(-90.000000 24.0424 42.3000)">
<text x="24.0424" y="42.3000"
textLength="4.6714" font-size="2.0000" lengthAdjust="spacingAndGlyphs"
text-anchor="start" opacity="0">LED</text>
</g>
<g class="stroked-text"><desc>LED</desc>
<path d="M23.8432 41.0312
L23.8432 41.7455
" />
<path d="M23.8432 41.7455
L22.3432 41.7455
" />
<path d="M23.0575 40.5312
L23.0575 40.0312
" />
<path d="M23.8432 39.8169
L23.8432 40.5312
" />
<path d="M23.8432 40.5312
L22.3432 40.5312
" />
<path d="M22.3432 40.5312
L22.3432 39.8169
" />
<path d="M23.8432 39.1741
L22.3432 39.1741
" />
<path d="M22.3432 39.1741
L22.3432 38.8169
" />
<path d="M22.3432 38.8169
L22.4147 38.6026
" />
<path d="M22.4147 38.6026
L22.5575 38.4598
" />
<path d="M22.5575 38.4598
L22.7004 38.3883
" />
<path d="M22.7004 38.3883
L22.9861 38.3169
" />
<path d="M22.9861 38.3169
L23.2004 38.3169
" />
<path d="M23.2004 38.3169
L23.4861 38.3883
" />
<path d="M23.4861 38.3883
L23.6289 38.4598
" />
<path d="M23.6289 38.4598
L23.7718 38.6026
" />
<path d="M23.7718 38.6026
L23.8432 38.8169
" />
<path d="M23.8432 38.8169
L23.8432 39.1741
" />
</g><text x="4.5424" y="53.5500"
textLength="7.5286" font-size="2.0000" lengthAdjust="spacingAndGlyphs"
text-anchor="start" opacity="0">BATT+</text>
<g class="stroked-text"><desc>BATT+</desc>
<path d="M5.5969 52.5651
L5.8112 52.6365
" />
<path d="M5.8112 52.6365
L5.8826 52.7080
" />
<path d="M5.8826 52.7080
L5.9541 52.8508
" />
<path d="M5.9541 52.8508
L5.9541 53.0651
" />
<path d="M5.9541 53.0651
L5.8826 53.2080
" />
<path d="M5.8826 53.2080
L5.8112 53.2794
" />
<path d="M5.8112 53.2794
L5.6683 53.3508
" />
<path d="M5.6683 53.3508
L5.0969 53.3508
" />
<path d="M5.0969 53.3508
L5.0969 51.8508
" />
<path d="M5.0969 51.8508
L5.5969 51.8508
" />
<path d="M5.5969 51.8508
L5.7398 51.9223
" />
<path d="M5.7398 51.9223
L5.8112 51.9937
" />
<path d="M5.8112 51.9937
L5.8826 52.1365
" />
<path d="M5.8826 52.1365
L5.8826 52.2794
" />
<path d="M5.8826 52.2794
L5.8112 52.4223
" />
<path d="M5.8112 52.4223
L5.7398 52.4937
" />
<path d="M5.7398 52.4937
L5.5969 52.5651
" />
<path d="M5.5969 52.5651
L5.0969 52.5651
" />
<path d="M6.5255 52.9223
L7.2398 52.9223
" />
<path d="M6.3826 53.3508
L6.8826 51.8508
" />
<path d="M6.8826 51.8508
L7.3826 53.3508
" />
<path d="M7.6683 51.8508
L8.5255 51.8508
" />
<path d="M8.0969 53.3508
L8.0969 51.8508
" />
<path d="M8.8112 51.8508
L9.6683 51.8508
" />
<path d="M9.2398 53.3508
L9.2398 51.8508
" />
<path d="M10.1683 52.7794
L11.3112 52.7794
" />
<path d="M10.7398 53.3508
L10.7398 52.2080
" />
</g><text x="5.0424" y="122.5500"
textLength="7.5286" font-size="2.0000" lengthAdjust="spacingAndGlyphs"
text-anchor="start" opacity="0">BATT-</text>
<g class="stroked-text"><desc>BATT-</desc>
<path d="M6.0969 121.5651
L6.3112 121.6365
" />
<path d="M6.3112 121.6365
L6.3826 121.7080
" />
<path d="M6.3826 121.7080
L6.4541 121.8508
" />
<path d="M6.4541 121.8508
L6.4541 122.0651
" />
<path d="M6.4541 122.0651
L6.3826 122.2080
" />
<path d="M6.3826 122.2080
L6.3112 122.2794
" />
<path d="M6.3112 122.2794
L6.1683 122.3508
" />
<path d="M6.1683 122.3508
L5.5969 122.3508
" />
<path d="M5.5969 122.3508
L5.5969 120.8508
" />
<path d="M5.5969 120.8508
L6.0969 120.8508
" />
<path d="M6.0969 120.8508
L6.2398 120.9223
" />
<path d="M6.2398 120.9223
L6.3112 120.9937
" />
<path d="M6.3112 120.9937
L6.3826 121.1365
" />
<path d="M6.3826 121.1365
L6.3826 121.2794
" />
<path d="M6.3826 121.2794
L6.3112 121.4223
" />
<path d="M6.3112 121.4223
L6.2398 121.4937
" />
<path d="M6.2398 121.4937
L6.0969 121.5651
" />
<path d="M6.0969 121.5651
L5.5969 121.5651
" />
<path d="M7.0255 121.9223
L7.7398 121.9223
" />
<path d="M6.8826 122.3508
L7.3826 120.8508
" />
<path d="M7.3826 120.8508
L7.8826 122.3508
" />
<path d="M8.1683 120.8508
L9.0255 120.8508
" />
<path d="M8.5969 122.3508
L8.5969 120.8508
" />
<path d="M9.3112 120.8508
L10.1683 120.8508
" />
<path d="M9.7398 122.3508
L9.7398 120.8508
" />
<path d="M10.6683 121.7794
L11.8112 121.7794
" />
</g><g >
</g>
<g >
</g>
<g >
</g>
<g >
</g>
<g >
</g>
<g >
</g>
<g >
</g>
<g >
</g>
<g >
</g>
<g >
</g>
<g >
</g>
<g >
</g>
<g >
</g>
<g >
</g>
<g >
</g>
<g >
</g>
<g >
</g>
<g >
</g>
<g >
</g>
<g >
</g>
<g >
</g>
<g >
</g>
<g >
</g>
<g >
</g>
<g >
</g>
<g >
</g>
<g >
</g>
<g >
</g>
<g >
</g>
<g >
</g>
<g >
</g>
<g >
</g>
<g >
</g>
<g >
</g>
<g >
</g>
<g >
</g>
<g >
</g>
<g >
</g>
<g >
</g>
<g >
</g>
<g >
</g>
<g >
</g>
<g >
</g>
<g >
</g>
<g >
</g>
<g >
</g>
<g >
</g>
<g >
</g>
<g >
</g>
</g>
<g style="fill:#000000; fill-opacity:0.0; 
stroke:#000000; stroke-width:0.3000; stroke-opacity:1; 
stroke-linecap:round; stroke-linejoin:round;">
<g >
</g>
<g >
</g>
<g >
</g>
<g >
</g>
<g >
</g>
<g >
</g>
<g >
</g>
<g >
</g>
<g >
</g>
<g >
</g>
<g >
</g>
<g >
</g>
<g >
</g>
<g >
</g>
<g >
</g>
<g >
</g>
<g style="fill:#02FFEE; fill-opacity:0.0; 
stroke:#02FFEE; stroke-width:0.3000; stroke-opacity:1; 
stroke-linecap:round; stroke-linejoin:round;">
</g>
<g style="fill:#02FFEE; fill-opacity:0.0; 
stroke:#02FFEE; stroke-width:0.0000; stroke-opacity:1; 
stroke-linecap:round; stroke-linejoin:round;">
</g>
<g style="fill:#02FFEE; fill-opacity:0.4000; 
stroke:#02FFEE; stroke-width:0.0000; stroke-opacity:1; 
stroke-linecap:round; stroke-linejoin:round;">
<path style="fill:#02FFEE; fill-opacity:0.4000; 
stroke:#02FFEE; stroke-width:0.0000; stroke-opacity:1; 
stroke-linecap:round; stroke-linejoin:round;fill-rule:evenodd;"
d="M 25.6424,44.1250
25.6234,44.0293
25.5692,43.9482
25.4881,43.8940
25.3924,43.8750
24.6924,43.8750
24.5967,43.8940
24.5156,43.9482
24.4614,44.0293
24.4424,44.1250
24.4424,45.3750
24.4614,45.4707
24.5156,45.5518
24.5967,45.6060
24.6924,45.6250
25.3924,45.6250
25.4881,45.6060
25.5692,45.5518
25.6234,45.4707
25.6424,45.3750
Z" /> 
</g>
<g style="fill:#02FFEE; fill-opacity:0.4000; 
stroke:#02FFEE; stroke-width:1.2000; stroke-opacity:1; 
stroke-linecap:round; stroke-linejoin:round;">
</g>
<g style="fill:#02FFEE; fill-opacity:0.0; 
stroke:#02FFEE; stroke-width:1.2000; stroke-opacity:1; 
stroke-linecap:round; stroke-linejoin:round;">
<path d="M23.0424 44.4750
L23.0424 45.0250
" />
<path d="M21.0424 44.4750
L21.0424 45.0250
" />
</g>
<g >
</g>
<g >
</g>
<g >
</g>
<g >
</g>
<g >
</g>
<g >
</g>
<g >
</g>
<g >
</g>
<g >
</g>
<g style="fill:#02FFEE; fill-opacity:0.0; 
stroke:#02FFEE; stroke-width:1.2000; stroke-opacity:1; 
stroke-linecap:round; stroke-linejoin:round;">
</g>
<g style="fill:#02FFEE; fill-opacity:0.4000; 
stroke:#02FFEE; stroke-width:0.0000; stroke-opacity:1; 
stroke-linecap:round; stroke-linejoin:round;">
<circle cx="24.5424" cy="3.5500" r="3.2000" /> 
</g>
<g style="fill:#02FFEE; fill-opacity:0.4000; 
stroke:#02FFEE; stroke-width:0.0212; stroke-opacity:1; 
stroke-linecap:round; stroke-linejoin:round;">
</g>
<g >
</g>
<g >
</g>
<g >
</g>
<g >
</g>
<g >
</g>
<g >
</g>
<g >
</g>
<g style="fill:#02FFEE; fill-opacity:0.4000; 
stroke:#02FFEE; stroke-width:0.0212; stroke-opacity:1; 
stroke-linecap:round; stroke-linejoin:round;">
</g>
<g style="fill:#02FFEE; fill-opacity:0.4000; 
stroke:#02FFEE; stroke-width:0.0000; stroke-opacity:1; 
stroke-linecap:round; stroke-linejoin:round;">
<path style="fill:#02FFEE; fill-opacity:0.4000; 
stroke:#02FFEE; stroke-width:0.0000; stroke-opacity:1; 
stroke-linecap:round; stroke-linejoin:round;fill-rule:evenodd;"
d="M 16.6424,44.1250
16.6234,44.0293
16.5692,43.9482
16.4881,43.8940
16.3924,43.8750
15.6924,43.8750
15.5967,43.8940
15.5156,43.9482
15.4614,44.0293
15.4424,44.1250
15.4424,45.3750
15.4614,45.4707
15.5156,45.5518
15.5967,45.6060
15.6924,45.6250
16.3924,45.6250
16.4881,45.6060
16.5692,45.5518
16.6234,45.4707
16.6424,45.3750
Z" /> 
</g>
<g style="fill:#02FFEE; fill-opacity:0.4000; 
stroke:#02FFEE; stroke-width:1.2000; stroke-opacity:1; 
stroke-linecap:round; stroke-linejoin:round;">
</g>
<g style="fill:#02FFEE; fill-opacity:0.0; 
stroke:#02FFEE; stroke-width:1.2000; stroke-opacity:1; 
stroke-linecap:round; stroke-linejoin:round;">
<path d="M14.0424 44.4750
L14.0424 45.0250
" />
<path d="M12.0424 44.4750
L12.0424 45.0250
" />
</g>
<g >
</g>
<g style="fill:#02FFEE; fill-opacity:0.0; 
stroke:#02FFEE; stroke-width:1.2000; stroke-opacity:1; 
stroke-linecap:round; stroke-linejoin:round;">
</g>
<g style="fill:#02FFEE; fill-opacity:0.4000; 
stroke:#02FFEE; stroke-width:0.0000; stroke-opacity:1; 
stroke-linecap:round; stroke-linejoin:round;">
<circle cx="3.5424" cy="126.5500" r="3.2000" /> 
</g>
<g style="fill:#02FFEE; fill-opacity:0.4000; 
stroke:#02FFEE; stroke-width:0.0212; stroke-opacity:1; 
stroke-linecap:round; stroke-linejoin:round;">
</g>
<g >
</g>
<g >
</g>
<g >
</g>
<g >
</g>
<g style="fill:#02FFEE; fill-opacity:0.4000; 
stroke:#02FFEE; stroke-width:0.0212; stroke-opacity:1; 
stroke-linecap:round; stroke-linejoin:round;">
</g>
<g style="fill:#02FFEE; fill-opacity:0.4000; 
stroke:#02FFEE; stroke-width:0.0000; stroke-opacity:1; 
stroke-linecap:round; stroke-linejoin:round;">
<circle cx="24.5424" cy="126.5500" r="3.2000" /> 
</g>
<g style="fill:#02FFEE; fill-opacity:0.4000; 
stroke:#02FFEE; stroke-width:0.0212; stroke-opacity:1; 
stroke-linecap:round; stroke-linejoin:round;">
</g>
<g >
</g>
<g >
</g>
<g style="fill:#02FFEE; fill-opacity:0.4000; 
stroke:#02FFEE; stroke-width:0.0212; stroke-opacity:1; 
stroke-linecap:round; stroke-linejoin:round;">
</g>
<g style="fill:#02FFEE; fill-opacity:0.4000; 
stroke:#02FFEE; stroke-width:0.0000; stroke-opacity:1; 
stroke-linecap:round; stroke-linejoin:round;">
<circle cx="14.0424" cy="126.8000" r="0.3750" /> 
</g>
<g style="fill:#02FFEE; fill-opacity:0.4000; 
stroke:#02FFEE; stroke-width:0.0212; stroke-opacity:1; 
stroke-linecap:round; stroke-linejoin:round;">
</g>
<g style="fill:#02FFEE; fill-opacity:0.4000; 
stroke:#02FFEE; stroke-width:0.0000; stroke-opacity:1; 
stroke-linecap:round; stroke-linejoin:round;">
<circle cx="14.0424" cy="129.5500" r="0.3750" /> 
</g>
<g style="fill:#02FFEE; fill-opacity:0.4000; 
stroke:#02FFEE; stroke-width:0.0212; stroke-opacity:1; 
stroke-linecap:round; stroke-linejoin:round;">
</g>
<g >
</g>
<g >
</g>
<g style="fill:#02FFEE; fill-opacity:0.4000; 
stroke:#02FFEE; stroke-width:0.0212; stroke-opacity:1; 
stroke-linecap:round; stroke-linejoin:round;">
</g>
<g style="fill:#02FFEE; fill-opacity:0.4000; 
stroke:#02FFEE; stroke-width:0.0000; stroke-opacity:1; 
stroke-linecap:round; stroke-linejoin:round;">
<circle cx="3.7924" cy="3.5500" r="3.2000" /> 
</g>
<g style="fill:#02FFEE; fill-opacity:0.4000; 
stroke:#02FFEE; stroke-width:0.0212; stroke-opacity:1; 
stroke-linecap:round; stroke-linejoin:round;">
</g>
<g >
</g>
<g >
</g>
<g style="fill:#02FFEE; fill-opacity:0.4000; 
stroke:#02FFEE; stroke-width:0.0212; stroke-opacity:1; 
stroke-linecap:round; stroke-linejoin:round;">
</g>
<g style="fill:#02FFEE; fill-opacity:0.4000; 
stroke:#02FFEE; stroke-width:1.0000; stroke-opacity:1; 
stroke-linecap:round; stroke-linejoin:round;">
</g>
<g style="fill:#02FFEE; fill-opacity:0.0; 
stroke:#02FFEE; stroke-width:1.0000; stroke-opacity:1; 
stroke-linecap:round; stroke-linejoin:round;">
<path d="M18.3624 1.8000
L18.3624 1.2000
" />
<path d="M18.3624 6.2300
L18.3624 5.1300
" />
<path d="M9.7224 1.8000
L9.7224 1.2000
" />
<path d="M9.7224 6.2300
L9.7224 5.1300
" />
</g>
<g style="fill:#02FFEE; fill-opacity:0.4000; 
stroke:#02FFEE; stroke-width:0.0000; stroke-opacity:1; 
stroke-linecap:round; stroke-linejoin:round;">
<circle cx="16.9324" cy="5.1500" r="0.3250" /> 
</g>
<g style="fill:#02FFEE; fill-opacity:0.4000; 
stroke:#02FFEE; stroke-width:0.0212; stroke-opacity:1; 
stroke-linecap:round; stroke-linejoin:round;">
</g>
<g style="fill:#02FFEE; fill-opacity:0.4000; 
stroke:#02FFEE; stroke-width:0.0000; stroke-opacity:1; 
stroke-linecap:round; stroke-linejoin:round;">
<circle cx="11.1524" cy="5.1500" r="0.3250" /> 
</g>
<g style="fill:#02FFEE; fill-opacity:0.4000; 
stroke:#02FFEE; stroke-width:0.0212; stroke-opacity:1; 
stroke-linecap:round; stroke-linejoin:round;">
</g>
<g >
</g>
<g >
</g>
<g >
</g>
<g style="fill:#02FFEE; fill-opacity:0.4000; 
stroke:#02FFEE; stroke-width:0.0212; stroke-opacity:1; 
stroke-linecap:round; stroke-linejoin:round;">
</g>
<g style="fill:#02FFEE; fill-opacity:0.4000; 
stroke:#02FFEE; stroke-width:0.0000; stroke-opacity:1; 
stroke-linecap:round; stroke-linejoin:round;">
<path style="fill:#02FFEE; fill-opacity:0.4000; 
stroke:#02FFEE; stroke-width:0.0000; stroke-opacity:1; 
stroke-linecap:round; stroke-linejoin:round;fill-rule:evenodd;"
d="M 7.6424,44.1250
7.6234,44.0293
7.5692,43.9482
7.4881,43.8940
7.3924,43.8750
6.6924,43.8750
6.5967,43.8940
6.5156,43.9482
6.4614,44.0293
6.4424,44.1250
6.4424,45.3750
6.4614,45.4707
6.5156,45.5518
6.5967,45.6060
6.6924,45.6250
7.3924,45.6250
7.4881,45.6060
7.5692,45.5518
7.6234,45.4707
7.6424,45.3750
Z" /> 
</g>
<g style="fill:#02FFEE; fill-opacity:0.4000; 
stroke:#02FFEE; stroke-width:1.2000; stroke-opacity:1; 
stroke-linecap:round; stroke-linejoin:round;">
</g>
<g style="fill:#02FFEE; fill-opacity:0.0; 
stroke:#02FFEE; stroke-width:1.2000; stroke-opacity:1; 
stroke-linecap:round; stroke-linejoin:round;">
<path d="M5.0424 44.4750
L5.0424 45.0250
" />
<path d="M3.0424 44.4750
L3.0424 45.0250
" />
</g>
<g >
</g>
<g >
</g>
<g >
</g>
</g>
<g style="fill:#000000; fill-opacity:0.0; 
stroke:#000000; stroke-width:1.2000; stroke-opacity:1; 
stroke-linecap:round; stroke-linejoin:round;">
</g>
<g style="fill:#D0D2CD; fill-opacity:0.0; 
stroke:#D0D2CD; stroke-width:1.2000; stroke-opacity:1; 
stroke-linecap:round; stroke-linejoin:round;">
</g>
<g style="fill:#D0D2CD; fill-opacity:0.0; 
stroke:#D0D2CD; stroke-width:0.1000; stroke-opacity:1; 
stroke-linecap:round; stroke-linejoin:round;">
<path style="fill:#D0D2CD; fill-opacity:0.0; 
stroke:#D0D2CD; stroke-width:0.1000; stroke-opacity:1; 
stroke-linecap:round; stroke-linejoin:round;fill:none"
d="M 23.5424,54.0500
4.5424,54.0500
4.5424,120.0500
23.5424,120.0500
Z" /> 
<path style="fill:#D0D2CD; fill-opacity:0.0; 
stroke:#D0D2CD; stroke-width:0.1000; stroke-opacity:1; 
stroke-linecap:round; stroke-linejoin:round;fill:none"
d="M 28.0424,0.0500
0.0424,0.0500
0.0424,130.0500
28.0424,130.0500
Z" /> 
<g >
</g>
<g >
</g>
<g >
</g>
<g >
</g>
<g >
</g>
<g >
</g>
<g >
</g>
<g >
</g>
<g >
</g>
<g >
</g>
<g >
</g>
<g >
</g>
<g >
</g>
<g >
</g>
<g >
</g>
<g >
</g>
<g >
</g>
<g >
</g>
<g >
</g>
<g >
</g>
<g >
</g>
<g >
</g>
<g >
</g>
<g >
</g>
<g >
</g>
<g >
</g>
<g >
</g>
<g >
</g>
<g >
</g>
<g >
</g>
<g >
</g>
<g >
</g>
<g >
</g>
<g >
</g>
<g >
</g>
<g >
</g>
<g >
</g>
<g >
</g>
<g >
</g>
<g >
</g>
<g >
</g>
<g >
</g>
<g >
</g>
<g >
</g>
<g >
</g>
<g >
</g>
<g >
</g>
<g >
</g>
<g >
</g>
</g> 
</svg>
