<?xml version="1.0" standalone="no"?>
 <!DOCTYPE svg PUBLIC "-//W3C//DTD SVG 1.1//EN" 
 "http://www.w3.org/Graphics/SVG/1.1/DTD/svg11.dtd"> 
<svg
  xmlns:svg="http://www.w3.org/2000/svg"
  xmlns="http://www.w3.org/2000/svg"
  xmlns:xlink="http://www.w3.org/1999/xlink"
  version="1.1"
  width="297.0022mm" height="210.0072mm" viewBox="0.0000 0.0000 297.0022 210.0072">
<title>SVG Image created as kicad-B_Silkscreen.svg date 2025/03/22 12:33:52 </title>
  <desc>Image generated by PCBNEW </desc>
<g style="fill:#000000; fill-opacity:1.0000;stroke:#000000; stroke-opacity:1.0000;
stroke-linecap:round; stroke-linejoin:round;"
 transform="translate(0 0) scale(1 1)">
</g>
<g style="fill:#000000; fill-opacity:0.0; 
stroke:#000000; stroke-width:0.0000; stroke-opacity:1; 
stroke-linecap:round; stroke-linejoin:round;">
</g>
<g style="fill:#000000; fill-opacity:0.0; 
stroke:#000000; stroke-width:0.0212; stroke-opacity:1; 
stroke-linecap:round; stroke-linejoin:round;">
</g>
<g style="fill:#000000; fill-opacity:0.0; 
stroke:#000000; stroke-width:0.1500; stroke-opacity:1; 
stroke-linecap:round; stroke-linejoin:round;">
<path d="M177.0022 166.0072
L285.0022 166.0072
L285.0022 198.0072
L177.0022 198.0072
L177.0022 166.0072
" />
</g>
<g style="fill:#000000; fill-opacity:0.0; 
stroke:#000000; stroke-width:0.0212; stroke-opacity:1; 
stroke-linecap:round; stroke-linejoin:round;">
</g>
<g style="fill:#000000; fill-opacity:0.0; 
stroke:#000000; stroke-width:0.1500; stroke-opacity:1; 
stroke-linecap:round; stroke-linejoin:round;">
<path d="M10.0000 10.0000
L287.0022 10.0000
L287.0022 200.0072
L10.0000 200.0072
L10.0000 10.0000
" />
</g>
<g style="fill:#000000; fill-opacity:0.0; 
stroke:#000000; stroke-width:0.0212; stroke-opacity:1; 
stroke-linecap:round; stroke-linejoin:round;">
</g>
<g style="fill:#000000; fill-opacity:0.0; 
stroke:#000000; stroke-width:0.1500; stroke-opacity:1; 
stroke-linecap:round; stroke-linejoin:round;">
<path d="M12.0000 12.0000
L285.0022 12.0000
L285.0022 198.0072
L12.0000 198.0072
L12.0000 12.0000
" />
</g>
<g style="fill:#000000; fill-opacity:0.0; 
stroke:#000000; stroke-width:0.0212; stroke-opacity:1; 
stroke-linecap:round; stroke-linejoin:round;">
</g>
<g style="fill:#000000; fill-opacity:0.0; 
stroke:#000000; stroke-width:0.1500; stroke-opacity:1; 
stroke-linecap:round; stroke-linejoin:round;">
<path d="M60.0000 12.0000
L60.0000 10.0000
" />
</g>
<g style="fill:#000000; fill-opacity:0.0; 
stroke:#000000; stroke-width:0.0212; stroke-opacity:1; 
stroke-linecap:round; stroke-linejoin:round;">
</g>
<g style="fill:#000000; fill-opacity:0.0; 
stroke:#000000; stroke-width:0.1500; stroke-opacity:1; 
stroke-linecap:round; stroke-linejoin:round;">
<path d="M110.0000 12.0000
L110.0000 10.0000
" />
</g>
<g style="fill:#000000; fill-opacity:0.0; 
stroke:#000000; stroke-width:0.0212; stroke-opacity:1; 
stroke-linecap:round; stroke-linejoin:round;">
</g>
<g style="fill:#000000; fill-opacity:0.0; 
stroke:#000000; stroke-width:0.1500; stroke-opacity:1; 
stroke-linecap:round; stroke-linejoin:round;">
<path d="M160.0000 12.0000
L160.0000 10.0000
" />
</g>
<g style="fill:#000000; fill-opacity:0.0; 
stroke:#000000; stroke-width:0.0212; stroke-opacity:1; 
stroke-linecap:round; stroke-linejoin:round;">
</g>
<g style="fill:#000000; fill-opacity:0.0; 
stroke:#000000; stroke-width:0.1500; stroke-opacity:1; 
stroke-linecap:round; stroke-linejoin:round;">
<path d="M210.0000 12.0000
L210.0000 10.0000
" />
</g>
<g style="fill:#000000; fill-opacity:0.0; 
stroke:#000000; stroke-width:0.0212; stroke-opacity:1; 
stroke-linecap:round; stroke-linejoin:round;">
</g>
<g style="fill:#000000; fill-opacity:0.0; 
stroke:#000000; stroke-width:0.1500; stroke-opacity:1; 
stroke-linecap:round; stroke-linejoin:round;">
<path d="M260.0000 12.0000
L260.0000 10.0000
" />
</g>
<g style="fill:#000000; fill-opacity:0.0; 
stroke:#000000; stroke-width:0.0212; stroke-opacity:1; 
stroke-linecap:round; stroke-linejoin:round;">
</g>
<g style="fill:#000000; fill-opacity:0.0; 
stroke:#000000; stroke-width:0.1500; stroke-opacity:1; 
stroke-linecap:round; stroke-linejoin:round;">
<text x="35.0000" y="11.6500"
textLength="1.4281" font-size="1.7333" lengthAdjust="spacingAndGlyphs"
text-anchor="start" opacity="0">1</text>
<g class="stroked-text"><desc>1</desc>
<path d="M36.0892 11.5936
L35.3463 11.5936
" />
<path d="M35.7177 11.5936
L35.7177 10.2936
" />
<path d="M35.7177 10.2936
L35.5939 10.4793
" />
<path d="M35.5939 10.4793
L35.4701 10.6031
" />
<path d="M35.4701 10.6031
L35.3463 10.6650
" />
</g></g>
<g style="fill:#000000; fill-opacity:0.0; 
stroke:#000000; stroke-width:0.0212; stroke-opacity:1; 
stroke-linecap:round; stroke-linejoin:round;">
</g>
<g style="fill:#000000; fill-opacity:0.0; 
stroke:#000000; stroke-width:0.1500; stroke-opacity:1; 
stroke-linecap:round; stroke-linejoin:round;">
<text x="85.0000" y="11.6500"
textLength="1.4281" font-size="1.7333" lengthAdjust="spacingAndGlyphs"
text-anchor="start" opacity="0">2</text>
<g class="stroked-text"><desc>2</desc>
<path d="M85.3463 10.4174
L85.4082 10.3555
" />
<path d="M85.4082 10.3555
L85.5320 10.2936
" />
<path d="M85.5320 10.2936
L85.8415 10.2936
" />
<path d="M85.8415 10.2936
L85.9654 10.3555
" />
<path d="M85.9654 10.3555
L86.0273 10.4174
" />
<path d="M86.0273 10.4174
L86.0892 10.5412
" />
<path d="M86.0892 10.5412
L86.0892 10.6650
" />
<path d="M86.0892 10.6650
L86.0273 10.8507
" />
<path d="M86.0273 10.8507
L85.2844 11.5936
" />
<path d="M85.2844 11.5936
L86.0892 11.5936
" />
</g></g>
<g style="fill:#000000; fill-opacity:0.0; 
stroke:#000000; stroke-width:0.0212; stroke-opacity:1; 
stroke-linecap:round; stroke-linejoin:round;">
</g>
<g style="fill:#000000; fill-opacity:0.0; 
stroke:#000000; stroke-width:0.1500; stroke-opacity:1; 
stroke-linecap:round; stroke-linejoin:round;">
<text x="135.0000" y="11.6500"
textLength="1.4281" font-size="1.7333" lengthAdjust="spacingAndGlyphs"
text-anchor="start" opacity="0">3</text>
<g class="stroked-text"><desc>3</desc>
<path d="M135.2844 10.2936
L136.0892 10.2936
" />
<path d="M136.0892 10.2936
L135.6558 10.7888
" />
<path d="M135.6558 10.7888
L135.8415 10.7888
" />
<path d="M135.8415 10.7888
L135.9654 10.8507
" />
<path d="M135.9654 10.8507
L136.0273 10.9127
" />
<path d="M136.0273 10.9127
L136.0892 11.0365
" />
<path d="M136.0892 11.0365
L136.0892 11.3460
" />
<path d="M136.0892 11.3460
L136.0273 11.4698
" />
<path d="M136.0273 11.4698
L135.9654 11.5317
" />
<path d="M135.9654 11.5317
L135.8415 11.5936
" />
<path d="M135.8415 11.5936
L135.4701 11.5936
" />
<path d="M135.4701 11.5936
L135.3463 11.5317
" />
<path d="M135.3463 11.5317
L135.2844 11.4698
" />
</g></g>
<g style="fill:#000000; fill-opacity:0.0; 
stroke:#000000; stroke-width:0.0212; stroke-opacity:1; 
stroke-linecap:round; stroke-linejoin:round;">
</g>
<g style="fill:#000000; fill-opacity:0.0; 
stroke:#000000; stroke-width:0.1500; stroke-opacity:1; 
stroke-linecap:round; stroke-linejoin:round;">
<text x="185.0000" y="11.6500"
textLength="1.4281" font-size="1.7333" lengthAdjust="spacingAndGlyphs"
text-anchor="start" opacity="0">4</text>
<g class="stroked-text"><desc>4</desc>
<path d="M185.9654 10.7269
L185.9654 11.5936
" />
<path d="M185.6558 10.2317
L185.3463 11.1603
" />
<path d="M185.3463 11.1603
L186.1511 11.1603
" />
</g></g>
<g style="fill:#000000; fill-opacity:0.0; 
stroke:#000000; stroke-width:0.0212; stroke-opacity:1; 
stroke-linecap:round; stroke-linejoin:round;">
</g>
<g style="fill:#000000; fill-opacity:0.0; 
stroke:#000000; stroke-width:0.1500; stroke-opacity:1; 
stroke-linecap:round; stroke-linejoin:round;">
<text x="235.0000" y="11.6500"
textLength="1.4281" font-size="1.7333" lengthAdjust="spacingAndGlyphs"
text-anchor="start" opacity="0">5</text>
<g class="stroked-text"><desc>5</desc>
<path d="M236.0273 10.2936
L235.4082 10.2936
" />
<path d="M235.4082 10.2936
L235.3463 10.9127
" />
<path d="M235.3463 10.9127
L235.4082 10.8507
" />
<path d="M235.4082 10.8507
L235.5320 10.7888
" />
<path d="M235.5320 10.7888
L235.8415 10.7888
" />
<path d="M235.8415 10.7888
L235.9654 10.8507
" />
<path d="M235.9654 10.8507
L236.0273 10.9127
" />
<path d="M236.0273 10.9127
L236.0892 11.0365
" />
<path d="M236.0892 11.0365
L236.0892 11.3460
" />
<path d="M236.0892 11.3460
L236.0273 11.4698
" />
<path d="M236.0273 11.4698
L235.9654 11.5317
" />
<path d="M235.9654 11.5317
L235.8415 11.5936
" />
<path d="M235.8415 11.5936
L235.5320 11.5936
" />
<path d="M235.5320 11.5936
L235.4082 11.5317
" />
<path d="M235.4082 11.5317
L235.3463 11.4698
" />
</g></g>
<g style="fill:#000000; fill-opacity:0.0; 
stroke:#000000; stroke-width:0.0212; stroke-opacity:1; 
stroke-linecap:round; stroke-linejoin:round;">
</g>
<g style="fill:#000000; fill-opacity:0.0; 
stroke:#000000; stroke-width:0.1500; stroke-opacity:1; 
stroke-linecap:round; stroke-linejoin:round;">
<text x="285.0000" y="11.6500"
textLength="1.4281" font-size="1.7333" lengthAdjust="spacingAndGlyphs"
text-anchor="start" opacity="0">6</text>
<g class="stroked-text"><desc>6</desc>
<path d="M285.9654 10.2936
L285.7177 10.2936
" />
<path d="M285.7177 10.2936
L285.5939 10.3555
" />
<path d="M285.5939 10.3555
L285.5320 10.4174
" />
<path d="M285.5320 10.4174
L285.4082 10.6031
" />
<path d="M285.4082 10.6031
L285.3463 10.8507
" />
<path d="M285.3463 10.8507
L285.3463 11.3460
" />
<path d="M285.3463 11.3460
L285.4082 11.4698
" />
<path d="M285.4082 11.4698
L285.4701 11.5317
" />
<path d="M285.4701 11.5317
L285.5939 11.5936
" />
<path d="M285.5939 11.5936
L285.8415 11.5936
" />
<path d="M285.8415 11.5936
L285.9654 11.5317
" />
<path d="M285.9654 11.5317
L286.0273 11.4698
" />
<path d="M286.0273 11.4698
L286.0892 11.3460
" />
<path d="M286.0892 11.3460
L286.0892 11.0365
" />
<path d="M286.0892 11.0365
L286.0273 10.9127
" />
<path d="M286.0273 10.9127
L285.9654 10.8507
" />
<path d="M285.9654 10.8507
L285.8415 10.7888
" />
<path d="M285.8415 10.7888
L285.5939 10.7888
" />
<path d="M285.5939 10.7888
L285.4701 10.8507
" />
<path d="M285.4701 10.8507
L285.4082 10.9127
" />
<path d="M285.4082 10.9127
L285.3463 11.0365
" />
</g></g>
<g style="fill:#000000; fill-opacity:0.0; 
stroke:#000000; stroke-width:0.0212; stroke-opacity:1; 
stroke-linecap:round; stroke-linejoin:round;">
</g>
<g style="fill:#000000; fill-opacity:0.0; 
stroke:#000000; stroke-width:0.1500; stroke-opacity:1; 
stroke-linecap:round; stroke-linejoin:round;">
<path d="M60.0000 198.0072
L60.0000 200.0072
" />
</g>
<g style="fill:#000000; fill-opacity:0.0; 
stroke:#000000; stroke-width:0.0212; stroke-opacity:1; 
stroke-linecap:round; stroke-linejoin:round;">
</g>
<g style="fill:#000000; fill-opacity:0.0; 
stroke:#000000; stroke-width:0.1500; stroke-opacity:1; 
stroke-linecap:round; stroke-linejoin:round;">
<path d="M110.0000 198.0072
L110.0000 200.0072
" />
</g>
<g style="fill:#000000; fill-opacity:0.0; 
stroke:#000000; stroke-width:0.0212; stroke-opacity:1; 
stroke-linecap:round; stroke-linejoin:round;">
</g>
<g style="fill:#000000; fill-opacity:0.0; 
stroke:#000000; stroke-width:0.1500; stroke-opacity:1; 
stroke-linecap:round; stroke-linejoin:round;">
<path d="M160.0000 198.0072
L160.0000 200.0072
" />
</g>
<g style="fill:#000000; fill-opacity:0.0; 
stroke:#000000; stroke-width:0.0212; stroke-opacity:1; 
stroke-linecap:round; stroke-linejoin:round;">
</g>
<g style="fill:#000000; fill-opacity:0.0; 
stroke:#000000; stroke-width:0.1500; stroke-opacity:1; 
stroke-linecap:round; stroke-linejoin:round;">
<path d="M210.0000 198.0072
L210.0000 200.0072
" />
</g>
<g style="fill:#000000; fill-opacity:0.0; 
stroke:#000000; stroke-width:0.0212; stroke-opacity:1; 
stroke-linecap:round; stroke-linejoin:round;">
</g>
<g style="fill:#000000; fill-opacity:0.0; 
stroke:#000000; stroke-width:0.1500; stroke-opacity:1; 
stroke-linecap:round; stroke-linejoin:round;">
<path d="M260.0000 198.0072
L260.0000 200.0072
" />
</g>
<g style="fill:#000000; fill-opacity:0.0; 
stroke:#000000; stroke-width:0.0212; stroke-opacity:1; 
stroke-linecap:round; stroke-linejoin:round;">
</g>
<g style="fill:#000000; fill-opacity:0.0; 
stroke:#000000; stroke-width:0.1500; stroke-opacity:1; 
stroke-linecap:round; stroke-linejoin:round;">
<text x="35.0000" y="199.6572"
textLength="1.4281" font-size="1.7333" lengthAdjust="spacingAndGlyphs"
text-anchor="start" opacity="0">1</text>
<g class="stroked-text"><desc>1</desc>
<path d="M36.0892 199.6008
L35.3463 199.6008
" />
<path d="M35.7177 199.6008
L35.7177 198.3008
" />
<path d="M35.7177 198.3008
L35.5939 198.4865
" />
<path d="M35.5939 198.4865
L35.4701 198.6103
" />
<path d="M35.4701 198.6103
L35.3463 198.6722
" />
</g></g>
<g style="fill:#000000; fill-opacity:0.0; 
stroke:#000000; stroke-width:0.0212; stroke-opacity:1; 
stroke-linecap:round; stroke-linejoin:round;">
</g>
<g style="fill:#000000; fill-opacity:0.0; 
stroke:#000000; stroke-width:0.1500; stroke-opacity:1; 
stroke-linecap:round; stroke-linejoin:round;">
<text x="85.0000" y="199.6572"
textLength="1.4281" font-size="1.7333" lengthAdjust="spacingAndGlyphs"
text-anchor="start" opacity="0">2</text>
<g class="stroked-text"><desc>2</desc>
<path d="M85.3463 198.4246
L85.4082 198.3627
" />
<path d="M85.4082 198.3627
L85.5320 198.3008
" />
<path d="M85.5320 198.3008
L85.8415 198.3008
" />
<path d="M85.8415 198.3008
L85.9654 198.3627
" />
<path d="M85.9654 198.3627
L86.0273 198.4246
" />
<path d="M86.0273 198.4246
L86.0892 198.5484
" />
<path d="M86.0892 198.5484
L86.0892 198.6722
" />
<path d="M86.0892 198.6722
L86.0273 198.8579
" />
<path d="M86.0273 198.8579
L85.2844 199.6008
" />
<path d="M85.2844 199.6008
L86.0892 199.6008
" />
</g></g>
<g style="fill:#000000; fill-opacity:0.0; 
stroke:#000000; stroke-width:0.0212; stroke-opacity:1; 
stroke-linecap:round; stroke-linejoin:round;">
</g>
<g style="fill:#000000; fill-opacity:0.0; 
stroke:#000000; stroke-width:0.1500; stroke-opacity:1; 
stroke-linecap:round; stroke-linejoin:round;">
<text x="135.0000" y="199.6572"
textLength="1.4281" font-size="1.7333" lengthAdjust="spacingAndGlyphs"
text-anchor="start" opacity="0">3</text>
<g class="stroked-text"><desc>3</desc>
<path d="M135.2844 198.3008
L136.0892 198.3008
" />
<path d="M136.0892 198.3008
L135.6558 198.7960
" />
<path d="M135.6558 198.7960
L135.8415 198.7960
" />
<path d="M135.8415 198.7960
L135.9654 198.8579
" />
<path d="M135.9654 198.8579
L136.0273 198.9199
" />
<path d="M136.0273 198.9199
L136.0892 199.0437
" />
<path d="M136.0892 199.0437
L136.0892 199.3532
" />
<path d="M136.0892 199.3532
L136.0273 199.4770
" />
<path d="M136.0273 199.4770
L135.9654 199.5389
" />
<path d="M135.9654 199.5389
L135.8415 199.6008
" />
<path d="M135.8415 199.6008
L135.4701 199.6008
" />
<path d="M135.4701 199.6008
L135.3463 199.5389
" />
<path d="M135.3463 199.5389
L135.2844 199.4770
" />
</g></g>
<g style="fill:#000000; fill-opacity:0.0; 
stroke:#000000; stroke-width:0.0212; stroke-opacity:1; 
stroke-linecap:round; stroke-linejoin:round;">
</g>
<g style="fill:#000000; fill-opacity:0.0; 
stroke:#000000; stroke-width:0.1500; stroke-opacity:1; 
stroke-linecap:round; stroke-linejoin:round;">
<text x="185.0000" y="199.6572"
textLength="1.4281" font-size="1.7333" lengthAdjust="spacingAndGlyphs"
text-anchor="start" opacity="0">4</text>
<g class="stroked-text"><desc>4</desc>
<path d="M185.9654 198.7341
L185.9654 199.6008
" />
<path d="M185.6558 198.2389
L185.3463 199.1675
" />
<path d="M185.3463 199.1675
L186.1511 199.1675
" />
</g></g>
<g style="fill:#000000; fill-opacity:0.0; 
stroke:#000000; stroke-width:0.0212; stroke-opacity:1; 
stroke-linecap:round; stroke-linejoin:round;">
</g>
<g style="fill:#000000; fill-opacity:0.0; 
stroke:#000000; stroke-width:0.1500; stroke-opacity:1; 
stroke-linecap:round; stroke-linejoin:round;">
<text x="235.0000" y="199.6572"
textLength="1.4281" font-size="1.7333" lengthAdjust="spacingAndGlyphs"
text-anchor="start" opacity="0">5</text>
<g class="stroked-text"><desc>5</desc>
<path d="M236.0273 198.3008
L235.4082 198.3008
" />
<path d="M235.4082 198.3008
L235.3463 198.9199
" />
<path d="M235.3463 198.9199
L235.4082 198.8579
" />
<path d="M235.4082 198.8579
L235.5320 198.7960
" />
<path d="M235.5320 198.7960
L235.8415 198.7960
" />
<path d="M235.8415 198.7960
L235.9654 198.8579
" />
<path d="M235.9654 198.8579
L236.0273 198.9199
" />
<path d="M236.0273 198.9199
L236.0892 199.0437
" />
<path d="M236.0892 199.0437
L236.0892 199.3532
" />
<path d="M236.0892 199.3532
L236.0273 199.4770
" />
<path d="M236.0273 199.4770
L235.9654 199.5389
" />
<path d="M235.9654 199.5389
L235.8415 199.6008
" />
<path d="M235.8415 199.6008
L235.5320 199.6008
" />
<path d="M235.5320 199.6008
L235.4082 199.5389
" />
<path d="M235.4082 199.5389
L235.3463 199.4770
" />
</g></g>
<g style="fill:#000000; fill-opacity:0.0; 
stroke:#000000; stroke-width:0.0212; stroke-opacity:1; 
stroke-linecap:round; stroke-linejoin:round;">
</g>
<g style="fill:#000000; fill-opacity:0.0; 
stroke:#000000; stroke-width:0.1500; stroke-opacity:1; 
stroke-linecap:round; stroke-linejoin:round;">
<text x="285.0000" y="199.6572"
textLength="1.4281" font-size="1.7333" lengthAdjust="spacingAndGlyphs"
text-anchor="start" opacity="0">6</text>
<g class="stroked-text"><desc>6</desc>
<path d="M285.9654 198.3008
L285.7177 198.3008
" />
<path d="M285.7177 198.3008
L285.5939 198.3627
" />
<path d="M285.5939 198.3627
L285.5320 198.4246
" />
<path d="M285.5320 198.4246
L285.4082 198.6103
" />
<path d="M285.4082 198.6103
L285.3463 198.8579
" />
<path d="M285.3463 198.8579
L285.3463 199.3532
" />
<path d="M285.3463 199.3532
L285.4082 199.4770
" />
<path d="M285.4082 199.4770
L285.4701 199.5389
" />
<path d="M285.4701 199.5389
L285.5939 199.6008
" />
<path d="M285.5939 199.6008
L285.8415 199.6008
" />
<path d="M285.8415 199.6008
L285.9654 199.5389
" />
<path d="M285.9654 199.5389
L286.0273 199.4770
" />
<path d="M286.0273 199.4770
L286.0892 199.3532
" />
<path d="M286.0892 199.3532
L286.0892 199.0437
" />
<path d="M286.0892 199.0437
L286.0273 198.9199
" />
<path d="M286.0273 198.9199
L285.9654 198.8579
" />
<path d="M285.9654 198.8579
L285.8415 198.7960
" />
<path d="M285.8415 198.7960
L285.5939 198.7960
" />
<path d="M285.5939 198.7960
L285.4701 198.8579
" />
<path d="M285.4701 198.8579
L285.4082 198.9199
" />
<path d="M285.4082 198.9199
L285.3463 199.0437
" />
</g></g>
<g style="fill:#000000; fill-opacity:0.0; 
stroke:#000000; stroke-width:0.0212; stroke-opacity:1; 
stroke-linecap:round; stroke-linejoin:round;">
</g>
<g style="fill:#000000; fill-opacity:0.0; 
stroke:#000000; stroke-width:0.1500; stroke-opacity:1; 
stroke-linecap:round; stroke-linejoin:round;">
<path d="M10.0000 60.0000
L12.0000 60.0000
" />
</g>
<g style="fill:#000000; fill-opacity:0.0; 
stroke:#000000; stroke-width:0.0212; stroke-opacity:1; 
stroke-linecap:round; stroke-linejoin:round;">
</g>
<g style="fill:#000000; fill-opacity:0.0; 
stroke:#000000; stroke-width:0.1500; stroke-opacity:1; 
stroke-linecap:round; stroke-linejoin:round;">
<path d="M10.0000 110.0000
L12.0000 110.0000
" />
</g>
<g style="fill:#000000; fill-opacity:0.0; 
stroke:#000000; stroke-width:0.0212; stroke-opacity:1; 
stroke-linecap:round; stroke-linejoin:round;">
</g>
<g style="fill:#000000; fill-opacity:0.0; 
stroke:#000000; stroke-width:0.1500; stroke-opacity:1; 
stroke-linecap:round; stroke-linejoin:round;">
<path d="M10.0000 160.0000
L12.0000 160.0000
" />
</g>
<g style="fill:#000000; fill-opacity:0.0; 
stroke:#000000; stroke-width:0.0212; stroke-opacity:1; 
stroke-linecap:round; stroke-linejoin:round;">
</g>
<g style="fill:#000000; fill-opacity:0.0; 
stroke:#000000; stroke-width:0.1500; stroke-opacity:1; 
stroke-linecap:round; stroke-linejoin:round;">
<text x="11.0000" y="35.6500"
textLength="1.3043" font-size="1.7333" lengthAdjust="spacingAndGlyphs"
text-anchor="middle" opacity="0">A</text>
<g class="stroked-text"><desc>A</desc>
<path d="M10.6905 35.2222
L11.3095 35.2222
" />
<path d="M10.5667 35.5936
L11.0000 34.2936
" />
<path d="M11.0000 34.2936
L11.4333 35.5936
" />
</g></g>
<g style="fill:#000000; fill-opacity:0.0; 
stroke:#000000; stroke-width:0.0212; stroke-opacity:1; 
stroke-linecap:round; stroke-linejoin:round;">
</g>
<g style="fill:#000000; fill-opacity:0.0; 
stroke:#000000; stroke-width:0.1500; stroke-opacity:1; 
stroke-linecap:round; stroke-linejoin:round;">
<text x="11.0000" y="85.6500"
textLength="1.4900" font-size="1.7333" lengthAdjust="spacingAndGlyphs"
text-anchor="middle" opacity="0">B</text>
<g class="stroked-text"><desc>B</desc>
<path d="M11.0929 84.9127
L11.2786 84.9746
" />
<path d="M11.2786 84.9746
L11.3405 85.0365
" />
<path d="M11.3405 85.0365
L11.4024 85.1603
" />
<path d="M11.4024 85.1603
L11.4024 85.3460
" />
<path d="M11.4024 85.3460
L11.3405 85.4698
" />
<path d="M11.3405 85.4698
L11.2786 85.5317
" />
<path d="M11.2786 85.5317
L11.1548 85.5936
" />
<path d="M11.1548 85.5936
L10.6595 85.5936
" />
<path d="M10.6595 85.5936
L10.6595 84.2936
" />
<path d="M10.6595 84.2936
L11.0929 84.2936
" />
<path d="M11.0929 84.2936
L11.2167 84.3555
" />
<path d="M11.2167 84.3555
L11.2786 84.4174
" />
<path d="M11.2786 84.4174
L11.3405 84.5412
" />
<path d="M11.3405 84.5412
L11.3405 84.6650
" />
<path d="M11.3405 84.6650
L11.2786 84.7888
" />
<path d="M11.2786 84.7888
L11.2167 84.8507
" />
<path d="M11.2167 84.8507
L11.0929 84.9127
" />
<path d="M11.0929 84.9127
L10.6595 84.9127
" />
</g></g>
<g style="fill:#000000; fill-opacity:0.0; 
stroke:#000000; stroke-width:0.0212; stroke-opacity:1; 
stroke-linecap:round; stroke-linejoin:round;">
</g>
<g style="fill:#000000; fill-opacity:0.0; 
stroke:#000000; stroke-width:0.1500; stroke-opacity:1; 
stroke-linecap:round; stroke-linejoin:round;">
<text x="11.0000" y="135.6500"
textLength="1.4900" font-size="1.7333" lengthAdjust="spacingAndGlyphs"
text-anchor="middle" opacity="0">C</text>
<g class="stroked-text"><desc>C</desc>
<path d="M11.4024 135.4698
L11.3405 135.5317
" />
<path d="M11.3405 135.5317
L11.1548 135.5936
" />
<path d="M11.1548 135.5936
L11.0310 135.5936
" />
<path d="M11.0310 135.5936
L10.8452 135.5317
" />
<path d="M10.8452 135.5317
L10.7214 135.4079
" />
<path d="M10.7214 135.4079
L10.6595 135.2841
" />
<path d="M10.6595 135.2841
L10.5976 135.0365
" />
<path d="M10.5976 135.0365
L10.5976 134.8507
" />
<path d="M10.5976 134.8507
L10.6595 134.6031
" />
<path d="M10.6595 134.6031
L10.7214 134.4793
" />
<path d="M10.7214 134.4793
L10.8452 134.3555
" />
<path d="M10.8452 134.3555
L11.0310 134.2936
" />
<path d="M11.0310 134.2936
L11.1548 134.2936
" />
<path d="M11.1548 134.2936
L11.3405 134.3555
" />
<path d="M11.3405 134.3555
L11.4024 134.4174
" />
</g></g>
<g style="fill:#000000; fill-opacity:0.0; 
stroke:#000000; stroke-width:0.0212; stroke-opacity:1; 
stroke-linecap:round; stroke-linejoin:round;">
</g>
<g style="fill:#000000; fill-opacity:0.0; 
stroke:#000000; stroke-width:0.1500; stroke-opacity:1; 
stroke-linecap:round; stroke-linejoin:round;">
<text x="11.0000" y="185.6500"
textLength="1.4900" font-size="1.7333" lengthAdjust="spacingAndGlyphs"
text-anchor="middle" opacity="0">D</text>
<g class="stroked-text"><desc>D</desc>
<path d="M10.6595 185.5936
L10.6595 184.2936
" />
<path d="M10.6595 184.2936
L10.9690 184.2936
" />
<path d="M10.9690 184.2936
L11.1548 184.3555
" />
<path d="M11.1548 184.3555
L11.2786 184.4793
" />
<path d="M11.2786 184.4793
L11.3405 184.6031
" />
<path d="M11.3405 184.6031
L11.4024 184.8507
" />
<path d="M11.4024 184.8507
L11.4024 185.0365
" />
<path d="M11.4024 185.0365
L11.3405 185.2841
" />
<path d="M11.3405 185.2841
L11.2786 185.4079
" />
<path d="M11.2786 185.4079
L11.1548 185.5317
" />
<path d="M11.1548 185.5317
L10.9690 185.5936
" />
<path d="M10.9690 185.5936
L10.6595 185.5936
" />
</g></g>
<g style="fill:#000000; fill-opacity:0.0; 
stroke:#000000; stroke-width:0.0212; stroke-opacity:1; 
stroke-linecap:round; stroke-linejoin:round;">
</g>
<g style="fill:#000000; fill-opacity:0.0; 
stroke:#000000; stroke-width:0.1500; stroke-opacity:1; 
stroke-linecap:round; stroke-linejoin:round;">
<path d="M287.0022 60.0000
L285.0022 60.0000
" />
</g>
<g style="fill:#000000; fill-opacity:0.0; 
stroke:#000000; stroke-width:0.0212; stroke-opacity:1; 
stroke-linecap:round; stroke-linejoin:round;">
</g>
<g style="fill:#000000; fill-opacity:0.0; 
stroke:#000000; stroke-width:0.1500; stroke-opacity:1; 
stroke-linecap:round; stroke-linejoin:round;">
<path d="M287.0022 110.0000
L285.0022 110.0000
" />
</g>
<g style="fill:#000000; fill-opacity:0.0; 
stroke:#000000; stroke-width:0.0212; stroke-opacity:1; 
stroke-linecap:round; stroke-linejoin:round;">
</g>
<g style="fill:#000000; fill-opacity:0.0; 
stroke:#000000; stroke-width:0.1500; stroke-opacity:1; 
stroke-linecap:round; stroke-linejoin:round;">
<path d="M287.0022 160.0000
L285.0022 160.0000
" />
</g>
<g style="fill:#000000; fill-opacity:0.0; 
stroke:#000000; stroke-width:0.0212; stroke-opacity:1; 
stroke-linecap:round; stroke-linejoin:round;">
</g>
<g style="fill:#000000; fill-opacity:0.0; 
stroke:#000000; stroke-width:0.1500; stroke-opacity:1; 
stroke-linecap:round; stroke-linejoin:round;">
<text x="286.0022" y="35.6500"
textLength="1.3043" font-size="1.7333" lengthAdjust="spacingAndGlyphs"
text-anchor="middle" opacity="0">A</text>
<g class="stroked-text"><desc>A</desc>
<path d="M285.6927 35.2222
L286.3117 35.2222
" />
<path d="M285.5689 35.5936
L286.0022 34.2936
" />
<path d="M286.0022 34.2936
L286.4355 35.5936
" />
</g></g>
<g style="fill:#000000; fill-opacity:0.0; 
stroke:#000000; stroke-width:0.0212; stroke-opacity:1; 
stroke-linecap:round; stroke-linejoin:round;">
</g>
<g style="fill:#000000; fill-opacity:0.0; 
stroke:#000000; stroke-width:0.1500; stroke-opacity:1; 
stroke-linecap:round; stroke-linejoin:round;">
<text x="286.0022" y="85.6500"
textLength="1.4900" font-size="1.7333" lengthAdjust="spacingAndGlyphs"
text-anchor="middle" opacity="0">B</text>
<g class="stroked-text"><desc>B</desc>
<path d="M286.0951 84.9127
L286.2808 84.9746
" />
<path d="M286.2808 84.9746
L286.3427 85.0365
" />
<path d="M286.3427 85.0365
L286.4046 85.1603
" />
<path d="M286.4046 85.1603
L286.4046 85.3460
" />
<path d="M286.4046 85.3460
L286.3427 85.4698
" />
<path d="M286.3427 85.4698
L286.2808 85.5317
" />
<path d="M286.2808 85.5317
L286.1570 85.5936
" />
<path d="M286.1570 85.5936
L285.6617 85.5936
" />
<path d="M285.6617 85.5936
L285.6617 84.2936
" />
<path d="M285.6617 84.2936
L286.0951 84.2936
" />
<path d="M286.0951 84.2936
L286.2189 84.3555
" />
<path d="M286.2189 84.3555
L286.2808 84.4174
" />
<path d="M286.2808 84.4174
L286.3427 84.5412
" />
<path d="M286.3427 84.5412
L286.3427 84.6650
" />
<path d="M286.3427 84.6650
L286.2808 84.7888
" />
<path d="M286.2808 84.7888
L286.2189 84.8507
" />
<path d="M286.2189 84.8507
L286.0951 84.9127
" />
<path d="M286.0951 84.9127
L285.6617 84.9127
" />
</g></g>
<g style="fill:#000000; fill-opacity:0.0; 
stroke:#000000; stroke-width:0.0212; stroke-opacity:1; 
stroke-linecap:round; stroke-linejoin:round;">
</g>
<g style="fill:#000000; fill-opacity:0.0; 
stroke:#000000; stroke-width:0.1500; stroke-opacity:1; 
stroke-linecap:round; stroke-linejoin:round;">
<text x="286.0022" y="135.6500"
textLength="1.4900" font-size="1.7333" lengthAdjust="spacingAndGlyphs"
text-anchor="middle" opacity="0">C</text>
<g class="stroked-text"><desc>C</desc>
<path d="M286.4046 135.4698
L286.3427 135.5317
" />
<path d="M286.3427 135.5317
L286.1570 135.5936
" />
<path d="M286.1570 135.5936
L286.0332 135.5936
" />
<path d="M286.0332 135.5936
L285.8474 135.5317
" />
<path d="M285.8474 135.5317
L285.7236 135.4079
" />
<path d="M285.7236 135.4079
L285.6617 135.2841
" />
<path d="M285.6617 135.2841
L285.5998 135.0365
" />
<path d="M285.5998 135.0365
L285.5998 134.8507
" />
<path d="M285.5998 134.8507
L285.6617 134.6031
" />
<path d="M285.6617 134.6031
L285.7236 134.4793
" />
<path d="M285.7236 134.4793
L285.8474 134.3555
" />
<path d="M285.8474 134.3555
L286.0332 134.2936
" />
<path d="M286.0332 134.2936
L286.1570 134.2936
" />
<path d="M286.1570 134.2936
L286.3427 134.3555
" />
<path d="M286.3427 134.3555
L286.4046 134.4174
" />
</g></g>
<g style="fill:#000000; fill-opacity:0.0; 
stroke:#000000; stroke-width:0.0212; stroke-opacity:1; 
stroke-linecap:round; stroke-linejoin:round;">
</g>
<g style="fill:#000000; fill-opacity:0.0; 
stroke:#000000; stroke-width:0.1500; stroke-opacity:1; 
stroke-linecap:round; stroke-linejoin:round;">
<text x="286.0022" y="185.6500"
textLength="1.4900" font-size="1.7333" lengthAdjust="spacingAndGlyphs"
text-anchor="middle" opacity="0">D</text>
<g class="stroked-text"><desc>D</desc>
<path d="M285.6617 185.5936
L285.6617 184.2936
" />
<path d="M285.6617 184.2936
L285.9712 184.2936
" />
<path d="M285.9712 184.2936
L286.1570 184.3555
" />
<path d="M286.1570 184.3555
L286.2808 184.4793
" />
<path d="M286.2808 184.4793
L286.3427 184.6031
" />
<path d="M286.3427 184.6031
L286.4046 184.8507
" />
<path d="M286.4046 184.8507
L286.4046 185.0365
" />
<path d="M286.4046 185.0365
L286.3427 185.2841
" />
<path d="M286.3427 185.2841
L286.2808 185.4079
" />
<path d="M286.2808 185.4079
L286.1570 185.5317
" />
<path d="M286.1570 185.5317
L285.9712 185.5936
" />
<path d="M285.9712 185.5936
L285.6617 185.5936
" />
</g></g>
<g style="fill:#000000; fill-opacity:0.0; 
stroke:#000000; stroke-width:0.0212; stroke-opacity:1; 
stroke-linecap:round; stroke-linejoin:round;">
</g>
<g style="fill:#000000; fill-opacity:0.0; 
stroke:#000000; stroke-width:0.1500; stroke-opacity:1; 
stroke-linecap:round; stroke-linejoin:round;">
<text x="200.0022" y="193.8572"
textLength="7.0071" font-size="2.0000" lengthAdjust="spacingAndGlyphs"
text-anchor="start" opacity="0">Date: </text>
<g class="stroked-text"><desc>Date: </desc>
<path d="M200.4580 193.7933
L200.4580 192.2933
" />
<path d="M200.4580 192.2933
L200.8152 192.2933
" />
<path d="M200.8152 192.2933
L201.0295 192.3648
" />
<path d="M201.0295 192.3648
L201.1723 192.5076
" />
<path d="M201.1723 192.5076
L201.2437 192.6505
" />
<path d="M201.2437 192.6505
L201.3152 192.9362
" />
<path d="M201.3152 192.9362
L201.3152 193.1505
" />
<path d="M201.3152 193.1505
L201.2437 193.4362
" />
<path d="M201.2437 193.4362
L201.1723 193.5790
" />
<path d="M201.1723 193.5790
L201.0295 193.7219
" />
<path d="M201.0295 193.7219
L200.8152 193.7933
" />
<path d="M200.8152 193.7933
L200.4580 193.7933
" />
<path d="M202.6009 193.7933
L202.6009 193.0076
" />
<path d="M202.6009 193.0076
L202.5295 192.8648
" />
<path d="M202.5295 192.8648
L202.3866 192.7933
" />
<path d="M202.3866 192.7933
L202.1009 192.7933
" />
<path d="M202.1009 192.7933
L201.9580 192.8648
" />
<path d="M202.6009 193.7219
L202.4580 193.7933
" />
<path d="M202.4580 193.7933
L202.1009 193.7933
" />
<path d="M202.1009 193.7933
L201.9580 193.7219
" />
<path d="M201.9580 193.7219
L201.8866 193.5790
" />
<path d="M201.8866 193.5790
L201.8866 193.4362
" />
<path d="M201.8866 193.4362
L201.9580 193.2933
" />
<path d="M201.9580 193.2933
L202.1009 193.2219
" />
<path d="M202.1009 193.2219
L202.4580 193.2219
" />
<path d="M202.4580 193.2219
L202.6009 193.1505
" />
<path d="M203.1009 192.7933
L203.6723 192.7933
" />
<path d="M203.3152 192.2933
L203.3152 193.5790
" />
<path d="M203.3152 193.5790
L203.3866 193.7219
" />
<path d="M203.3866 193.7219
L203.5295 193.7933
" />
<path d="M203.5295 193.7933
L203.6723 193.7933
" />
<path d="M204.7437 193.7219
L204.6009 193.7933
" />
<path d="M204.6009 193.7933
L204.3152 193.7933
" />
<path d="M204.3152 193.7933
L204.1723 193.7219
" />
<path d="M204.1723 193.7219
L204.1009 193.5790
" />
<path d="M204.1009 193.5790
L204.1009 193.0076
" />
<path d="M204.1009 193.0076
L204.1723 192.8648
" />
<path d="M204.1723 192.8648
L204.3152 192.7933
" />
<path d="M204.3152 192.7933
L204.6009 192.7933
" />
<path d="M204.6009 192.7933
L204.7437 192.8648
" />
<path d="M204.7437 192.8648
L204.8152 193.0076
" />
<path d="M204.8152 193.0076
L204.8152 193.1505
" />
<path d="M204.8152 193.1505
L204.1009 193.2933
" />
<path d="M205.4580 193.6505
L205.5295 193.7219
" />
<path d="M205.5295 193.7219
L205.4580 193.7933
" />
<path d="M205.4580 193.7933
L205.3866 193.7219
" />
<path d="M205.3866 193.7219
L205.4580 193.6505
" />
<path d="M205.4580 193.6505
L205.4580 193.7933
" />
<path d="M205.4580 192.8648
L205.5295 192.9362
" />
<path d="M205.5295 192.9362
L205.4580 193.0076
" />
<path d="M205.4580 193.0076
L205.3866 192.9362
" />
<path d="M205.3866 192.9362
L205.4580 192.8648
" />
<path d="M205.4580 192.8648
L205.4580 193.0076
" />
</g></g>
<g style="fill:#000000; fill-opacity:0.0; 
stroke:#000000; stroke-width:0.0212; stroke-opacity:1; 
stroke-linecap:round; stroke-linejoin:round;">
</g>
<g style="fill:#000000; fill-opacity:0.0; 
stroke:#000000; stroke-width:0.1500; stroke-opacity:1; 
stroke-linecap:round; stroke-linejoin:round;">
<path d="M177.0022 194.5072
L285.0022 194.5072
" />
</g>
<g style="fill:#000000; fill-opacity:0.0; 
stroke:#000000; stroke-width:0.0212; stroke-opacity:1; 
stroke-linecap:round; stroke-linejoin:round;">
</g>
<g style="fill:#000000; fill-opacity:0.0; 
stroke:#000000; stroke-width:0.1500; stroke-opacity:1; 
stroke-linecap:round; stroke-linejoin:round;">
<text x="178.0022" y="196.6572"
textLength="30.5071" font-size="2.0000" lengthAdjust="spacingAndGlyphs"
text-anchor="start" opacity="0">KiCad E.D.A.  kicad 7.0.10</text>
<g class="stroked-text"><desc>KiCad E.D.A.  kicad 7.0.10</desc>
<path d="M178.4580 196.5933
L178.4580 195.0933
" />
<path d="M179.3152 196.5933
L178.6723 195.7362
" />
<path d="M179.3152 195.0933
L178.4580 195.9505
" />
<path d="M179.9580 196.5933
L179.9580 195.5933
" />
<path d="M179.9580 195.0933
L179.8866 195.1648
" />
<path d="M179.8866 195.1648
L179.9580 195.2362
" />
<path d="M179.9580 195.2362
L180.0295 195.1648
" />
<path d="M180.0295 195.1648
L179.9580 195.0933
" />
<path d="M179.9580 195.0933
L179.9580 195.2362
" />
<path d="M181.5295 196.4505
L181.4580 196.5219
" />
<path d="M181.4580 196.5219
L181.2437 196.5933
" />
<path d="M181.2437 196.5933
L181.1009 196.5933
" />
<path d="M181.1009 196.5933
L180.8866 196.5219
" />
<path d="M180.8866 196.5219
L180.7437 196.3790
" />
<path d="M180.7437 196.3790
L180.6723 196.2362
" />
<path d="M180.6723 196.2362
L180.6009 195.9505
" />
<path d="M180.6009 195.9505
L180.6009 195.7362
" />
<path d="M180.6009 195.7362
L180.6723 195.4505
" />
<path d="M180.6723 195.4505
L180.7437 195.3076
" />
<path d="M180.7437 195.3076
L180.8866 195.1648
" />
<path d="M180.8866 195.1648
L181.1009 195.0933
" />
<path d="M181.1009 195.0933
L181.2437 195.0933
" />
<path d="M181.2437 195.0933
L181.4580 195.1648
" />
<path d="M181.4580 195.1648
L181.5295 195.2362
" />
<path d="M182.8152 196.5933
L182.8152 195.8076
" />
<path d="M182.8152 195.8076
L182.7437 195.6648
" />
<path d="M182.7437 195.6648
L182.6009 195.5933
" />
<path d="M182.6009 195.5933
L182.3152 195.5933
" />
<path d="M182.3152 195.5933
L182.1723 195.6648
" />
<path d="M182.8152 196.5219
L182.6723 196.5933
" />
<path d="M182.6723 196.5933
L182.3152 196.5933
" />
<path d="M182.3152 196.5933
L182.1723 196.5219
" />
<path d="M182.1723 196.5219
L182.1009 196.3790
" />
<path d="M182.1009 196.3790
L182.1009 196.2362
" />
<path d="M182.1009 196.2362
L182.1723 196.0933
" />
<path d="M182.1723 196.0933
L182.3152 196.0219
" />
<path d="M182.3152 196.0219
L182.6723 196.0219
" />
<path d="M182.6723 196.0219
L182.8152 195.9505
" />
<path d="M184.1723 196.5933
L184.1723 195.0933
" />
<path d="M184.1723 196.5219
L184.0295 196.5933
" />
<path d="M184.0295 196.5933
L183.7437 196.5933
" />
<path d="M183.7437 196.5933
L183.6009 196.5219
" />
<path d="M183.6009 196.5219
L183.5295 196.4505
" />
<path d="M183.5295 196.4505
L183.4580 196.3076
" />
<path d="M183.4580 196.3076
L183.4580 195.8790
" />
<path d="M183.4580 195.8790
L183.5295 195.7362
" />
<path d="M183.5295 195.7362
L183.6009 195.6648
" />
<path d="M183.6009 195.6648
L183.7437 195.5933
" />
<path d="M183.7437 195.5933
L184.0295 195.5933
" />
<path d="M184.0295 195.5933
L184.1723 195.6648
" />
<path d="M186.0295 195.8076
L186.5295 195.8076
" />
<path d="M186.7437 196.5933
L186.0295 196.5933
" />
<path d="M186.0295 196.5933
L186.0295 195.0933
" />
<path d="M186.0295 195.0933
L186.7437 195.0933
" />
<path d="M187.3866 196.4505
L187.4580 196.5219
" />
<path d="M187.4580 196.5219
L187.3866 196.5933
" />
<path d="M187.3866 196.5933
L187.3152 196.5219
" />
<path d="M187.3152 196.5219
L187.3866 196.4505
" />
<path d="M187.3866 196.4505
L187.3866 196.5933
" />
<path d="M188.1009 196.5933
L188.1009 195.0933
" />
<path d="M188.1009 195.0933
L188.4580 195.0933
" />
<path d="M188.4580 195.0933
L188.6723 195.1648
" />
<path d="M188.6723 195.1648
L188.8152 195.3076
" />
<path d="M188.8152 195.3076
L188.8866 195.4505
" />
<path d="M188.8866 195.4505
L188.9580 195.7362
" />
<path d="M188.9580 195.7362
L188.9580 195.9505
" />
<path d="M188.9580 195.9505
L188.8866 196.2362
" />
<path d="M188.8866 196.2362
L188.8152 196.3790
" />
<path d="M188.8152 196.3790
L188.6723 196.5219
" />
<path d="M188.6723 196.5219
L188.4580 196.5933
" />
<path d="M188.4580 196.5933
L188.1009 196.5933
" />
<path d="M189.6009 196.4505
L189.6723 196.5219
" />
<path d="M189.6723 196.5219
L189.6009 196.5933
" />
<path d="M189.6009 196.5933
L189.5295 196.5219
" />
<path d="M189.5295 196.5219
L189.6009 196.4505
" />
<path d="M189.6009 196.4505
L189.6009 196.5933
" />
<path d="M190.2437 196.1648
L190.9580 196.1648
" />
<path d="M190.1009 196.5933
L190.6009 195.0933
" />
<path d="M190.6009 195.0933
L191.1009 196.5933
" />
<path d="M191.6009 196.4505
L191.6723 196.5219
" />
<path d="M191.6723 196.5219
L191.6009 196.5933
" />
<path d="M191.6009 196.5933
L191.5295 196.5219
" />
<path d="M191.5295 196.5219
L191.6009 196.4505
" />
<path d="M191.6009 196.4505
L191.6009 196.5933
" />
<path d="M194.6009 196.5933
L194.6009 195.0933
" />
<path d="M194.7437 196.0219
L195.1723 196.5933
" />
<path d="M195.1723 195.5933
L194.6009 196.1648
" />
<path d="M195.8152 196.5933
L195.8152 195.5933
" />
<path d="M195.8152 195.0933
L195.7437 195.1648
" />
<path d="M195.7437 195.1648
L195.8152 195.2362
" />
<path d="M195.8152 195.2362
L195.8866 195.1648
" />
<path d="M195.8866 195.1648
L195.8152 195.0933
" />
<path d="M195.8152 195.0933
L195.8152 195.2362
" />
<path d="M197.1723 196.5219
L197.0295 196.5933
" />
<path d="M197.0295 196.5933
L196.7437 196.5933
" />
<path d="M196.7437 196.5933
L196.6009 196.5219
" />
<path d="M196.6009 196.5219
L196.5295 196.4505
" />
<path d="M196.5295 196.4505
L196.4580 196.3076
" />
<path d="M196.4580 196.3076
L196.4580 195.8790
" />
<path d="M196.4580 195.8790
L196.5295 195.7362
" />
<path d="M196.5295 195.7362
L196.6009 195.6648
" />
<path d="M196.6009 195.6648
L196.7437 195.5933
" />
<path d="M196.7437 195.5933
L197.0295 195.5933
" />
<path d="M197.0295 195.5933
L197.1723 195.6648
" />
<path d="M198.4580 196.5933
L198.4580 195.8076
" />
<path d="M198.4580 195.8076
L198.3866 195.6648
" />
<path d="M198.3866 195.6648
L198.2437 195.5933
" />
<path d="M198.2437 195.5933
L197.9580 195.5933
" />
<path d="M197.9580 195.5933
L197.8152 195.6648
" />
<path d="M198.4580 196.5219
L198.3152 196.5933
" />
<path d="M198.3152 196.5933
L197.9580 196.5933
" />
<path d="M197.9580 196.5933
L197.8152 196.5219
" />
<path d="M197.8152 196.5219
L197.7437 196.3790
" />
<path d="M197.7437 196.3790
L197.7437 196.2362
" />
<path d="M197.7437 196.2362
L197.8152 196.0933
" />
<path d="M197.8152 196.0933
L197.9580 196.0219
" />
<path d="M197.9580 196.0219
L198.3152 196.0219
" />
<path d="M198.3152 196.0219
L198.4580 195.9505
" />
<path d="M199.8152 196.5933
L199.8152 195.0933
" />
<path d="M199.8152 196.5219
L199.6723 196.5933
" />
<path d="M199.6723 196.5933
L199.3866 196.5933
" />
<path d="M199.3866 196.5933
L199.2437 196.5219
" />
<path d="M199.2437 196.5219
L199.1723 196.4505
" />
<path d="M199.1723 196.4505
L199.1009 196.3076
" />
<path d="M199.1009 196.3076
L199.1009 195.8790
" />
<path d="M199.1009 195.8790
L199.1723 195.7362
" />
<path d="M199.1723 195.7362
L199.2437 195.6648
" />
<path d="M199.2437 195.6648
L199.3866 195.5933
" />
<path d="M199.3866 195.5933
L199.6723 195.5933
" />
<path d="M199.6723 195.5933
L199.8152 195.6648
" />
<path d="M201.5295 195.0933
L202.5295 195.0933
" />
<path d="M202.5295 195.0933
L201.8866 196.5933
" />
<path d="M203.1009 196.4505
L203.1723 196.5219
" />
<path d="M203.1723 196.5219
L203.1009 196.5933
" />
<path d="M203.1009 196.5933
L203.0295 196.5219
" />
<path d="M203.0295 196.5219
L203.1009 196.4505
" />
<path d="M203.1009 196.4505
L203.1009 196.5933
" />
<path d="M204.1009 195.0933
L204.2437 195.0933
" />
<path d="M204.2437 195.0933
L204.3866 195.1648
" />
<path d="M204.3866 195.1648
L204.4580 195.2362
" />
<path d="M204.4580 195.2362
L204.5295 195.3790
" />
<path d="M204.5295 195.3790
L204.6009 195.6648
" />
<path d="M204.6009 195.6648
L204.6009 196.0219
" />
<path d="M204.6009 196.0219
L204.5295 196.3076
" />
<path d="M204.5295 196.3076
L204.4580 196.4505
" />
<path d="M204.4580 196.4505
L204.3866 196.5219
" />
<path d="M204.3866 196.5219
L204.2437 196.5933
" />
<path d="M204.2437 196.5933
L204.1009 196.5933
" />
<path d="M204.1009 196.5933
L203.9580 196.5219
" />
<path d="M203.9580 196.5219
L203.8866 196.4505
" />
<path d="M203.8866 196.4505
L203.8152 196.3076
" />
<path d="M203.8152 196.3076
L203.7437 196.0219
" />
<path d="M203.7437 196.0219
L203.7437 195.6648
" />
<path d="M203.7437 195.6648
L203.8152 195.3790
" />
<path d="M203.8152 195.3790
L203.8866 195.2362
" />
<path d="M203.8866 195.2362
L203.9580 195.1648
" />
<path d="M203.9580 195.1648
L204.1009 195.0933
" />
<path d="M205.2437 196.4505
L205.3152 196.5219
" />
<path d="M205.3152 196.5219
L205.2437 196.5933
" />
<path d="M205.2437 196.5933
L205.1723 196.5219
" />
<path d="M205.1723 196.5219
L205.2437 196.4505
" />
<path d="M205.2437 196.4505
L205.2437 196.5933
" />
<path d="M206.7437 196.5933
L205.8866 196.5933
" />
<path d="M206.3152 196.5933
L206.3152 195.0933
" />
<path d="M206.3152 195.0933
L206.1723 195.3076
" />
<path d="M206.1723 195.3076
L206.0295 195.4505
" />
<path d="M206.0295 195.4505
L205.8866 195.5219
" />
<path d="M207.6723 195.0933
L207.8152 195.0933
" />
<path d="M207.8152 195.0933
L207.9580 195.1648
" />
<path d="M207.9580 195.1648
L208.0295 195.2362
" />
<path d="M208.0295 195.2362
L208.1009 195.3790
" />
<path d="M208.1009 195.3790
L208.1723 195.6648
" />
<path d="M208.1723 195.6648
L208.1723 196.0219
" />
<path d="M208.1723 196.0219
L208.1009 196.3076
" />
<path d="M208.1009 196.3076
L208.0295 196.4505
" />
<path d="M208.0295 196.4505
L207.9580 196.5219
" />
<path d="M207.9580 196.5219
L207.8152 196.5933
" />
<path d="M207.8152 196.5933
L207.6723 196.5933
" />
<path d="M207.6723 196.5933
L207.5295 196.5219
" />
<path d="M207.5295 196.5219
L207.4580 196.4505
" />
<path d="M207.4580 196.4505
L207.3866 196.3076
" />
<path d="M207.3866 196.3076
L207.3152 196.0219
" />
<path d="M207.3152 196.0219
L207.3152 195.6648
" />
<path d="M207.3152 195.6648
L207.3866 195.3790
" />
<path d="M207.3866 195.3790
L207.4580 195.2362
" />
<path d="M207.4580 195.2362
L207.5295 195.1648
" />
<path d="M207.5295 195.1648
L207.6723 195.0933
" />
</g></g>
<g style="fill:#000000; fill-opacity:0.0; 
stroke:#000000; stroke-width:0.0212; stroke-opacity:1; 
stroke-linecap:round; stroke-linejoin:round;">
</g>
<g style="fill:#000000; fill-opacity:0.0; 
stroke:#000000; stroke-width:0.1500; stroke-opacity:1; 
stroke-linecap:round; stroke-linejoin:round;">
<path d="M177.0022 191.5072
L285.0022 191.5072
" />
</g>
<g style="fill:#000000; fill-opacity:0.0; 
stroke:#000000; stroke-width:0.0212; stroke-opacity:1; 
stroke-linecap:round; stroke-linejoin:round;">
</g>
<g style="fill:#000000; fill-opacity:0.0; 
stroke:#000000; stroke-width:0.3000; stroke-opacity:1; 
stroke-linecap:round; stroke-linejoin:round;">
<text x="263.0022" y="193.8572"
textLength="6.3857" font-size="2.0000" lengthAdjust="spacingAndGlyphs"
text-anchor="start" opacity="0">Rev: </text>
<g class="stroked-text"><desc>Rev: </desc>
<path d="M264.4139 193.7855
L263.9139 193.0712
" />
<path d="M263.5567 193.7855
L263.5567 192.2855
" />
<path d="M263.5567 192.2855
L264.1281 192.2855
" />
<path d="M264.1281 192.2855
L264.2710 192.3570
" />
<path d="M264.2710 192.3570
L264.3424 192.4284
" />
<path d="M264.3424 192.4284
L264.4139 192.5712
" />
<path d="M264.4139 192.5712
L264.4139 192.7855
" />
<path d="M264.4139 192.7855
L264.3424 192.9284
" />
<path d="M264.3424 192.9284
L264.2710 192.9998
" />
<path d="M264.2710 192.9998
L264.1281 193.0712
" />
<path d="M264.1281 193.0712
L263.5567 193.0712
" />
<path d="M265.6281 193.7141
L265.4853 193.7855
" />
<path d="M265.4853 193.7855
L265.1996 193.7855
" />
<path d="M265.1996 193.7855
L265.0567 193.7141
" />
<path d="M265.0567 193.7141
L264.9853 193.5712
" />
<path d="M264.9853 193.5712
L264.9853 192.9998
" />
<path d="M264.9853 192.9998
L265.0567 192.8570
" />
<path d="M265.0567 192.8570
L265.1996 192.7855
" />
<path d="M265.1996 192.7855
L265.4853 192.7855
" />
<path d="M265.4853 192.7855
L265.6281 192.8570
" />
<path d="M265.6281 192.8570
L265.6996 192.9998
" />
<path d="M265.6996 192.9998
L265.6996 193.1427
" />
<path d="M265.6996 193.1427
L264.9853 193.2855
" />
<path d="M266.1996 192.7855
L266.5567 193.7855
" />
<path d="M266.5567 193.7855
L266.9139 192.7855
" />
<path d="M267.4853 193.6427
L267.5567 193.7141
" />
<path d="M267.5567 193.7141
L267.4853 193.7855
" />
<path d="M267.4853 193.7855
L267.4139 193.7141
" />
<path d="M267.4139 193.7141
L267.4853 193.6427
" />
<path d="M267.4853 193.6427
L267.4853 193.7855
" />
<path d="M267.4853 192.8570
L267.5567 192.9284
" />
<path d="M267.5567 192.9284
L267.4853 192.9998
" />
<path d="M267.4853 192.9998
L267.4139 192.9284
" />
<path d="M267.4139 192.9284
L267.4853 192.8570
" />
<path d="M267.4853 192.8570
L267.4853 192.9998
" />
</g></g>
<g style="fill:#000000; fill-opacity:0.0; 
stroke:#000000; stroke-width:0.0212; stroke-opacity:1; 
stroke-linecap:round; stroke-linejoin:round;">
</g>
<g style="fill:#000000; fill-opacity:0.0; 
stroke:#000000; stroke-width:0.1500; stroke-opacity:1; 
stroke-linecap:round; stroke-linejoin:round;">
<text x="178.0022" y="193.8572"
textLength="9.3643" font-size="2.0000" lengthAdjust="spacingAndGlyphs"
text-anchor="start" opacity="0">Size: A4</text>
<g class="stroked-text"><desc>Size: A4</desc>
<path d="M178.3866 193.7219
L178.6009 193.7933
" />
<path d="M178.6009 193.7933
L178.9580 193.7933
" />
<path d="M178.9580 193.7933
L179.1009 193.7219
" />
<path d="M179.1009 193.7219
L179.1723 193.6505
" />
<path d="M179.1723 193.6505
L179.2437 193.5076
" />
<path d="M179.2437 193.5076
L179.2437 193.3648
" />
<path d="M179.2437 193.3648
L179.1723 193.2219
" />
<path d="M179.1723 193.2219
L179.1009 193.1505
" />
<path d="M179.1009 193.1505
L178.9580 193.0790
" />
<path d="M178.9580 193.0790
L178.6723 193.0076
" />
<path d="M178.6723 193.0076
L178.5295 192.9362
" />
<path d="M178.5295 192.9362
L178.4580 192.8648
" />
<path d="M178.4580 192.8648
L178.3866 192.7219
" />
<path d="M178.3866 192.7219
L178.3866 192.5790
" />
<path d="M178.3866 192.5790
L178.4580 192.4362
" />
<path d="M178.4580 192.4362
L178.5295 192.3648
" />
<path d="M178.5295 192.3648
L178.6723 192.2933
" />
<path d="M178.6723 192.2933
L179.0295 192.2933
" />
<path d="M179.0295 192.2933
L179.2437 192.3648
" />
<path d="M179.8866 193.7933
L179.8866 192.7933
" />
<path d="M179.8866 192.2933
L179.8152 192.3648
" />
<path d="M179.8152 192.3648
L179.8866 192.4362
" />
<path d="M179.8866 192.4362
L179.9580 192.3648
" />
<path d="M179.9580 192.3648
L179.8866 192.2933
" />
<path d="M179.8866 192.2933
L179.8866 192.4362
" />
<path d="M180.4580 192.7933
L181.2437 192.7933
" />
<path d="M181.2437 192.7933
L180.4580 193.7933
" />
<path d="M180.4580 193.7933
L181.2437 193.7933
" />
<path d="M182.3866 193.7219
L182.2437 193.7933
" />
<path d="M182.2437 193.7933
L181.9580 193.7933
" />
<path d="M181.9580 193.7933
L181.8152 193.7219
" />
<path d="M181.8152 193.7219
L181.7437 193.5790
" />
<path d="M181.7437 193.5790
L181.7437 193.0076
" />
<path d="M181.7437 193.0076
L181.8152 192.8648
" />
<path d="M181.8152 192.8648
L181.9580 192.7933
" />
<path d="M181.9580 192.7933
L182.2437 192.7933
" />
<path d="M182.2437 192.7933
L182.3866 192.8648
" />
<path d="M182.3866 192.8648
L182.4580 193.0076
" />
<path d="M182.4580 193.0076
L182.4580 193.1505
" />
<path d="M182.4580 193.1505
L181.7437 193.2933
" />
<path d="M183.1009 193.6505
L183.1723 193.7219
" />
<path d="M183.1723 193.7219
L183.1009 193.7933
" />
<path d="M183.1009 193.7933
L183.0295 193.7219
" />
<path d="M183.0295 193.7219
L183.1009 193.6505
" />
<path d="M183.1009 193.6505
L183.1009 193.7933
" />
<path d="M183.1009 192.8648
L183.1723 192.9362
" />
<path d="M183.1723 192.9362
L183.1009 193.0076
" />
<path d="M183.1009 193.0076
L183.0295 192.9362
" />
<path d="M183.0295 192.9362
L183.1009 192.8648
" />
<path d="M183.1009 192.8648
L183.1009 193.0076
" />
<path d="M184.8866 193.3648
L185.6009 193.3648
" />
<path d="M184.7437 193.7933
L185.2437 192.2933
" />
<path d="M185.2437 192.2933
L185.7437 193.7933
" />
<path d="M186.8866 192.7933
L186.8866 193.7933
" />
<path d="M186.5295 192.2219
L186.1723 193.2933
" />
<path d="M186.1723 193.2933
L187.1009 193.2933
" />
</g></g>
<g style="fill:#000000; fill-opacity:0.0; 
stroke:#000000; stroke-width:0.0212; stroke-opacity:1; 
stroke-linecap:round; stroke-linejoin:round;">
</g>
<g style="fill:#000000; fill-opacity:0.0; 
stroke:#000000; stroke-width:0.1500; stroke-opacity:1; 
stroke-linecap:round; stroke-linejoin:round;">
<text x="263.0022" y="196.6572"
textLength="8.5071" font-size="2.0000" lengthAdjust="spacingAndGlyphs"
text-anchor="start" opacity="0">Id: 1/1</text>
<g class="stroked-text"><desc>Id: 1/1</desc>
<path d="M263.4580 196.5933
L263.4580 195.0933
" />
<path d="M264.8152 196.5933
L264.8152 195.0933
" />
<path d="M264.8152 196.5219
L264.6723 196.5933
" />
<path d="M264.6723 196.5933
L264.3866 196.5933
" />
<path d="M264.3866 196.5933
L264.2437 196.5219
" />
<path d="M264.2437 196.5219
L264.1723 196.4505
" />
<path d="M264.1723 196.4505
L264.1009 196.3076
" />
<path d="M264.1009 196.3076
L264.1009 195.8790
" />
<path d="M264.1009 195.8790
L264.1723 195.7362
" />
<path d="M264.1723 195.7362
L264.2437 195.6648
" />
<path d="M264.2437 195.6648
L264.3866 195.5933
" />
<path d="M264.3866 195.5933
L264.6723 195.5933
" />
<path d="M264.6723 195.5933
L264.8152 195.6648
" />
<path d="M265.5295 196.4505
L265.6009 196.5219
" />
<path d="M265.6009 196.5219
L265.5295 196.5933
" />
<path d="M265.5295 196.5933
L265.4580 196.5219
" />
<path d="M265.4580 196.5219
L265.5295 196.4505
" />
<path d="M265.5295 196.4505
L265.5295 196.5933
" />
<path d="M265.5295 195.6648
L265.6009 195.7362
" />
<path d="M265.6009 195.7362
L265.5295 195.8076
" />
<path d="M265.5295 195.8076
L265.4580 195.7362
" />
<path d="M265.4580 195.7362
L265.5295 195.6648
" />
<path d="M265.5295 195.6648
L265.5295 195.8076
" />
<path d="M268.1723 196.5933
L267.3152 196.5933
" />
<path d="M267.7437 196.5933
L267.7437 195.0933
" />
<path d="M267.7437 195.0933
L267.6009 195.3076
" />
<path d="M267.6009 195.3076
L267.4580 195.4505
" />
<path d="M267.4580 195.4505
L267.3152 195.5219
" />
<path d="M269.8866 195.0219
L268.6009 196.9505
" />
<path d="M271.1723 196.5933
L270.3152 196.5933
" />
<path d="M270.7437 196.5933
L270.7437 195.0933
" />
<path d="M270.7437 195.0933
L270.6009 195.3076
" />
<path d="M270.6009 195.3076
L270.4580 195.4505
" />
<path d="M270.4580 195.4505
L270.3152 195.5219
" />
</g></g>
<g style="fill:#000000; fill-opacity:0.0; 
stroke:#000000; stroke-width:0.0212; stroke-opacity:1; 
stroke-linecap:round; stroke-linejoin:round;">
</g>
<g style="fill:#000000; fill-opacity:0.0; 
stroke:#000000; stroke-width:0.1500; stroke-opacity:1; 
stroke-linecap:round; stroke-linejoin:round;">
<path d="M177.0022 187.5072
L285.0022 187.5072
" />
</g>
<g style="fill:#000000; fill-opacity:0.0; 
stroke:#000000; stroke-width:0.0212; stroke-opacity:1; 
stroke-linecap:round; stroke-linejoin:round;">
</g>
<g style="fill:#000000; fill-opacity:0.0; 
stroke:#000000; stroke-width:0.4000; stroke-opacity:1; 
stroke-linecap:round; stroke-linejoin:round;">
<text x="178.0022" y="190.3072"
textLength="9.6571" font-size="2.6667" lengthAdjust="spacingAndGlyphs"
text-anchor="start" opacity="0">Title: </text>
<g class="stroked-text"><desc>Title: </desc>
<path d="M178.6939 188.2116
L179.8368 188.2116
" />
<path d="M179.0154 190.2116
L179.2654 188.2116
" />
<path d="M180.2535 190.2116
L180.4201 188.8783
" />
<path d="M180.5035 188.2116
L180.3963 188.3069
" />
<path d="M180.3963 188.3069
L180.4796 188.4021
" />
<path d="M180.4796 188.4021
L180.5868 188.3069
" />
<path d="M180.5868 188.3069
L180.5035 188.2116
" />
<path d="M180.5035 188.2116
L180.4796 188.4021
" />
<path d="M181.0868 188.8783
L181.8487 188.8783
" />
<path d="M181.4558 188.2116
L181.2415 189.9259
" />
<path d="M181.2415 189.9259
L181.3130 190.1164
" />
<path d="M181.3130 190.1164
L181.4915 190.2116
" />
<path d="M181.4915 190.2116
L181.6820 190.2116
" />
<path d="M182.6344 190.2116
L182.4558 190.1164
" />
<path d="M182.4558 190.1164
L182.3844 189.9259
" />
<path d="M182.3844 189.9259
L182.5987 188.2116
" />
<path d="M184.1701 190.1164
L183.9677 190.2116
" />
<path d="M183.9677 190.2116
L183.5868 190.2116
" />
<path d="M183.5868 190.2116
L183.4082 190.1164
" />
<path d="M183.4082 190.1164
L183.3368 189.9259
" />
<path d="M183.3368 189.9259
L183.4320 189.1640
" />
<path d="M183.4320 189.1640
L183.5511 188.9735
" />
<path d="M183.5511 188.9735
L183.7535 188.8783
" />
<path d="M183.7535 188.8783
L184.1344 188.8783
" />
<path d="M184.1344 188.8783
L184.3130 188.9735
" />
<path d="M184.3130 188.9735
L184.3844 189.1640
" />
<path d="M184.3844 189.1640
L184.3606 189.3545
" />
<path d="M184.3606 189.3545
L183.3844 189.5450
" />
<path d="M185.1344 190.0212
L185.2177 190.1164
" />
<path d="M185.2177 190.1164
L185.1106 190.2116
" />
<path d="M185.1106 190.2116
L185.0273 190.1164
" />
<path d="M185.0273 190.1164
L185.1344 190.0212
" />
<path d="M185.1344 190.0212
L185.1106 190.2116
" />
<path d="M185.2654 188.9735
L185.3487 189.0688
" />
<path d="M185.3487 189.0688
L185.2415 189.1640
" />
<path d="M185.2415 189.1640
L185.1582 189.0688
" />
<path d="M185.1582 189.0688
L185.2654 188.9735
" />
<path d="M185.2654 188.9735
L185.2415 189.1640
" />
</g></g>
<g style="fill:#000000; fill-opacity:0.0; 
stroke:#000000; stroke-width:0.0212; stroke-opacity:1; 
stroke-linecap:round; stroke-linejoin:round;">
</g>
<g style="fill:#000000; fill-opacity:0.0; 
stroke:#000000; stroke-width:0.1500; stroke-opacity:1; 
stroke-linecap:round; stroke-linejoin:round;">
<text x="178.0022" y="186.4572"
textLength="23.7929" font-size="2.0000" lengthAdjust="spacingAndGlyphs"
text-anchor="start" opacity="0">File: kicad.kicad_pcb</text>
<g class="stroked-text"><desc>File: kicad.kicad_pcb</desc>
<path d="M178.9580 185.6076
L178.4580 185.6076
" />
<path d="M178.4580 186.3933
L178.4580 184.8933
" />
<path d="M178.4580 184.8933
L179.1723 184.8933
" />
<path d="M179.7437 186.3933
L179.7437 185.3933
" />
<path d="M179.7437 184.8933
L179.6723 184.9648
" />
<path d="M179.6723 184.9648
L179.7437 185.0362
" />
<path d="M179.7437 185.0362
L179.8152 184.9648
" />
<path d="M179.8152 184.9648
L179.7437 184.8933
" />
<path d="M179.7437 184.8933
L179.7437 185.0362
" />
<path d="M180.6723 186.3933
L180.5295 186.3219
" />
<path d="M180.5295 186.3219
L180.4580 186.1790
" />
<path d="M180.4580 186.1790
L180.4580 184.8933
" />
<path d="M181.8152 186.3219
L181.6723 186.3933
" />
<path d="M181.6723 186.3933
L181.3866 186.3933
" />
<path d="M181.3866 186.3933
L181.2437 186.3219
" />
<path d="M181.2437 186.3219
L181.1723 186.1790
" />
<path d="M181.1723 186.1790
L181.1723 185.6076
" />
<path d="M181.1723 185.6076
L181.2437 185.4648
" />
<path d="M181.2437 185.4648
L181.3866 185.3933
" />
<path d="M181.3866 185.3933
L181.6723 185.3933
" />
<path d="M181.6723 185.3933
L181.8152 185.4648
" />
<path d="M181.8152 185.4648
L181.8866 185.6076
" />
<path d="M181.8866 185.6076
L181.8866 185.7505
" />
<path d="M181.8866 185.7505
L181.1723 185.8933
" />
<path d="M182.5295 186.2505
L182.6009 186.3219
" />
<path d="M182.6009 186.3219
L182.5295 186.3933
" />
<path d="M182.5295 186.3933
L182.4580 186.3219
" />
<path d="M182.4580 186.3219
L182.5295 186.2505
" />
<path d="M182.5295 186.2505
L182.5295 186.3933
" />
<path d="M182.5295 185.4648
L182.6009 185.5362
" />
<path d="M182.6009 185.5362
L182.5295 185.6076
" />
<path d="M182.5295 185.6076
L182.4580 185.5362
" />
<path d="M182.4580 185.5362
L182.5295 185.4648
" />
<path d="M182.5295 185.4648
L182.5295 185.6076
" />
<path d="M184.3866 186.3933
L184.3866 184.8933
" />
<path d="M184.5295 185.8219
L184.9580 186.3933
" />
<path d="M184.9580 185.3933
L184.3866 185.9648
" />
<path d="M185.6009 186.3933
L185.6009 185.3933
" />
<path d="M185.6009 184.8933
L185.5295 184.9648
" />
<path d="M185.5295 184.9648
L185.6009 185.0362
" />
<path d="M185.6009 185.0362
L185.6723 184.9648
" />
<path d="M185.6723 184.9648
L185.6009 184.8933
" />
<path d="M185.6009 184.8933
L185.6009 185.0362
" />
<path d="M186.9580 186.3219
L186.8152 186.3933
" />
<path d="M186.8152 186.3933
L186.5295 186.3933
" />
<path d="M186.5295 186.3933
L186.3866 186.3219
" />
<path d="M186.3866 186.3219
L186.3152 186.2505
" />
<path d="M186.3152 186.2505
L186.2437 186.1076
" />
<path d="M186.2437 186.1076
L186.2437 185.6790
" />
<path d="M186.2437 185.6790
L186.3152 185.5362
" />
<path d="M186.3152 185.5362
L186.3866 185.4648
" />
<path d="M186.3866 185.4648
L186.5295 185.3933
" />
<path d="M186.5295 185.3933
L186.8152 185.3933
" />
<path d="M186.8152 185.3933
L186.9580 185.4648
" />
<path d="M188.2437 186.3933
L188.2437 185.6076
" />
<path d="M188.2437 185.6076
L188.1723 185.4648
" />
<path d="M188.1723 185.4648
L188.0295 185.3933
" />
<path d="M188.0295 185.3933
L187.7437 185.3933
" />
<path d="M187.7437 185.3933
L187.6009 185.4648
" />
<path d="M188.2437 186.3219
L188.1009 186.3933
" />
<path d="M188.1009 186.3933
L187.7437 186.3933
" />
<path d="M187.7437 186.3933
L187.6009 186.3219
" />
<path d="M187.6009 186.3219
L187.5295 186.1790
" />
<path d="M187.5295 186.1790
L187.5295 186.0362
" />
<path d="M187.5295 186.0362
L187.6009 185.8933
" />
<path d="M187.6009 185.8933
L187.7437 185.8219
" />
<path d="M187.7437 185.8219
L188.1009 185.8219
" />
<path d="M188.1009 185.8219
L188.2437 185.7505
" />
<path d="M189.6009 186.3933
L189.6009 184.8933
" />
<path d="M189.6009 186.3219
L189.4580 186.3933
" />
<path d="M189.4580 186.3933
L189.1723 186.3933
" />
<path d="M189.1723 186.3933
L189.0295 186.3219
" />
<path d="M189.0295 186.3219
L188.9580 186.2505
" />
<path d="M188.9580 186.2505
L188.8866 186.1076
" />
<path d="M188.8866 186.1076
L188.8866 185.6790
" />
<path d="M188.8866 185.6790
L188.9580 185.5362
" />
<path d="M188.9580 185.5362
L189.0295 185.4648
" />
<path d="M189.0295 185.4648
L189.1723 185.3933
" />
<path d="M189.1723 185.3933
L189.4580 185.3933
" />
<path d="M189.4580 185.3933
L189.6009 185.4648
" />
<path d="M190.3152 186.2505
L190.3866 186.3219
" />
<path d="M190.3866 186.3219
L190.3152 186.3933
" />
<path d="M190.3152 186.3933
L190.2437 186.3219
" />
<path d="M190.2437 186.3219
L190.3152 186.2505
" />
<path d="M190.3152 186.2505
L190.3152 186.3933
" />
<path d="M191.0295 186.3933
L191.0295 184.8933
" />
<path d="M191.1723 185.8219
L191.6009 186.3933
" />
<path d="M191.6009 185.3933
L191.0295 185.9648
" />
<path d="M192.2437 186.3933
L192.2437 185.3933
" />
<path d="M192.2437 184.8933
L192.1723 184.9648
" />
<path d="M192.1723 184.9648
L192.2437 185.0362
" />
<path d="M192.2437 185.0362
L192.3152 184.9648
" />
<path d="M192.3152 184.9648
L192.2437 184.8933
" />
<path d="M192.2437 184.8933
L192.2437 185.0362
" />
<path d="M193.6009 186.3219
L193.4580 186.3933
" />
<path d="M193.4580 186.3933
L193.1723 186.3933
" />
<path d="M193.1723 186.3933
L193.0295 186.3219
" />
<path d="M193.0295 186.3219
L192.9580 186.2505
" />
<path d="M192.9580 186.2505
L192.8866 186.1076
" />
<path d="M192.8866 186.1076
L192.8866 185.6790
" />
<path d="M192.8866 185.6790
L192.9580 185.5362
" />
<path d="M192.9580 185.5362
L193.0295 185.4648
" />
<path d="M193.0295 185.4648
L193.1723 185.3933
" />
<path d="M193.1723 185.3933
L193.4580 185.3933
" />
<path d="M193.4580 185.3933
L193.6009 185.4648
" />
<path d="M194.8866 186.3933
L194.8866 185.6076
" />
<path d="M194.8866 185.6076
L194.8152 185.4648
" />
<path d="M194.8152 185.4648
L194.6723 185.3933
" />
<path d="M194.6723 185.3933
L194.3866 185.3933
" />
<path d="M194.3866 185.3933
L194.2437 185.4648
" />
<path d="M194.8866 186.3219
L194.7437 186.3933
" />
<path d="M194.7437 186.3933
L194.3866 186.3933
" />
<path d="M194.3866 186.3933
L194.2437 186.3219
" />
<path d="M194.2437 186.3219
L194.1723 186.1790
" />
<path d="M194.1723 186.1790
L194.1723 186.0362
" />
<path d="M194.1723 186.0362
L194.2437 185.8933
" />
<path d="M194.2437 185.8933
L194.3866 185.8219
" />
<path d="M194.3866 185.8219
L194.7437 185.8219
" />
<path d="M194.7437 185.8219
L194.8866 185.7505
" />
<path d="M196.2437 186.3933
L196.2437 184.8933
" />
<path d="M196.2437 186.3219
L196.1009 186.3933
" />
<path d="M196.1009 186.3933
L195.8152 186.3933
" />
<path d="M195.8152 186.3933
L195.6723 186.3219
" />
<path d="M195.6723 186.3219
L195.6009 186.2505
" />
<path d="M195.6009 186.2505
L195.5295 186.1076
" />
<path d="M195.5295 186.1076
L195.5295 185.6790
" />
<path d="M195.5295 185.6790
L195.6009 185.5362
" />
<path d="M195.6009 185.5362
L195.6723 185.4648
" />
<path d="M195.6723 185.4648
L195.8152 185.3933
" />
<path d="M195.8152 185.3933
L196.1009 185.3933
" />
<path d="M196.1009 185.3933
L196.2437 185.4648
" />
<path d="M196.6009 186.5362
L197.7437 186.5362
" />
<path d="M198.1009 185.3933
L198.1009 186.8933
" />
<path d="M198.1009 185.4648
L198.2437 185.3933
" />
<path d="M198.2437 185.3933
L198.5295 185.3933
" />
<path d="M198.5295 185.3933
L198.6723 185.4648
" />
<path d="M198.6723 185.4648
L198.7437 185.5362
" />
<path d="M198.7437 185.5362
L198.8152 185.6790
" />
<path d="M198.8152 185.6790
L198.8152 186.1076
" />
<path d="M198.8152 186.1076
L198.7437 186.2505
" />
<path d="M198.7437 186.2505
L198.6723 186.3219
" />
<path d="M198.6723 186.3219
L198.5295 186.3933
" />
<path d="M198.5295 186.3933
L198.2437 186.3933
" />
<path d="M198.2437 186.3933
L198.1009 186.3219
" />
<path d="M200.1009 186.3219
L199.9580 186.3933
" />
<path d="M199.9580 186.3933
L199.6723 186.3933
" />
<path d="M199.6723 186.3933
L199.5295 186.3219
" />
<path d="M199.5295 186.3219
L199.4580 186.2505
" />
<path d="M199.4580 186.2505
L199.3866 186.1076
" />
<path d="M199.3866 186.1076
L199.3866 185.6790
" />
<path d="M199.3866 185.6790
L199.4580 185.5362
" />
<path d="M199.4580 185.5362
L199.5295 185.4648
" />
<path d="M199.5295 185.4648
L199.6723 185.3933
" />
<path d="M199.6723 185.3933
L199.9580 185.3933
" />
<path d="M199.9580 185.3933
L200.1009 185.4648
" />
<path d="M200.7437 186.3933
L200.7437 184.8933
" />
<path d="M200.7437 185.4648
L200.8866 185.3933
" />
<path d="M200.8866 185.3933
L201.1723 185.3933
" />
<path d="M201.1723 185.3933
L201.3152 185.4648
" />
<path d="M201.3152 185.4648
L201.3866 185.5362
" />
<path d="M201.3866 185.5362
L201.4580 185.6790
" />
<path d="M201.4580 185.6790
L201.4580 186.1076
" />
<path d="M201.4580 186.1076
L201.3866 186.2505
" />
<path d="M201.3866 186.2505
L201.3152 186.3219
" />
<path d="M201.3152 186.3219
L201.1723 186.3933
" />
<path d="M201.1723 186.3933
L200.8866 186.3933
" />
<path d="M200.8866 186.3933
L200.7437 186.3219
" />
</g></g>
<g style="fill:#000000; fill-opacity:0.0; 
stroke:#000000; stroke-width:0.0212; stroke-opacity:1; 
stroke-linecap:round; stroke-linejoin:round;">
</g>
<g style="fill:#000000; fill-opacity:0.0; 
stroke:#000000; stroke-width:0.1500; stroke-opacity:1; 
stroke-linecap:round; stroke-linejoin:round;">
<path d="M177.0022 181.5072
L285.0022 181.5072
" />
</g>
<g style="fill:#000000; fill-opacity:0.0; 
stroke:#000000; stroke-width:0.0212; stroke-opacity:1; 
stroke-linecap:round; stroke-linejoin:round;">
</g>
<g style="fill:#000000; fill-opacity:0.0; 
stroke:#000000; stroke-width:0.1500; stroke-opacity:1; 
stroke-linecap:round; stroke-linejoin:round;">
<text x="178.0022" y="183.7572"
textLength="8.2214" font-size="2.0000" lengthAdjust="spacingAndGlyphs"
text-anchor="start" opacity="0">Sheet: </text>
<g class="stroked-text"><desc>Sheet: </desc>
<path d="M178.3866 183.6219
L178.6009 183.6933
" />
<path d="M178.6009 183.6933
L178.9580 183.6933
" />
<path d="M178.9580 183.6933
L179.1009 183.6219
" />
<path d="M179.1009 183.6219
L179.1723 183.5505
" />
<path d="M179.1723 183.5505
L179.2437 183.4076
" />
<path d="M179.2437 183.4076
L179.2437 183.2648
" />
<path d="M179.2437 183.2648
L179.1723 183.1219
" />
<path d="M179.1723 183.1219
L179.1009 183.0505
" />
<path d="M179.1009 183.0505
L178.9580 182.9790
" />
<path d="M178.9580 182.9790
L178.6723 182.9076
" />
<path d="M178.6723 182.9076
L178.5295 182.8362
" />
<path d="M178.5295 182.8362
L178.4580 182.7648
" />
<path d="M178.4580 182.7648
L178.3866 182.6219
" />
<path d="M178.3866 182.6219
L178.3866 182.4790
" />
<path d="M178.3866 182.4790
L178.4580 182.3362
" />
<path d="M178.4580 182.3362
L178.5295 182.2648
" />
<path d="M178.5295 182.2648
L178.6723 182.1933
" />
<path d="M178.6723 182.1933
L179.0295 182.1933
" />
<path d="M179.0295 182.1933
L179.2437 182.2648
" />
<path d="M179.8866 183.6933
L179.8866 182.1933
" />
<path d="M180.5295 183.6933
L180.5295 182.9076
" />
<path d="M180.5295 182.9076
L180.4580 182.7648
" />
<path d="M180.4580 182.7648
L180.3152 182.6933
" />
<path d="M180.3152 182.6933
L180.1009 182.6933
" />
<path d="M180.1009 182.6933
L179.9580 182.7648
" />
<path d="M179.9580 182.7648
L179.8866 182.8362
" />
<path d="M181.8152 183.6219
L181.6723 183.6933
" />
<path d="M181.6723 183.6933
L181.3866 183.6933
" />
<path d="M181.3866 183.6933
L181.2437 183.6219
" />
<path d="M181.2437 183.6219
L181.1723 183.4790
" />
<path d="M181.1723 183.4790
L181.1723 182.9076
" />
<path d="M181.1723 182.9076
L181.2437 182.7648
" />
<path d="M181.2437 182.7648
L181.3866 182.6933
" />
<path d="M181.3866 182.6933
L181.6723 182.6933
" />
<path d="M181.6723 182.6933
L181.8152 182.7648
" />
<path d="M181.8152 182.7648
L181.8866 182.9076
" />
<path d="M181.8866 182.9076
L181.8866 183.0505
" />
<path d="M181.8866 183.0505
L181.1723 183.1933
" />
<path d="M183.1009 183.6219
L182.9580 183.6933
" />
<path d="M182.9580 183.6933
L182.6723 183.6933
" />
<path d="M182.6723 183.6933
L182.5295 183.6219
" />
<path d="M182.5295 183.6219
L182.4580 183.4790
" />
<path d="M182.4580 183.4790
L182.4580 182.9076
" />
<path d="M182.4580 182.9076
L182.5295 182.7648
" />
<path d="M182.5295 182.7648
L182.6723 182.6933
" />
<path d="M182.6723 182.6933
L182.9580 182.6933
" />
<path d="M182.9580 182.6933
L183.1009 182.7648
" />
<path d="M183.1009 182.7648
L183.1723 182.9076
" />
<path d="M183.1723 182.9076
L183.1723 183.0505
" />
<path d="M183.1723 183.0505
L182.4580 183.1933
" />
<path d="M183.6009 182.6933
L184.1723 182.6933
" />
<path d="M183.8152 182.1933
L183.8152 183.4790
" />
<path d="M183.8152 183.4790
L183.8866 183.6219
" />
<path d="M183.8866 183.6219
L184.0295 183.6933
" />
<path d="M184.0295 183.6933
L184.1723 183.6933
" />
<path d="M184.6723 183.5505
L184.7437 183.6219
" />
<path d="M184.7437 183.6219
L184.6723 183.6933
" />
<path d="M184.6723 183.6933
L184.6009 183.6219
" />
<path d="M184.6009 183.6219
L184.6723 183.5505
" />
<path d="M184.6723 183.5505
L184.6723 183.6933
" />
<path d="M184.6723 182.7648
L184.7437 182.8362
" />
<path d="M184.7437 182.8362
L184.6723 182.9076
" />
<path d="M184.6723 182.9076
L184.6009 182.8362
" />
<path d="M184.6009 182.8362
L184.6723 182.7648
" />
<path d="M184.6723 182.7648
L184.6723 182.9076
" />
</g></g>
<g style="fill:#000000; fill-opacity:0.0; 
stroke:#000000; stroke-width:0.0212; stroke-opacity:1; 
stroke-linecap:round; stroke-linejoin:round;">
</g>
<g style="fill:#000000; fill-opacity:0.0; 
stroke:#000000; stroke-width:0.3000; stroke-opacity:1; 
stroke-linecap:round; stroke-linejoin:round;">
<text x="178.0022" y="180.7572"
textLength="0.9000" font-size="2.0000" lengthAdjust="spacingAndGlyphs"
text-anchor="start" opacity="0"></text>
<g class="stroked-text"><desc></desc>
</g></g>
<g style="fill:#000000; fill-opacity:0.0; 
stroke:#000000; stroke-width:0.0212; stroke-opacity:1; 
stroke-linecap:round; stroke-linejoin:round;">
</g>
<g style="fill:#000000; fill-opacity:0.0; 
stroke:#000000; stroke-width:0.1500; stroke-opacity:1; 
stroke-linecap:round; stroke-linejoin:round;">
<text x="178.0022" y="177.7572"
textLength="0.4500" font-size="2.0000" lengthAdjust="spacingAndGlyphs"
text-anchor="start" opacity="0"></text>
<g class="stroked-text"><desc></desc>
</g></g>
<g style="fill:#000000; fill-opacity:0.0; 
stroke:#000000; stroke-width:0.0212; stroke-opacity:1; 
stroke-linecap:round; stroke-linejoin:round;">
</g>
<g style="fill:#000000; fill-opacity:0.0; 
stroke:#000000; stroke-width:0.1500; stroke-opacity:1; 
stroke-linecap:round; stroke-linejoin:round;">
<text x="178.0022" y="174.7572"
textLength="0.4500" font-size="2.0000" lengthAdjust="spacingAndGlyphs"
text-anchor="start" opacity="0"></text>
<g class="stroked-text"><desc></desc>
</g></g>
<g style="fill:#000000; fill-opacity:0.0; 
stroke:#000000; stroke-width:0.0212; stroke-opacity:1; 
stroke-linecap:round; stroke-linejoin:round;">
</g>
<g style="fill:#000000; fill-opacity:0.0; 
stroke:#000000; stroke-width:0.1500; stroke-opacity:1; 
stroke-linecap:round; stroke-linejoin:round;">
<text x="178.0022" y="171.7572"
textLength="0.4500" font-size="2.0000" lengthAdjust="spacingAndGlyphs"
text-anchor="start" opacity="0"></text>
<g class="stroked-text"><desc></desc>
</g></g>
<g style="fill:#000000; fill-opacity:0.0; 
stroke:#000000; stroke-width:0.0212; stroke-opacity:1; 
stroke-linecap:round; stroke-linejoin:round;">
</g>
<g style="fill:#000000; fill-opacity:0.0; 
stroke:#000000; stroke-width:0.1500; stroke-opacity:1; 
stroke-linecap:round; stroke-linejoin:round;">
<text x="178.0022" y="168.7572"
textLength="0.4500" font-size="2.0000" lengthAdjust="spacingAndGlyphs"
text-anchor="start" opacity="0"></text>
<g class="stroked-text"><desc></desc>
</g></g>
<g style="fill:#000000; fill-opacity:0.0; 
stroke:#000000; stroke-width:0.0212; stroke-opacity:1; 
stroke-linecap:round; stroke-linejoin:round;">
</g>
<g style="fill:#000000; fill-opacity:0.0; 
stroke:#000000; stroke-width:0.1500; stroke-opacity:1; 
stroke-linecap:round; stroke-linejoin:round;">
<path d="M197.0022 191.5072
L197.0022 194.5072
" />
</g>
<g style="fill:#000000; fill-opacity:0.0; 
stroke:#000000; stroke-width:0.0212; stroke-opacity:1; 
stroke-linecap:round; stroke-linejoin:round;">
</g>
<g style="fill:#000000; fill-opacity:0.0; 
stroke:#000000; stroke-width:0.1500; stroke-opacity:1; 
stroke-linecap:round; stroke-linejoin:round;">
<path d="M261.0022 191.5072
L261.0022 198.0072
" />
</g>
<g style="fill:#E8B2A7; fill-opacity:0.0; 
stroke:#E8B2A7; stroke-width:0.1500; stroke-opacity:1; 
stroke-linecap:round; stroke-linejoin:round;">
</g>
<g style="fill:#E8B2A7; fill-opacity:0.0; 
stroke:#E8B2A7; stroke-width:0.3000; stroke-opacity:1; 
stroke-linecap:round; stroke-linejoin:round;">
<g transform="rotate(90.000000 56.0000 72.2500)">
<text x="56.0000" y="72.2500"
transform="scale(-1 1) translate(-112.000000 0)"
textLength="5.1714" font-size="2.0000" lengthAdjust="spacingAndGlyphs"
text-anchor="start" opacity="0">+5V</text>
</g>
<g class="stroked-text"><desc>+5V</desc>
<path d="M56.7706 71.6955
L56.7706 70.5526
" />
<path d="M56.1992 71.1241
L57.3420 71.1241
" />
<path d="M57.6992 69.1241
L57.6992 69.8383
" />
<path d="M57.6992 69.8383
L56.9849 69.9098
" />
<path d="M56.9849 69.9098
L57.0563 69.8383
" />
<path d="M57.0563 69.8383
L57.1277 69.6955
" />
<path d="M57.1277 69.6955
L57.1277 69.3383
" />
<path d="M57.1277 69.3383
L57.0563 69.1955
" />
<path d="M57.0563 69.1955
L56.9849 69.1241
" />
<path d="M56.9849 69.1241
L56.8420 69.0526
" />
<path d="M56.8420 69.0526
L56.4849 69.0526
" />
<path d="M56.4849 69.0526
L56.3420 69.1241
" />
<path d="M56.3420 69.1241
L56.2706 69.1955
" />
<path d="M56.2706 69.1955
L56.1992 69.3383
" />
<path d="M56.1992 69.3383
L56.1992 69.6955
" />
<path d="M56.1992 69.6955
L56.2706 69.8383
" />
<path d="M56.2706 69.8383
L56.3420 69.9098
" />
<path d="M57.6992 68.6241
L56.1992 68.1241
" />
<path d="M56.1992 68.1241
L57.6992 67.6241
" />
</g><g transform="rotate(90.000000 72.0000 72.2500)">
<text x="72.0000" y="72.2500"
transform="scale(-1 1) translate(-144.000000 0)"
textLength="4.6714" font-size="2.0000" lengthAdjust="spacingAndGlyphs"
text-anchor="start" opacity="0">LED</text>
</g>
<g class="stroked-text"><desc>LED</desc>
<path d="M72.1992 70.9812
L72.1992 71.6955
" />
<path d="M72.1992 71.6955
L73.6992 71.6955
" />
<path d="M72.9849 70.4812
L72.9849 69.9812
" />
<path d="M72.1992 69.7669
L72.1992 70.4812
" />
<path d="M72.1992 70.4812
L73.6992 70.4812
" />
<path d="M73.6992 70.4812
L73.6992 69.7669
" />
<path d="M72.1992 69.1241
L73.6992 69.1241
" />
<path d="M73.6992 69.1241
L73.6992 68.7669
" />
<path d="M73.6992 68.7669
L73.6277 68.5526
" />
<path d="M73.6277 68.5526
L73.4849 68.4098
" />
<path d="M73.4849 68.4098
L73.3420 68.3383
" />
<path d="M73.3420 68.3383
L73.0563 68.2669
" />
<path d="M73.0563 68.2669
L72.8420 68.2669
" />
<path d="M72.8420 68.2669
L72.5563 68.3383
" />
<path d="M72.5563 68.3383
L72.4135 68.4098
" />
<path d="M72.4135 68.4098
L72.2706 68.5526
" />
<path d="M72.2706 68.5526
L72.1992 68.7669
" />
<path d="M72.1992 68.7669
L72.1992 69.1241
" />
</g><g transform="rotate(90.000000 61.0000 72.5000)">
<text x="61.0000" y="72.5000"
transform="scale(-1 1) translate(-122.000000 0)"
textLength="5.1714" font-size="2.0000" lengthAdjust="spacingAndGlyphs"
text-anchor="start" opacity="0">GND</text>
</g>
<g class="stroked-text"><desc>GND</desc>
<path d="M62.6277 71.1598
L62.6992 71.3026
" />
<path d="M62.6992 71.3026
L62.6992 71.5169
" />
<path d="M62.6992 71.5169
L62.6277 71.7312
" />
<path d="M62.6277 71.7312
L62.4849 71.8741
" />
<path d="M62.4849 71.8741
L62.3420 71.9455
" />
<path d="M62.3420 71.9455
L62.0563 72.0169
" />
<path d="M62.0563 72.0169
L61.8420 72.0169
" />
<path d="M61.8420 72.0169
L61.5563 71.9455
" />
<path d="M61.5563 71.9455
L61.4135 71.8741
" />
<path d="M61.4135 71.8741
L61.2706 71.7312
" />
<path d="M61.2706 71.7312
L61.1992 71.5169
" />
<path d="M61.1992 71.5169
L61.1992 71.3741
" />
<path d="M61.1992 71.3741
L61.2706 71.1598
" />
<path d="M61.2706 71.1598
L61.3420 71.0883
" />
<path d="M61.3420 71.0883
L61.8420 71.0883
" />
<path d="M61.8420 71.0883
L61.8420 71.3741
" />
<path d="M61.1992 70.4455
L62.6992 70.4455
" />
<path d="M62.6992 70.4455
L61.1992 69.5883
" />
<path d="M61.1992 69.5883
L62.6992 69.5883
" />
<path d="M61.1992 68.8741
L62.6992 68.8741
" />
<path d="M62.6992 68.8741
L62.6992 68.5169
" />
<path d="M62.6992 68.5169
L62.6277 68.3026
" />
<path d="M62.6277 68.3026
L62.4849 68.1598
" />
<path d="M62.4849 68.1598
L62.3420 68.0883
" />
<path d="M62.3420 68.0883
L62.0563 68.0169
" />
<path d="M62.0563 68.0169
L61.8420 68.0169
" />
<path d="M61.8420 68.0169
L61.5563 68.0883
" />
<path d="M61.5563 68.0883
L61.4135 68.1598
" />
<path d="M61.4135 68.1598
L61.2706 68.3026
" />
<path d="M61.2706 68.3026
L61.1992 68.5169
" />
<path d="M61.1992 68.5169
L61.1992 68.8741
" />
</g><g transform="rotate(90.000000 63.0000 72.2500)">
<text x="63.0000" y="72.2500"
transform="scale(-1 1) translate(-126.000000 0)"
textLength="4.6714" font-size="2.0000" lengthAdjust="spacingAndGlyphs"
text-anchor="start" opacity="0">LED</text>
</g>
<g class="stroked-text"><desc>LED</desc>
<path d="M63.1992 70.9812
L63.1992 71.6955
" />
<path d="M63.1992 71.6955
L64.6992 71.6955
" />
<path d="M63.9849 70.4812
L63.9849 69.9812
" />
<path d="M63.1992 69.7669
L63.1992 70.4812
" />
<path d="M63.1992 70.4812
L64.6992 70.4812
" />
<path d="M64.6992 70.4812
L64.6992 69.7669
" />
<path d="M63.1992 69.1241
L64.6992 69.1241
" />
<path d="M64.6992 69.1241
L64.6992 68.7669
" />
<path d="M64.6992 68.7669
L64.6277 68.5526
" />
<path d="M64.6277 68.5526
L64.4849 68.4098
" />
<path d="M64.4849 68.4098
L64.3420 68.3383
" />
<path d="M64.3420 68.3383
L64.0563 68.2669
" />
<path d="M64.0563 68.2669
L63.8420 68.2669
" />
<path d="M63.8420 68.2669
L63.5563 68.3383
" />
<path d="M63.5563 68.3383
L63.4135 68.4098
" />
<path d="M63.4135 68.4098
L63.2706 68.5526
" />
<path d="M63.2706 68.5526
L63.1992 68.7669
" />
<path d="M63.1992 68.7669
L63.1992 69.1241
" />
</g><g transform="rotate(90.000000 52.0000 72.5000)">
<text x="52.0000" y="72.5000"
transform="scale(-1 1) translate(-104.000000 0)"
textLength="5.1714" font-size="2.0000" lengthAdjust="spacingAndGlyphs"
text-anchor="start" opacity="0">GND</text>
</g>
<g class="stroked-text"><desc>GND</desc>
<path d="M53.6277 71.1598
L53.6992 71.3026
" />
<path d="M53.6992 71.3026
L53.6992 71.5169
" />
<path d="M53.6992 71.5169
L53.6277 71.7312
" />
<path d="M53.6277 71.7312
L53.4849 71.8741
" />
<path d="M53.4849 71.8741
L53.3420 71.9455
" />
<path d="M53.3420 71.9455
L53.0563 72.0169
" />
<path d="M53.0563 72.0169
L52.8420 72.0169
" />
<path d="M52.8420 72.0169
L52.5563 71.9455
" />
<path d="M52.5563 71.9455
L52.4135 71.8741
" />
<path d="M52.4135 71.8741
L52.2706 71.7312
" />
<path d="M52.2706 71.7312
L52.1992 71.5169
" />
<path d="M52.1992 71.5169
L52.1992 71.3741
" />
<path d="M52.1992 71.3741
L52.2706 71.1598
" />
<path d="M52.2706 71.1598
L52.3420 71.0883
" />
<path d="M52.3420 71.0883
L52.8420 71.0883
" />
<path d="M52.8420 71.0883
L52.8420 71.3741
" />
<path d="M52.1992 70.4455
L53.6992 70.4455
" />
<path d="M53.6992 70.4455
L52.1992 69.5883
" />
<path d="M52.1992 69.5883
L53.6992 69.5883
" />
<path d="M52.1992 68.8741
L53.6992 68.8741
" />
<path d="M53.6992 68.8741
L53.6992 68.5169
" />
<path d="M53.6992 68.5169
L53.6277 68.3026
" />
<path d="M53.6277 68.3026
L53.4849 68.1598
" />
<path d="M53.4849 68.1598
L53.3420 68.0883
" />
<path d="M53.3420 68.0883
L53.0563 68.0169
" />
<path d="M53.0563 68.0169
L52.8420 68.0169
" />
<path d="M52.8420 68.0169
L52.5563 68.0883
" />
<path d="M52.5563 68.0883
L52.4135 68.1598
" />
<path d="M52.4135 68.1598
L52.2706 68.3026
" />
<path d="M52.2706 68.3026
L52.1992 68.5169
" />
<path d="M52.1992 68.5169
L52.1992 68.8741
" />
</g><g transform="rotate(90.000000 65.0000 72.2500)">
<text x="65.0000" y="72.2500"
transform="scale(-1 1) translate(-130.000000 0)"
textLength="5.1714" font-size="2.0000" lengthAdjust="spacingAndGlyphs"
text-anchor="start" opacity="0">+5V</text>
</g>
<g class="stroked-text"><desc>+5V</desc>
<path d="M65.7706 71.6955
L65.7706 70.5526
" />
<path d="M65.1992 71.1241
L66.3420 71.1241
" />
<path d="M66.6992 69.1241
L66.6992 69.8383
" />
<path d="M66.6992 69.8383
L65.9849 69.9098
" />
<path d="M65.9849 69.9098
L66.0563 69.8383
" />
<path d="M66.0563 69.8383
L66.1277 69.6955
" />
<path d="M66.1277 69.6955
L66.1277 69.3383
" />
<path d="M66.1277 69.3383
L66.0563 69.1955
" />
<path d="M66.0563 69.1955
L65.9849 69.1241
" />
<path d="M65.9849 69.1241
L65.8420 69.0526
" />
<path d="M65.8420 69.0526
L65.4849 69.0526
" />
<path d="M65.4849 69.0526
L65.3420 69.1241
" />
<path d="M65.3420 69.1241
L65.2706 69.1955
" />
<path d="M65.2706 69.1955
L65.1992 69.3383
" />
<path d="M65.1992 69.3383
L65.1992 69.6955
" />
<path d="M65.1992 69.6955
L65.2706 69.8383
" />
<path d="M65.2706 69.8383
L65.3420 69.9098
" />
<path d="M66.6992 68.6241
L65.1992 68.1241
" />
<path d="M65.1992 68.1241
L66.6992 67.6241
" />
</g><g transform="rotate(90.000000 74.0000 72.2500)">
<text x="74.0000" y="72.2500"
transform="scale(-1 1) translate(-148.000000 0)"
textLength="5.1714" font-size="2.0000" lengthAdjust="spacingAndGlyphs"
text-anchor="start" opacity="0">+5V</text>
</g>
<g class="stroked-text"><desc>+5V</desc>
<path d="M74.7706 71.6955
L74.7706 70.5526
" />
<path d="M74.1992 71.1241
L75.3420 71.1241
" />
<path d="M75.6992 69.1241
L75.6992 69.8383
" />
<path d="M75.6992 69.8383
L74.9849 69.9098
" />
<path d="M74.9849 69.9098
L75.0563 69.8383
" />
<path d="M75.0563 69.8383
L75.1277 69.6955
" />
<path d="M75.1277 69.6955
L75.1277 69.3383
" />
<path d="M75.1277 69.3383
L75.0563 69.1955
" />
<path d="M75.0563 69.1955
L74.9849 69.1241
" />
<path d="M74.9849 69.1241
L74.8420 69.0526
" />
<path d="M74.8420 69.0526
L74.4849 69.0526
" />
<path d="M74.4849 69.0526
L74.3420 69.1241
" />
<path d="M74.3420 69.1241
L74.2706 69.1955
" />
<path d="M74.2706 69.1955
L74.1992 69.3383
" />
<path d="M74.1992 69.3383
L74.1992 69.6955
" />
<path d="M74.1992 69.6955
L74.2706 69.8383
" />
<path d="M74.2706 69.8383
L74.3420 69.9098
" />
<path d="M75.6992 68.6241
L74.1992 68.1241
" />
<path d="M74.1992 68.1241
L75.6992 67.6241
" />
</g><g transform="rotate(90.000000 70.0000 72.5000)">
<text x="70.0000" y="72.5000"
transform="scale(-1 1) translate(-140.000000 0)"
textLength="5.1714" font-size="2.0000" lengthAdjust="spacingAndGlyphs"
text-anchor="start" opacity="0">GND</text>
</g>
<g class="stroked-text"><desc>GND</desc>
<path d="M71.6277 71.1598
L71.6992 71.3026
" />
<path d="M71.6992 71.3026
L71.6992 71.5169
" />
<path d="M71.6992 71.5169
L71.6277 71.7312
" />
<path d="M71.6277 71.7312
L71.4849 71.8741
" />
<path d="M71.4849 71.8741
L71.3420 71.9455
" />
<path d="M71.3420 71.9455
L71.0563 72.0169
" />
<path d="M71.0563 72.0169
L70.8420 72.0169
" />
<path d="M70.8420 72.0169
L70.5563 71.9455
" />
<path d="M70.5563 71.9455
L70.4135 71.8741
" />
<path d="M70.4135 71.8741
L70.2706 71.7312
" />
<path d="M70.2706 71.7312
L70.1992 71.5169
" />
<path d="M70.1992 71.5169
L70.1992 71.3741
" />
<path d="M70.1992 71.3741
L70.2706 71.1598
" />
<path d="M70.2706 71.1598
L70.3420 71.0883
" />
<path d="M70.3420 71.0883
L70.8420 71.0883
" />
<path d="M70.8420 71.0883
L70.8420 71.3741
" />
<path d="M70.1992 70.4455
L71.6992 70.4455
" />
<path d="M71.6992 70.4455
L70.1992 69.5883
" />
<path d="M70.1992 69.5883
L71.6992 69.5883
" />
<path d="M70.1992 68.8741
L71.6992 68.8741
" />
<path d="M71.6992 68.8741
L71.6992 68.5169
" />
<path d="M71.6992 68.5169
L71.6277 68.3026
" />
<path d="M71.6277 68.3026
L71.4849 68.1598
" />
<path d="M71.4849 68.1598
L71.3420 68.0883
" />
<path d="M71.3420 68.0883
L71.0563 68.0169
" />
<path d="M71.0563 68.0169
L70.8420 68.0169
" />
<path d="M70.8420 68.0169
L70.5563 68.0883
" />
<path d="M70.5563 68.0883
L70.4135 68.1598
" />
<path d="M70.4135 68.1598
L70.2706 68.3026
" />
<path d="M70.2706 68.3026
L70.1992 68.5169
" />
<path d="M70.1992 68.5169
L70.1992 68.8741
" />
</g><g transform="rotate(90.000000 54.0000 72.2500)">
<text x="54.0000" y="72.2500"
transform="scale(-1 1) translate(-108.000000 0)"
textLength="4.6714" font-size="2.0000" lengthAdjust="spacingAndGlyphs"
text-anchor="start" opacity="0">LED</text>
</g>
<g class="stroked-text"><desc>LED</desc>
<path d="M54.1992 70.9812
L54.1992 71.6955
" />
<path d="M54.1992 71.6955
L55.6992 71.6955
" />
<path d="M54.9849 70.4812
L54.9849 69.9812
" />
<path d="M54.1992 69.7669
L54.1992 70.4812
" />
<path d="M54.1992 70.4812
L55.6992 70.4812
" />
<path d="M55.6992 70.4812
L55.6992 69.7669
" />
<path d="M54.1992 69.1241
L55.6992 69.1241
" />
<path d="M55.6992 69.1241
L55.6992 68.7669
" />
<path d="M55.6992 68.7669
L55.6277 68.5526
" />
<path d="M55.6277 68.5526
L55.4849 68.4098
" />
<path d="M55.4849 68.4098
L55.3420 68.3383
" />
<path d="M55.3420 68.3383
L55.0563 68.2669
" />
<path d="M55.0563 68.2669
L54.8420 68.2669
" />
<path d="M54.8420 68.2669
L54.5563 68.3383
" />
<path d="M54.5563 68.3383
L54.4135 68.4098
" />
<path d="M54.4135 68.4098
L54.2706 68.5526
" />
<path d="M54.2706 68.5526
L54.1992 68.7669
" />
<path d="M54.1992 68.7669
L54.1992 69.1241
" />
</g><text x="73.5000" y="83.5000"
transform="scale(-1 1) translate(-147.000000 0)"
textLength="7.5286" font-size="2.0000" lengthAdjust="spacingAndGlyphs"
text-anchor="start" opacity="0">BATT+</text>
<g class="stroked-text"><desc>BATT+</desc>
<path d="M72.4455 82.5151
L72.2312 82.5865
" />
<path d="M72.2312 82.5865
L72.1598 82.6580
" />
<path d="M72.1598 82.6580
L72.0883 82.8008
" />
<path d="M72.0883 82.8008
L72.0883 83.0151
" />
<path d="M72.0883 83.0151
L72.1598 83.1580
" />
<path d="M72.1598 83.1580
L72.2312 83.2294
" />
<path d="M72.2312 83.2294
L72.3741 83.3008
" />
<path d="M72.3741 83.3008
L72.9455 83.3008
" />
<path d="M72.9455 83.3008
L72.9455 81.8008
" />
<path d="M72.9455 81.8008
L72.4455 81.8008
" />
<path d="M72.4455 81.8008
L72.3026 81.8723
" />
<path d="M72.3026 81.8723
L72.2312 81.9437
" />
<path d="M72.2312 81.9437
L72.1598 82.0865
" />
<path d="M72.1598 82.0865
L72.1598 82.2294
" />
<path d="M72.1598 82.2294
L72.2312 82.3723
" />
<path d="M72.2312 82.3723
L72.3026 82.4437
" />
<path d="M72.3026 82.4437
L72.4455 82.5151
" />
<path d="M72.4455 82.5151
L72.9455 82.5151
" />
<path d="M71.5169 82.8723
L70.8026 82.8723
" />
<path d="M71.6598 83.3008
L71.1598 81.8008
" />
<path d="M71.1598 81.8008
L70.6598 83.3008
" />
<path d="M70.3741 81.8008
L69.5169 81.8008
" />
<path d="M69.9455 83.3008
L69.9455 81.8008
" />
<path d="M69.2312 81.8008
L68.3741 81.8008
" />
<path d="M68.8026 83.3008
L68.8026 81.8008
" />
<path d="M67.8741 82.7294
L66.7312 82.7294
" />
<path d="M67.3026 83.3008
L67.3026 82.1580
" />
</g><text x="73.0000" y="152.5000"
transform="scale(-1 1) translate(-146.000000 0)"
textLength="7.5286" font-size="2.0000" lengthAdjust="spacingAndGlyphs"
text-anchor="start" opacity="0">BATT-</text>
<g class="stroked-text"><desc>BATT-</desc>
<path d="M71.9455 151.5151
L71.7312 151.5865
" />
<path d="M71.7312 151.5865
L71.6598 151.6580
" />
<path d="M71.6598 151.6580
L71.5883 151.8008
" />
<path d="M71.5883 151.8008
L71.5883 152.0151
" />
<path d="M71.5883 152.0151
L71.6598 152.1580
" />
<path d="M71.6598 152.1580
L71.7312 152.2294
" />
<path d="M71.7312 152.2294
L71.8741 152.3008
" />
<path d="M71.8741 152.3008
L72.4455 152.3008
" />
<path d="M72.4455 152.3008
L72.4455 150.8008
" />
<path d="M72.4455 150.8008
L71.9455 150.8008
" />
<path d="M71.9455 150.8008
L71.8026 150.8723
" />
<path d="M71.8026 150.8723
L71.7312 150.9437
" />
<path d="M71.7312 150.9437
L71.6598 151.0865
" />
<path d="M71.6598 151.0865
L71.6598 151.2294
" />
<path d="M71.6598 151.2294
L71.7312 151.3723
" />
<path d="M71.7312 151.3723
L71.8026 151.4437
" />
<path d="M71.8026 151.4437
L71.9455 151.5151
" />
<path d="M71.9455 151.5151
L72.4455 151.5151
" />
<path d="M71.0169 151.8723
L70.3026 151.8723
" />
<path d="M71.1598 152.3008
L70.6598 150.8008
" />
<path d="M70.6598 150.8008
L70.1598 152.3008
" />
<path d="M69.8741 150.8008
L69.0169 150.8008
" />
<path d="M69.4455 152.3008
L69.4455 150.8008
" />
<path d="M68.7312 150.8008
L67.8741 150.8008
" />
<path d="M68.3026 152.3008
L68.3026 150.8008
" />
<path d="M67.3741 151.7294
L66.2312 151.7294
" />
</g><g >
</g>
<g >
</g>
<g >
</g>
<g >
</g>
<g >
</g>
<g >
</g>
<g >
</g>
<g >
</g>
<g >
</g>
<g >
</g>
<g >
</g>
<g >
</g>
<g >
</g>
<g >
</g>
<g >
</g>
<g >
</g>
<g >
</g>
<g >
</g>
<g >
</g>
<g >
</g>
<g >
</g>
<g >
</g>
<g >
</g>
<g >
</g>
<g >
</g>
<g >
</g>
<g >
</g>
<g >
</g>
<g >
</g>
<g >
</g>
<g >
</g>
<g >
</g>
<g >
</g>
<g >
</g>
<g >
</g>
<g >
</g>
<g >
</g>
<g >
</g>
<g >
</g>
<g >
</g>
<g >
</g>
<g >
</g>
<g >
</g>
<g >
</g>
<g >
</g>
<g >
</g>
<g >
</g>
<g >
</g>
<g >
</g>
</g>
<g style="fill:#000000; fill-opacity:0.0; 
stroke:#000000; stroke-width:0.3000; stroke-opacity:1; 
stroke-linecap:round; stroke-linejoin:round;">
</g>
<g style="fill:#D0D2CD; fill-opacity:0.0; 
stroke:#D0D2CD; stroke-width:0.3000; stroke-opacity:1; 
stroke-linecap:round; stroke-linejoin:round;">
</g>
<g style="fill:#D0D2CD; fill-opacity:0.0; 
stroke:#D0D2CD; stroke-width:0.1000; stroke-opacity:1; 
stroke-linecap:round; stroke-linejoin:round;">
<path style="fill:#D0D2CD; fill-opacity:0.0; 
stroke:#D0D2CD; stroke-width:0.1000; stroke-opacity:1; 
stroke-linecap:round; stroke-linejoin:round;fill:none"
d="M 54.5000,84.0000
73.5000,84.0000
73.5000,150.0000
54.5000,150.0000
Z" /> 
<path style="fill:#D0D2CD; fill-opacity:0.0; 
stroke:#D0D2CD; stroke-width:0.1000; stroke-opacity:1; 
stroke-linecap:round; stroke-linejoin:round;fill:none"
d="M 50.0000,30.0000
78.0000,30.0000
78.0000,160.0000
50.0000,160.0000
Z" /> 
<g >
</g>
<g >
</g>
<g >
</g>
<g >
</g>
<g >
</g>
<g >
</g>
<g >
</g>
<g >
</g>
<g >
</g>
<g >
</g>
<g >
</g>
<g >
</g>
<g >
</g>
<g >
</g>
<g >
</g>
<g >
</g>
<g >
</g>
<g >
</g>
<g >
</g>
<g >
</g>
<g >
</g>
<g >
</g>
<g >
</g>
<g >
</g>
<g >
</g>
<g >
</g>
<g >
</g>
<g >
</g>
<g >
</g>
<g >
</g>
<g >
</g>
<g >
</g>
<g >
</g>
<g >
</g>
<g >
</g>
<g >
</g>
<g >
</g>
<g >
</g>
<g >
</g>
<g >
</g>
<g >
</g>
<g >
</g>
<g >
</g>
<g >
</g>
<g >
</g>
<g >
</g>
<g >
</g>
<g >
</g>
<g >
</g>
</g> 
</svg>
