%TF.GenerationSoftware,KiCad,Pcbnew,7.0.10*%
%TF.CreationDate,2024-08-20T03:50:42-07:00*%
%TF.ProjectId,kicad,6b696361-642e-46b6-9963-61645f706362,rev?*%
%TF.SameCoordinates,Original*%
%TF.FileFunction,Legend,Top*%
%TF.FilePolarity,Positive*%
%FSLAX46Y46*%
G04 Gerber Fmt 4.6, Leading zero omitted, Abs format (unit mm)*
G04 Created by KiCad (PCBNEW 7.0.10) date 2024-08-20 03:50:42*
%MOMM*%
%LPD*%
G01*
G04 APERTURE LIST*
%ADD10C,0.150000*%
%ADD11C,0.120000*%
%ADD12C,0.152400*%
G04 APERTURE END LIST*
D10*
X160049580Y-107016666D02*
X160097200Y-107064285D01*
X160097200Y-107064285D02*
X160144819Y-107207142D01*
X160144819Y-107207142D02*
X160144819Y-107302380D01*
X160144819Y-107302380D02*
X160097200Y-107445237D01*
X160097200Y-107445237D02*
X160001961Y-107540475D01*
X160001961Y-107540475D02*
X159906723Y-107588094D01*
X159906723Y-107588094D02*
X159716247Y-107635713D01*
X159716247Y-107635713D02*
X159573390Y-107635713D01*
X159573390Y-107635713D02*
X159382914Y-107588094D01*
X159382914Y-107588094D02*
X159287676Y-107540475D01*
X159287676Y-107540475D02*
X159192438Y-107445237D01*
X159192438Y-107445237D02*
X159144819Y-107302380D01*
X159144819Y-107302380D02*
X159144819Y-107207142D01*
X159144819Y-107207142D02*
X159192438Y-107064285D01*
X159192438Y-107064285D02*
X159240057Y-107016666D01*
X159144819Y-106159523D02*
X159144819Y-106349999D01*
X159144819Y-106349999D02*
X159192438Y-106445237D01*
X159192438Y-106445237D02*
X159240057Y-106492856D01*
X159240057Y-106492856D02*
X159382914Y-106588094D01*
X159382914Y-106588094D02*
X159573390Y-106635713D01*
X159573390Y-106635713D02*
X159954342Y-106635713D01*
X159954342Y-106635713D02*
X160049580Y-106588094D01*
X160049580Y-106588094D02*
X160097200Y-106540475D01*
X160097200Y-106540475D02*
X160144819Y-106445237D01*
X160144819Y-106445237D02*
X160144819Y-106254761D01*
X160144819Y-106254761D02*
X160097200Y-106159523D01*
X160097200Y-106159523D02*
X160049580Y-106111904D01*
X160049580Y-106111904D02*
X159954342Y-106064285D01*
X159954342Y-106064285D02*
X159716247Y-106064285D01*
X159716247Y-106064285D02*
X159621009Y-106111904D01*
X159621009Y-106111904D02*
X159573390Y-106159523D01*
X159573390Y-106159523D02*
X159525771Y-106254761D01*
X159525771Y-106254761D02*
X159525771Y-106445237D01*
X159525771Y-106445237D02*
X159573390Y-106540475D01*
X159573390Y-106540475D02*
X159621009Y-106588094D01*
X159621009Y-106588094D02*
X159716247Y-106635713D01*
X145503333Y-106854819D02*
X145170000Y-106378628D01*
X144931905Y-106854819D02*
X144931905Y-105854819D01*
X144931905Y-105854819D02*
X145312857Y-105854819D01*
X145312857Y-105854819D02*
X145408095Y-105902438D01*
X145408095Y-105902438D02*
X145455714Y-105950057D01*
X145455714Y-105950057D02*
X145503333Y-106045295D01*
X145503333Y-106045295D02*
X145503333Y-106188152D01*
X145503333Y-106188152D02*
X145455714Y-106283390D01*
X145455714Y-106283390D02*
X145408095Y-106331009D01*
X145408095Y-106331009D02*
X145312857Y-106378628D01*
X145312857Y-106378628D02*
X144931905Y-106378628D01*
X146408095Y-105854819D02*
X145931905Y-105854819D01*
X145931905Y-105854819D02*
X145884286Y-106331009D01*
X145884286Y-106331009D02*
X145931905Y-106283390D01*
X145931905Y-106283390D02*
X146027143Y-106235771D01*
X146027143Y-106235771D02*
X146265238Y-106235771D01*
X146265238Y-106235771D02*
X146360476Y-106283390D01*
X146360476Y-106283390D02*
X146408095Y-106331009D01*
X146408095Y-106331009D02*
X146455714Y-106426247D01*
X146455714Y-106426247D02*
X146455714Y-106664342D01*
X146455714Y-106664342D02*
X146408095Y-106759580D01*
X146408095Y-106759580D02*
X146360476Y-106807200D01*
X146360476Y-106807200D02*
X146265238Y-106854819D01*
X146265238Y-106854819D02*
X146027143Y-106854819D01*
X146027143Y-106854819D02*
X145931905Y-106807200D01*
X145931905Y-106807200D02*
X145884286Y-106759580D01*
X169773333Y-99854819D02*
X169440000Y-99378628D01*
X169201905Y-99854819D02*
X169201905Y-98854819D01*
X169201905Y-98854819D02*
X169582857Y-98854819D01*
X169582857Y-98854819D02*
X169678095Y-98902438D01*
X169678095Y-98902438D02*
X169725714Y-98950057D01*
X169725714Y-98950057D02*
X169773333Y-99045295D01*
X169773333Y-99045295D02*
X169773333Y-99188152D01*
X169773333Y-99188152D02*
X169725714Y-99283390D01*
X169725714Y-99283390D02*
X169678095Y-99331009D01*
X169678095Y-99331009D02*
X169582857Y-99378628D01*
X169582857Y-99378628D02*
X169201905Y-99378628D01*
X170630476Y-99188152D02*
X170630476Y-99854819D01*
X170392381Y-98807200D02*
X170154286Y-99521485D01*
X170154286Y-99521485D02*
X170773333Y-99521485D01*
X157549580Y-103176666D02*
X157597200Y-103224285D01*
X157597200Y-103224285D02*
X157644819Y-103367142D01*
X157644819Y-103367142D02*
X157644819Y-103462380D01*
X157644819Y-103462380D02*
X157597200Y-103605237D01*
X157597200Y-103605237D02*
X157501961Y-103700475D01*
X157501961Y-103700475D02*
X157406723Y-103748094D01*
X157406723Y-103748094D02*
X157216247Y-103795713D01*
X157216247Y-103795713D02*
X157073390Y-103795713D01*
X157073390Y-103795713D02*
X156882914Y-103748094D01*
X156882914Y-103748094D02*
X156787676Y-103700475D01*
X156787676Y-103700475D02*
X156692438Y-103605237D01*
X156692438Y-103605237D02*
X156644819Y-103462380D01*
X156644819Y-103462380D02*
X156644819Y-103367142D01*
X156644819Y-103367142D02*
X156692438Y-103224285D01*
X156692438Y-103224285D02*
X156740057Y-103176666D01*
X157644819Y-102224285D02*
X157644819Y-102795713D01*
X157644819Y-102509999D02*
X156644819Y-102509999D01*
X156644819Y-102509999D02*
X156787676Y-102605237D01*
X156787676Y-102605237D02*
X156882914Y-102700475D01*
X156882914Y-102700475D02*
X156930533Y-102795713D01*
X147089719Y-94111903D02*
X147899242Y-94111903D01*
X147899242Y-94111903D02*
X147994480Y-94064284D01*
X147994480Y-94064284D02*
X148042100Y-94016665D01*
X148042100Y-94016665D02*
X148089719Y-93921427D01*
X148089719Y-93921427D02*
X148089719Y-93730951D01*
X148089719Y-93730951D02*
X148042100Y-93635713D01*
X148042100Y-93635713D02*
X147994480Y-93588094D01*
X147994480Y-93588094D02*
X147899242Y-93540475D01*
X147899242Y-93540475D02*
X147089719Y-93540475D01*
X147089719Y-93159522D02*
X147089719Y-92540475D01*
X147089719Y-92540475D02*
X147470671Y-92873808D01*
X147470671Y-92873808D02*
X147470671Y-92730951D01*
X147470671Y-92730951D02*
X147518290Y-92635713D01*
X147518290Y-92635713D02*
X147565909Y-92588094D01*
X147565909Y-92588094D02*
X147661147Y-92540475D01*
X147661147Y-92540475D02*
X147899242Y-92540475D01*
X147899242Y-92540475D02*
X147994480Y-92588094D01*
X147994480Y-92588094D02*
X148042100Y-92635713D01*
X148042100Y-92635713D02*
X148089719Y-92730951D01*
X148089719Y-92730951D02*
X148089719Y-93016665D01*
X148089719Y-93016665D02*
X148042100Y-93111903D01*
X148042100Y-93111903D02*
X147994480Y-93159522D01*
X145013819Y-100291398D02*
X145251914Y-100291398D01*
X145156676Y-100529493D02*
X145251914Y-100291398D01*
X145251914Y-100291398D02*
X145156676Y-100053303D01*
X145442390Y-100434255D02*
X145251914Y-100291398D01*
X145251914Y-100291398D02*
X145442390Y-100148541D01*
X145013819Y-100291398D02*
X145251914Y-100291398D01*
X145156676Y-100529493D02*
X145251914Y-100291398D01*
X145251914Y-100291398D02*
X145156676Y-100053303D01*
X145442390Y-100434255D02*
X145251914Y-100291398D01*
X145251914Y-100291398D02*
X145442390Y-100148541D01*
X159426667Y-94647200D02*
X159569524Y-94694819D01*
X159569524Y-94694819D02*
X159807619Y-94694819D01*
X159807619Y-94694819D02*
X159902857Y-94647200D01*
X159902857Y-94647200D02*
X159950476Y-94599580D01*
X159950476Y-94599580D02*
X159998095Y-94504342D01*
X159998095Y-94504342D02*
X159998095Y-94409104D01*
X159998095Y-94409104D02*
X159950476Y-94313866D01*
X159950476Y-94313866D02*
X159902857Y-94266247D01*
X159902857Y-94266247D02*
X159807619Y-94218628D01*
X159807619Y-94218628D02*
X159617143Y-94171009D01*
X159617143Y-94171009D02*
X159521905Y-94123390D01*
X159521905Y-94123390D02*
X159474286Y-94075771D01*
X159474286Y-94075771D02*
X159426667Y-93980533D01*
X159426667Y-93980533D02*
X159426667Y-93885295D01*
X159426667Y-93885295D02*
X159474286Y-93790057D01*
X159474286Y-93790057D02*
X159521905Y-93742438D01*
X159521905Y-93742438D02*
X159617143Y-93694819D01*
X159617143Y-93694819D02*
X159855238Y-93694819D01*
X159855238Y-93694819D02*
X159998095Y-93742438D01*
X160331429Y-93694819D02*
X160569524Y-94694819D01*
X160569524Y-94694819D02*
X160760000Y-93980533D01*
X160760000Y-93980533D02*
X160950476Y-94694819D01*
X160950476Y-94694819D02*
X161188572Y-93694819D01*
X161521905Y-93790057D02*
X161569524Y-93742438D01*
X161569524Y-93742438D02*
X161664762Y-93694819D01*
X161664762Y-93694819D02*
X161902857Y-93694819D01*
X161902857Y-93694819D02*
X161998095Y-93742438D01*
X161998095Y-93742438D02*
X162045714Y-93790057D01*
X162045714Y-93790057D02*
X162093333Y-93885295D01*
X162093333Y-93885295D02*
X162093333Y-93980533D01*
X162093333Y-93980533D02*
X162045714Y-94123390D01*
X162045714Y-94123390D02*
X161474286Y-94694819D01*
X161474286Y-94694819D02*
X162093333Y-94694819D01*
X170626666Y-98164819D02*
X170626666Y-98879104D01*
X170626666Y-98879104D02*
X170579047Y-99021961D01*
X170579047Y-99021961D02*
X170483809Y-99117200D01*
X170483809Y-99117200D02*
X170340952Y-99164819D01*
X170340952Y-99164819D02*
X170245714Y-99164819D01*
X171626666Y-99164819D02*
X171055238Y-99164819D01*
X171340952Y-99164819D02*
X171340952Y-98164819D01*
X171340952Y-98164819D02*
X171245714Y-98307676D01*
X171245714Y-98307676D02*
X171150476Y-98402914D01*
X171150476Y-98402914D02*
X171055238Y-98450533D01*
X149973333Y-83064819D02*
X149640000Y-82588628D01*
X149401905Y-83064819D02*
X149401905Y-82064819D01*
X149401905Y-82064819D02*
X149782857Y-82064819D01*
X149782857Y-82064819D02*
X149878095Y-82112438D01*
X149878095Y-82112438D02*
X149925714Y-82160057D01*
X149925714Y-82160057D02*
X149973333Y-82255295D01*
X149973333Y-82255295D02*
X149973333Y-82398152D01*
X149973333Y-82398152D02*
X149925714Y-82493390D01*
X149925714Y-82493390D02*
X149878095Y-82541009D01*
X149878095Y-82541009D02*
X149782857Y-82588628D01*
X149782857Y-82588628D02*
X149401905Y-82588628D01*
X150354286Y-82160057D02*
X150401905Y-82112438D01*
X150401905Y-82112438D02*
X150497143Y-82064819D01*
X150497143Y-82064819D02*
X150735238Y-82064819D01*
X150735238Y-82064819D02*
X150830476Y-82112438D01*
X150830476Y-82112438D02*
X150878095Y-82160057D01*
X150878095Y-82160057D02*
X150925714Y-82255295D01*
X150925714Y-82255295D02*
X150925714Y-82350533D01*
X150925714Y-82350533D02*
X150878095Y-82493390D01*
X150878095Y-82493390D02*
X150306667Y-83064819D01*
X150306667Y-83064819D02*
X150925714Y-83064819D01*
X151858095Y-113894819D02*
X151858095Y-114704342D01*
X151858095Y-114704342D02*
X151905714Y-114799580D01*
X151905714Y-114799580D02*
X151953333Y-114847200D01*
X151953333Y-114847200D02*
X152048571Y-114894819D01*
X152048571Y-114894819D02*
X152239047Y-114894819D01*
X152239047Y-114894819D02*
X152334285Y-114847200D01*
X152334285Y-114847200D02*
X152381904Y-114799580D01*
X152381904Y-114799580D02*
X152429523Y-114704342D01*
X152429523Y-114704342D02*
X152429523Y-113894819D01*
X153381904Y-113894819D02*
X152905714Y-113894819D01*
X152905714Y-113894819D02*
X152858095Y-114371009D01*
X152858095Y-114371009D02*
X152905714Y-114323390D01*
X152905714Y-114323390D02*
X153000952Y-114275771D01*
X153000952Y-114275771D02*
X153239047Y-114275771D01*
X153239047Y-114275771D02*
X153334285Y-114323390D01*
X153334285Y-114323390D02*
X153381904Y-114371009D01*
X153381904Y-114371009D02*
X153429523Y-114466247D01*
X153429523Y-114466247D02*
X153429523Y-114704342D01*
X153429523Y-114704342D02*
X153381904Y-114799580D01*
X153381904Y-114799580D02*
X153334285Y-114847200D01*
X153334285Y-114847200D02*
X153239047Y-114894819D01*
X153239047Y-114894819D02*
X153000952Y-114894819D01*
X153000952Y-114894819D02*
X152905714Y-114847200D01*
X152905714Y-114847200D02*
X152858095Y-114799580D01*
X148613333Y-104039580D02*
X148565714Y-104087200D01*
X148565714Y-104087200D02*
X148422857Y-104134819D01*
X148422857Y-104134819D02*
X148327619Y-104134819D01*
X148327619Y-104134819D02*
X148184762Y-104087200D01*
X148184762Y-104087200D02*
X148089524Y-103991961D01*
X148089524Y-103991961D02*
X148041905Y-103896723D01*
X148041905Y-103896723D02*
X147994286Y-103706247D01*
X147994286Y-103706247D02*
X147994286Y-103563390D01*
X147994286Y-103563390D02*
X148041905Y-103372914D01*
X148041905Y-103372914D02*
X148089524Y-103277676D01*
X148089524Y-103277676D02*
X148184762Y-103182438D01*
X148184762Y-103182438D02*
X148327619Y-103134819D01*
X148327619Y-103134819D02*
X148422857Y-103134819D01*
X148422857Y-103134819D02*
X148565714Y-103182438D01*
X148565714Y-103182438D02*
X148613333Y-103230057D01*
X148946667Y-103134819D02*
X149613333Y-103134819D01*
X149613333Y-103134819D02*
X149184762Y-104134819D01*
X156766666Y-79261009D02*
X156433333Y-79261009D01*
X156433333Y-79784819D02*
X156433333Y-78784819D01*
X156433333Y-78784819D02*
X156909523Y-78784819D01*
X157814285Y-79784819D02*
X157242857Y-79784819D01*
X157528571Y-79784819D02*
X157528571Y-78784819D01*
X157528571Y-78784819D02*
X157433333Y-78927676D01*
X157433333Y-78927676D02*
X157338095Y-79022914D01*
X157338095Y-79022914D02*
X157242857Y-79070533D01*
X159236667Y-101527200D02*
X159379524Y-101574819D01*
X159379524Y-101574819D02*
X159617619Y-101574819D01*
X159617619Y-101574819D02*
X159712857Y-101527200D01*
X159712857Y-101527200D02*
X159760476Y-101479580D01*
X159760476Y-101479580D02*
X159808095Y-101384342D01*
X159808095Y-101384342D02*
X159808095Y-101289104D01*
X159808095Y-101289104D02*
X159760476Y-101193866D01*
X159760476Y-101193866D02*
X159712857Y-101146247D01*
X159712857Y-101146247D02*
X159617619Y-101098628D01*
X159617619Y-101098628D02*
X159427143Y-101051009D01*
X159427143Y-101051009D02*
X159331905Y-101003390D01*
X159331905Y-101003390D02*
X159284286Y-100955771D01*
X159284286Y-100955771D02*
X159236667Y-100860533D01*
X159236667Y-100860533D02*
X159236667Y-100765295D01*
X159236667Y-100765295D02*
X159284286Y-100670057D01*
X159284286Y-100670057D02*
X159331905Y-100622438D01*
X159331905Y-100622438D02*
X159427143Y-100574819D01*
X159427143Y-100574819D02*
X159665238Y-100574819D01*
X159665238Y-100574819D02*
X159808095Y-100622438D01*
X160141429Y-100574819D02*
X160379524Y-101574819D01*
X160379524Y-101574819D02*
X160570000Y-100860533D01*
X160570000Y-100860533D02*
X160760476Y-101574819D01*
X160760476Y-101574819D02*
X160998572Y-100574819D01*
X161903333Y-101574819D02*
X161331905Y-101574819D01*
X161617619Y-101574819D02*
X161617619Y-100574819D01*
X161617619Y-100574819D02*
X161522381Y-100717676D01*
X161522381Y-100717676D02*
X161427143Y-100812914D01*
X161427143Y-100812914D02*
X161331905Y-100860533D01*
X154174819Y-83951904D02*
X154984342Y-83951904D01*
X154984342Y-83951904D02*
X155079580Y-83904285D01*
X155079580Y-83904285D02*
X155127200Y-83856666D01*
X155127200Y-83856666D02*
X155174819Y-83761428D01*
X155174819Y-83761428D02*
X155174819Y-83570952D01*
X155174819Y-83570952D02*
X155127200Y-83475714D01*
X155127200Y-83475714D02*
X155079580Y-83428095D01*
X155079580Y-83428095D02*
X154984342Y-83380476D01*
X154984342Y-83380476D02*
X154174819Y-83380476D01*
X155174819Y-82380476D02*
X155174819Y-82951904D01*
X155174819Y-82666190D02*
X154174819Y-82666190D01*
X154174819Y-82666190D02*
X154317676Y-82761428D01*
X154317676Y-82761428D02*
X154412914Y-82856666D01*
X154412914Y-82856666D02*
X154460533Y-82951904D01*
X155973333Y-82834819D02*
X155640000Y-82358628D01*
X155401905Y-82834819D02*
X155401905Y-81834819D01*
X155401905Y-81834819D02*
X155782857Y-81834819D01*
X155782857Y-81834819D02*
X155878095Y-81882438D01*
X155878095Y-81882438D02*
X155925714Y-81930057D01*
X155925714Y-81930057D02*
X155973333Y-82025295D01*
X155973333Y-82025295D02*
X155973333Y-82168152D01*
X155973333Y-82168152D02*
X155925714Y-82263390D01*
X155925714Y-82263390D02*
X155878095Y-82311009D01*
X155878095Y-82311009D02*
X155782857Y-82358628D01*
X155782857Y-82358628D02*
X155401905Y-82358628D01*
X156925714Y-82834819D02*
X156354286Y-82834819D01*
X156640000Y-82834819D02*
X156640000Y-81834819D01*
X156640000Y-81834819D02*
X156544762Y-81977676D01*
X156544762Y-81977676D02*
X156449524Y-82072914D01*
X156449524Y-82072914D02*
X156354286Y-82120533D01*
X144931905Y-109774819D02*
X144931905Y-108774819D01*
X144931905Y-108774819D02*
X145170000Y-108774819D01*
X145170000Y-108774819D02*
X145312857Y-108822438D01*
X145312857Y-108822438D02*
X145408095Y-108917676D01*
X145408095Y-108917676D02*
X145455714Y-109012914D01*
X145455714Y-109012914D02*
X145503333Y-109203390D01*
X145503333Y-109203390D02*
X145503333Y-109346247D01*
X145503333Y-109346247D02*
X145455714Y-109536723D01*
X145455714Y-109536723D02*
X145408095Y-109631961D01*
X145408095Y-109631961D02*
X145312857Y-109727200D01*
X145312857Y-109727200D02*
X145170000Y-109774819D01*
X145170000Y-109774819D02*
X144931905Y-109774819D01*
X146455714Y-109774819D02*
X145884286Y-109774819D01*
X146170000Y-109774819D02*
X146170000Y-108774819D01*
X146170000Y-108774819D02*
X146074762Y-108917676D01*
X146074762Y-108917676D02*
X145979524Y-109012914D01*
X145979524Y-109012914D02*
X145884286Y-109060533D01*
X155016667Y-126832200D02*
X155159524Y-126879819D01*
X155159524Y-126879819D02*
X155397619Y-126879819D01*
X155397619Y-126879819D02*
X155492857Y-126832200D01*
X155492857Y-126832200D02*
X155540476Y-126784580D01*
X155540476Y-126784580D02*
X155588095Y-126689342D01*
X155588095Y-126689342D02*
X155588095Y-126594104D01*
X155588095Y-126594104D02*
X155540476Y-126498866D01*
X155540476Y-126498866D02*
X155492857Y-126451247D01*
X155492857Y-126451247D02*
X155397619Y-126403628D01*
X155397619Y-126403628D02*
X155207143Y-126356009D01*
X155207143Y-126356009D02*
X155111905Y-126308390D01*
X155111905Y-126308390D02*
X155064286Y-126260771D01*
X155064286Y-126260771D02*
X155016667Y-126165533D01*
X155016667Y-126165533D02*
X155016667Y-126070295D01*
X155016667Y-126070295D02*
X155064286Y-125975057D01*
X155064286Y-125975057D02*
X155111905Y-125927438D01*
X155111905Y-125927438D02*
X155207143Y-125879819D01*
X155207143Y-125879819D02*
X155445238Y-125879819D01*
X155445238Y-125879819D02*
X155588095Y-125927438D01*
X155921429Y-125879819D02*
X156159524Y-126879819D01*
X156159524Y-126879819D02*
X156350000Y-126165533D01*
X156350000Y-126165533D02*
X156540476Y-126879819D01*
X156540476Y-126879819D02*
X156778572Y-125879819D01*
X157064286Y-125879819D02*
X157683333Y-125879819D01*
X157683333Y-125879819D02*
X157350000Y-126260771D01*
X157350000Y-126260771D02*
X157492857Y-126260771D01*
X157492857Y-126260771D02*
X157588095Y-126308390D01*
X157588095Y-126308390D02*
X157635714Y-126356009D01*
X157635714Y-126356009D02*
X157683333Y-126451247D01*
X157683333Y-126451247D02*
X157683333Y-126689342D01*
X157683333Y-126689342D02*
X157635714Y-126784580D01*
X157635714Y-126784580D02*
X157588095Y-126832200D01*
X157588095Y-126832200D02*
X157492857Y-126879819D01*
X157492857Y-126879819D02*
X157207143Y-126879819D01*
X157207143Y-126879819D02*
X157111905Y-126832200D01*
X157111905Y-126832200D02*
X157064286Y-126784580D01*
X163904819Y-103256666D02*
X163428628Y-103589999D01*
X163904819Y-103828094D02*
X162904819Y-103828094D01*
X162904819Y-103828094D02*
X162904819Y-103447142D01*
X162904819Y-103447142D02*
X162952438Y-103351904D01*
X162952438Y-103351904D02*
X163000057Y-103304285D01*
X163000057Y-103304285D02*
X163095295Y-103256666D01*
X163095295Y-103256666D02*
X163238152Y-103256666D01*
X163238152Y-103256666D02*
X163333390Y-103304285D01*
X163333390Y-103304285D02*
X163381009Y-103351904D01*
X163381009Y-103351904D02*
X163428628Y-103447142D01*
X163428628Y-103447142D02*
X163428628Y-103828094D01*
X162904819Y-102923332D02*
X162904819Y-102304285D01*
X162904819Y-102304285D02*
X163285771Y-102637618D01*
X163285771Y-102637618D02*
X163285771Y-102494761D01*
X163285771Y-102494761D02*
X163333390Y-102399523D01*
X163333390Y-102399523D02*
X163381009Y-102351904D01*
X163381009Y-102351904D02*
X163476247Y-102304285D01*
X163476247Y-102304285D02*
X163714342Y-102304285D01*
X163714342Y-102304285D02*
X163809580Y-102351904D01*
X163809580Y-102351904D02*
X163857200Y-102399523D01*
X163857200Y-102399523D02*
X163904819Y-102494761D01*
X163904819Y-102494761D02*
X163904819Y-102780475D01*
X163904819Y-102780475D02*
X163857200Y-102875713D01*
X163857200Y-102875713D02*
X163809580Y-102923332D01*
X152566666Y-79679819D02*
X152566666Y-80394104D01*
X152566666Y-80394104D02*
X152519047Y-80536961D01*
X152519047Y-80536961D02*
X152423809Y-80632200D01*
X152423809Y-80632200D02*
X152280952Y-80679819D01*
X152280952Y-80679819D02*
X152185714Y-80679819D01*
X153471428Y-79679819D02*
X153280952Y-79679819D01*
X153280952Y-79679819D02*
X153185714Y-79727438D01*
X153185714Y-79727438D02*
X153138095Y-79775057D01*
X153138095Y-79775057D02*
X153042857Y-79917914D01*
X153042857Y-79917914D02*
X152995238Y-80108390D01*
X152995238Y-80108390D02*
X152995238Y-80489342D01*
X152995238Y-80489342D02*
X153042857Y-80584580D01*
X153042857Y-80584580D02*
X153090476Y-80632200D01*
X153090476Y-80632200D02*
X153185714Y-80679819D01*
X153185714Y-80679819D02*
X153376190Y-80679819D01*
X153376190Y-80679819D02*
X153471428Y-80632200D01*
X153471428Y-80632200D02*
X153519047Y-80584580D01*
X153519047Y-80584580D02*
X153566666Y-80489342D01*
X153566666Y-80489342D02*
X153566666Y-80251247D01*
X153566666Y-80251247D02*
X153519047Y-80156009D01*
X153519047Y-80156009D02*
X153471428Y-80108390D01*
X153471428Y-80108390D02*
X153376190Y-80060771D01*
X153376190Y-80060771D02*
X153185714Y-80060771D01*
X153185714Y-80060771D02*
X153090476Y-80108390D01*
X153090476Y-80108390D02*
X153042857Y-80156009D01*
X153042857Y-80156009D02*
X152995238Y-80251247D01*
X168284761Y-92460057D02*
X168189523Y-92412438D01*
X168189523Y-92412438D02*
X168094285Y-92317200D01*
X168094285Y-92317200D02*
X167951428Y-92174342D01*
X167951428Y-92174342D02*
X167856190Y-92126723D01*
X167856190Y-92126723D02*
X167760952Y-92126723D01*
X167808571Y-92364819D02*
X167713333Y-92317200D01*
X167713333Y-92317200D02*
X167618095Y-92221961D01*
X167618095Y-92221961D02*
X167570476Y-92031485D01*
X167570476Y-92031485D02*
X167570476Y-91698152D01*
X167570476Y-91698152D02*
X167618095Y-91507676D01*
X167618095Y-91507676D02*
X167713333Y-91412438D01*
X167713333Y-91412438D02*
X167808571Y-91364819D01*
X167808571Y-91364819D02*
X167999047Y-91364819D01*
X167999047Y-91364819D02*
X168094285Y-91412438D01*
X168094285Y-91412438D02*
X168189523Y-91507676D01*
X168189523Y-91507676D02*
X168237142Y-91698152D01*
X168237142Y-91698152D02*
X168237142Y-92031485D01*
X168237142Y-92031485D02*
X168189523Y-92221961D01*
X168189523Y-92221961D02*
X168094285Y-92317200D01*
X168094285Y-92317200D02*
X167999047Y-92364819D01*
X167999047Y-92364819D02*
X167808571Y-92364819D01*
X169189523Y-92364819D02*
X168618095Y-92364819D01*
X168903809Y-92364819D02*
X168903809Y-91364819D01*
X168903809Y-91364819D02*
X168808571Y-91507676D01*
X168808571Y-91507676D02*
X168713333Y-91602914D01*
X168713333Y-91602914D02*
X168618095Y-91650533D01*
D11*
%TO.C,C6*%
X158890000Y-106742164D02*
X158890000Y-106957836D01*
X158170000Y-106742164D02*
X158170000Y-106957836D01*
%TO.C,R5*%
X145432742Y-107307500D02*
X145907258Y-107307500D01*
X145432742Y-108352500D02*
X145907258Y-108352500D01*
%TO.C,R4*%
X170177258Y-97447500D02*
X169702742Y-97447500D01*
X170177258Y-98492500D02*
X169702742Y-98492500D01*
%TO.C,C1*%
X158135000Y-103271252D02*
X158135000Y-102748748D01*
X159605000Y-103271252D02*
X159605000Y-102748748D01*
D12*
%TO.C,U3*%
X156067700Y-86618999D02*
X156067700Y-100080999D01*
X139202100Y-86618999D02*
X156067700Y-86618999D01*
X156067700Y-100080999D02*
X139202100Y-100080999D01*
X139202100Y-100080999D02*
X139202100Y-86618999D01*
D11*
%TO.C,SW2*%
X162410000Y-93140000D02*
X159110000Y-93140000D01*
X162410000Y-92840000D02*
X162410000Y-93140000D01*
X162410000Y-90640000D02*
X162410000Y-90340000D01*
X162410000Y-90340000D02*
X159110000Y-90340000D01*
X159110000Y-93140000D02*
X159110000Y-92840000D01*
X159110000Y-90340000D02*
X159110000Y-90640000D01*
%TO.C,J1*%
X166600000Y-99500000D02*
X166600000Y-100750000D01*
X166900000Y-99800000D02*
X166900000Y-104520000D01*
X166900000Y-101110000D02*
X167510000Y-101110000D01*
X166900000Y-102410000D02*
X167510000Y-102410000D01*
X166900000Y-104520000D02*
X175020000Y-104520000D01*
X167510000Y-100410000D02*
X167510000Y-103910000D01*
X167510000Y-103910000D02*
X174410000Y-103910000D01*
X167850000Y-99500000D02*
X166600000Y-99500000D01*
X168360000Y-99600000D02*
X168360000Y-99800000D01*
X168660000Y-99600000D02*
X168360000Y-99600000D01*
X168660000Y-99700000D02*
X168360000Y-99700000D01*
X168660000Y-99800000D02*
X168660000Y-99600000D01*
X169460000Y-99800000D02*
X169460000Y-100410000D01*
X169460000Y-100410000D02*
X167510000Y-100410000D01*
X169860000Y-103410000D02*
X170060000Y-103410000D01*
X169860000Y-103910000D02*
X169860000Y-103410000D01*
X169960000Y-103910000D02*
X169960000Y-103410000D01*
X170060000Y-103410000D02*
X170060000Y-103910000D01*
X171860000Y-103410000D02*
X172060000Y-103410000D01*
X171860000Y-103910000D02*
X171860000Y-103410000D01*
X171960000Y-103910000D02*
X171960000Y-103410000D01*
X172060000Y-103410000D02*
X172060000Y-103910000D01*
X172460000Y-100410000D02*
X172460000Y-99800000D01*
X174410000Y-100410000D02*
X172460000Y-100410000D01*
X174410000Y-103910000D02*
X174410000Y-100410000D01*
X175020000Y-99800000D02*
X166900000Y-99800000D01*
X175020000Y-101110000D02*
X174410000Y-101110000D01*
X175020000Y-102410000D02*
X174410000Y-102410000D01*
X175020000Y-104520000D02*
X175020000Y-99800000D01*
%TO.C,R2*%
X150377258Y-81702500D02*
X149902742Y-81702500D01*
X150377258Y-80657500D02*
X149902742Y-80657500D01*
%TO.C,U5*%
X156720000Y-113350000D02*
X150710000Y-113350000D01*
X154470000Y-106530000D02*
X150710000Y-106530000D01*
X150710000Y-113350000D02*
X150710000Y-112090000D01*
X150710000Y-106530000D02*
X150710000Y-107790000D01*
%TO.C,C7*%
X148672164Y-104480000D02*
X148887836Y-104480000D01*
X148672164Y-105200000D02*
X148887836Y-105200000D01*
%TO.C,F1*%
X156497936Y-80240000D02*
X157702064Y-80240000D01*
X156497936Y-82060000D02*
X157702064Y-82060000D01*
%TO.C,SW1*%
X158920000Y-97220000D02*
X158920000Y-97520000D01*
X158920000Y-100020000D02*
X158920000Y-99720000D01*
X162220000Y-97220000D02*
X158920000Y-97220000D01*
X162220000Y-97520000D02*
X162220000Y-97220000D01*
X162220000Y-99720000D02*
X162220000Y-100020000D01*
X162220000Y-100020000D02*
X158920000Y-100020000D01*
%TO.C,U1*%
X152070000Y-82390000D02*
X152070000Y-83990000D01*
X153870000Y-83990000D02*
X153870000Y-82090000D01*
%TO.C,R1*%
X155902742Y-83287500D02*
X156377258Y-83287500D01*
X155902742Y-84332500D02*
X156377258Y-84332500D01*
%TO.C,D1*%
X144185000Y-110015000D02*
X144185000Y-111485000D01*
X144185000Y-111485000D02*
X146470000Y-111485000D01*
X146470000Y-110015000D02*
X144185000Y-110015000D01*
%TO.C,SW3*%
X158800000Y-121650000D02*
X158800000Y-122200000D01*
X157775000Y-123775000D02*
X158700000Y-123775000D01*
X154000000Y-123775000D02*
X154925000Y-123775000D01*
X154000000Y-120075000D02*
X158700000Y-120075000D01*
X153900000Y-121650000D02*
X153900000Y-122200000D01*
%TO.C,R3*%
X161497500Y-102852742D02*
X161497500Y-103327258D01*
X162542500Y-102852742D02*
X162542500Y-103327258D01*
%TO.C,J6*%
X157600000Y-76480000D02*
X157600000Y-74480000D01*
X157600000Y-72580000D02*
X157600000Y-70680000D01*
X157600000Y-70680000D02*
X148200000Y-70680000D01*
X148200000Y-76480000D02*
X148200000Y-74480000D01*
X148200000Y-72580000D02*
X148200000Y-70680000D01*
%TO.C,Q1*%
X168380000Y-92750000D02*
X166705000Y-92750000D01*
X168380000Y-92750000D02*
X169030000Y-92750000D01*
X168380000Y-95870000D02*
X167730000Y-95870000D01*
X168380000Y-95870000D02*
X169030000Y-95870000D01*
%TD*%
M02*
