M48
; DRILL file {KiCad 7.0.10} date Tue Aug 20 03:51:06 2024
; FORMAT={-:-/ absolute / inch / decimal}
; #@! TF.CreationDate,2024-08-20T03:51:06-07:00
; #@! TF.GenerationSoftware,Kicad,Pcbnew,7.0.10
; #@! TF.FileFunction,Plated,1,2,PTH
FMAT,2
INCH
; #@! TA.AperFunction,Plated,PTH,ViaDrill
T1C0.0157
; #@! TA.AperFunction,Plated,PTH,ComponentDrill
T2C0.0236
; #@! TA.AperFunction,Plated,PTH,ComponentDrill
T3C0.0295
%
G90
G05
T1
X5.402Y-2.9295
X5.4451Y-3.1203
X5.4495Y-4.3041
X5.4646Y-4.7484
X5.5016Y-2.9535
X5.5232Y-4.5404
X5.5731Y-3.116
X5.6173Y-4.3606
X5.6359Y-2.9924
X5.6815Y-4.7508
X5.6988Y-2.9402
X5.724Y-3.3752
X5.724Y-3.9709
X5.7313Y-3.1073
X5.7701Y-4.1248
X5.7776Y-3.6425
X5.7827Y-3.7217
X5.7921Y-3.8272
X5.8028Y-4.6531
X5.8134Y-3.1937
X5.8138Y-3.5213
X5.8571Y-3.8401
X5.9531Y-4.8043
X5.9638Y-4.0835
X5.9676Y-3.5279
X5.9787Y-4.5299
X5.9831Y-4.2417
X5.9894Y-3.8378
X6.0197Y-3.1941
X6.0413Y-3.5126
X6.0614Y-3.7043
X6.0642Y-3.7697
X6.0697Y-3.6244
X6.1138Y-3.9709
X6.1213Y-3.3839
X6.1327Y-4.5083
X6.1717Y-4.0925
X6.1756Y-3.915
X6.1803Y-3.4331
X6.226Y-4.4205
X6.237Y-3.2972
X6.3024Y-4.1846
X6.3319Y-2.9425
X6.3484Y-4.8157
X6.3646Y-4.3606
X6.3776Y-3.363
X6.4078Y-4.5686
X6.4425Y-3.0791
X6.4602Y-3.611
X6.4618Y-4.3516
X6.4626Y-3.8843
X6.4705Y-4.8157
X6.5445Y-2.9339
X6.553Y-3.0574
X6.5531Y-3.389
X6.5921Y-4.3516
X6.5942Y-3.3024
X6.6008Y-4.6291
X6.6224Y-4.8157
X6.6506Y-3.4477
X6.7352Y-3.0574
X6.7482Y-3.4629
X6.7547Y-4.5642
X6.7764Y-4.3366
X6.785Y-3.7122
X6.8134Y-3.8756
X6.8134Y-4.8071
X6.8327Y-2.9403
X6.8587Y-3.1311
X6.9173Y-2.9382
X6.9303Y-4.4862
X6.9323Y-4.3453
X6.939Y-4.6575
X6.9433Y-4.8114
X6.9563Y-3.1291
T3
X6.652Y-4.0004
X6.7307Y-4.0004
X6.8094Y-4.0004
T2
G00X5.8496Y-2.9067
M15
G01X5.8496Y-2.8831
M16
G05
G00X5.8496Y-3.0811
M15
G01X5.8496Y-3.0378
M16
G05
G00X6.1898Y-2.9067
M15
G01X6.1898Y-2.8831
M16
G05
G00X6.1898Y-3.0811
M15
G01X6.1898Y-3.0378
M16
G05
M30
