%TF.GenerationSoftware,KiCad,Pcbnew,7.0.10*%
%TF.CreationDate,2024-08-20T03:50:42-07:00*%
%TF.ProjectId,kicad,6b696361-642e-46b6-9963-61645f706362,rev?*%
%TF.SameCoordinates,Original*%
%TF.FileFunction,Copper,L1,Top*%
%TF.FilePolarity,Positive*%
%FSLAX46Y46*%
G04 Gerber Fmt 4.6, Leading zero omitted, Abs format (unit mm)*
G04 Created by KiCad (PCBNEW 7.0.10) date 2024-08-20 03:50:42*
%MOMM*%
%LPD*%
G01*
G04 APERTURE LIST*
G04 Aperture macros list*
%AMRoundRect*
0 Rectangle with rounded corners*
0 $1 Rounding radius*
0 $2 $3 $4 $5 $6 $7 $8 $9 X,Y pos of 4 corners*
0 Add a 4 corners polygon primitive as box body*
4,1,4,$2,$3,$4,$5,$6,$7,$8,$9,$2,$3,0*
0 Add four circle primitives for the rounded corners*
1,1,$1+$1,$2,$3*
1,1,$1+$1,$4,$5*
1,1,$1+$1,$6,$7*
1,1,$1+$1,$8,$9*
0 Add four rect primitives between the rounded corners*
20,1,$1+$1,$2,$3,$4,$5,0*
20,1,$1+$1,$4,$5,$6,$7,0*
20,1,$1+$1,$6,$7,$8,$9,0*
20,1,$1+$1,$8,$9,$2,$3,0*%
G04 Aperture macros list end*
%TA.AperFunction,SMDPad,CuDef*%
%ADD10RoundRect,0.140000X-0.170000X0.140000X-0.170000X-0.140000X0.170000X-0.140000X0.170000X0.140000X0*%
%TD*%
%TA.AperFunction,SMDPad,CuDef*%
%ADD11RoundRect,0.200000X-0.200000X-0.275000X0.200000X-0.275000X0.200000X0.275000X-0.200000X0.275000X0*%
%TD*%
%TA.AperFunction,SMDPad,CuDef*%
%ADD12RoundRect,0.200000X0.200000X0.275000X-0.200000X0.275000X-0.200000X-0.275000X0.200000X-0.275000X0*%
%TD*%
%TA.AperFunction,SMDPad,CuDef*%
%ADD13RoundRect,0.250000X0.475000X-0.250000X0.475000X0.250000X-0.475000X0.250000X-0.475000X-0.250000X0*%
%TD*%
%TA.AperFunction,SMDPad,CuDef*%
%ADD14R,1.447800X1.447800*%
%TD*%
%TA.AperFunction,SMDPad,CuDef*%
%ADD15R,0.711200X0.711200*%
%TD*%
%TA.AperFunction,SMDPad,CuDef*%
%ADD16R,0.812800X0.406400*%
%TD*%
%TA.AperFunction,SMDPad,CuDef*%
%ADD17R,0.406400X0.812800*%
%TD*%
%TA.AperFunction,SMDPad,CuDef*%
%ADD18R,0.900000X1.700000*%
%TD*%
%TA.AperFunction,ComponentPad*%
%ADD19RoundRect,0.250000X-0.350000X-0.625000X0.350000X-0.625000X0.350000X0.625000X-0.350000X0.625000X0*%
%TD*%
%TA.AperFunction,ComponentPad*%
%ADD20O,1.200000X1.750000*%
%TD*%
%TA.AperFunction,SMDPad,CuDef*%
%ADD21R,2.000000X1.500000*%
%TD*%
%TA.AperFunction,SMDPad,CuDef*%
%ADD22R,2.000000X3.800000*%
%TD*%
%TA.AperFunction,SMDPad,CuDef*%
%ADD23RoundRect,0.140000X-0.140000X-0.170000X0.140000X-0.170000X0.140000X0.170000X-0.140000X0.170000X0*%
%TD*%
%TA.AperFunction,SMDPad,CuDef*%
%ADD24RoundRect,0.250000X-0.375000X-0.625000X0.375000X-0.625000X0.375000X0.625000X-0.375000X0.625000X0*%
%TD*%
%TA.AperFunction,SMDPad,CuDef*%
%ADD25R,0.375000X0.500000*%
%TD*%
%TA.AperFunction,SMDPad,CuDef*%
%ADD26R,0.300000X0.650000*%
%TD*%
%TA.AperFunction,SMDPad,CuDef*%
%ADD27RoundRect,0.218750X-0.218750X-0.256250X0.218750X-0.256250X0.218750X0.256250X-0.218750X0.256250X0*%
%TD*%
%TA.AperFunction,SMDPad,CuDef*%
%ADD28R,1.550000X1.000000*%
%TD*%
%TA.AperFunction,SMDPad,CuDef*%
%ADD29RoundRect,0.200000X-0.275000X0.200000X-0.275000X-0.200000X0.275000X-0.200000X0.275000X0.200000X0*%
%TD*%
%TA.AperFunction,SMDPad,CuDef*%
%ADD30R,0.600000X1.450000*%
%TD*%
%TA.AperFunction,SMDPad,CuDef*%
%ADD31R,0.300000X1.450000*%
%TD*%
%TA.AperFunction,ComponentPad*%
%ADD32O,1.000000X2.100000*%
%TD*%
%TA.AperFunction,ComponentPad*%
%ADD33O,1.000000X1.600000*%
%TD*%
%TA.AperFunction,SMDPad,CuDef*%
%ADD34RoundRect,0.150000X-0.587500X-0.150000X0.587500X-0.150000X0.587500X0.150000X-0.587500X0.150000X0*%
%TD*%
%TA.AperFunction,ViaPad*%
%ADD35C,0.800000*%
%TD*%
%TA.AperFunction,Conductor*%
%ADD36C,0.250000*%
%TD*%
%TA.AperFunction,Conductor*%
%ADD37C,0.500000*%
%TD*%
%TA.AperFunction,Conductor*%
%ADD38C,0.200000*%
%TD*%
G04 APERTURE END LIST*
D10*
%TO.P,C6,1*%
%TO.N,GND*%
X158530000Y-106370000D03*
%TO.P,C6,2*%
%TO.N,+5V*%
X158530000Y-107330000D03*
%TD*%
D11*
%TO.P,R5,1*%
%TO.N,Net-(D1-A)*%
X144845000Y-107830000D03*
%TO.P,R5,2*%
%TO.N,+3.3V*%
X146495000Y-107830000D03*
%TD*%
D12*
%TO.P,R4,2*%
%TO.N,+5V*%
X169115000Y-97970000D03*
%TO.P,R4,1*%
%TO.N,Net-(J1-Pin_2)*%
X170765000Y-97970000D03*
%TD*%
D13*
%TO.P,C1,1*%
%TO.N,GND*%
X158870000Y-103960000D03*
%TO.P,C1,2*%
%TO.N,RESET*%
X158870000Y-102060000D03*
%TD*%
D14*
%TO.P,U3,61,GND*%
%TO.N,GND*%
X148365000Y-93349999D03*
%TO.P,U3,60,GND*%
X148365000Y-95324999D03*
%TO.P,U3,59,GND*%
X150340000Y-95324999D03*
%TO.P,U3,58,GND*%
X152315000Y-95324999D03*
%TO.P,U3,57,GND*%
X152315000Y-93349999D03*
%TO.P,U3,56,GND*%
X152315000Y-91374999D03*
%TO.P,U3,55,GND*%
X150340000Y-91374999D03*
%TO.P,U3,54,GND*%
X148365000Y-91374999D03*
D15*
%TO.P,U3,53,GND*%
X145390000Y-99299999D03*
%TO.P,U3,52,GND*%
X155290000Y-99299999D03*
%TO.P,U3,51,GND*%
X155290000Y-87399999D03*
%TO.P,U3,50,GND*%
X145390000Y-87399999D03*
D14*
%TO.P,U3,49,GND*%
X150340000Y-93349999D03*
D16*
%TO.P,U3,48,GND*%
X145440000Y-98149997D03*
%TO.P,U3,47,GND*%
X145440000Y-97349999D03*
%TO.P,U3,46,GND*%
X145440000Y-96549998D03*
%TO.P,U3,45,GND*%
X145440000Y-95749999D03*
%TO.P,U3,44,GND*%
X145440000Y-94949998D03*
%TO.P,U3,43,GND*%
X145440000Y-94150000D03*
%TO.P,U3,42,GND*%
X145440000Y-93349999D03*
%TO.P,U3,41,GND*%
X145440000Y-92549998D03*
%TO.P,U3,40,GND*%
X145440000Y-91750000D03*
%TO.P,U3,39,GND*%
X145440000Y-90949999D03*
%TO.P,U3,38,GND*%
X145440000Y-90150000D03*
%TO.P,U3,37,GND*%
X145440000Y-89349999D03*
%TO.P,U3,36,GND*%
X145440000Y-88549998D03*
D17*
%TO.P,U3,35,NC*%
%TO.N,unconnected-(U3-NC-Pad35)*%
X146340000Y-87450001D03*
%TO.P,U3,34,NC*%
%TO.N,unconnected-(U3-NC-Pad34)*%
X147140001Y-87450001D03*
%TO.P,U3,33,NC*%
%TO.N,unconnected-(U3-NC-Pad33)*%
X147940000Y-87450001D03*
%TO.P,U3,32,NC*%
%TO.N,unconnected-(U3-NC-Pad32)*%
X148740001Y-87450001D03*
%TO.P,U3,31,TXD0*%
%TO.N,GND*%
X149539999Y-87450001D03*
%TO.P,U3,30,RXD0*%
%TO.N,REG_SIGNAL*%
X150340000Y-87450001D03*
%TO.P,U3,29,NC*%
%TO.N,unconnected-(U3-NC-Pad29)*%
X151140001Y-87450001D03*
%TO.P,U3,28,NC*%
%TO.N,unconnected-(U3-NC-Pad28)*%
X151939999Y-87450001D03*
%TO.P,U3,27,IO19*%
%TO.N,USB_D+*%
X152740000Y-87450001D03*
%TO.P,U3,26,IO18*%
%TO.N,USB_D-*%
X153539999Y-87450001D03*
%TO.P,U3,25,NC*%
%TO.N,unconnected-(U3-NC-Pad25)*%
X154340000Y-87450001D03*
D16*
%TO.P,U3,24,NC*%
%TO.N,unconnected-(U3-NC-Pad24)*%
X155240000Y-88550001D03*
%TO.P,U3,23,IO9*%
%TO.N,BOOT*%
X155240000Y-89349999D03*
%TO.P,U3,22,IO8*%
%TO.N,LED Data*%
X155240000Y-90150000D03*
%TO.P,U3,21,IO7*%
%TO.N,GND*%
X155240000Y-90949999D03*
%TO.P,U3,20,IO6*%
X155240000Y-91750000D03*
%TO.P,U3,19,IO5*%
X155240000Y-92549998D03*
%TO.P,U3,18,IO4*%
X155240000Y-93349999D03*
%TO.P,U3,17,NC*%
%TO.N,unconnected-(U3-NC-Pad17)*%
X155240000Y-94150000D03*
%TO.P,U3,16,IO10*%
%TO.N,GND*%
X155240000Y-94949998D03*
%TO.P,U3,15,NC*%
%TO.N,unconnected-(U3-NC-Pad15)*%
X155240000Y-95749999D03*
%TO.P,U3,14,GND*%
%TO.N,GND*%
X155240000Y-96549998D03*
%TO.P,U3,13,IO1*%
X155240000Y-97349999D03*
%TO.P,U3,12,IO0*%
X155240000Y-98150000D03*
D17*
%TO.P,U3,11,GND*%
X154340000Y-99249997D03*
%TO.P,U3,10,NC*%
%TO.N,unconnected-(U3-NC-Pad10)*%
X153539999Y-99249997D03*
%TO.P,U3,9,NC*%
%TO.N,unconnected-(U3-NC-Pad9)*%
X152740000Y-99249997D03*
%TO.P,U3,8,EN*%
%TO.N,RESET*%
X151939999Y-99249997D03*
%TO.P,U3,7,NC*%
%TO.N,unconnected-(U3-NC-Pad7)*%
X151140001Y-99249997D03*
%TO.P,U3,6,IO3*%
%TO.N,POI SW*%
X150340000Y-99249997D03*
%TO.P,U3,5,IO2*%
%TO.N,VBATT_SENSE*%
X149539999Y-99249997D03*
%TO.P,U3,4,NC*%
%TO.N,unconnected-(U3-NC-Pad4)*%
X148740001Y-99249997D03*
%TO.P,U3,3,3V3*%
%TO.N,+3.3V*%
X147940000Y-99249997D03*
%TO.P,U3,2,GND*%
%TO.N,GND*%
X147140001Y-99249997D03*
%TO.P,U3,1,GND*%
X146340000Y-99249997D03*
%TD*%
D18*
%TO.P,SW2,1,1*%
%TO.N,GND*%
X162460000Y-91740000D03*
%TO.P,SW2,2,2*%
%TO.N,BOOT*%
X159060000Y-91740000D03*
%TD*%
D19*
%TO.P,J1,1,Pin_1*%
%TO.N,+5V*%
X168960000Y-101610000D03*
D20*
%TO.P,J1,2,Pin_2*%
%TO.N,Net-(J1-Pin_2)*%
X170960000Y-101610000D03*
%TO.P,J1,3,Pin_3*%
%TO.N,GND*%
X172960000Y-101610000D03*
%TD*%
D12*
%TO.P,R2,1*%
%TO.N,Net-(J6-CC2)*%
X150965000Y-81180000D03*
%TO.P,R2,2*%
%TO.N,GND*%
X149315000Y-81180000D03*
%TD*%
D21*
%TO.P,U5,1,GND*%
%TO.N,GND*%
X155770000Y-112240000D03*
%TO.P,U5,2,VO*%
%TO.N,+3.3V*%
X155770000Y-109940000D03*
D22*
X149470000Y-109940000D03*
D21*
%TO.P,U5,3,VI*%
%TO.N,+5V*%
X155770000Y-107640000D03*
%TD*%
D23*
%TO.P,C7,1*%
%TO.N,GND*%
X148300000Y-104840000D03*
%TO.P,C7,2*%
%TO.N,+3.3V*%
X149260000Y-104840000D03*
%TD*%
D24*
%TO.P,F1,1*%
%TO.N,+5VP*%
X155700000Y-81150000D03*
%TO.P,F1,2*%
%TO.N,+5V*%
X158500000Y-81150000D03*
%TD*%
D18*
%TO.P,SW1,2,2*%
%TO.N,RESET*%
X158870000Y-98620000D03*
%TO.P,SW1,1,1*%
%TO.N,GND*%
X162270000Y-98620000D03*
%TD*%
D25*
%TO.P,U1,1,I/O1*%
%TO.N,Net-(J6-D--PadA7)*%
X153507500Y-82340000D03*
D26*
%TO.P,U1,2,GND*%
%TO.N,GND*%
X152970000Y-82265000D03*
D25*
%TO.P,U1,3,I/O2*%
%TO.N,Net-(J6-D+-PadA6)*%
X152432500Y-82340000D03*
%TO.P,U1,4,I/O2*%
%TO.N,USB_D+*%
X152432500Y-84040000D03*
D26*
%TO.P,U1,5,VBUS*%
%TO.N,+5V*%
X152970000Y-84115000D03*
D25*
%TO.P,U1,6,I/O1*%
%TO.N,USB_D-*%
X153507500Y-84040000D03*
%TD*%
D11*
%TO.P,R1,1*%
%TO.N,Net-(J6-CC1)*%
X155315000Y-83810000D03*
%TO.P,R1,2*%
%TO.N,GND*%
X156965000Y-83810000D03*
%TD*%
D27*
%TO.P,D1,1,K*%
%TO.N,GND*%
X144882500Y-110750000D03*
%TO.P,D1,2,A*%
%TO.N,Net-(D1-A)*%
X146457500Y-110750000D03*
%TD*%
D28*
%TO.P,SW3,1,1*%
%TO.N,GND*%
X158975000Y-122775000D03*
X153725000Y-122775000D03*
%TO.P,SW3,2,2*%
%TO.N,POI SW*%
X158975000Y-121075000D03*
X153725000Y-121075000D03*
%TD*%
D29*
%TO.P,R3,2*%
%TO.N,+3.3V*%
X162020000Y-103915000D03*
%TO.P,R3,1*%
%TO.N,RESET*%
X162020000Y-102265000D03*
%TD*%
D30*
%TO.P,J6,A1,GND*%
%TO.N,GND*%
X156150000Y-78625000D03*
%TO.P,J6,A4,VBUS*%
%TO.N,+5VP*%
X155350000Y-78625000D03*
D31*
%TO.P,J6,A5,CC1*%
%TO.N,Net-(J6-CC1)*%
X154150000Y-78625000D03*
%TO.P,J6,A6,D+*%
%TO.N,Net-(J6-D+-PadA6)*%
X153150000Y-78625000D03*
%TO.P,J6,A7,D-*%
%TO.N,Net-(J6-D--PadA7)*%
X152650000Y-78625000D03*
%TO.P,J6,A8,SBU1*%
%TO.N,unconnected-(J6-SBU1-PadA8)*%
X151650000Y-78625000D03*
D30*
%TO.P,J6,A9,VBUS*%
%TO.N,+5VP*%
X150450000Y-78625000D03*
%TO.P,J6,A12,GND*%
%TO.N,GND*%
X149650000Y-78625000D03*
%TO.P,J6,B1,GND*%
X149650000Y-78625000D03*
%TO.P,J6,B4,VBUS*%
%TO.N,+5VP*%
X150450000Y-78625000D03*
D31*
%TO.P,J6,B5,CC2*%
%TO.N,Net-(J6-CC2)*%
X151150000Y-78625000D03*
%TO.P,J6,B6,D+*%
%TO.N,Net-(J6-D+-PadA6)*%
X152150000Y-78625000D03*
%TO.P,J6,B7,D-*%
%TO.N,Net-(J6-D--PadA7)*%
X153650000Y-78625000D03*
%TO.P,J6,B8,SBU2*%
%TO.N,unconnected-(J6-SBU2-PadB8)*%
X154650000Y-78625000D03*
D30*
%TO.P,J6,B9,VBUS*%
%TO.N,+5VP*%
X155350000Y-78625000D03*
%TO.P,J6,B12,GND*%
%TO.N,GND*%
X156150000Y-78625000D03*
D32*
%TO.P,J6,S1,SHIELD*%
X157220000Y-77710000D03*
D33*
X157220000Y-73530000D03*
D32*
X148580000Y-77710000D03*
D33*
X148580000Y-73530000D03*
%TD*%
D34*
%TO.P,Q1,1,G*%
%TO.N,+3.3V*%
X167442500Y-93360000D03*
%TO.P,Q1,2,S*%
%TO.N,LED Data*%
X167442500Y-95260000D03*
%TO.P,Q1,3,D*%
%TO.N,Net-(J1-Pin_2)*%
X169317500Y-94310000D03*
%TD*%
D35*
%TO.N,GND*%
X152900000Y-81130000D03*
X151970000Y-107740000D03*
X151480000Y-103720000D03*
X151860000Y-115060000D03*
X154030000Y-95750000D03*
X153960000Y-94090000D03*
X154170000Y-92060000D03*
X146750000Y-92520000D03*
X146880000Y-94530000D03*
X147120000Y-97210000D03*
X147670000Y-89440000D03*
X153450000Y-89220000D03*
X151578239Y-89608551D03*
X148769692Y-97538565D03*
X152130000Y-97480000D03*
X172340000Y-94290000D03*
X161990000Y-85420000D03*
X167493338Y-83881318D03*
X171403275Y-87956464D03*
X168925146Y-87570978D03*
X166450000Y-86080000D03*
X163638470Y-78209155D03*
X166447016Y-77658460D03*
X171072858Y-77658460D03*
X174211822Y-79530824D03*
X176690000Y-79480000D03*
X175700000Y-74630000D03*
X173550988Y-74684704D03*
X166230000Y-74520000D03*
X160830000Y-74740000D03*
X139740000Y-75020000D03*
X145575659Y-78925059D03*
X144750000Y-74680000D03*
X143152599Y-76006373D03*
X141555582Y-79145337D03*
X138306479Y-79255476D03*
X137210000Y-74410000D03*
X138416618Y-109323448D03*
X140288983Y-115326028D03*
X138800000Y-120610000D03*
X144310000Y-120670000D03*
X147390000Y-118190000D03*
X167660000Y-117580000D03*
X171570000Y-115930000D03*
X162757357Y-116041932D03*
X161660000Y-110760000D03*
X164130000Y-110530000D03*
X167440000Y-110530000D03*
X172120000Y-110150000D03*
X176080000Y-110370000D03*
X176030000Y-113950000D03*
X176250000Y-118300000D03*
X176360000Y-122210000D03*
X173060000Y-122100000D03*
X168210000Y-122320000D03*
X164350000Y-122320000D03*
X145390000Y-85730000D03*
X145390000Y-100860000D03*
X155290000Y-100860000D03*
X156860000Y-99440000D03*
X155480000Y-85950000D03*
X156980000Y-87200000D03*
X164090000Y-91720000D03*
X164150000Y-98660000D03*
X155770000Y-114510000D03*
X158140000Y-112280000D03*
X156760000Y-103950000D03*
X160080000Y-106290000D03*
X146560000Y-104770000D03*
X142680000Y-110760000D03*
X151210000Y-122030000D03*
X161250000Y-122320000D03*
X158420000Y-83750000D03*
X147660000Y-81120000D03*
X173060000Y-98440000D03*
%TD*%
D36*
%TO.N,GND*%
X152970000Y-81200000D02*
X152900000Y-81130000D01*
X152970000Y-82265000D02*
X152970000Y-81200000D01*
X155290000Y-86140000D02*
X155290000Y-87399999D01*
X155480000Y-85950000D02*
X155290000Y-86140000D01*
%TO.N,+3.3V*%
X149470000Y-115720000D02*
X149470000Y-109940000D01*
X151290000Y-117540000D02*
X149470000Y-115720000D01*
X151290000Y-120790000D02*
X151290000Y-117540000D01*
X152450000Y-121950000D02*
X151290000Y-120790000D01*
X160380000Y-121950000D02*
X152450000Y-121950000D01*
X160420000Y-112250000D02*
X160420000Y-121910000D01*
X158110000Y-109940000D02*
X160420000Y-112250000D01*
X155770000Y-109940000D02*
X158110000Y-109940000D01*
X160420000Y-121910000D02*
X160380000Y-121950000D01*
%TO.N,GND*%
X156780001Y-87399999D02*
X156980000Y-87200000D01*
X155290000Y-87399999D02*
X156780001Y-87399999D01*
X149539999Y-90574998D02*
X150340000Y-91374999D01*
X149539999Y-87450001D02*
X149539999Y-90574998D01*
X152740000Y-90949999D02*
X152315000Y-91374999D01*
X155240000Y-90949999D02*
X152740000Y-90949999D01*
X155240000Y-91750000D02*
X155240000Y-90949999D01*
X155240000Y-92549998D02*
X155240000Y-91750000D01*
X155240000Y-92549998D02*
X155240000Y-93349999D01*
X155240000Y-93349999D02*
X152315000Y-93349999D01*
X153539999Y-96549998D02*
X152315000Y-95324999D01*
X155240000Y-96549998D02*
X153539999Y-96549998D01*
X155260000Y-94980000D02*
X152659999Y-94980000D01*
X155260000Y-94969998D02*
X155260000Y-94980000D01*
X152659999Y-94980000D02*
X152315000Y-95324999D01*
X155240000Y-94949998D02*
X155260000Y-94969998D01*
X155240000Y-97349999D02*
X155240000Y-96549998D01*
X155240000Y-98150000D02*
X155240000Y-97349999D01*
X155290000Y-98200000D02*
X155240000Y-98150000D01*
X155290000Y-99299999D02*
X155290000Y-98200000D01*
X156719999Y-99299999D02*
X156860000Y-99440000D01*
X155290000Y-99299999D02*
X156719999Y-99299999D01*
X155290000Y-99299999D02*
X155290000Y-100860000D01*
X155239998Y-99249997D02*
X155290000Y-99299999D01*
X154340000Y-99249997D02*
X155239998Y-99249997D01*
X147140001Y-99249997D02*
X146340000Y-99249997D01*
X145440002Y-99249997D02*
X145390000Y-99299999D01*
X146340000Y-99249997D02*
X145440002Y-99249997D01*
X148365000Y-93349999D02*
X145440000Y-93349999D01*
X145815001Y-91374999D02*
X145440000Y-91750000D01*
X148365000Y-91374999D02*
X145815001Y-91374999D01*
X145815001Y-95324999D02*
X145440000Y-94949998D01*
X148365000Y-95324999D02*
X145815001Y-95324999D01*
X145390000Y-99299999D02*
X145390000Y-100860000D01*
X145440000Y-99249999D02*
X145390000Y-99299999D01*
X145440000Y-98149997D02*
X145440000Y-99249999D01*
X145440000Y-97349999D02*
X145440000Y-98149997D01*
X145440000Y-96549998D02*
X145440000Y-97349999D01*
X145440000Y-95749999D02*
X145440000Y-96549998D01*
X145440000Y-94949998D02*
X145440000Y-95749999D01*
X145440000Y-94150000D02*
X145440000Y-94949998D01*
X145440000Y-93349999D02*
X145440000Y-94150000D01*
X145440000Y-92549998D02*
X145440000Y-93349999D01*
X145440000Y-91750000D02*
X145440000Y-92549998D01*
X145440000Y-90949999D02*
X145440000Y-91750000D01*
X145440000Y-90150000D02*
X145440000Y-90949999D01*
X145440000Y-89349999D02*
X145440000Y-90150000D01*
X145440000Y-88549998D02*
X145440000Y-89349999D01*
X145390000Y-88499998D02*
X145440000Y-88549998D01*
X145390000Y-87399999D02*
X145390000Y-88499998D01*
X145390000Y-87399999D02*
X145390000Y-85730000D01*
X162310000Y-98660000D02*
X162270000Y-98620000D01*
X164150000Y-98660000D02*
X162310000Y-98660000D01*
X162480000Y-91720000D02*
X162460000Y-91740000D01*
X164090000Y-91720000D02*
X162480000Y-91720000D01*
X152315000Y-93349999D02*
X152315000Y-91374999D01*
X150340000Y-93349999D02*
X150340000Y-91374999D01*
X150340000Y-93349999D02*
X150340000Y-95324999D01*
X148365000Y-95324999D02*
X148365000Y-93349999D01*
X150340000Y-95324999D02*
X148365000Y-95324999D01*
X152315000Y-95324999D02*
X150340000Y-95324999D01*
X152315000Y-93349999D02*
X152315000Y-95324999D01*
X150340000Y-93349999D02*
X152315000Y-93349999D01*
X148365000Y-93349999D02*
X150340000Y-93349999D01*
X148365000Y-91374999D02*
X148365000Y-93349999D01*
X148365000Y-91374999D02*
X150340000Y-91374999D01*
X152315000Y-91374999D02*
X150340000Y-91374999D01*
%TO.N,Net-(J6-D--PadA7)*%
X153650000Y-79670000D02*
X153650000Y-78625000D01*
X153645000Y-79675000D02*
X153650000Y-79670000D01*
X152675000Y-79675000D02*
X153645000Y-79675000D01*
X152650000Y-78625000D02*
X152650000Y-79650000D01*
X152650000Y-79650000D02*
X152675000Y-79675000D01*
%TO.N,Net-(J6-D+-PadA6)*%
X153125000Y-77575000D02*
X152175000Y-77575000D01*
X152175000Y-77575000D02*
X152150000Y-77600000D01*
X152150000Y-77600000D02*
X152150000Y-78625000D01*
X153150000Y-77600000D02*
X153125000Y-77575000D01*
X153150000Y-78625000D02*
X153150000Y-77600000D01*
%TO.N,GND*%
X148580000Y-73530000D02*
X157220000Y-73530000D01*
X148580000Y-77710000D02*
X148580000Y-73530000D01*
X149495000Y-78625000D02*
X148580000Y-77710000D01*
X149650000Y-78625000D02*
X149495000Y-78625000D01*
X157220000Y-77710000D02*
X157220000Y-73530000D01*
X156305000Y-78625000D02*
X157220000Y-77710000D01*
X156150000Y-78625000D02*
X156305000Y-78625000D01*
%TO.N,+5VP*%
X154400000Y-76850000D02*
X155350000Y-77800000D01*
X151400000Y-76850000D02*
X154400000Y-76850000D01*
X150450000Y-77800000D02*
X151400000Y-76850000D01*
X155350000Y-77800000D02*
X155350000Y-78625000D01*
X150450000Y-78625000D02*
X150450000Y-77800000D01*
%TO.N,GND*%
X155770000Y-114510000D02*
X155770000Y-112240000D01*
X155810000Y-112280000D02*
X155770000Y-112240000D01*
X158140000Y-112280000D02*
X155810000Y-112280000D01*
X156770000Y-103960000D02*
X156760000Y-103950000D01*
X158870000Y-103960000D02*
X156770000Y-103960000D01*
X158610000Y-106290000D02*
X158530000Y-106370000D01*
X160080000Y-106290000D02*
X158610000Y-106290000D01*
X148300000Y-104840000D02*
X146630000Y-104840000D01*
X146630000Y-104840000D02*
X146560000Y-104770000D01*
X142690000Y-110750000D02*
X142680000Y-110760000D01*
X144882500Y-110750000D02*
X142690000Y-110750000D01*
X151955000Y-122775000D02*
X151210000Y-122030000D01*
X153725000Y-122775000D02*
X151955000Y-122775000D01*
X158975000Y-122775000D02*
X160795000Y-122775000D01*
X160795000Y-122775000D02*
X161250000Y-122320000D01*
%TO.N,+3.3V*%
X154220000Y-105680000D02*
X154220000Y-108390000D01*
X154580000Y-105320000D02*
X154220000Y-105680000D01*
X159920000Y-105320000D02*
X154580000Y-105320000D01*
X161325000Y-103915000D02*
X159920000Y-105320000D01*
X162020000Y-103915000D02*
X161325000Y-103915000D01*
X154220000Y-108390000D02*
X155770000Y-109940000D01*
X167350000Y-96590000D02*
X167200000Y-96440000D01*
X169800000Y-96590000D02*
X167350000Y-96590000D01*
X169930000Y-96720000D02*
X169800000Y-96590000D01*
X169930000Y-103850000D02*
X169930000Y-96720000D01*
X170410000Y-104330000D02*
X169930000Y-103850000D01*
X174470000Y-104330000D02*
X170410000Y-104330000D01*
X174480000Y-104320000D02*
X174470000Y-104330000D01*
X167200000Y-98735000D02*
X162020000Y-103915000D01*
X172690000Y-91200000D02*
X174480000Y-92990000D01*
X168000000Y-91200000D02*
X172690000Y-91200000D01*
X168000000Y-92802500D02*
X168000000Y-91200000D01*
X174480000Y-92990000D02*
X174480000Y-104320000D01*
X167442500Y-93360000D02*
X168000000Y-92802500D01*
X167200000Y-96440000D02*
X167200000Y-98735000D01*
D37*
%TO.N,+5V*%
X176600000Y-88340000D02*
X169410000Y-81150000D01*
X158500000Y-81150000D02*
X169410000Y-81150000D01*
X176600000Y-104440000D02*
X176600000Y-96710000D01*
X176600000Y-96710000D02*
X176600000Y-88340000D01*
X173790000Y-107250000D02*
X168920000Y-107250000D01*
X175050000Y-105990000D02*
X173790000Y-107250000D01*
X175050000Y-105990000D02*
X176600000Y-104440000D01*
D36*
X159520000Y-82170000D02*
X158500000Y-81150000D01*
X159520000Y-85100000D02*
X159520000Y-82170000D01*
X159510000Y-85110000D02*
X159520000Y-85100000D01*
X154510000Y-85110000D02*
X159510000Y-85110000D01*
X154180000Y-84780000D02*
X154510000Y-85110000D01*
X154180000Y-83580000D02*
X154180000Y-84780000D01*
X154170000Y-83580000D02*
X154180000Y-83580000D01*
X153850000Y-83260000D02*
X154170000Y-83580000D01*
X153110000Y-83260000D02*
X153850000Y-83260000D01*
X153070000Y-83220000D02*
X153110000Y-83260000D01*
X152970000Y-83320000D02*
X153070000Y-83220000D01*
X152970000Y-84115000D02*
X152970000Y-83320000D01*
%TO.N,GND*%
X157025000Y-83750000D02*
X156965000Y-83810000D01*
X158420000Y-83750000D02*
X157025000Y-83750000D01*
X147720000Y-81180000D02*
X147660000Y-81120000D01*
X149315000Y-81180000D02*
X147720000Y-81180000D01*
X172960000Y-98540000D02*
X172960000Y-101610000D01*
X173060000Y-98440000D02*
X172960000Y-98540000D01*
X158750000Y-122550000D02*
X153950000Y-122550000D01*
X153950000Y-122550000D02*
X153725000Y-122775000D01*
X158975000Y-122775000D02*
X158750000Y-122550000D01*
%TO.N,POI SW*%
X150340000Y-99709596D02*
X150340000Y-99249997D01*
X153725000Y-103094596D02*
X150340000Y-99709596D01*
X153725000Y-121075000D02*
X153725000Y-103094596D01*
%TO.N,+3.3V*%
X147940000Y-101260000D02*
X147940000Y-99249997D01*
X149260000Y-102580000D02*
X147940000Y-101260000D01*
X149260000Y-104840000D02*
X149260000Y-102580000D01*
%TO.N,+5V*%
X156080000Y-107330000D02*
X155770000Y-107640000D01*
D37*
X158530000Y-107330000D02*
X156080000Y-107330000D01*
X168840000Y-107330000D02*
X158530000Y-107330000D01*
D36*
X168960000Y-107210000D02*
X168840000Y-107330000D01*
%TO.N,POI SW*%
X158750000Y-121300000D02*
X158975000Y-121075000D01*
X153950000Y-121300000D02*
X158750000Y-121300000D01*
X153725000Y-121075000D02*
X153950000Y-121300000D01*
%TO.N,Net-(D1-A)*%
X146457500Y-109547500D02*
X146457500Y-110750000D01*
X145190000Y-109190000D02*
X146100000Y-109190000D01*
X144845000Y-108845000D02*
X145190000Y-109190000D01*
X144845000Y-107830000D02*
X144845000Y-108845000D01*
X146100000Y-109190000D02*
X146457500Y-109547500D01*
%TO.N,+3.3V*%
X147360000Y-107830000D02*
X146495000Y-107830000D01*
X149470000Y-109940000D02*
X147360000Y-107830000D01*
X149470000Y-109940000D02*
X149470000Y-104790000D01*
D37*
%TO.N,+5V*%
X168960000Y-101610000D02*
X168960000Y-107210000D01*
D36*
%TO.N,RESET*%
X158870000Y-102060000D02*
X158870000Y-98620000D01*
X159075000Y-102265000D02*
X158870000Y-102060000D01*
X162020000Y-102265000D02*
X159075000Y-102265000D01*
%TO.N,+5V*%
X168920000Y-107250000D02*
X168960000Y-107210000D01*
%TO.N,Net-(J6-CC2)*%
X151150000Y-78625000D02*
X151150000Y-80995000D01*
X151150000Y-80995000D02*
X150965000Y-81180000D01*
%TO.N,Net-(J6-CC1)*%
X154410000Y-79710000D02*
X154410000Y-82905000D01*
X154410000Y-82905000D02*
X155315000Y-83810000D01*
X154210000Y-79710000D02*
X154410000Y-79710000D01*
X154150000Y-79650000D02*
X154210000Y-79710000D01*
X154150000Y-78625000D02*
X154150000Y-79650000D01*
D37*
%TO.N,+5VP*%
X155350000Y-80670000D02*
X155350000Y-78625000D01*
D36*
X155840000Y-81160000D02*
X155350000Y-80670000D01*
%TO.N,Net-(J1-Pin_2)*%
X170930000Y-97970000D02*
X170960000Y-97940000D01*
X170765000Y-97970000D02*
X170930000Y-97970000D01*
X170960000Y-97940000D02*
X170960000Y-95952500D01*
X170960000Y-101610000D02*
X170960000Y-97940000D01*
%TO.N,+5V*%
X169115000Y-101455000D02*
X168960000Y-101610000D01*
X169115000Y-97970000D02*
X169115000Y-101455000D01*
%TO.N,Net-(J1-Pin_2)*%
X170960000Y-95952500D02*
X169317500Y-94310000D01*
%TO.N,LED Data*%
X156370000Y-90150000D02*
X155240000Y-90150000D01*
X156990000Y-94350000D02*
X156990000Y-90770000D01*
X156990000Y-90770000D02*
X156370000Y-90150000D01*
X157900000Y-95260000D02*
X156990000Y-94350000D01*
X167442500Y-95260000D02*
X157900000Y-95260000D01*
%TO.N,BOOT*%
X156669999Y-89349999D02*
X155240000Y-89349999D01*
X159060000Y-91740000D02*
X156669999Y-89349999D01*
%TO.N,RESET*%
X157508603Y-100811397D02*
X156560000Y-101760000D01*
X153793602Y-101760000D02*
X151939999Y-99906397D01*
X157508603Y-99981397D02*
X157508603Y-100811397D01*
X158870000Y-98620000D02*
X157508603Y-99981397D01*
X156560000Y-101760000D02*
X153793602Y-101760000D01*
X151939999Y-99906397D02*
X151939999Y-99249997D01*
D38*
%TO.N,USB_D+*%
X152740000Y-86730000D02*
X152740000Y-87450001D01*
X152432500Y-86422500D02*
X152740000Y-86730000D01*
X152432500Y-84040000D02*
X152432500Y-86422500D01*
%TO.N,USB_D-*%
X153507500Y-84040000D02*
X153507500Y-87417502D01*
X153507500Y-87417502D02*
X153539999Y-87450001D01*
D36*
%TO.N,Net-(J6-D+-PadA6)*%
X152150000Y-82017500D02*
X152150000Y-78625000D01*
X152432500Y-82300000D02*
X152150000Y-82017500D01*
%TO.N,Net-(J6-D--PadA7)*%
X153650000Y-82157500D02*
X153650000Y-78625000D01*
X153507500Y-82300000D02*
X153650000Y-82157500D01*
%TD*%
%TA.AperFunction,Conductor*%
%TO.N,GND*%
G36*
X147699370Y-72519685D02*
G01*
X147745125Y-72572489D01*
X147755069Y-72641647D01*
X147734106Y-72694837D01*
X147701143Y-72742195D01*
X147620940Y-72929092D01*
X147580000Y-73128309D01*
X147580000Y-73280000D01*
X148280000Y-73280000D01*
X148280000Y-73780000D01*
X147580000Y-73780000D01*
X147580000Y-73880713D01*
X147595418Y-74032338D01*
X147656299Y-74226381D01*
X147656304Y-74226391D01*
X147755005Y-74404215D01*
X147755005Y-74404216D01*
X147887478Y-74558530D01*
X147887479Y-74558531D01*
X148048304Y-74683018D01*
X148230907Y-74772589D01*
X148330000Y-74798244D01*
X148330000Y-73996110D01*
X148354457Y-74035610D01*
X148443962Y-74103201D01*
X148551840Y-74133895D01*
X148663521Y-74123546D01*
X148763922Y-74073552D01*
X148830000Y-74001069D01*
X148830000Y-74803366D01*
X148831944Y-74803069D01*
X148831945Y-74803069D01*
X149022660Y-74732436D01*
X149022664Y-74732434D01*
X149195267Y-74624850D01*
X149342668Y-74484735D01*
X149342669Y-74484733D01*
X149458856Y-74317804D01*
X149539059Y-74130907D01*
X149580000Y-73931690D01*
X149580000Y-73780000D01*
X148880000Y-73780000D01*
X148880000Y-73280000D01*
X149580000Y-73280000D01*
X149580000Y-73179286D01*
X149564581Y-73027661D01*
X149503700Y-72833618D01*
X149503695Y-72833608D01*
X149420755Y-72684178D01*
X149405432Y-72616009D01*
X149429396Y-72550377D01*
X149485039Y-72508120D01*
X149529174Y-72500000D01*
X156272331Y-72500000D01*
X156339370Y-72519685D01*
X156385125Y-72572489D01*
X156395069Y-72641647D01*
X156374106Y-72694837D01*
X156341143Y-72742195D01*
X156260940Y-72929092D01*
X156220000Y-73128309D01*
X156220000Y-73280000D01*
X156920000Y-73280000D01*
X156920000Y-73780000D01*
X156220000Y-73780000D01*
X156220000Y-73880713D01*
X156235418Y-74032338D01*
X156296299Y-74226381D01*
X156296304Y-74226391D01*
X156395005Y-74404215D01*
X156395005Y-74404216D01*
X156527478Y-74558530D01*
X156527479Y-74558531D01*
X156688304Y-74683018D01*
X156870907Y-74772589D01*
X156970000Y-74798244D01*
X156970000Y-73996110D01*
X156994457Y-74035610D01*
X157083962Y-74103201D01*
X157191840Y-74133895D01*
X157303521Y-74123546D01*
X157403922Y-74073552D01*
X157470000Y-74001069D01*
X157470000Y-74803366D01*
X157471944Y-74803069D01*
X157471945Y-74803069D01*
X157662660Y-74732436D01*
X157662664Y-74732434D01*
X157835267Y-74624850D01*
X157982668Y-74484735D01*
X157982669Y-74484733D01*
X158098856Y-74317804D01*
X158179059Y-74130907D01*
X158220000Y-73931690D01*
X158220000Y-73780000D01*
X157520000Y-73780000D01*
X157520000Y-73280000D01*
X158220000Y-73280000D01*
X158220000Y-73179286D01*
X158204581Y-73027661D01*
X158143700Y-72833618D01*
X158143695Y-72833608D01*
X158060755Y-72684178D01*
X158045432Y-72616009D01*
X158069396Y-72550377D01*
X158125039Y-72508120D01*
X158169174Y-72500000D01*
X178078638Y-72500000D01*
X178145677Y-72519685D01*
X178166319Y-72536319D01*
X178483681Y-72853681D01*
X178517166Y-72915004D01*
X178520000Y-72941362D01*
X178520000Y-123416000D01*
X178500315Y-123483039D01*
X178447511Y-123528794D01*
X178396000Y-123540000D01*
X160363068Y-123540000D01*
X160296029Y-123520315D01*
X160250274Y-123467511D01*
X160240330Y-123398353D01*
X160242390Y-123387492D01*
X160243597Y-123382379D01*
X160249999Y-123322844D01*
X160250000Y-123322827D01*
X160250000Y-123025000D01*
X157700000Y-123025000D01*
X157700000Y-123322844D01*
X157706402Y-123382379D01*
X157707610Y-123387492D01*
X157703866Y-123457261D01*
X157662996Y-123513930D01*
X157597976Y-123539507D01*
X157586932Y-123540000D01*
X157090886Y-123540000D01*
X157023847Y-123520315D01*
X156978092Y-123467511D01*
X156968148Y-123398353D01*
X156969073Y-123392815D01*
X156979227Y-123339588D01*
X156969304Y-123181862D01*
X156920467Y-123031559D01*
X156835786Y-122898123D01*
X156720582Y-122789938D01*
X156720579Y-122789936D01*
X156720532Y-122789892D01*
X156685137Y-122729651D01*
X156687931Y-122659837D01*
X156728025Y-122602616D01*
X156792690Y-122576155D01*
X156805416Y-122575500D01*
X160297257Y-122575500D01*
X160312877Y-122577224D01*
X160312904Y-122576939D01*
X160320660Y-122577671D01*
X160320667Y-122577673D01*
X160387873Y-122575561D01*
X160391768Y-122575500D01*
X160419346Y-122575500D01*
X160419350Y-122575500D01*
X160423324Y-122574997D01*
X160434963Y-122574080D01*
X160478627Y-122572709D01*
X160497869Y-122567117D01*
X160516912Y-122563174D01*
X160536792Y-122560664D01*
X160577401Y-122544585D01*
X160588444Y-122540803D01*
X160630390Y-122528618D01*
X160647629Y-122518422D01*
X160665103Y-122509862D01*
X160683727Y-122502488D01*
X160683727Y-122502487D01*
X160683732Y-122502486D01*
X160719083Y-122476800D01*
X160728814Y-122470408D01*
X160766420Y-122448170D01*
X160780589Y-122433999D01*
X160795379Y-122421368D01*
X160811587Y-122409594D01*
X160828940Y-122388616D01*
X160834034Y-122382838D01*
X160867947Y-122346725D01*
X160870596Y-122343992D01*
X160890120Y-122324470D01*
X160892570Y-122321310D01*
X160900154Y-122312429D01*
X160930062Y-122280582D01*
X160939714Y-122263023D01*
X160950389Y-122246772D01*
X160962674Y-122230936D01*
X160980030Y-122190825D01*
X160985161Y-122180354D01*
X161006194Y-122142098D01*
X161006194Y-122142097D01*
X161006197Y-122142092D01*
X161011180Y-122122680D01*
X161017477Y-122104291D01*
X161025438Y-122085895D01*
X161032270Y-122042748D01*
X161034639Y-122031316D01*
X161045499Y-121989022D01*
X161045500Y-121989017D01*
X161045500Y-121968983D01*
X161047027Y-121949582D01*
X161050160Y-121929804D01*
X161046050Y-121886324D01*
X161045500Y-121874655D01*
X161045500Y-112332737D01*
X161047224Y-112317123D01*
X161046938Y-112317096D01*
X161047672Y-112309333D01*
X161045561Y-112242144D01*
X161045500Y-112238250D01*
X161045500Y-112210651D01*
X161045500Y-112210650D01*
X161044997Y-112206670D01*
X161044080Y-112195021D01*
X161042709Y-112151373D01*
X161037121Y-112132139D01*
X161033174Y-112113081D01*
X161030664Y-112093208D01*
X161026359Y-112082335D01*
X161014583Y-112052592D01*
X161010799Y-112041539D01*
X161002872Y-112014257D01*
X160998617Y-111999610D01*
X160988420Y-111982368D01*
X160979863Y-111964902D01*
X160972486Y-111946268D01*
X160946809Y-111910926D01*
X160940412Y-111901190D01*
X160918170Y-111863579D01*
X160918167Y-111863576D01*
X160918165Y-111863573D01*
X160904005Y-111849413D01*
X160891370Y-111834620D01*
X160879593Y-111818412D01*
X160845945Y-111790576D01*
X160837304Y-111782713D01*
X158610803Y-109556212D01*
X158600980Y-109543950D01*
X158600759Y-109544134D01*
X158595786Y-109538122D01*
X158546776Y-109492099D01*
X158543977Y-109489386D01*
X158524477Y-109469885D01*
X158524471Y-109469880D01*
X158521286Y-109467409D01*
X158512434Y-109459848D01*
X158480582Y-109429938D01*
X158480580Y-109429936D01*
X158480577Y-109429935D01*
X158463029Y-109420288D01*
X158446763Y-109409604D01*
X158430932Y-109397324D01*
X158390849Y-109379978D01*
X158380363Y-109374841D01*
X158342094Y-109353803D01*
X158342092Y-109353802D01*
X158322693Y-109348822D01*
X158304281Y-109342518D01*
X158285898Y-109334562D01*
X158285892Y-109334560D01*
X158242760Y-109327729D01*
X158231322Y-109325361D01*
X158189020Y-109314500D01*
X158189019Y-109314500D01*
X158168984Y-109314500D01*
X158149586Y-109312973D01*
X158142162Y-109311797D01*
X158129805Y-109309840D01*
X158129804Y-109309840D01*
X158086325Y-109313950D01*
X158074656Y-109314500D01*
X157394499Y-109314500D01*
X157327460Y-109294815D01*
X157281705Y-109242011D01*
X157270499Y-109190500D01*
X157270499Y-109142129D01*
X157270498Y-109142123D01*
X157264091Y-109082516D01*
X157213797Y-108947671D01*
X157213796Y-108947669D01*
X157173717Y-108894130D01*
X157151393Y-108864310D01*
X157126977Y-108798847D01*
X157141828Y-108730574D01*
X157151394Y-108715689D01*
X157188347Y-108666326D01*
X157213796Y-108632331D01*
X157264091Y-108497483D01*
X157270500Y-108437873D01*
X157270500Y-108204500D01*
X157290185Y-108137461D01*
X157342989Y-108091706D01*
X157394500Y-108080500D01*
X158147934Y-108080500D01*
X158182528Y-108085423D01*
X158259007Y-108107643D01*
X158295310Y-108110500D01*
X158295318Y-108110500D01*
X158764682Y-108110500D01*
X158764690Y-108110500D01*
X158800993Y-108107643D01*
X158877471Y-108085423D01*
X158912066Y-108080500D01*
X168883701Y-108080500D01*
X168883709Y-108080500D01*
X169014255Y-108065241D01*
X169110709Y-108030134D01*
X169171587Y-108007978D01*
X169213997Y-108000500D01*
X173726295Y-108000500D01*
X173744265Y-108001809D01*
X173768023Y-108005289D01*
X173817369Y-108000971D01*
X173828176Y-108000500D01*
X173833704Y-108000500D01*
X173833709Y-108000500D01*
X173864556Y-107996893D01*
X173868030Y-107996539D01*
X173942797Y-107989999D01*
X173942805Y-107989996D01*
X173949866Y-107988539D01*
X173949878Y-107988598D01*
X173957243Y-107986965D01*
X173957229Y-107986906D01*
X173964249Y-107985241D01*
X173964255Y-107985241D01*
X174034779Y-107959572D01*
X174038117Y-107958412D01*
X174109334Y-107934814D01*
X174109342Y-107934808D01*
X174115882Y-107931760D01*
X174115908Y-107931816D01*
X174122690Y-107928532D01*
X174122663Y-107928478D01*
X174129113Y-107925238D01*
X174129117Y-107925237D01*
X174191837Y-107883984D01*
X174194732Y-107882140D01*
X174258656Y-107842712D01*
X174258662Y-107842705D01*
X174264325Y-107838229D01*
X174264363Y-107838277D01*
X174270200Y-107833522D01*
X174270161Y-107833475D01*
X174275691Y-107828833D01*
X174275696Y-107828830D01*
X174327184Y-107774254D01*
X174329630Y-107771736D01*
X175611591Y-106489777D01*
X177085642Y-105015724D01*
X177099271Y-105003947D01*
X177118530Y-104989610D01*
X177145329Y-104957672D01*
X177150360Y-104951676D01*
X177157677Y-104943691D01*
X177161587Y-104939781D01*
X177161587Y-104939780D01*
X177161591Y-104939777D01*
X177180833Y-104915438D01*
X177183069Y-104912693D01*
X177231302Y-104855214D01*
X177231307Y-104855203D01*
X177235274Y-104849175D01*
X177235325Y-104849208D01*
X177239372Y-104842856D01*
X177239320Y-104842824D01*
X177243108Y-104836680D01*
X177243111Y-104836677D01*
X177274821Y-104768673D01*
X177276362Y-104765488D01*
X177310040Y-104698433D01*
X177310043Y-104698417D01*
X177312509Y-104691646D01*
X177312567Y-104691667D01*
X177315043Y-104684546D01*
X177314986Y-104684528D01*
X177317256Y-104677677D01*
X177321421Y-104657505D01*
X177332447Y-104604102D01*
X177333179Y-104600798D01*
X177350500Y-104527721D01*
X177350500Y-104527712D01*
X177351338Y-104520548D01*
X177351398Y-104520555D01*
X177352164Y-104513055D01*
X177352105Y-104513050D01*
X177352734Y-104505860D01*
X177350552Y-104430870D01*
X177350500Y-104427263D01*
X177350500Y-88403705D01*
X177351809Y-88385736D01*
X177353149Y-88376584D01*
X177355289Y-88361977D01*
X177354801Y-88356401D01*
X177350972Y-88312630D01*
X177350500Y-88301822D01*
X177350500Y-88296296D01*
X177350500Y-88296291D01*
X177346901Y-88265509D01*
X177346536Y-88261929D01*
X177339999Y-88187201D01*
X177338539Y-88180129D01*
X177338597Y-88180116D01*
X177336965Y-88172757D01*
X177336906Y-88172772D01*
X177335241Y-88165751D01*
X177335241Y-88165745D01*
X177309569Y-88095212D01*
X177308421Y-88091909D01*
X177284814Y-88020666D01*
X177284810Y-88020659D01*
X177281760Y-88014118D01*
X177281815Y-88014091D01*
X177278533Y-88007313D01*
X177278480Y-88007340D01*
X177275235Y-88000880D01*
X177234025Y-87938223D01*
X177232086Y-87935181D01*
X177231672Y-87934509D01*
X177192712Y-87871345D01*
X177192711Y-87871344D01*
X177192710Y-87871342D01*
X177188234Y-87865682D01*
X177188281Y-87865644D01*
X177183519Y-87859799D01*
X177183474Y-87859838D01*
X177178831Y-87854305D01*
X177124272Y-87802831D01*
X177121685Y-87800318D01*
X169985729Y-80664361D01*
X169973949Y-80650730D01*
X169959610Y-80631470D01*
X169921651Y-80599619D01*
X169913686Y-80592318D01*
X169909780Y-80588411D01*
X169885443Y-80569168D01*
X169882647Y-80566890D01*
X169825214Y-80518698D01*
X169819180Y-80514729D01*
X169819212Y-80514680D01*
X169812853Y-80510628D01*
X169812822Y-80510679D01*
X169806680Y-80506891D01*
X169806678Y-80506890D01*
X169806677Y-80506889D01*
X169738688Y-80475184D01*
X169735447Y-80473615D01*
X169704530Y-80458088D01*
X169668433Y-80439960D01*
X169668431Y-80439959D01*
X169668430Y-80439959D01*
X169661645Y-80437489D01*
X169661665Y-80437433D01*
X169654549Y-80434959D01*
X169654531Y-80435015D01*
X169647674Y-80432743D01*
X169574210Y-80417573D01*
X169570693Y-80416793D01*
X169497718Y-80399499D01*
X169490547Y-80398661D01*
X169490553Y-80398601D01*
X169483055Y-80397835D01*
X169483050Y-80397895D01*
X169475860Y-80397265D01*
X169400870Y-80399448D01*
X169397263Y-80399500D01*
X159713585Y-80399500D01*
X159646546Y-80379815D01*
X159600791Y-80327011D01*
X159595879Y-80314504D01*
X159594952Y-80311706D01*
X159559814Y-80205666D01*
X159467712Y-80056344D01*
X159343656Y-79932288D01*
X159210200Y-79849972D01*
X159194336Y-79840187D01*
X159194331Y-79840185D01*
X159192862Y-79839698D01*
X159027797Y-79785001D01*
X159027795Y-79785000D01*
X158925010Y-79774500D01*
X158074998Y-79774500D01*
X158074980Y-79774501D01*
X157972203Y-79785000D01*
X157972200Y-79785001D01*
X157805668Y-79840185D01*
X157805663Y-79840187D01*
X157656342Y-79932289D01*
X157532289Y-80056342D01*
X157440187Y-80205663D01*
X157440186Y-80205666D01*
X157385001Y-80372203D01*
X157385001Y-80372204D01*
X157385000Y-80372204D01*
X157374500Y-80474983D01*
X157374500Y-81825001D01*
X157374501Y-81825018D01*
X157385000Y-81927796D01*
X157385001Y-81927799D01*
X157413303Y-82013208D01*
X157440186Y-82094334D01*
X157532288Y-82243656D01*
X157656344Y-82367712D01*
X157805666Y-82459814D01*
X157972203Y-82514999D01*
X158074991Y-82525500D01*
X158770500Y-82525499D01*
X158837539Y-82545183D01*
X158883294Y-82597987D01*
X158894500Y-82649499D01*
X158894500Y-84360500D01*
X158874815Y-84427539D01*
X158822011Y-84473294D01*
X158770500Y-84484500D01*
X157942230Y-84484500D01*
X157875191Y-84464815D01*
X157829436Y-84412011D01*
X157819492Y-84342853D01*
X157823845Y-84323610D01*
X157858590Y-84212106D01*
X157865000Y-84141572D01*
X157865000Y-84060000D01*
X156839000Y-84060000D01*
X156771961Y-84040315D01*
X156726206Y-83987511D01*
X156715000Y-83936000D01*
X156715000Y-82835000D01*
X157215000Y-82835000D01*
X157215000Y-83560000D01*
X157864999Y-83560000D01*
X157864999Y-83478417D01*
X157858591Y-83407897D01*
X157858590Y-83407892D01*
X157808018Y-83245603D01*
X157720072Y-83100122D01*
X157599877Y-82979927D01*
X157454395Y-82891980D01*
X157454396Y-82891980D01*
X157292105Y-82841409D01*
X157292106Y-82841409D01*
X157221572Y-82835000D01*
X157215000Y-82835000D01*
X156715000Y-82835000D01*
X156714999Y-82834999D01*
X156708436Y-82835000D01*
X156708417Y-82835001D01*
X156637897Y-82841408D01*
X156637892Y-82841409D01*
X156475603Y-82891981D01*
X156330122Y-82979927D01*
X156330121Y-82979928D01*
X156228035Y-83082015D01*
X156166712Y-83115500D01*
X156097020Y-83110516D01*
X156052673Y-83082015D01*
X155950188Y-82979530D01*
X155897280Y-82947546D01*
X155804606Y-82891522D01*
X155642196Y-82840914D01*
X155642194Y-82840913D01*
X155642192Y-82840913D01*
X155592778Y-82836423D01*
X155571616Y-82834500D01*
X155571613Y-82834500D01*
X155275453Y-82834500D01*
X155208414Y-82814815D01*
X155187772Y-82798181D01*
X155120602Y-82731011D01*
X155087117Y-82669688D01*
X155092101Y-82599996D01*
X155133973Y-82544063D01*
X155199437Y-82519646D01*
X155220879Y-82519971D01*
X155274991Y-82525500D01*
X156125008Y-82525499D01*
X156125016Y-82525498D01*
X156125019Y-82525498D01*
X156182306Y-82519646D01*
X156227797Y-82514999D01*
X156394334Y-82459814D01*
X156543656Y-82367712D01*
X156667712Y-82243656D01*
X156759814Y-82094334D01*
X156814999Y-81927797D01*
X156825500Y-81825009D01*
X156825499Y-80474992D01*
X156821920Y-80439960D01*
X156814999Y-80372203D01*
X156814998Y-80372200D01*
X156778475Y-80261981D01*
X156759814Y-80205666D01*
X156667712Y-80056344D01*
X156619221Y-80007853D01*
X156585736Y-79946530D01*
X156590720Y-79876838D01*
X156632592Y-79820905D01*
X156663571Y-79803989D01*
X156692088Y-79793353D01*
X156692093Y-79793350D01*
X156807187Y-79707190D01*
X156807190Y-79707187D01*
X156893350Y-79592093D01*
X156893354Y-79592086D01*
X156943596Y-79457379D01*
X156943598Y-79457372D01*
X156949999Y-79397844D01*
X156950000Y-79397827D01*
X156950000Y-79304550D01*
X156969685Y-79237511D01*
X156970000Y-79237167D01*
X156970000Y-78426110D01*
X156994457Y-78465610D01*
X157083962Y-78533201D01*
X157191840Y-78563895D01*
X157303521Y-78553546D01*
X157403922Y-78503552D01*
X157470000Y-78431069D01*
X157470000Y-79233366D01*
X157471944Y-79233069D01*
X157471945Y-79233069D01*
X157662660Y-79162436D01*
X157662664Y-79162434D01*
X157835267Y-79054850D01*
X157982668Y-78914735D01*
X157982669Y-78914733D01*
X158098856Y-78747804D01*
X158179059Y-78560907D01*
X158220000Y-78361690D01*
X158220000Y-77960000D01*
X157520000Y-77960000D01*
X157520000Y-77460000D01*
X158220000Y-77460000D01*
X158220000Y-77109286D01*
X158204581Y-76957661D01*
X158143700Y-76763618D01*
X158143695Y-76763608D01*
X158044994Y-76585784D01*
X158044994Y-76585783D01*
X157912521Y-76431469D01*
X157912520Y-76431468D01*
X157751695Y-76306981D01*
X157569093Y-76217411D01*
X157470000Y-76191753D01*
X157470000Y-76993889D01*
X157445543Y-76954390D01*
X157356038Y-76886799D01*
X157248160Y-76856105D01*
X157136479Y-76866454D01*
X157036078Y-76916448D01*
X156970000Y-76988930D01*
X156970000Y-76186633D01*
X156968053Y-76186931D01*
X156968047Y-76186933D01*
X156777342Y-76257562D01*
X156777335Y-76257565D01*
X156604732Y-76365149D01*
X156457331Y-76505264D01*
X156457330Y-76505266D01*
X156341142Y-76672197D01*
X156341140Y-76672200D01*
X156337760Y-76680078D01*
X156293232Y-76733921D01*
X156226663Y-76755142D01*
X156159189Y-76737005D01*
X156148332Y-76729556D01*
X156080233Y-76677302D01*
X156080232Y-76677301D01*
X156080230Y-76677300D01*
X155989731Y-76639814D01*
X155940236Y-76619313D01*
X155926171Y-76617461D01*
X155827727Y-76604500D01*
X155827720Y-76604500D01*
X155752280Y-76604500D01*
X155752272Y-76604500D01*
X155639764Y-76619313D01*
X155639763Y-76619313D01*
X155499770Y-76677300D01*
X155499767Y-76677301D01*
X155499767Y-76677302D01*
X155395911Y-76756994D01*
X155379536Y-76769559D01*
X155379509Y-76769587D01*
X155379480Y-76769602D01*
X155373102Y-76774497D01*
X155372337Y-76773501D01*
X155318180Y-76803062D01*
X155248489Y-76798065D01*
X155204162Y-76769572D01*
X155053903Y-76619313D01*
X154900803Y-76466212D01*
X154890980Y-76453950D01*
X154890759Y-76454134D01*
X154885786Y-76448122D01*
X154836776Y-76402099D01*
X154833977Y-76399386D01*
X154814477Y-76379885D01*
X154814471Y-76379880D01*
X154811286Y-76377409D01*
X154802434Y-76369848D01*
X154770582Y-76339938D01*
X154770580Y-76339936D01*
X154770577Y-76339935D01*
X154753029Y-76330288D01*
X154736763Y-76319604D01*
X154720932Y-76307324D01*
X154680849Y-76289978D01*
X154670363Y-76284841D01*
X154632094Y-76263803D01*
X154632092Y-76263802D01*
X154612693Y-76258822D01*
X154594281Y-76252518D01*
X154575898Y-76244562D01*
X154575892Y-76244560D01*
X154532760Y-76237729D01*
X154521322Y-76235361D01*
X154479020Y-76224500D01*
X154479019Y-76224500D01*
X154458984Y-76224500D01*
X154439586Y-76222973D01*
X154432162Y-76221797D01*
X154419805Y-76219840D01*
X154419804Y-76219840D01*
X154376325Y-76223950D01*
X154364656Y-76224500D01*
X151482743Y-76224500D01*
X151467122Y-76222775D01*
X151467096Y-76223061D01*
X151459334Y-76222327D01*
X151459333Y-76222327D01*
X151407688Y-76223950D01*
X151392127Y-76224439D01*
X151388232Y-76224500D01*
X151360647Y-76224500D01*
X151356661Y-76225003D01*
X151345033Y-76225918D01*
X151301373Y-76227290D01*
X151282129Y-76232881D01*
X151263079Y-76236825D01*
X151243211Y-76239334D01*
X151243210Y-76239334D01*
X151202599Y-76255413D01*
X151191554Y-76259194D01*
X151149614Y-76271379D01*
X151149610Y-76271381D01*
X151132366Y-76281579D01*
X151114905Y-76290133D01*
X151096274Y-76297510D01*
X151096262Y-76297517D01*
X151060933Y-76323185D01*
X151051173Y-76329596D01*
X151013580Y-76351829D01*
X150999414Y-76365995D01*
X150984624Y-76378627D01*
X150968414Y-76390404D01*
X150968411Y-76390407D01*
X150940573Y-76424058D01*
X150932711Y-76432697D01*
X150595836Y-76769572D01*
X150534513Y-76803057D01*
X150464821Y-76798073D01*
X150427307Y-76773963D01*
X150426898Y-76774497D01*
X150420508Y-76769594D01*
X150420474Y-76769572D01*
X150420455Y-76769553D01*
X150420452Y-76769551D01*
X150420451Y-76769549D01*
X150300233Y-76677302D01*
X150300229Y-76677300D01*
X150236801Y-76651027D01*
X150160236Y-76619313D01*
X150146171Y-76617461D01*
X150047727Y-76604500D01*
X150047720Y-76604500D01*
X149972280Y-76604500D01*
X149972272Y-76604500D01*
X149859764Y-76619313D01*
X149859763Y-76619313D01*
X149719769Y-76677300D01*
X149697821Y-76694142D01*
X149648743Y-76731800D01*
X149583575Y-76756994D01*
X149515131Y-76742956D01*
X149465141Y-76694142D01*
X149464839Y-76693602D01*
X149404994Y-76585784D01*
X149404994Y-76585783D01*
X149272521Y-76431469D01*
X149272520Y-76431468D01*
X149111695Y-76306981D01*
X148929093Y-76217411D01*
X148830000Y-76191753D01*
X148830000Y-76993889D01*
X148805543Y-76954390D01*
X148716038Y-76886799D01*
X148608160Y-76856105D01*
X148496479Y-76866454D01*
X148396078Y-76916448D01*
X148330000Y-76988930D01*
X148330000Y-76186633D01*
X148328053Y-76186931D01*
X148328047Y-76186933D01*
X148137342Y-76257562D01*
X148137335Y-76257565D01*
X147964732Y-76365149D01*
X147817331Y-76505264D01*
X147817330Y-76505266D01*
X147701143Y-76672195D01*
X147620940Y-76859092D01*
X147580000Y-77058309D01*
X147580000Y-77460000D01*
X148280000Y-77460000D01*
X148280000Y-77960000D01*
X147580000Y-77960000D01*
X147580000Y-78310713D01*
X147595418Y-78462338D01*
X147656299Y-78656381D01*
X147656304Y-78656391D01*
X147755005Y-78834215D01*
X147755005Y-78834216D01*
X147887478Y-78988530D01*
X147887479Y-78988531D01*
X148048304Y-79113018D01*
X148230907Y-79202589D01*
X148330000Y-79228244D01*
X148330000Y-78875000D01*
X148830000Y-78875000D01*
X148830000Y-79249200D01*
X148844824Y-79272047D01*
X148850000Y-79307500D01*
X148850000Y-79397844D01*
X148856401Y-79457372D01*
X148856403Y-79457379D01*
X148906645Y-79592086D01*
X148906649Y-79592093D01*
X148992809Y-79707187D01*
X148992812Y-79707190D01*
X149107906Y-79793350D01*
X149107913Y-79793354D01*
X149242620Y-79843596D01*
X149242627Y-79843598D01*
X149302155Y-79849999D01*
X149302172Y-79850000D01*
X149400000Y-79850000D01*
X149400000Y-78875000D01*
X148830000Y-78875000D01*
X148330000Y-78875000D01*
X148330000Y-78426110D01*
X148354457Y-78465610D01*
X148443962Y-78533201D01*
X148551840Y-78563895D01*
X148663521Y-78553546D01*
X148763922Y-78503552D01*
X148839484Y-78420666D01*
X148857175Y-78375000D01*
X149400000Y-78375000D01*
X149400000Y-77688779D01*
X149419685Y-77621740D01*
X149472489Y-77575985D01*
X149541647Y-77566041D01*
X149599487Y-77590404D01*
X149629230Y-77613227D01*
X149670433Y-77669655D01*
X149674587Y-77739401D01*
X149669926Y-77754933D01*
X149655908Y-77792517D01*
X149649501Y-77852116D01*
X149649501Y-77852123D01*
X149649500Y-77852135D01*
X149649500Y-79397870D01*
X149649501Y-79397876D01*
X149655908Y-79457483D01*
X149706202Y-79592328D01*
X149706203Y-79592329D01*
X149706204Y-79592331D01*
X149792454Y-79707546D01*
X149850311Y-79750858D01*
X149892182Y-79806789D01*
X149899972Y-79849972D01*
X149900000Y-79850000D01*
X149997819Y-79850000D01*
X149997833Y-79849999D01*
X150034395Y-79846068D01*
X150060905Y-79846068D01*
X150102127Y-79850500D01*
X150400500Y-79850499D01*
X150467539Y-79870183D01*
X150513294Y-79922987D01*
X150524500Y-79974499D01*
X150524500Y-80161900D01*
X150504815Y-80228939D01*
X150464650Y-80268017D01*
X150329811Y-80349530D01*
X150329810Y-80349531D01*
X150227327Y-80452015D01*
X150166004Y-80485500D01*
X150096312Y-80480516D01*
X150051965Y-80452015D01*
X149949877Y-80349927D01*
X149804395Y-80261980D01*
X149804396Y-80261980D01*
X149642105Y-80211409D01*
X149642106Y-80211409D01*
X149571572Y-80205000D01*
X149565000Y-80205000D01*
X149565000Y-82154999D01*
X149571581Y-82154999D01*
X149642102Y-82148591D01*
X149642107Y-82148590D01*
X149804396Y-82098018D01*
X149949877Y-82010072D01*
X149949878Y-82010071D01*
X150051963Y-81907985D01*
X150113286Y-81874499D01*
X150182977Y-81879483D01*
X150227326Y-81907984D01*
X150329811Y-82010469D01*
X150329813Y-82010470D01*
X150329815Y-82010472D01*
X150475394Y-82098478D01*
X150637804Y-82149086D01*
X150708384Y-82155500D01*
X150708387Y-82155500D01*
X151221613Y-82155500D01*
X151221616Y-82155500D01*
X151292196Y-82149086D01*
X151393481Y-82117524D01*
X151463337Y-82116375D01*
X151522730Y-82153176D01*
X151545660Y-82190265D01*
X151555414Y-82214902D01*
X151559197Y-82225952D01*
X151571381Y-82267888D01*
X151581580Y-82285134D01*
X151590138Y-82302603D01*
X151597514Y-82321232D01*
X151623181Y-82356560D01*
X151629593Y-82366321D01*
X151651828Y-82403917D01*
X151651833Y-82403924D01*
X151665990Y-82418080D01*
X151678627Y-82432875D01*
X151690406Y-82449087D01*
X151699540Y-82456643D01*
X151738648Y-82514543D01*
X151744500Y-82552186D01*
X151744500Y-82637869D01*
X151744501Y-82637876D01*
X151750908Y-82697483D01*
X151801202Y-82832328D01*
X151801206Y-82832335D01*
X151887452Y-82947544D01*
X151887455Y-82947547D01*
X152002664Y-83033793D01*
X152002671Y-83033797D01*
X152109972Y-83073818D01*
X152165906Y-83115689D01*
X152190323Y-83181154D01*
X152175471Y-83249427D01*
X152126066Y-83298832D01*
X152109972Y-83306182D01*
X152002671Y-83346202D01*
X152002664Y-83346206D01*
X151887455Y-83432452D01*
X151887452Y-83432455D01*
X151801206Y-83547664D01*
X151801202Y-83547671D01*
X151750910Y-83682513D01*
X151750909Y-83682517D01*
X151744500Y-83742127D01*
X151744500Y-83742134D01*
X151744500Y-83742135D01*
X151744500Y-84337870D01*
X151744501Y-84337876D01*
X151750908Y-84397483D01*
X151801202Y-84532328D01*
X151801203Y-84532330D01*
X151807267Y-84540430D01*
X151831684Y-84605894D01*
X151832000Y-84614741D01*
X151832000Y-86375012D01*
X151830939Y-86391197D01*
X151825757Y-86430558D01*
X151823539Y-86430266D01*
X151807133Y-86486140D01*
X151754329Y-86531895D01*
X151702825Y-86543101D01*
X151688932Y-86543101D01*
X151688922Y-86543102D01*
X151629315Y-86549509D01*
X151583332Y-86566660D01*
X151513640Y-86571644D01*
X151496668Y-86566660D01*
X151450689Y-86549511D01*
X151450685Y-86549510D01*
X151450684Y-86549510D01*
X151391074Y-86543101D01*
X151391064Y-86543101D01*
X150888930Y-86543101D01*
X150888924Y-86543102D01*
X150829317Y-86549509D01*
X150783330Y-86566661D01*
X150713638Y-86571643D01*
X150696668Y-86566660D01*
X150650688Y-86549511D01*
X150650684Y-86549510D01*
X150650683Y-86549510D01*
X150591073Y-86543101D01*
X150591063Y-86543101D01*
X150088929Y-86543101D01*
X150088923Y-86543102D01*
X150029318Y-86549509D01*
X149982615Y-86566928D01*
X149912923Y-86571911D01*
X149895951Y-86566927D01*
X149850578Y-86550004D01*
X149850571Y-86550002D01*
X149791043Y-86543601D01*
X149743199Y-86543601D01*
X149743199Y-86692946D01*
X149723514Y-86759985D01*
X149718466Y-86767257D01*
X149693004Y-86801269D01*
X149693003Y-86801270D01*
X149656182Y-86899993D01*
X149614310Y-86955926D01*
X149548846Y-86980343D01*
X149480573Y-86965491D01*
X149431168Y-86916086D01*
X149423818Y-86899992D01*
X149386998Y-86801272D01*
X149386996Y-86801269D01*
X149361532Y-86767253D01*
X149337115Y-86701788D01*
X149336799Y-86692942D01*
X149336799Y-86543601D01*
X149288954Y-86543601D01*
X149229426Y-86550002D01*
X149229420Y-86550004D01*
X149184045Y-86566927D01*
X149114353Y-86571910D01*
X149097382Y-86566926D01*
X149050689Y-86549511D01*
X149050685Y-86549510D01*
X149050684Y-86549510D01*
X148991074Y-86543101D01*
X148991064Y-86543101D01*
X148488930Y-86543101D01*
X148488924Y-86543102D01*
X148429317Y-86549509D01*
X148383330Y-86566661D01*
X148313638Y-86571643D01*
X148296668Y-86566660D01*
X148250688Y-86549511D01*
X148250684Y-86549510D01*
X148250683Y-86549510D01*
X148191073Y-86543101D01*
X148191063Y-86543101D01*
X147688929Y-86543101D01*
X147688923Y-86543102D01*
X147629318Y-86549509D01*
X147583331Y-86566661D01*
X147513639Y-86571644D01*
X147496668Y-86566660D01*
X147450689Y-86549511D01*
X147450685Y-86549510D01*
X147450684Y-86549510D01*
X147391074Y-86543101D01*
X147391064Y-86543101D01*
X146888930Y-86543101D01*
X146888924Y-86543102D01*
X146829317Y-86549509D01*
X146783330Y-86566661D01*
X146713638Y-86571643D01*
X146696668Y-86566660D01*
X146650688Y-86549511D01*
X146650684Y-86549510D01*
X146650683Y-86549510D01*
X146591073Y-86543101D01*
X146591063Y-86543101D01*
X146088929Y-86543101D01*
X146088923Y-86543102D01*
X146029317Y-86549509D01*
X145982746Y-86566879D01*
X145913055Y-86571862D01*
X145896082Y-86566878D01*
X145852977Y-86550801D01*
X145793444Y-86544399D01*
X145640000Y-86544399D01*
X145640000Y-86954672D01*
X145639288Y-86967927D01*
X145636301Y-86995724D01*
X145636300Y-86995737D01*
X145636300Y-87904271D01*
X145636301Y-87904273D01*
X145642490Y-87961853D01*
X145643200Y-87975095D01*
X145643200Y-88346798D01*
X145999232Y-88346798D01*
X146027744Y-88350120D01*
X146029309Y-88350489D01*
X146029317Y-88350492D01*
X146088927Y-88356901D01*
X146591072Y-88356900D01*
X146650683Y-88350492D01*
X146696666Y-88333340D01*
X146766355Y-88328355D01*
X146783323Y-88333337D01*
X146829318Y-88350492D01*
X146888928Y-88356901D01*
X147391073Y-88356900D01*
X147450684Y-88350492D01*
X147470882Y-88342958D01*
X147496666Y-88333342D01*
X147566357Y-88328357D01*
X147583327Y-88333339D01*
X147619413Y-88346798D01*
X147629311Y-88350490D01*
X147629317Y-88350492D01*
X147688927Y-88356901D01*
X148191072Y-88356900D01*
X148250683Y-88350492D01*
X148296666Y-88333340D01*
X148366355Y-88328355D01*
X148383323Y-88333337D01*
X148429318Y-88350492D01*
X148488928Y-88356901D01*
X148991073Y-88356900D01*
X149050684Y-88350492D01*
X149050687Y-88350491D01*
X149050690Y-88350490D01*
X149097380Y-88333076D01*
X149167071Y-88328091D01*
X149184048Y-88333075D01*
X149229422Y-88349999D01*
X149288954Y-88356400D01*
X149288971Y-88356401D01*
X149336799Y-88356401D01*
X149336799Y-88207058D01*
X149356484Y-88140019D01*
X149361523Y-88132760D01*
X149386997Y-88098732D01*
X149386997Y-88098729D01*
X149386999Y-88098728D01*
X149423818Y-88000010D01*
X149465689Y-87944076D01*
X149531153Y-87919658D01*
X149599426Y-87934509D01*
X149648832Y-87983914D01*
X149656182Y-88000009D01*
X149693002Y-88098729D01*
X149693003Y-88098731D01*
X149693004Y-88098732D01*
X149718464Y-88132743D01*
X149742883Y-88198205D01*
X149743199Y-88207054D01*
X149743199Y-88356401D01*
X149791027Y-88356401D01*
X149791043Y-88356400D01*
X149850575Y-88349999D01*
X149895948Y-88333075D01*
X149965640Y-88328089D01*
X149982612Y-88333072D01*
X150018955Y-88346627D01*
X150029311Y-88350490D01*
X150029317Y-88350492D01*
X150088927Y-88356901D01*
X150591072Y-88356900D01*
X150650683Y-88350492D01*
X150696666Y-88333340D01*
X150766355Y-88328355D01*
X150783323Y-88333337D01*
X150829318Y-88350492D01*
X150888928Y-88356901D01*
X151391073Y-88356900D01*
X151450684Y-88350492D01*
X151496665Y-88333341D01*
X151566356Y-88328356D01*
X151583333Y-88333342D01*
X151629307Y-88350489D01*
X151629310Y-88350490D01*
X151629316Y-88350492D01*
X151688926Y-88356901D01*
X152191071Y-88356900D01*
X152250682Y-88350492D01*
X152296665Y-88333340D01*
X152366354Y-88328355D01*
X152383322Y-88333337D01*
X152429317Y-88350492D01*
X152488927Y-88356901D01*
X152991072Y-88356900D01*
X153050683Y-88350492D01*
X153070881Y-88342958D01*
X153096665Y-88333342D01*
X153166356Y-88328357D01*
X153183326Y-88333339D01*
X153219412Y-88346798D01*
X153229310Y-88350490D01*
X153229316Y-88350492D01*
X153288926Y-88356901D01*
X153791071Y-88356900D01*
X153850682Y-88350492D01*
X153896665Y-88333340D01*
X153966354Y-88328355D01*
X153983322Y-88333337D01*
X154029317Y-88350492D01*
X154088927Y-88356901D01*
X154209100Y-88356900D01*
X154276139Y-88376584D01*
X154321894Y-88429388D01*
X154333100Y-88480900D01*
X154333100Y-88801070D01*
X154333101Y-88801077D01*
X154339508Y-88860684D01*
X154356659Y-88906667D01*
X154361643Y-88976358D01*
X154356659Y-88993331D01*
X154339510Y-89039310D01*
X154339509Y-89039314D01*
X154339509Y-89039316D01*
X154333100Y-89098926D01*
X154333100Y-89098933D01*
X154333100Y-89098934D01*
X154333100Y-89601069D01*
X154333101Y-89601075D01*
X154339509Y-89660684D01*
X154356659Y-89706667D01*
X154361643Y-89776359D01*
X154356660Y-89793330D01*
X154339510Y-89839313D01*
X154339509Y-89839317D01*
X154333100Y-89898927D01*
X154333100Y-89898934D01*
X154333100Y-89898935D01*
X154333100Y-90401070D01*
X154333101Y-90401076D01*
X154339509Y-90460685D01*
X154356925Y-90507381D01*
X154361909Y-90577073D01*
X154356926Y-90594044D01*
X154340003Y-90639419D01*
X154340001Y-90639426D01*
X154333600Y-90698954D01*
X154333600Y-90746799D01*
X154482944Y-90746799D01*
X154549983Y-90766484D01*
X154557245Y-90771526D01*
X154571926Y-90782516D01*
X154591267Y-90796995D01*
X154591271Y-90796997D01*
X154610407Y-90804134D01*
X154726117Y-90847291D01*
X154785727Y-90853700D01*
X155319201Y-90853699D01*
X155386239Y-90873383D01*
X155431994Y-90926187D01*
X155443200Y-90977699D01*
X155443200Y-93322300D01*
X155423515Y-93389339D01*
X155370711Y-93435094D01*
X155319200Y-93446300D01*
X154785729Y-93446300D01*
X154785723Y-93446301D01*
X154726116Y-93452708D01*
X154591271Y-93503002D01*
X154591268Y-93503004D01*
X154557256Y-93528466D01*
X154491791Y-93552883D01*
X154482945Y-93553199D01*
X154333600Y-93553199D01*
X154333600Y-93601043D01*
X154340001Y-93660571D01*
X154340003Y-93660578D01*
X154356926Y-93705951D01*
X154361910Y-93775642D01*
X154356927Y-93792615D01*
X154339508Y-93839318D01*
X154333101Y-93898917D01*
X154333100Y-93898936D01*
X154333100Y-94401070D01*
X154333101Y-94401076D01*
X154339509Y-94460685D01*
X154356925Y-94507381D01*
X154361909Y-94577073D01*
X154356926Y-94594044D01*
X154340003Y-94639419D01*
X154340001Y-94639425D01*
X154333600Y-94698953D01*
X154333600Y-94746798D01*
X154482941Y-94746798D01*
X154549980Y-94766483D01*
X154557252Y-94771531D01*
X154591268Y-94796995D01*
X154591271Y-94796997D01*
X154689991Y-94833817D01*
X154745925Y-94875688D01*
X154770342Y-94941152D01*
X154755491Y-95009425D01*
X154706086Y-95058831D01*
X154689992Y-95066181D01*
X154591269Y-95103002D01*
X154591268Y-95103003D01*
X154557256Y-95128465D01*
X154491791Y-95152882D01*
X154482945Y-95153198D01*
X154333600Y-95153198D01*
X154333600Y-95201042D01*
X154340001Y-95260570D01*
X154340003Y-95260577D01*
X154356926Y-95305950D01*
X154361910Y-95375641D01*
X154356927Y-95392614D01*
X154339508Y-95439317D01*
X154335597Y-95475701D01*
X154333101Y-95498922D01*
X154333100Y-95498935D01*
X154333100Y-96001069D01*
X154333101Y-96001075D01*
X154339509Y-96060684D01*
X154356925Y-96107380D01*
X154361909Y-96177072D01*
X154356926Y-96194043D01*
X154340003Y-96239418D01*
X154340001Y-96239425D01*
X154333600Y-96298953D01*
X154333600Y-96346798D01*
X154482944Y-96346798D01*
X154549983Y-96366483D01*
X154557245Y-96371525D01*
X154569455Y-96380665D01*
X154591267Y-96396994D01*
X154591271Y-96396996D01*
X154726117Y-96447290D01*
X154726116Y-96447290D01*
X154731530Y-96447872D01*
X154785727Y-96453699D01*
X155694272Y-96453698D01*
X155753883Y-96447290D01*
X155888731Y-96396995D01*
X155922744Y-96371532D01*
X155988207Y-96347114D01*
X155997056Y-96346798D01*
X156146400Y-96346798D01*
X156146400Y-96298970D01*
X156146399Y-96298953D01*
X156139997Y-96239420D01*
X156139997Y-96239418D01*
X156123074Y-96194047D01*
X156118088Y-96124356D01*
X156123072Y-96107384D01*
X156140491Y-96060682D01*
X156146900Y-96001072D01*
X156146899Y-95498927D01*
X156140491Y-95439316D01*
X156123072Y-95392615D01*
X156118089Y-95322925D01*
X156123074Y-95305947D01*
X156139998Y-95260574D01*
X156146399Y-95201042D01*
X156146400Y-95201025D01*
X156146400Y-95153198D01*
X155997055Y-95153198D01*
X155930016Y-95133513D01*
X155922744Y-95128465D01*
X155888731Y-95103003D01*
X155888728Y-95103001D01*
X155790008Y-95066181D01*
X155734074Y-95024310D01*
X155709657Y-94958845D01*
X155724509Y-94890572D01*
X155773914Y-94841167D01*
X155790009Y-94833817D01*
X155888726Y-94796998D01*
X155888726Y-94796997D01*
X155888731Y-94796996D01*
X155922748Y-94771531D01*
X155988213Y-94747114D01*
X155997059Y-94746798D01*
X156146400Y-94746798D01*
X156146400Y-94698970D01*
X156146399Y-94698953D01*
X156139997Y-94639420D01*
X156139997Y-94639418D01*
X156123074Y-94594047D01*
X156118088Y-94524356D01*
X156123069Y-94507393D01*
X156138496Y-94466031D01*
X156180367Y-94410100D01*
X156245831Y-94385684D01*
X156314104Y-94400536D01*
X156363509Y-94449942D01*
X156377699Y-94493830D01*
X156379336Y-94506792D01*
X156395414Y-94547403D01*
X156399197Y-94558452D01*
X156411381Y-94600388D01*
X156421580Y-94617634D01*
X156430138Y-94635103D01*
X156437514Y-94653732D01*
X156463181Y-94689060D01*
X156469593Y-94698821D01*
X156491828Y-94736417D01*
X156491833Y-94736424D01*
X156505990Y-94750580D01*
X156518628Y-94765376D01*
X156530405Y-94781586D01*
X156530406Y-94781587D01*
X156564057Y-94809425D01*
X156572698Y-94817288D01*
X157399197Y-95643788D01*
X157409022Y-95656051D01*
X157409243Y-95655869D01*
X157414211Y-95661874D01*
X157463222Y-95707899D01*
X157466021Y-95710612D01*
X157485522Y-95730114D01*
X157485526Y-95730117D01*
X157485529Y-95730120D01*
X157488702Y-95732581D01*
X157497574Y-95740159D01*
X157529418Y-95770062D01*
X157546976Y-95779714D01*
X157563235Y-95790395D01*
X157579064Y-95802673D01*
X157619155Y-95820021D01*
X157629626Y-95825151D01*
X157646875Y-95834634D01*
X157667902Y-95846194D01*
X157667904Y-95846195D01*
X157667908Y-95846197D01*
X157687316Y-95851180D01*
X157705719Y-95857481D01*
X157724101Y-95865436D01*
X157724102Y-95865436D01*
X157724104Y-95865437D01*
X157767250Y-95872270D01*
X157778672Y-95874636D01*
X157820981Y-95885500D01*
X157841016Y-95885500D01*
X157860414Y-95887026D01*
X157880194Y-95890159D01*
X157880195Y-95890160D01*
X157880195Y-95890159D01*
X157880196Y-95890160D01*
X157923675Y-95886050D01*
X157935344Y-95885500D01*
X166359191Y-95885500D01*
X166426230Y-95905185D01*
X166446872Y-95921819D01*
X166453129Y-95928076D01*
X166453133Y-95928079D01*
X166453135Y-95928081D01*
X166453138Y-95928082D01*
X166453141Y-95928085D01*
X166587042Y-96007273D01*
X166634726Y-96058341D01*
X166647230Y-96127083D01*
X166632586Y-96173739D01*
X166613803Y-96207906D01*
X166610931Y-96215161D01*
X166610665Y-96215056D01*
X166609175Y-96219001D01*
X166609443Y-96219098D01*
X166606801Y-96226434D01*
X166592138Y-96292031D01*
X166591230Y-96295814D01*
X166574500Y-96360976D01*
X166573523Y-96368718D01*
X166573238Y-96368682D01*
X166572775Y-96372872D01*
X166573061Y-96372899D01*
X166572326Y-96380665D01*
X166574439Y-96447872D01*
X166574500Y-96451767D01*
X166574500Y-98424547D01*
X166554815Y-98491586D01*
X166538181Y-98512228D01*
X163163474Y-101886934D01*
X163102151Y-101920419D01*
X163032459Y-101915435D01*
X162976526Y-101873563D01*
X162957407Y-101836142D01*
X162938478Y-101775394D01*
X162850472Y-101629815D01*
X162850470Y-101629813D01*
X162850469Y-101629811D01*
X162730188Y-101509530D01*
X162698983Y-101490666D01*
X162584606Y-101421522D01*
X162422196Y-101370914D01*
X162422194Y-101370913D01*
X162422192Y-101370913D01*
X162372778Y-101366423D01*
X162351616Y-101364500D01*
X161688384Y-101364500D01*
X161669145Y-101366248D01*
X161617807Y-101370913D01*
X161455393Y-101421522D01*
X161309811Y-101509530D01*
X161309810Y-101509531D01*
X161216161Y-101603181D01*
X161154838Y-101636666D01*
X161128480Y-101639500D01*
X160168674Y-101639500D01*
X160101635Y-101619815D01*
X160055880Y-101567011D01*
X160050968Y-101554505D01*
X160029814Y-101490666D01*
X159937712Y-101341344D01*
X159813656Y-101217288D01*
X159700467Y-101147473D01*
X159664336Y-101125187D01*
X159664331Y-101125185D01*
X159582838Y-101098181D01*
X159580495Y-101097404D01*
X159523051Y-101057632D01*
X159496228Y-100993116D01*
X159495500Y-100979699D01*
X159495500Y-100023861D01*
X159515185Y-99956822D01*
X159555418Y-99919362D01*
X159555231Y-99919112D01*
X159557565Y-99917364D01*
X159560076Y-99915027D01*
X159562323Y-99913798D01*
X159562331Y-99913796D01*
X159677546Y-99827546D01*
X159763796Y-99712331D01*
X159814091Y-99577483D01*
X159820500Y-99517873D01*
X159820499Y-98870000D01*
X161320000Y-98870000D01*
X161320000Y-99517844D01*
X161326401Y-99577372D01*
X161326403Y-99577379D01*
X161376645Y-99712086D01*
X161376649Y-99712093D01*
X161462809Y-99827187D01*
X161462812Y-99827190D01*
X161577906Y-99913350D01*
X161577913Y-99913354D01*
X161712620Y-99963596D01*
X161712627Y-99963598D01*
X161772155Y-99969999D01*
X161772172Y-99970000D01*
X162020000Y-99970000D01*
X162020000Y-98870000D01*
X162520000Y-98870000D01*
X162520000Y-99970000D01*
X162767828Y-99970000D01*
X162767844Y-99969999D01*
X162827372Y-99963598D01*
X162827379Y-99963596D01*
X162962086Y-99913354D01*
X162962093Y-99913350D01*
X163077187Y-99827190D01*
X163077190Y-99827187D01*
X163163350Y-99712093D01*
X163163354Y-99712086D01*
X163213596Y-99577379D01*
X163213598Y-99577372D01*
X163219999Y-99517844D01*
X163220000Y-99517827D01*
X163220000Y-98870000D01*
X162520000Y-98870000D01*
X162020000Y-98870000D01*
X161320000Y-98870000D01*
X159820499Y-98870000D01*
X159820499Y-98370000D01*
X161320000Y-98370000D01*
X162020000Y-98370000D01*
X162020000Y-97270000D01*
X162520000Y-97270000D01*
X162520000Y-98370000D01*
X163220000Y-98370000D01*
X163220000Y-97722172D01*
X163219999Y-97722155D01*
X163213598Y-97662627D01*
X163213596Y-97662620D01*
X163163354Y-97527913D01*
X163163350Y-97527906D01*
X163077190Y-97412812D01*
X163077187Y-97412809D01*
X162962093Y-97326649D01*
X162962086Y-97326645D01*
X162827379Y-97276403D01*
X162827372Y-97276401D01*
X162767844Y-97270000D01*
X162520000Y-97270000D01*
X162020000Y-97270000D01*
X161772155Y-97270000D01*
X161712627Y-97276401D01*
X161712620Y-97276403D01*
X161577913Y-97326645D01*
X161577906Y-97326649D01*
X161462812Y-97412809D01*
X161462809Y-97412812D01*
X161376649Y-97527906D01*
X161376645Y-97527913D01*
X161326403Y-97662620D01*
X161326401Y-97662627D01*
X161320000Y-97722155D01*
X161320000Y-98370000D01*
X159820499Y-98370000D01*
X159820499Y-97722128D01*
X159814091Y-97662517D01*
X159813369Y-97660582D01*
X159763797Y-97527671D01*
X159763793Y-97527664D01*
X159677547Y-97412455D01*
X159677544Y-97412452D01*
X159562335Y-97326206D01*
X159562328Y-97326202D01*
X159427482Y-97275908D01*
X159427483Y-97275908D01*
X159367883Y-97269501D01*
X159367881Y-97269500D01*
X159367873Y-97269500D01*
X159367864Y-97269500D01*
X158372129Y-97269500D01*
X158372123Y-97269501D01*
X158312516Y-97275908D01*
X158177671Y-97326202D01*
X158177664Y-97326206D01*
X158062455Y-97412452D01*
X158062452Y-97412455D01*
X157976206Y-97527664D01*
X157976202Y-97527671D01*
X157925908Y-97662517D01*
X157921162Y-97706667D01*
X157919501Y-97722123D01*
X157919500Y-97722135D01*
X157919500Y-98634546D01*
X157899815Y-98701585D01*
X157883181Y-98722227D01*
X157124811Y-99480596D01*
X157112554Y-99490417D01*
X157112737Y-99490638D01*
X157106725Y-99495611D01*
X157060701Y-99544620D01*
X157057994Y-99547413D01*
X157038492Y-99566914D01*
X157038478Y-99566931D01*
X157036010Y-99570112D01*
X157028446Y-99578967D01*
X156998540Y-99610815D01*
X156998539Y-99610817D01*
X156988887Y-99628373D01*
X156978213Y-99644623D01*
X156965932Y-99660458D01*
X156965927Y-99660465D01*
X156948578Y-99700555D01*
X156943441Y-99711041D01*
X156922406Y-99749303D01*
X156917425Y-99768704D01*
X156911124Y-99787107D01*
X156903165Y-99805499D01*
X156903164Y-99805502D01*
X156896331Y-99848640D01*
X156893963Y-99860071D01*
X156883104Y-99902368D01*
X156883103Y-99902379D01*
X156883103Y-99922413D01*
X156881576Y-99941812D01*
X156878443Y-99961591D01*
X156878443Y-99961592D01*
X156882553Y-100005071D01*
X156883103Y-100016740D01*
X156883103Y-100500944D01*
X156863418Y-100567983D01*
X156846784Y-100588625D01*
X156337228Y-101098181D01*
X156275905Y-101131666D01*
X156249547Y-101134500D01*
X154104055Y-101134500D01*
X154037016Y-101114815D01*
X154016374Y-101098181D01*
X153286770Y-100368577D01*
X153253285Y-100307254D01*
X153258269Y-100237562D01*
X153300141Y-100181629D01*
X153365605Y-100157212D01*
X153374427Y-100156896D01*
X153791071Y-100156896D01*
X153850682Y-100150488D01*
X153897379Y-100133070D01*
X153967070Y-100128085D01*
X153984047Y-100133071D01*
X154029417Y-100149993D01*
X154029422Y-100149994D01*
X154088955Y-100156396D01*
X154088972Y-100156397D01*
X154136800Y-100156397D01*
X154136800Y-100007050D01*
X154156485Y-99940011D01*
X154161524Y-99932752D01*
X154186995Y-99898728D01*
X154187382Y-99897692D01*
X154203523Y-99854415D01*
X154237290Y-99763880D01*
X154243699Y-99704270D01*
X154243699Y-99549999D01*
X154543200Y-99549999D01*
X154543200Y-100156397D01*
X154591028Y-100156397D01*
X154591044Y-100156396D01*
X154650571Y-100149995D01*
X154696535Y-100132852D01*
X154766226Y-100127868D01*
X154783204Y-100132853D01*
X154827021Y-100149196D01*
X154886555Y-100155598D01*
X154886572Y-100155599D01*
X155040000Y-100155599D01*
X155040000Y-99549999D01*
X155540000Y-99549999D01*
X155540000Y-100155599D01*
X155693428Y-100155599D01*
X155693444Y-100155598D01*
X155752972Y-100149197D01*
X155752979Y-100149195D01*
X155887686Y-100098953D01*
X155887693Y-100098949D01*
X156002787Y-100012789D01*
X156002790Y-100012786D01*
X156088950Y-99897692D01*
X156088954Y-99897685D01*
X156139196Y-99762978D01*
X156139198Y-99762971D01*
X156145599Y-99703443D01*
X156145600Y-99703426D01*
X156145600Y-99549999D01*
X155540000Y-99549999D01*
X155040000Y-99549999D01*
X154543200Y-99549999D01*
X154243699Y-99549999D01*
X154243698Y-99170795D01*
X154263382Y-99103758D01*
X154316186Y-99058003D01*
X154367698Y-99046797D01*
X155040000Y-99046797D01*
X155040000Y-98868666D01*
X155039634Y-98867996D01*
X155036800Y-98841638D01*
X155036800Y-98353200D01*
X155443200Y-98353200D01*
X155443200Y-98401399D01*
X155454507Y-98412706D01*
X155483039Y-98421084D01*
X155528794Y-98473888D01*
X155540000Y-98525399D01*
X155540000Y-99049999D01*
X156145600Y-99049999D01*
X156145600Y-98896571D01*
X156145599Y-98896554D01*
X156139198Y-98837026D01*
X156139197Y-98837022D01*
X156085853Y-98694001D01*
X156089071Y-98692800D01*
X156077729Y-98640706D01*
X156088432Y-98604262D01*
X156086653Y-98603599D01*
X156139997Y-98460576D01*
X156139998Y-98460572D01*
X156146399Y-98401044D01*
X156146400Y-98401027D01*
X156146400Y-98353200D01*
X155443200Y-98353200D01*
X155036800Y-98353200D01*
X154351565Y-98353200D01*
X154318861Y-98343597D01*
X154088955Y-98343597D01*
X154029427Y-98349998D01*
X154029416Y-98350001D01*
X153984045Y-98366923D01*
X153914353Y-98371907D01*
X153897380Y-98366923D01*
X153850685Y-98349507D01*
X153850684Y-98349506D01*
X153850682Y-98349506D01*
X153791072Y-98343097D01*
X153791062Y-98343097D01*
X153288928Y-98343097D01*
X153288922Y-98343098D01*
X153229317Y-98349505D01*
X153183330Y-98366657D01*
X153113638Y-98371640D01*
X153096667Y-98366656D01*
X153050688Y-98349507D01*
X153050684Y-98349506D01*
X153050683Y-98349506D01*
X152991073Y-98343097D01*
X152991063Y-98343097D01*
X152488929Y-98343097D01*
X152488923Y-98343098D01*
X152429316Y-98349505D01*
X152383329Y-98366657D01*
X152313637Y-98371639D01*
X152296667Y-98366656D01*
X152250687Y-98349507D01*
X152250683Y-98349506D01*
X152250682Y-98349506D01*
X152191072Y-98343097D01*
X152191062Y-98343097D01*
X151688928Y-98343097D01*
X151688922Y-98343098D01*
X151629315Y-98349505D01*
X151583332Y-98366656D01*
X151513640Y-98371640D01*
X151496668Y-98366656D01*
X151450689Y-98349507D01*
X151450685Y-98349506D01*
X151450684Y-98349506D01*
X151391074Y-98343097D01*
X151391064Y-98343097D01*
X150888930Y-98343097D01*
X150888924Y-98343098D01*
X150829317Y-98349505D01*
X150783330Y-98366657D01*
X150713638Y-98371639D01*
X150696668Y-98366656D01*
X150650688Y-98349507D01*
X150650684Y-98349506D01*
X150650683Y-98349506D01*
X150591073Y-98343097D01*
X150591063Y-98343097D01*
X150088929Y-98343097D01*
X150088923Y-98343098D01*
X150029316Y-98349505D01*
X149983329Y-98366657D01*
X149913637Y-98371639D01*
X149896667Y-98366656D01*
X149850687Y-98349507D01*
X149850683Y-98349506D01*
X149850682Y-98349506D01*
X149791072Y-98343097D01*
X149791062Y-98343097D01*
X149288928Y-98343097D01*
X149288922Y-98343098D01*
X149229315Y-98349505D01*
X149183332Y-98366656D01*
X149113640Y-98371640D01*
X149096668Y-98366656D01*
X149050689Y-98349507D01*
X149050685Y-98349506D01*
X149050684Y-98349506D01*
X148991074Y-98343097D01*
X148991064Y-98343097D01*
X148488930Y-98343097D01*
X148488924Y-98343098D01*
X148429317Y-98349505D01*
X148383330Y-98366657D01*
X148313638Y-98371639D01*
X148296668Y-98366656D01*
X148250688Y-98349507D01*
X148250684Y-98349506D01*
X148250683Y-98349506D01*
X148191073Y-98343097D01*
X148191063Y-98343097D01*
X147688929Y-98343097D01*
X147688923Y-98343098D01*
X147629316Y-98349505D01*
X147582617Y-98366923D01*
X147512925Y-98371907D01*
X147495951Y-98366923D01*
X147450577Y-98349999D01*
X147450573Y-98349998D01*
X147391045Y-98343597D01*
X147343201Y-98343597D01*
X147343201Y-98492939D01*
X147323516Y-98559978D01*
X147318468Y-98567249D01*
X147293006Y-98601261D01*
X147293002Y-98601268D01*
X147242708Y-98736114D01*
X147236301Y-98795713D01*
X147236300Y-98795732D01*
X147236300Y-99704267D01*
X147236301Y-99704273D01*
X147242708Y-99763878D01*
X147251372Y-99787107D01*
X147293004Y-99898728D01*
X147293005Y-99898729D01*
X147293006Y-99898732D01*
X147297256Y-99906515D01*
X147294785Y-99907863D01*
X147314183Y-99959856D01*
X147314500Y-99968714D01*
X147314500Y-101177255D01*
X147312775Y-101192872D01*
X147313061Y-101192899D01*
X147312326Y-101200665D01*
X147314439Y-101267872D01*
X147314500Y-101271767D01*
X147314500Y-101299357D01*
X147315003Y-101303335D01*
X147315918Y-101314967D01*
X147317290Y-101358624D01*
X147317291Y-101358627D01*
X147322880Y-101377867D01*
X147326824Y-101396911D01*
X147327475Y-101402059D01*
X147329336Y-101416792D01*
X147345414Y-101457403D01*
X147349197Y-101468452D01*
X147361381Y-101510388D01*
X147371580Y-101527634D01*
X147380138Y-101545103D01*
X147387514Y-101563732D01*
X147413181Y-101599060D01*
X147419593Y-101608821D01*
X147441828Y-101646417D01*
X147441833Y-101646424D01*
X147455990Y-101660580D01*
X147468628Y-101675376D01*
X147480405Y-101691586D01*
X147480406Y-101691587D01*
X147514057Y-101719425D01*
X147522698Y-101727288D01*
X148598181Y-102802771D01*
X148631666Y-102864094D01*
X148634500Y-102890452D01*
X148634500Y-103910090D01*
X148614815Y-103977129D01*
X148584953Y-104009251D01*
X148550000Y-104035494D01*
X148550000Y-104341645D01*
X148532734Y-104404763D01*
X148527507Y-104413600D01*
X148527504Y-104413608D01*
X148482357Y-104569002D01*
X148482356Y-104569008D01*
X148479500Y-104605302D01*
X148479500Y-105074697D01*
X148482356Y-105110991D01*
X148482357Y-105110997D01*
X148527503Y-105266389D01*
X148527505Y-105266393D01*
X148527506Y-105266395D01*
X148532732Y-105275233D01*
X148550000Y-105338352D01*
X148550000Y-105644503D01*
X148685906Y-105605021D01*
X148755775Y-105605221D01*
X148814445Y-105643164D01*
X148843288Y-105706802D01*
X148844500Y-105724098D01*
X148844500Y-107415500D01*
X148824815Y-107482539D01*
X148772011Y-107528294D01*
X148720500Y-107539500D01*
X148422130Y-107539500D01*
X148422123Y-107539501D01*
X148362516Y-107545908D01*
X148227671Y-107596202D01*
X148227665Y-107596206D01*
X148189654Y-107624660D01*
X148124189Y-107649076D01*
X148055916Y-107634223D01*
X148027664Y-107613073D01*
X147860803Y-107446212D01*
X147850980Y-107433950D01*
X147850759Y-107434134D01*
X147845786Y-107428122D01*
X147796776Y-107382099D01*
X147793977Y-107379386D01*
X147774477Y-107359885D01*
X147774471Y-107359880D01*
X147771286Y-107357409D01*
X147762434Y-107349848D01*
X147730582Y-107319938D01*
X147730580Y-107319936D01*
X147730577Y-107319935D01*
X147713029Y-107310288D01*
X147696763Y-107299604D01*
X147680932Y-107287324D01*
X147640849Y-107269978D01*
X147630363Y-107264841D01*
X147592094Y-107243803D01*
X147592092Y-107243802D01*
X147572693Y-107238822D01*
X147554281Y-107232518D01*
X147535898Y-107224562D01*
X147535892Y-107224560D01*
X147492760Y-107217729D01*
X147481322Y-107215361D01*
X147439020Y-107204500D01*
X147439019Y-107204500D01*
X147418984Y-107204500D01*
X147399586Y-107202973D01*
X147392162Y-107201797D01*
X147379805Y-107199840D01*
X147372007Y-107199595D01*
X147372054Y-107198071D01*
X147312134Y-107186461D01*
X147262948Y-107140453D01*
X147250472Y-107119815D01*
X147250470Y-107119813D01*
X147250469Y-107119811D01*
X147130188Y-106999530D01*
X146984606Y-106911522D01*
X146822196Y-106860914D01*
X146822194Y-106860913D01*
X146822192Y-106860913D01*
X146772778Y-106856423D01*
X146751616Y-106854500D01*
X146238384Y-106854500D01*
X146219145Y-106856248D01*
X146167807Y-106860913D01*
X146005393Y-106911522D01*
X145859811Y-106999530D01*
X145859810Y-106999531D01*
X145757681Y-107101661D01*
X145696358Y-107135146D01*
X145626666Y-107130162D01*
X145582319Y-107101661D01*
X145480188Y-106999530D01*
X145334606Y-106911522D01*
X145172196Y-106860914D01*
X145172194Y-106860913D01*
X145172192Y-106860913D01*
X145122778Y-106856423D01*
X145101616Y-106854500D01*
X144588384Y-106854500D01*
X144569145Y-106856248D01*
X144517807Y-106860913D01*
X144355393Y-106911522D01*
X144209811Y-106999530D01*
X144089530Y-107119811D01*
X144001522Y-107265393D01*
X143950913Y-107427807D01*
X143944500Y-107498386D01*
X143944500Y-108161613D01*
X143950913Y-108232192D01*
X143950913Y-108232194D01*
X143950914Y-108232196D01*
X144001522Y-108394606D01*
X144089528Y-108540185D01*
X144183182Y-108633839D01*
X144216666Y-108695160D01*
X144219500Y-108721519D01*
X144219500Y-108762255D01*
X144217775Y-108777872D01*
X144218061Y-108777899D01*
X144217326Y-108785665D01*
X144219439Y-108852872D01*
X144219500Y-108856767D01*
X144219500Y-108884357D01*
X144220003Y-108888335D01*
X144220918Y-108899967D01*
X144222290Y-108943624D01*
X144222291Y-108943627D01*
X144227880Y-108962867D01*
X144231824Y-108981911D01*
X144233910Y-108998419D01*
X144234336Y-109001792D01*
X144250414Y-109042403D01*
X144254197Y-109053452D01*
X144266381Y-109095388D01*
X144276580Y-109112634D01*
X144285136Y-109130100D01*
X144291794Y-109146913D01*
X144292514Y-109148732D01*
X144318181Y-109184060D01*
X144324593Y-109193821D01*
X144346828Y-109231417D01*
X144346833Y-109231424D01*
X144360990Y-109245580D01*
X144373627Y-109260375D01*
X144385406Y-109276587D01*
X144410214Y-109297110D01*
X144419057Y-109304425D01*
X144427698Y-109312288D01*
X144680443Y-109565033D01*
X144713928Y-109626356D01*
X144708944Y-109696048D01*
X144667072Y-109751981D01*
X144605365Y-109776072D01*
X144517415Y-109785057D01*
X144357927Y-109837906D01*
X144357922Y-109837908D01*
X144214919Y-109926114D01*
X144096114Y-110044919D01*
X144007908Y-110187922D01*
X144007906Y-110187927D01*
X143955057Y-110347416D01*
X143945000Y-110445849D01*
X143945000Y-110500000D01*
X145008500Y-110500000D01*
X145075539Y-110519685D01*
X145121294Y-110572489D01*
X145132500Y-110624000D01*
X145132500Y-111724999D01*
X145149136Y-111724999D01*
X145149152Y-111724998D01*
X145247583Y-111714943D01*
X145407072Y-111662093D01*
X145407077Y-111662091D01*
X145550080Y-111573885D01*
X145581966Y-111542000D01*
X145643289Y-111508515D01*
X145712981Y-111513499D01*
X145757328Y-111542000D01*
X145789608Y-111574280D01*
X145789612Y-111574283D01*
X145932704Y-111662544D01*
X145932707Y-111662545D01*
X145932713Y-111662549D01*
X146092315Y-111715436D01*
X146190826Y-111725500D01*
X146190831Y-111725500D01*
X146724169Y-111725500D01*
X146724174Y-111725500D01*
X146822685Y-111715436D01*
X146982287Y-111662549D01*
X147125391Y-111574281D01*
X147244281Y-111455391D01*
X147332549Y-111312287D01*
X147385436Y-111152685D01*
X147395500Y-111054174D01*
X147395500Y-110445826D01*
X147385436Y-110347315D01*
X147332549Y-110187713D01*
X147332545Y-110187707D01*
X147332544Y-110187704D01*
X147244283Y-110044612D01*
X147244282Y-110044611D01*
X147244281Y-110044609D01*
X147125391Y-109925719D01*
X147125390Y-109925718D01*
X147120284Y-109920612D01*
X147122366Y-109918530D01*
X147089708Y-109872399D01*
X147083000Y-109832167D01*
X147083000Y-109630237D01*
X147084724Y-109614623D01*
X147084438Y-109614596D01*
X147085172Y-109606833D01*
X147083061Y-109539643D01*
X147083000Y-109535749D01*
X147083000Y-109508151D01*
X147083000Y-109508150D01*
X147082497Y-109504170D01*
X147081580Y-109492521D01*
X147080791Y-109467416D01*
X147080209Y-109448872D01*
X147074620Y-109429637D01*
X147070674Y-109410584D01*
X147068164Y-109390708D01*
X147052078Y-109350081D01*
X147048303Y-109339054D01*
X147036117Y-109297110D01*
X147025921Y-109279869D01*
X147017360Y-109262393D01*
X147009986Y-109243769D01*
X147009985Y-109243767D01*
X147008709Y-109242011D01*
X146984309Y-109208426D01*
X146977912Y-109198690D01*
X146955670Y-109161079D01*
X146955667Y-109161076D01*
X146955665Y-109161073D01*
X146941505Y-109146913D01*
X146928870Y-109132120D01*
X146917093Y-109115912D01*
X146883445Y-109088076D01*
X146874804Y-109080213D01*
X146793010Y-108998419D01*
X146759525Y-108937096D01*
X146764509Y-108867404D01*
X146806381Y-108811471D01*
X146843794Y-108792355D01*
X146984606Y-108748478D01*
X147130185Y-108660472D01*
X147130338Y-108660318D01*
X147130478Y-108660242D01*
X147136094Y-108655843D01*
X147136824Y-108656775D01*
X147191653Y-108626824D01*
X147261345Y-108631795D01*
X147305714Y-108660304D01*
X147933181Y-109287771D01*
X147966666Y-109349094D01*
X147969500Y-109375452D01*
X147969500Y-111887870D01*
X147969501Y-111887876D01*
X147975908Y-111947483D01*
X148026202Y-112082328D01*
X148026206Y-112082335D01*
X148112452Y-112197544D01*
X148112455Y-112197547D01*
X148227664Y-112283793D01*
X148227671Y-112283797D01*
X148272618Y-112300561D01*
X148362517Y-112334091D01*
X148422127Y-112340500D01*
X148720500Y-112340499D01*
X148787539Y-112360183D01*
X148833294Y-112412987D01*
X148844500Y-112464499D01*
X148844500Y-115637255D01*
X148842775Y-115652872D01*
X148843061Y-115652899D01*
X148842326Y-115660665D01*
X148844439Y-115727872D01*
X148844500Y-115731767D01*
X148844500Y-115759357D01*
X148845003Y-115763335D01*
X148845918Y-115774967D01*
X148847290Y-115818624D01*
X148847291Y-115818627D01*
X148852880Y-115837867D01*
X148856824Y-115856911D01*
X148859336Y-115876792D01*
X148875414Y-115917403D01*
X148879197Y-115928452D01*
X148891381Y-115970388D01*
X148901580Y-115987634D01*
X148910138Y-116005103D01*
X148917514Y-116023732D01*
X148943181Y-116059060D01*
X148949593Y-116068821D01*
X148971828Y-116106417D01*
X148971833Y-116106424D01*
X148985990Y-116120580D01*
X148998628Y-116135376D01*
X149010405Y-116151586D01*
X149010406Y-116151587D01*
X149044057Y-116179425D01*
X149052698Y-116187288D01*
X150628181Y-117762771D01*
X150661666Y-117824094D01*
X150664500Y-117850452D01*
X150664500Y-120707255D01*
X150662775Y-120722872D01*
X150663061Y-120722899D01*
X150662326Y-120730665D01*
X150664439Y-120797872D01*
X150664500Y-120801767D01*
X150664500Y-120829357D01*
X150665003Y-120833335D01*
X150665918Y-120844967D01*
X150667290Y-120888624D01*
X150667291Y-120888627D01*
X150672880Y-120907867D01*
X150676824Y-120926911D01*
X150679336Y-120946792D01*
X150695414Y-120987403D01*
X150699197Y-120998452D01*
X150711381Y-121040388D01*
X150721580Y-121057634D01*
X150730138Y-121075103D01*
X150737514Y-121093732D01*
X150763181Y-121129060D01*
X150769593Y-121138821D01*
X150791828Y-121176417D01*
X150791833Y-121176424D01*
X150805990Y-121190580D01*
X150818628Y-121205376D01*
X150830405Y-121221586D01*
X150830406Y-121221587D01*
X150864057Y-121249425D01*
X150872698Y-121257288D01*
X151949194Y-122333784D01*
X151959019Y-122346048D01*
X151959240Y-122345866D01*
X151964210Y-122351874D01*
X152013239Y-122397915D01*
X152016036Y-122400626D01*
X152035530Y-122420120D01*
X152038695Y-122422575D01*
X152047571Y-122430156D01*
X152079418Y-122460062D01*
X152079422Y-122460064D01*
X152096973Y-122469713D01*
X152113231Y-122480392D01*
X152129064Y-122492674D01*
X152164410Y-122507968D01*
X152169155Y-122510022D01*
X152179635Y-122515155D01*
X152217908Y-122536197D01*
X152237312Y-122541179D01*
X152255710Y-122547478D01*
X152274105Y-122555438D01*
X152317254Y-122562271D01*
X152328680Y-122564638D01*
X152370981Y-122575500D01*
X152391016Y-122575500D01*
X152410413Y-122577026D01*
X152430196Y-122580160D01*
X152473675Y-122576050D01*
X152485344Y-122575500D01*
X155901391Y-122575500D01*
X155968430Y-122595185D01*
X156014185Y-122647989D01*
X156024129Y-122717147D01*
X155995104Y-122780703D01*
X155974277Y-122799818D01*
X155918414Y-122840404D01*
X155817674Y-122962178D01*
X155750387Y-123105171D01*
X155750385Y-123105174D01*
X155735757Y-123181862D01*
X155720773Y-123260412D01*
X155720773Y-123260414D01*
X155720773Y-123260415D01*
X155722949Y-123294996D01*
X155729451Y-123398353D01*
X155730072Y-123408214D01*
X155714636Y-123476357D01*
X155664809Y-123525337D01*
X155606317Y-123540000D01*
X155113068Y-123540000D01*
X155046029Y-123520315D01*
X155000274Y-123467511D01*
X154990330Y-123398353D01*
X154992390Y-123387492D01*
X154993597Y-123382379D01*
X154999999Y-123322844D01*
X155000000Y-123322827D01*
X155000000Y-123025000D01*
X152450000Y-123025000D01*
X152450000Y-123322844D01*
X152456402Y-123382379D01*
X152457610Y-123387492D01*
X152453866Y-123457261D01*
X152412996Y-123513930D01*
X152347976Y-123539507D01*
X152336932Y-123540000D01*
X136031362Y-123540000D01*
X135964323Y-123520315D01*
X135943681Y-123503681D01*
X135796319Y-123356319D01*
X135762834Y-123294996D01*
X135760000Y-123268638D01*
X135760000Y-111000000D01*
X143945001Y-111000000D01*
X143945001Y-111054152D01*
X143955056Y-111152583D01*
X144007906Y-111312072D01*
X144007908Y-111312077D01*
X144096114Y-111455080D01*
X144214919Y-111573885D01*
X144357922Y-111662091D01*
X144357927Y-111662093D01*
X144517416Y-111714942D01*
X144615856Y-111724999D01*
X144632500Y-111724998D01*
X144632500Y-111000000D01*
X143945001Y-111000000D01*
X135760000Y-111000000D01*
X135760000Y-105090000D01*
X147521210Y-105090000D01*
X147522854Y-105110910D01*
X147567968Y-105266195D01*
X147650278Y-105405374D01*
X147650285Y-105405383D01*
X147764616Y-105519714D01*
X147764625Y-105519721D01*
X147903804Y-105602031D01*
X148050000Y-105644504D01*
X148050000Y-105090000D01*
X147521210Y-105090000D01*
X135760000Y-105090000D01*
X135760000Y-104589999D01*
X147521209Y-104589999D01*
X147521210Y-104590000D01*
X148050000Y-104590000D01*
X148050000Y-104035494D01*
X148049998Y-104035493D01*
X147903809Y-104077965D01*
X147903806Y-104077967D01*
X147764625Y-104160278D01*
X147764616Y-104160285D01*
X147650285Y-104274616D01*
X147650278Y-104274625D01*
X147567968Y-104413804D01*
X147567966Y-104413809D01*
X147522855Y-104569081D01*
X147522854Y-104569087D01*
X147521209Y-104589999D01*
X135760000Y-104589999D01*
X135760000Y-83250000D01*
X137980000Y-83250000D01*
X137980000Y-101040000D01*
X137980000Y-104375829D01*
X144810000Y-104381543D01*
X144810000Y-100274661D01*
X144829685Y-100207622D01*
X144882489Y-100161867D01*
X144947258Y-100151372D01*
X144986560Y-100155598D01*
X144986572Y-100155599D01*
X145140000Y-100155599D01*
X145140000Y-99549999D01*
X145640000Y-99549999D01*
X145640000Y-100155599D01*
X145793428Y-100155599D01*
X145793444Y-100155598D01*
X145852976Y-100149197D01*
X145896794Y-100132853D01*
X145966486Y-100127867D01*
X145983465Y-100132853D01*
X146029421Y-100149994D01*
X146088955Y-100156396D01*
X146088972Y-100156397D01*
X146136800Y-100156397D01*
X146136800Y-99549999D01*
X145640000Y-99549999D01*
X145140000Y-99549999D01*
X145140000Y-99453197D01*
X146543200Y-99453197D01*
X146543200Y-100156397D01*
X146591028Y-100156397D01*
X146591044Y-100156396D01*
X146650572Y-100149995D01*
X146650575Y-100149994D01*
X146696664Y-100132804D01*
X146766355Y-100127818D01*
X146783334Y-100132804D01*
X146829422Y-100149994D01*
X146888956Y-100156396D01*
X146888973Y-100156397D01*
X146936801Y-100156397D01*
X146936801Y-99453197D01*
X146543200Y-99453197D01*
X145140000Y-99453197D01*
X145140000Y-99046797D01*
X145640000Y-99046797D01*
X146936801Y-99046797D01*
X146936801Y-98343597D01*
X146888956Y-98343597D01*
X146829428Y-98349998D01*
X146829421Y-98350000D01*
X146783331Y-98367190D01*
X146713639Y-98372173D01*
X146696668Y-98367189D01*
X146650583Y-98350001D01*
X146650572Y-98349998D01*
X146591044Y-98343597D01*
X146367187Y-98343597D01*
X146354796Y-98350363D01*
X146328438Y-98353197D01*
X145643200Y-98353197D01*
X145643200Y-98841635D01*
X145640000Y-98852532D01*
X145640000Y-99046797D01*
X145140000Y-99046797D01*
X145140000Y-98525399D01*
X145159685Y-98458360D01*
X145212489Y-98412605D01*
X145229237Y-98408961D01*
X145236800Y-98401399D01*
X145236800Y-97553199D01*
X145643200Y-97553199D01*
X145643200Y-97946797D01*
X146346400Y-97946797D01*
X146346400Y-97898969D01*
X146346399Y-97898952D01*
X146339997Y-97839419D01*
X146339997Y-97839417D01*
X146322808Y-97793333D01*
X146317822Y-97723642D01*
X146322808Y-97706663D01*
X146339997Y-97660578D01*
X146339997Y-97660576D01*
X146346399Y-97601043D01*
X146346400Y-97601026D01*
X146346400Y-97553199D01*
X154333600Y-97553199D01*
X154333600Y-97601043D01*
X154340001Y-97660571D01*
X154340004Y-97660582D01*
X154357192Y-97706667D01*
X154362176Y-97776359D01*
X154357193Y-97793330D01*
X154340003Y-97839420D01*
X154340001Y-97839427D01*
X154333600Y-97898955D01*
X154333600Y-97946800D01*
X155036800Y-97946800D01*
X155036800Y-97553199D01*
X155443200Y-97553199D01*
X155443200Y-97946800D01*
X156146400Y-97946800D01*
X156146400Y-97898972D01*
X156146399Y-97898955D01*
X156139997Y-97839422D01*
X156139997Y-97839420D01*
X156122807Y-97793333D01*
X156117821Y-97723641D01*
X156122807Y-97706663D01*
X156139997Y-97660574D01*
X156139998Y-97660571D01*
X156146399Y-97601043D01*
X156146400Y-97601026D01*
X156146400Y-97553199D01*
X155443200Y-97553199D01*
X155036800Y-97553199D01*
X154333600Y-97553199D01*
X146346400Y-97553199D01*
X145643200Y-97553199D01*
X145236800Y-97553199D01*
X145236800Y-96753198D01*
X145643200Y-96753198D01*
X145643200Y-97146799D01*
X146346400Y-97146799D01*
X146346400Y-97098971D01*
X146346399Y-97098954D01*
X146339997Y-97039421D01*
X146339997Y-97039419D01*
X146322807Y-96993332D01*
X146317821Y-96923640D01*
X146322807Y-96906662D01*
X146339997Y-96860573D01*
X146339998Y-96860570D01*
X146346399Y-96801042D01*
X146346400Y-96801025D01*
X146346400Y-96753198D01*
X154333600Y-96753198D01*
X154333600Y-96801042D01*
X154340001Y-96860570D01*
X154340004Y-96860581D01*
X154357192Y-96906666D01*
X154362176Y-96976358D01*
X154357193Y-96993329D01*
X154340003Y-97039419D01*
X154340001Y-97039426D01*
X154333600Y-97098954D01*
X154333600Y-97146799D01*
X155036800Y-97146799D01*
X155036800Y-96753198D01*
X155443200Y-96753198D01*
X155443200Y-97146799D01*
X156146400Y-97146799D01*
X156146400Y-97098971D01*
X156146399Y-97098954D01*
X156139997Y-97039421D01*
X156139997Y-97039419D01*
X156122807Y-96993332D01*
X156117821Y-96923640D01*
X156122807Y-96906662D01*
X156139997Y-96860573D01*
X156139998Y-96860570D01*
X156146399Y-96801042D01*
X156146400Y-96801025D01*
X156146400Y-96753198D01*
X155443200Y-96753198D01*
X155036800Y-96753198D01*
X154333600Y-96753198D01*
X146346400Y-96753198D01*
X145643200Y-96753198D01*
X145236800Y-96753198D01*
X145236800Y-95953199D01*
X145643200Y-95953199D01*
X145643200Y-96346798D01*
X146346400Y-96346798D01*
X146346400Y-96298970D01*
X146346399Y-96298953D01*
X146339998Y-96239425D01*
X146322806Y-96193331D01*
X146317822Y-96123639D01*
X146322807Y-96106661D01*
X146339998Y-96060571D01*
X146346399Y-96001043D01*
X146346400Y-96001026D01*
X146346400Y-95953199D01*
X145643200Y-95953199D01*
X145236800Y-95953199D01*
X145236800Y-95574999D01*
X147141100Y-95574999D01*
X147141100Y-96096743D01*
X147147501Y-96156271D01*
X147147503Y-96156278D01*
X147197745Y-96290985D01*
X147197749Y-96290992D01*
X147283909Y-96406086D01*
X147283912Y-96406089D01*
X147399006Y-96492249D01*
X147399013Y-96492253D01*
X147533720Y-96542495D01*
X147533727Y-96542497D01*
X147593255Y-96548898D01*
X147593272Y-96548899D01*
X148115000Y-96548899D01*
X148115000Y-95574999D01*
X148615000Y-95574999D01*
X148615000Y-96548899D01*
X149136728Y-96548899D01*
X149136744Y-96548898D01*
X149196272Y-96542497D01*
X149196276Y-96542496D01*
X149309166Y-96500391D01*
X149378858Y-96495407D01*
X149395834Y-96500391D01*
X149508723Y-96542496D01*
X149508727Y-96542497D01*
X149568255Y-96548898D01*
X149568272Y-96548899D01*
X150090000Y-96548899D01*
X150090000Y-95574999D01*
X150590000Y-95574999D01*
X150590000Y-96548899D01*
X151111728Y-96548899D01*
X151111744Y-96548898D01*
X151171272Y-96542497D01*
X151171276Y-96542496D01*
X151284166Y-96500391D01*
X151353858Y-96495407D01*
X151370834Y-96500391D01*
X151483723Y-96542496D01*
X151483727Y-96542497D01*
X151543255Y-96548898D01*
X151543272Y-96548899D01*
X152065000Y-96548899D01*
X152065000Y-95574999D01*
X152565000Y-95574999D01*
X152565000Y-96548899D01*
X153086728Y-96548899D01*
X153086744Y-96548898D01*
X153146272Y-96542497D01*
X153146279Y-96542495D01*
X153280986Y-96492253D01*
X153280993Y-96492249D01*
X153396087Y-96406089D01*
X153396090Y-96406086D01*
X153482250Y-96290992D01*
X153482254Y-96290985D01*
X153532496Y-96156278D01*
X153532498Y-96156271D01*
X153538899Y-96096743D01*
X153538900Y-96096726D01*
X153538900Y-95574999D01*
X152565000Y-95574999D01*
X152065000Y-95574999D01*
X150590000Y-95574999D01*
X150090000Y-95574999D01*
X148615000Y-95574999D01*
X148115000Y-95574999D01*
X147141100Y-95574999D01*
X145236800Y-95574999D01*
X145236800Y-95153198D01*
X145643200Y-95153198D01*
X145643200Y-95546799D01*
X146346400Y-95546799D01*
X146346400Y-95498971D01*
X146346399Y-95498954D01*
X146339997Y-95439421D01*
X146339997Y-95439419D01*
X146322807Y-95393332D01*
X146317821Y-95323640D01*
X146322807Y-95306662D01*
X146339997Y-95260573D01*
X146339998Y-95260570D01*
X146346399Y-95201042D01*
X146346400Y-95201025D01*
X146346400Y-95153198D01*
X145643200Y-95153198D01*
X145236800Y-95153198D01*
X145236800Y-94353200D01*
X145643200Y-94353200D01*
X145643200Y-94746798D01*
X146346400Y-94746798D01*
X146346400Y-94698970D01*
X146346399Y-94698953D01*
X146339997Y-94639420D01*
X146339997Y-94639418D01*
X146322808Y-94593334D01*
X146317822Y-94523643D01*
X146322808Y-94506664D01*
X146339997Y-94460579D01*
X146339997Y-94460577D01*
X146346399Y-94401044D01*
X146346400Y-94401027D01*
X146346400Y-94353200D01*
X145643200Y-94353200D01*
X145236800Y-94353200D01*
X145236800Y-93553199D01*
X145643200Y-93553199D01*
X145643200Y-93946800D01*
X146346400Y-93946800D01*
X146346400Y-93898972D01*
X146346399Y-93898955D01*
X146339997Y-93839422D01*
X146339997Y-93839420D01*
X146322807Y-93793333D01*
X146317821Y-93723641D01*
X146322807Y-93706663D01*
X146339997Y-93660574D01*
X146339998Y-93660571D01*
X146346399Y-93601043D01*
X146346400Y-93601026D01*
X146346400Y-93599999D01*
X147141100Y-93599999D01*
X147141100Y-94121743D01*
X147147501Y-94181271D01*
X147147503Y-94181279D01*
X147189607Y-94294166D01*
X147194591Y-94363858D01*
X147189607Y-94380832D01*
X147147503Y-94493718D01*
X147147501Y-94493726D01*
X147141100Y-94553254D01*
X147141100Y-95074999D01*
X148115000Y-95074999D01*
X148115000Y-93599999D01*
X148615000Y-93599999D01*
X148615000Y-95074999D01*
X150090000Y-95074999D01*
X150090000Y-93599999D01*
X150590000Y-93599999D01*
X150590000Y-95074999D01*
X152065000Y-95074999D01*
X152065000Y-93599999D01*
X152565000Y-93599999D01*
X152565000Y-95074999D01*
X153538900Y-95074999D01*
X153538900Y-94553271D01*
X153538899Y-94553254D01*
X153532498Y-94493726D01*
X153532497Y-94493722D01*
X153490392Y-94380833D01*
X153485408Y-94311141D01*
X153490392Y-94294165D01*
X153532497Y-94181275D01*
X153532498Y-94181271D01*
X153538899Y-94121743D01*
X153538900Y-94121726D01*
X153538900Y-93599999D01*
X152565000Y-93599999D01*
X152065000Y-93599999D01*
X150590000Y-93599999D01*
X150090000Y-93599999D01*
X148615000Y-93599999D01*
X148115000Y-93599999D01*
X147141100Y-93599999D01*
X146346400Y-93599999D01*
X146346400Y-93553199D01*
X145643200Y-93553199D01*
X145236800Y-93553199D01*
X145236800Y-92753198D01*
X145643200Y-92753198D01*
X145643200Y-93146799D01*
X146346400Y-93146799D01*
X146346400Y-93098971D01*
X146346399Y-93098954D01*
X146339997Y-93039421D01*
X146339997Y-93039419D01*
X146322807Y-92993332D01*
X146317821Y-92923640D01*
X146322807Y-92906662D01*
X146339997Y-92860573D01*
X146339998Y-92860570D01*
X146346399Y-92801042D01*
X146346400Y-92801025D01*
X146346400Y-92753198D01*
X145643200Y-92753198D01*
X145236800Y-92753198D01*
X145236800Y-91953200D01*
X145643200Y-91953200D01*
X145643200Y-92346798D01*
X146346400Y-92346798D01*
X146346400Y-92298970D01*
X146346399Y-92298953D01*
X146339997Y-92239420D01*
X146339997Y-92239418D01*
X146322808Y-92193334D01*
X146317822Y-92123643D01*
X146322808Y-92106664D01*
X146339997Y-92060579D01*
X146339997Y-92060577D01*
X146346399Y-92001044D01*
X146346400Y-92001027D01*
X146346400Y-91953200D01*
X145643200Y-91953200D01*
X145236800Y-91953200D01*
X145236800Y-91624999D01*
X147141100Y-91624999D01*
X147141100Y-92146743D01*
X147147501Y-92206271D01*
X147147503Y-92206279D01*
X147189607Y-92319166D01*
X147194591Y-92388858D01*
X147189607Y-92405832D01*
X147147503Y-92518718D01*
X147147501Y-92518726D01*
X147141100Y-92578254D01*
X147141100Y-93099999D01*
X148115000Y-93099999D01*
X148115000Y-91624999D01*
X148615000Y-91624999D01*
X148615000Y-93099999D01*
X150090000Y-93099999D01*
X150090000Y-91624999D01*
X150590000Y-91624999D01*
X150590000Y-93099999D01*
X152065000Y-93099999D01*
X152065000Y-91624999D01*
X152565000Y-91624999D01*
X152565000Y-93099999D01*
X153538900Y-93099999D01*
X153538900Y-92753198D01*
X154333600Y-92753198D01*
X154333600Y-92801042D01*
X154340001Y-92860570D01*
X154340004Y-92860581D01*
X154357192Y-92906666D01*
X154362176Y-92976358D01*
X154357193Y-92993329D01*
X154340003Y-93039419D01*
X154340001Y-93039426D01*
X154333600Y-93098954D01*
X154333600Y-93146799D01*
X155036800Y-93146799D01*
X155036800Y-92753198D01*
X154333600Y-92753198D01*
X153538900Y-92753198D01*
X153538900Y-92578271D01*
X153538899Y-92578254D01*
X153532498Y-92518726D01*
X153532497Y-92518722D01*
X153490392Y-92405833D01*
X153485408Y-92336141D01*
X153490392Y-92319165D01*
X153532497Y-92206275D01*
X153532498Y-92206271D01*
X153538899Y-92146743D01*
X153538900Y-92146726D01*
X153538900Y-91953200D01*
X154333600Y-91953200D01*
X154333600Y-92001044D01*
X154340001Y-92060572D01*
X154340003Y-92060580D01*
X154357192Y-92106666D01*
X154362176Y-92176358D01*
X154357192Y-92193332D01*
X154340003Y-92239417D01*
X154340001Y-92239425D01*
X154333600Y-92298953D01*
X154333600Y-92346798D01*
X155036800Y-92346798D01*
X155036800Y-91953200D01*
X154333600Y-91953200D01*
X153538900Y-91953200D01*
X153538900Y-91624999D01*
X152565000Y-91624999D01*
X152065000Y-91624999D01*
X150590000Y-91624999D01*
X150090000Y-91624999D01*
X148615000Y-91624999D01*
X148115000Y-91624999D01*
X147141100Y-91624999D01*
X145236800Y-91624999D01*
X145236800Y-91153199D01*
X145643200Y-91153199D01*
X145643200Y-91546800D01*
X146346400Y-91546800D01*
X146346400Y-91498972D01*
X146346399Y-91498955D01*
X146339997Y-91439422D01*
X146339997Y-91439420D01*
X146322807Y-91393333D01*
X146317821Y-91323641D01*
X146322807Y-91306663D01*
X146339997Y-91260574D01*
X146339998Y-91260571D01*
X146346399Y-91201043D01*
X146346400Y-91201026D01*
X146346400Y-91153199D01*
X154333600Y-91153199D01*
X154333600Y-91201043D01*
X154340001Y-91260571D01*
X154340004Y-91260582D01*
X154357192Y-91306667D01*
X154362176Y-91376359D01*
X154357193Y-91393330D01*
X154340003Y-91439420D01*
X154340001Y-91439427D01*
X154333600Y-91498955D01*
X154333600Y-91546800D01*
X155036800Y-91546800D01*
X155036800Y-91153199D01*
X154333600Y-91153199D01*
X146346400Y-91153199D01*
X145643200Y-91153199D01*
X145236800Y-91153199D01*
X145236800Y-91124999D01*
X147141100Y-91124999D01*
X148115000Y-91124999D01*
X148115000Y-90151099D01*
X148615000Y-90151099D01*
X148615000Y-91124999D01*
X150090000Y-91124999D01*
X150090000Y-90151099D01*
X150590000Y-90151099D01*
X150590000Y-91124999D01*
X152065000Y-91124999D01*
X152065000Y-90151099D01*
X152565000Y-90151099D01*
X152565000Y-91124999D01*
X153538900Y-91124999D01*
X153538900Y-90603271D01*
X153538899Y-90603254D01*
X153532498Y-90543726D01*
X153532496Y-90543719D01*
X153482254Y-90409012D01*
X153482250Y-90409005D01*
X153396090Y-90293911D01*
X153396087Y-90293908D01*
X153280993Y-90207748D01*
X153280986Y-90207744D01*
X153146279Y-90157502D01*
X153146272Y-90157500D01*
X153086744Y-90151099D01*
X152565000Y-90151099D01*
X152065000Y-90151099D01*
X151543255Y-90151099D01*
X151483727Y-90157500D01*
X151483719Y-90157502D01*
X151370833Y-90199606D01*
X151301141Y-90204590D01*
X151284167Y-90199606D01*
X151171280Y-90157502D01*
X151171272Y-90157500D01*
X151111744Y-90151099D01*
X150590000Y-90151099D01*
X150090000Y-90151099D01*
X149568255Y-90151099D01*
X149508727Y-90157500D01*
X149508719Y-90157502D01*
X149395833Y-90199606D01*
X149326141Y-90204590D01*
X149309167Y-90199606D01*
X149196280Y-90157502D01*
X149196272Y-90157500D01*
X149136744Y-90151099D01*
X148615000Y-90151099D01*
X148115000Y-90151099D01*
X147593255Y-90151099D01*
X147533727Y-90157500D01*
X147533720Y-90157502D01*
X147399013Y-90207744D01*
X147399006Y-90207748D01*
X147283912Y-90293908D01*
X147283909Y-90293911D01*
X147197749Y-90409005D01*
X147197745Y-90409012D01*
X147147503Y-90543719D01*
X147147501Y-90543726D01*
X147141100Y-90603254D01*
X147141100Y-91124999D01*
X145236800Y-91124999D01*
X145236800Y-90353200D01*
X145643200Y-90353200D01*
X145643200Y-90746799D01*
X146346400Y-90746799D01*
X146346400Y-90698971D01*
X146346399Y-90698954D01*
X146339998Y-90639426D01*
X146322806Y-90593332D01*
X146317822Y-90523640D01*
X146322807Y-90506662D01*
X146339998Y-90460572D01*
X146346399Y-90401044D01*
X146346400Y-90401027D01*
X146346400Y-90353200D01*
X145643200Y-90353200D01*
X145236800Y-90353200D01*
X145236800Y-89553199D01*
X145643200Y-89553199D01*
X145643200Y-89946800D01*
X146346400Y-89946800D01*
X146346400Y-89898972D01*
X146346399Y-89898955D01*
X146339997Y-89839422D01*
X146339997Y-89839420D01*
X146322807Y-89793333D01*
X146317821Y-89723641D01*
X146322807Y-89706663D01*
X146339997Y-89660574D01*
X146339998Y-89660571D01*
X146346399Y-89601043D01*
X146346400Y-89601026D01*
X146346400Y-89553199D01*
X145643200Y-89553199D01*
X145236800Y-89553199D01*
X145236800Y-88753198D01*
X145643200Y-88753198D01*
X145643200Y-89146799D01*
X146346400Y-89146799D01*
X146346400Y-89098971D01*
X146346399Y-89098954D01*
X146339997Y-89039421D01*
X146339997Y-89039419D01*
X146322807Y-88993332D01*
X146317821Y-88923640D01*
X146322807Y-88906662D01*
X146339997Y-88860573D01*
X146339998Y-88860570D01*
X146346399Y-88801042D01*
X146346400Y-88801025D01*
X146346400Y-88753198D01*
X145643200Y-88753198D01*
X145236800Y-88753198D01*
X145236800Y-88298599D01*
X145225492Y-88287291D01*
X145196961Y-88278914D01*
X145151206Y-88226110D01*
X145140000Y-88174599D01*
X145140000Y-86544399D01*
X144986572Y-86544399D01*
X144947255Y-86548626D01*
X144878495Y-86536220D01*
X144827358Y-86488609D01*
X144810000Y-86425336D01*
X144810000Y-83250000D01*
X137980000Y-83250000D01*
X135760000Y-83250000D01*
X135760000Y-81430000D01*
X148415001Y-81430000D01*
X148415001Y-81511582D01*
X148421408Y-81582102D01*
X148421409Y-81582107D01*
X148471981Y-81744396D01*
X148559927Y-81889877D01*
X148680122Y-82010072D01*
X148825604Y-82098019D01*
X148825603Y-82098019D01*
X148987894Y-82148590D01*
X148987893Y-82148590D01*
X149058408Y-82154998D01*
X149058426Y-82154999D01*
X149064999Y-82154998D01*
X149065000Y-82154998D01*
X149065000Y-81430000D01*
X148415001Y-81430000D01*
X135760000Y-81430000D01*
X135760000Y-80930000D01*
X148415000Y-80930000D01*
X149065000Y-80930000D01*
X149065000Y-80205000D01*
X149064999Y-80204999D01*
X149058436Y-80205000D01*
X149058417Y-80205001D01*
X148987897Y-80211408D01*
X148987892Y-80211409D01*
X148825603Y-80261981D01*
X148680122Y-80349927D01*
X148559927Y-80470122D01*
X148471980Y-80615604D01*
X148421409Y-80777893D01*
X148415000Y-80848427D01*
X148415000Y-80930000D01*
X135760000Y-80930000D01*
X135760000Y-72661362D01*
X135779685Y-72594323D01*
X135796319Y-72573681D01*
X135833681Y-72536319D01*
X135895004Y-72502834D01*
X135921362Y-72500000D01*
X147632331Y-72500000D01*
X147699370Y-72519685D01*
G37*
%TD.AperFunction*%
%TA.AperFunction,Conductor*%
G36*
X149183333Y-100133338D02*
G01*
X149229307Y-100150485D01*
X149229310Y-100150486D01*
X149229316Y-100150488D01*
X149288926Y-100156897D01*
X149791071Y-100156896D01*
X149791073Y-100156895D01*
X149791087Y-100156895D01*
X149832886Y-100152401D01*
X149901646Y-100164806D01*
X149933823Y-100188009D01*
X153063181Y-103317367D01*
X153096666Y-103378690D01*
X153099500Y-103405048D01*
X153099500Y-119950500D01*
X153079815Y-120017539D01*
X153027011Y-120063294D01*
X152975502Y-120074500D01*
X152902130Y-120074500D01*
X152902123Y-120074501D01*
X152842516Y-120080908D01*
X152707671Y-120131202D01*
X152707664Y-120131206D01*
X152592455Y-120217452D01*
X152592452Y-120217455D01*
X152506206Y-120332664D01*
X152506202Y-120332671D01*
X152455908Y-120467517D01*
X152449501Y-120527116D01*
X152449501Y-120527123D01*
X152449500Y-120527135D01*
X152449500Y-120765547D01*
X152429815Y-120832586D01*
X152377011Y-120878341D01*
X152307853Y-120888285D01*
X152244297Y-120859260D01*
X152237819Y-120853228D01*
X151951819Y-120567228D01*
X151918334Y-120505905D01*
X151915500Y-120479547D01*
X151915500Y-117622742D01*
X151917224Y-117607122D01*
X151916939Y-117607095D01*
X151917673Y-117599333D01*
X151915561Y-117532112D01*
X151915500Y-117528218D01*
X151915500Y-117500656D01*
X151915500Y-117500650D01*
X151914996Y-117496668D01*
X151914081Y-117485029D01*
X151912710Y-117441373D01*
X151907119Y-117422130D01*
X151903173Y-117403078D01*
X151900664Y-117383208D01*
X151884579Y-117342583D01*
X151880806Y-117331562D01*
X151868618Y-117289610D01*
X151868617Y-117289609D01*
X151868617Y-117289607D01*
X151868616Y-117289606D01*
X151858423Y-117272371D01*
X151849861Y-117254894D01*
X151842487Y-117236269D01*
X151816816Y-117200937D01*
X151810405Y-117191177D01*
X151788170Y-117153580D01*
X151788168Y-117153578D01*
X151788165Y-117153574D01*
X151774006Y-117139415D01*
X151761368Y-117124619D01*
X151749594Y-117108413D01*
X151715940Y-117080572D01*
X151707299Y-117072709D01*
X150131819Y-115497228D01*
X150098334Y-115435905D01*
X150095500Y-115409547D01*
X150095500Y-112464499D01*
X150115185Y-112397460D01*
X150167989Y-112351705D01*
X150219500Y-112340499D01*
X150517871Y-112340499D01*
X150517872Y-112340499D01*
X150577483Y-112334091D01*
X150712331Y-112283796D01*
X150827546Y-112197546D01*
X150913796Y-112082331D01*
X150964091Y-111947483D01*
X150970500Y-111887873D01*
X150970499Y-107992128D01*
X150964091Y-107932517D01*
X150962785Y-107929016D01*
X150913797Y-107797671D01*
X150913793Y-107797664D01*
X150827547Y-107682455D01*
X150827544Y-107682452D01*
X150712335Y-107596206D01*
X150712328Y-107596202D01*
X150577482Y-107545908D01*
X150577483Y-107545908D01*
X150517883Y-107539501D01*
X150517881Y-107539500D01*
X150517873Y-107539500D01*
X150517865Y-107539500D01*
X150219500Y-107539500D01*
X150152461Y-107519815D01*
X150106706Y-107467011D01*
X150095500Y-107415500D01*
X150095500Y-104750651D01*
X150095499Y-104750640D01*
X150089809Y-104705602D01*
X150080664Y-104633208D01*
X150022486Y-104486268D01*
X150022484Y-104486265D01*
X150022484Y-104486264D01*
X150020408Y-104483407D01*
X150001648Y-104445116D01*
X149992494Y-104413605D01*
X149910117Y-104274313D01*
X149906146Y-104267598D01*
X149907789Y-104266626D01*
X149885984Y-104211070D01*
X149885500Y-104200121D01*
X149885500Y-102662742D01*
X149887224Y-102647122D01*
X149886939Y-102647096D01*
X149887671Y-102639340D01*
X149887673Y-102639333D01*
X149885561Y-102572126D01*
X149885500Y-102568231D01*
X149885500Y-102540654D01*
X149885500Y-102540650D01*
X149884996Y-102536665D01*
X149884080Y-102525021D01*
X149883292Y-102499938D01*
X149882709Y-102481373D01*
X149877122Y-102462144D01*
X149873174Y-102443084D01*
X149870663Y-102423204D01*
X149854588Y-102382604D01*
X149850804Y-102371552D01*
X149838618Y-102329609D01*
X149838616Y-102329606D01*
X149828423Y-102312371D01*
X149819861Y-102294894D01*
X149812487Y-102276269D01*
X149786816Y-102240937D01*
X149780405Y-102231177D01*
X149764971Y-102205080D01*
X149758172Y-102193583D01*
X149758165Y-102193574D01*
X149744006Y-102179415D01*
X149731368Y-102164619D01*
X149719594Y-102148413D01*
X149685940Y-102120572D01*
X149677299Y-102112709D01*
X148601819Y-101037228D01*
X148568334Y-100975905D01*
X148565500Y-100949547D01*
X148565500Y-100280896D01*
X148585185Y-100213857D01*
X148637989Y-100168102D01*
X148689500Y-100156896D01*
X148991072Y-100156896D01*
X148991073Y-100156896D01*
X149050684Y-100150488D01*
X149096665Y-100133337D01*
X149166356Y-100128352D01*
X149183333Y-100133338D01*
G37*
%TD.AperFunction*%
%TA.AperFunction,Conductor*%
G36*
X157866587Y-110585185D02*
G01*
X157887229Y-110601819D01*
X159758181Y-112472771D01*
X159791666Y-112534094D01*
X159794500Y-112560452D01*
X159794500Y-119950500D01*
X159774815Y-120017539D01*
X159722011Y-120063294D01*
X159670500Y-120074500D01*
X158152129Y-120074500D01*
X158152123Y-120074501D01*
X158092516Y-120080908D01*
X157957671Y-120131202D01*
X157957664Y-120131206D01*
X157842455Y-120217452D01*
X157842452Y-120217455D01*
X157756206Y-120332664D01*
X157756202Y-120332671D01*
X157705908Y-120467517D01*
X157699501Y-120527116D01*
X157699501Y-120527123D01*
X157699500Y-120527135D01*
X157699500Y-120550500D01*
X157679815Y-120617539D01*
X157627011Y-120663294D01*
X157575500Y-120674500D01*
X157101013Y-120674500D01*
X157033974Y-120654815D01*
X156988219Y-120602011D01*
X156977258Y-120558286D01*
X156973962Y-120505905D01*
X156969304Y-120431862D01*
X156920467Y-120281559D01*
X156835786Y-120148123D01*
X156720582Y-120039938D01*
X156720579Y-120039936D01*
X156720577Y-120039934D01*
X156582095Y-119963804D01*
X156582087Y-119963801D01*
X156429021Y-119924500D01*
X156429019Y-119924500D01*
X156310650Y-119924500D01*
X156310640Y-119924500D01*
X156193208Y-119939336D01*
X156193206Y-119939336D01*
X156046269Y-119997513D01*
X156046260Y-119997518D01*
X155918416Y-120090402D01*
X155918415Y-120090403D01*
X155817674Y-120212178D01*
X155750387Y-120355171D01*
X155750385Y-120355174D01*
X155735757Y-120431862D01*
X155720773Y-120510412D01*
X155720773Y-120510414D01*
X155720773Y-120510415D01*
X155722805Y-120542714D01*
X155707369Y-120610857D01*
X155657542Y-120659838D01*
X155599050Y-120674500D01*
X155124499Y-120674500D01*
X155057460Y-120654815D01*
X155011705Y-120602011D01*
X155000499Y-120550500D01*
X155000499Y-120527129D01*
X155000498Y-120527123D01*
X155000497Y-120527116D01*
X154994091Y-120467517D01*
X154980791Y-120431859D01*
X154943797Y-120332671D01*
X154943793Y-120332664D01*
X154857547Y-120217455D01*
X154857544Y-120217452D01*
X154742335Y-120131206D01*
X154742328Y-120131202D01*
X154607482Y-120080908D01*
X154607483Y-120080908D01*
X154547883Y-120074501D01*
X154547881Y-120074500D01*
X154547873Y-120074500D01*
X154547865Y-120074500D01*
X154474500Y-120074500D01*
X154407461Y-120054815D01*
X154361706Y-120002011D01*
X154350500Y-119950500D01*
X154350500Y-113545470D01*
X154370185Y-113478431D01*
X154422989Y-113432676D01*
X154492147Y-113422732D01*
X154519063Y-113431694D01*
X154519601Y-113430254D01*
X154662620Y-113483596D01*
X154662627Y-113483598D01*
X154722155Y-113489999D01*
X154722172Y-113490000D01*
X155520000Y-113490000D01*
X155520000Y-112490000D01*
X156020000Y-112490000D01*
X156020000Y-113490000D01*
X156817828Y-113490000D01*
X156817844Y-113489999D01*
X156877372Y-113483598D01*
X156877379Y-113483596D01*
X157012086Y-113433354D01*
X157012093Y-113433350D01*
X157127187Y-113347190D01*
X157127190Y-113347187D01*
X157213350Y-113232093D01*
X157213354Y-113232086D01*
X157263596Y-113097379D01*
X157263598Y-113097372D01*
X157269999Y-113037844D01*
X157270000Y-113037827D01*
X157270000Y-112490000D01*
X156020000Y-112490000D01*
X155520000Y-112490000D01*
X155520000Y-112114000D01*
X155539685Y-112046961D01*
X155592489Y-112001206D01*
X155644000Y-111990000D01*
X157270000Y-111990000D01*
X157270000Y-111442172D01*
X157269999Y-111442155D01*
X157263598Y-111382627D01*
X157263596Y-111382620D01*
X157213354Y-111247913D01*
X157213352Y-111247910D01*
X157151082Y-111164727D01*
X157126665Y-111099262D01*
X157141517Y-111030989D01*
X157151083Y-111016104D01*
X157213796Y-110932331D01*
X157264091Y-110797483D01*
X157270500Y-110737873D01*
X157270500Y-110689500D01*
X157290185Y-110622461D01*
X157342989Y-110576706D01*
X157394500Y-110565500D01*
X157799548Y-110565500D01*
X157866587Y-110585185D01*
G37*
%TD.AperFunction*%
%TA.AperFunction,Conductor*%
G36*
X168233499Y-97235185D02*
G01*
X168279254Y-97287989D01*
X168289198Y-97357147D01*
X168274425Y-97398476D01*
X168274600Y-97398555D01*
X168273614Y-97400744D01*
X168272575Y-97403650D01*
X168272086Y-97404460D01*
X168271522Y-97405393D01*
X168220913Y-97567807D01*
X168214500Y-97638386D01*
X168214500Y-98301613D01*
X168220913Y-98372192D01*
X168220913Y-98372194D01*
X168220914Y-98372196D01*
X168271522Y-98534606D01*
X168359528Y-98680185D01*
X168453182Y-98773839D01*
X168486666Y-98835160D01*
X168489500Y-98861519D01*
X168489500Y-100144758D01*
X168469815Y-100211797D01*
X168417011Y-100257552D01*
X168404508Y-100262462D01*
X168400653Y-100263740D01*
X168290668Y-100300185D01*
X168290663Y-100300187D01*
X168141342Y-100392289D01*
X168017289Y-100516342D01*
X167925187Y-100665663D01*
X167925185Y-100665668D01*
X167901443Y-100737318D01*
X167870001Y-100832203D01*
X167870001Y-100832204D01*
X167870000Y-100832204D01*
X167859500Y-100934983D01*
X167859500Y-102285001D01*
X167859501Y-102285018D01*
X167870000Y-102387796D01*
X167870001Y-102387799D01*
X167916000Y-102526614D01*
X167925186Y-102554334D01*
X168017288Y-102703656D01*
X168141344Y-102827712D01*
X168150591Y-102833416D01*
X168197318Y-102885360D01*
X168209500Y-102938957D01*
X168209500Y-106455500D01*
X168189815Y-106522539D01*
X168137011Y-106568294D01*
X168085500Y-106579500D01*
X158912066Y-106579500D01*
X158877471Y-106574576D01*
X158847929Y-106565993D01*
X158800994Y-106552357D01*
X158800991Y-106552356D01*
X158764697Y-106549500D01*
X158764690Y-106549500D01*
X158295310Y-106549500D01*
X158295302Y-106549500D01*
X158259008Y-106552356D01*
X158259005Y-106552357D01*
X158204152Y-106568294D01*
X158182528Y-106574576D01*
X158147934Y-106579500D01*
X157224835Y-106579500D01*
X157157796Y-106559815D01*
X157134458Y-106538089D01*
X157133820Y-106538728D01*
X157127548Y-106532457D01*
X157127546Y-106532454D01*
X157114301Y-106522539D01*
X157012335Y-106446206D01*
X157012328Y-106446202D01*
X156877482Y-106395908D01*
X156877483Y-106395908D01*
X156817883Y-106389501D01*
X156817881Y-106389500D01*
X156817873Y-106389500D01*
X156817865Y-106389500D01*
X154969500Y-106389500D01*
X154902461Y-106369815D01*
X154856706Y-106317011D01*
X154845500Y-106265500D01*
X154845500Y-106069500D01*
X154865185Y-106002461D01*
X154917989Y-105956706D01*
X154969500Y-105945500D01*
X157611040Y-105945500D01*
X157678079Y-105965185D01*
X157723834Y-106017989D01*
X157733778Y-106087147D01*
X157730116Y-106104095D01*
X157725495Y-106120000D01*
X159334504Y-106120000D01*
X159329884Y-106104095D01*
X159330083Y-106034225D01*
X159368025Y-105975555D01*
X159431664Y-105946712D01*
X159448960Y-105945500D01*
X159837257Y-105945500D01*
X159852877Y-105947224D01*
X159852904Y-105946939D01*
X159860660Y-105947671D01*
X159860667Y-105947673D01*
X159927873Y-105945561D01*
X159931768Y-105945500D01*
X159959346Y-105945500D01*
X159959350Y-105945500D01*
X159963324Y-105944997D01*
X159974963Y-105944080D01*
X160018627Y-105942709D01*
X160037869Y-105937117D01*
X160056912Y-105933174D01*
X160076792Y-105930664D01*
X160117401Y-105914585D01*
X160128444Y-105910803D01*
X160170390Y-105898618D01*
X160187629Y-105888422D01*
X160205103Y-105879862D01*
X160223727Y-105872488D01*
X160223727Y-105872487D01*
X160223732Y-105872486D01*
X160259083Y-105846800D01*
X160268814Y-105840408D01*
X160306420Y-105818170D01*
X160320589Y-105803999D01*
X160335379Y-105791368D01*
X160351587Y-105779594D01*
X160379438Y-105745926D01*
X160387279Y-105737309D01*
X161334320Y-104790269D01*
X161395641Y-104756786D01*
X161458885Y-104759565D01*
X161617804Y-104809086D01*
X161688384Y-104815500D01*
X161688387Y-104815500D01*
X162351613Y-104815500D01*
X162351616Y-104815500D01*
X162422196Y-104809086D01*
X162584606Y-104758478D01*
X162730185Y-104670472D01*
X162850472Y-104550185D01*
X162938478Y-104404606D01*
X162989086Y-104242196D01*
X162995500Y-104171616D01*
X162995500Y-103875452D01*
X163015185Y-103808413D01*
X163031819Y-103787771D01*
X165302920Y-101516670D01*
X167583788Y-99235801D01*
X167596042Y-99225986D01*
X167595859Y-99225764D01*
X167601868Y-99220791D01*
X167601877Y-99220786D01*
X167647949Y-99171722D01*
X167650566Y-99169023D01*
X167670120Y-99149471D01*
X167672576Y-99146303D01*
X167680156Y-99137427D01*
X167710062Y-99105582D01*
X167719713Y-99088024D01*
X167730396Y-99071761D01*
X167742673Y-99055936D01*
X167760021Y-99015844D01*
X167765151Y-99005371D01*
X167786197Y-98967092D01*
X167791180Y-98947680D01*
X167797481Y-98929280D01*
X167805437Y-98910896D01*
X167812270Y-98867748D01*
X167814633Y-98856338D01*
X167825500Y-98814019D01*
X167825500Y-98793983D01*
X167827027Y-98774582D01*
X167827145Y-98773837D01*
X167830160Y-98754804D01*
X167826050Y-98711324D01*
X167825500Y-98699655D01*
X167825500Y-97339500D01*
X167845185Y-97272461D01*
X167897989Y-97226706D01*
X167949500Y-97215500D01*
X168166460Y-97215500D01*
X168233499Y-97235185D01*
G37*
%TD.AperFunction*%
%TA.AperFunction,Conductor*%
G36*
X169114809Y-81920185D02*
G01*
X169135451Y-81936819D01*
X175813181Y-88614548D01*
X175846666Y-88675871D01*
X175849500Y-88702229D01*
X175849500Y-104077770D01*
X175829815Y-104144809D01*
X175813181Y-104165451D01*
X175242291Y-104736340D01*
X175180968Y-104769825D01*
X175111276Y-104764841D01*
X175055343Y-104722969D01*
X175030926Y-104657505D01*
X175045778Y-104589232D01*
X175066197Y-104552092D01*
X175071180Y-104532680D01*
X175077481Y-104514280D01*
X175085437Y-104495896D01*
X175092270Y-104452748D01*
X175094633Y-104441338D01*
X175105500Y-104399019D01*
X175105500Y-104378983D01*
X175107027Y-104359582D01*
X175110160Y-104339804D01*
X175106050Y-104296324D01*
X175105500Y-104284655D01*
X175105500Y-93072737D01*
X175107224Y-93057123D01*
X175106938Y-93057096D01*
X175107672Y-93049333D01*
X175105561Y-92982144D01*
X175105500Y-92978250D01*
X175105500Y-92950651D01*
X175105500Y-92950650D01*
X175104997Y-92946670D01*
X175104080Y-92935021D01*
X175102709Y-92891373D01*
X175097122Y-92872144D01*
X175093174Y-92853084D01*
X175090664Y-92833208D01*
X175074585Y-92792597D01*
X175070804Y-92781552D01*
X175058619Y-92739612D01*
X175048418Y-92722363D01*
X175039860Y-92704894D01*
X175032486Y-92686268D01*
X175032483Y-92686264D01*
X175032483Y-92686263D01*
X175006816Y-92650935D01*
X175000403Y-92641172D01*
X174978172Y-92603583D01*
X174978170Y-92603579D01*
X174978166Y-92603575D01*
X174978163Y-92603571D01*
X174964005Y-92589413D01*
X174951370Y-92574620D01*
X174939593Y-92558412D01*
X174905945Y-92530576D01*
X174897304Y-92522713D01*
X173190803Y-90816212D01*
X173180980Y-90803950D01*
X173180759Y-90804134D01*
X173175786Y-90798122D01*
X173126776Y-90752099D01*
X173123977Y-90749386D01*
X173104477Y-90729885D01*
X173102965Y-90728712D01*
X173101286Y-90727409D01*
X173092434Y-90719848D01*
X173060582Y-90689938D01*
X173060580Y-90689936D01*
X173060577Y-90689935D01*
X173043029Y-90680288D01*
X173026763Y-90669604D01*
X173010932Y-90657324D01*
X172970849Y-90639978D01*
X172960363Y-90634841D01*
X172922094Y-90613803D01*
X172922092Y-90613802D01*
X172902693Y-90608822D01*
X172884281Y-90602518D01*
X172865898Y-90594562D01*
X172865892Y-90594560D01*
X172822760Y-90587729D01*
X172811322Y-90585361D01*
X172769020Y-90574500D01*
X172769019Y-90574500D01*
X172748984Y-90574500D01*
X172729586Y-90572973D01*
X172715689Y-90570772D01*
X172709805Y-90569840D01*
X172709804Y-90569840D01*
X172666325Y-90573950D01*
X172654656Y-90574500D01*
X168070847Y-90574500D01*
X168047615Y-90572304D01*
X168039588Y-90570773D01*
X168039585Y-90570772D01*
X167984241Y-90574255D01*
X167976455Y-90574500D01*
X167960643Y-90574500D01*
X167944963Y-90576481D01*
X167937216Y-90577212D01*
X167928233Y-90577778D01*
X167881859Y-90580696D01*
X167874085Y-90583222D01*
X167851320Y-90588310D01*
X167843218Y-90589333D01*
X167843205Y-90589337D01*
X167791621Y-90609760D01*
X167784308Y-90612392D01*
X167731559Y-90629533D01*
X167731556Y-90629534D01*
X167724652Y-90633915D01*
X167703880Y-90644499D01*
X167696273Y-90647511D01*
X167696262Y-90647517D01*
X167651388Y-90680119D01*
X167644951Y-90684494D01*
X167598123Y-90714213D01*
X167598120Y-90714216D01*
X167592529Y-90720170D01*
X167575029Y-90735599D01*
X167568413Y-90740405D01*
X167568412Y-90740406D01*
X167533053Y-90783146D01*
X167527906Y-90788984D01*
X167489937Y-90829418D01*
X167489935Y-90829420D01*
X167485994Y-90836589D01*
X167472889Y-90855873D01*
X167467677Y-90862173D01*
X167467674Y-90862178D01*
X167444059Y-90912361D01*
X167440526Y-90919294D01*
X167413805Y-90967903D01*
X167413803Y-90967908D01*
X167411769Y-90975828D01*
X167403870Y-90997768D01*
X167400386Y-91005172D01*
X167400384Y-91005179D01*
X167389993Y-91059649D01*
X167388295Y-91067247D01*
X167374500Y-91120976D01*
X167374500Y-91129152D01*
X167372305Y-91152382D01*
X167370773Y-91160414D01*
X167374255Y-91215757D01*
X167374500Y-91223543D01*
X167374500Y-92435500D01*
X167354815Y-92502539D01*
X167302011Y-92548294D01*
X167250500Y-92559500D01*
X166789298Y-92559500D01*
X166752432Y-92562401D01*
X166752426Y-92562402D01*
X166594606Y-92608254D01*
X166594603Y-92608255D01*
X166453137Y-92691917D01*
X166453129Y-92691923D01*
X166336923Y-92808129D01*
X166336917Y-92808137D01*
X166253255Y-92949603D01*
X166253254Y-92949606D01*
X166207402Y-93107426D01*
X166207401Y-93107432D01*
X166204500Y-93144298D01*
X166204500Y-93575701D01*
X166207401Y-93612567D01*
X166207402Y-93612573D01*
X166253254Y-93770393D01*
X166253255Y-93770396D01*
X166336917Y-93911862D01*
X166336923Y-93911870D01*
X166453129Y-94028076D01*
X166453133Y-94028079D01*
X166453135Y-94028081D01*
X166594602Y-94111744D01*
X166636224Y-94123836D01*
X166752426Y-94157597D01*
X166752429Y-94157597D01*
X166752431Y-94157598D01*
X166789306Y-94160500D01*
X167955500Y-94160500D01*
X168022539Y-94180185D01*
X168068294Y-94232989D01*
X168079500Y-94284500D01*
X168079500Y-94335500D01*
X168059815Y-94402539D01*
X168007011Y-94448294D01*
X167955500Y-94459500D01*
X166789298Y-94459500D01*
X166752432Y-94462401D01*
X166752426Y-94462402D01*
X166594606Y-94508254D01*
X166594603Y-94508255D01*
X166453137Y-94591917D01*
X166453129Y-94591923D01*
X166446872Y-94598181D01*
X166385549Y-94631666D01*
X166359191Y-94634500D01*
X158210453Y-94634500D01*
X158143414Y-94614815D01*
X158122772Y-94598181D01*
X157651819Y-94127228D01*
X157618334Y-94065905D01*
X157615500Y-94039547D01*
X157615500Y-91479452D01*
X157635185Y-91412413D01*
X157687989Y-91366658D01*
X157757147Y-91356714D01*
X157820703Y-91385739D01*
X157827174Y-91391765D01*
X158073182Y-91637773D01*
X158106666Y-91699094D01*
X158109500Y-91725452D01*
X158109500Y-92637870D01*
X158109501Y-92637876D01*
X158115908Y-92697483D01*
X158166202Y-92832328D01*
X158166206Y-92832335D01*
X158252452Y-92947544D01*
X158252455Y-92947547D01*
X158367664Y-93033793D01*
X158367671Y-93033797D01*
X158502517Y-93084091D01*
X158502516Y-93084091D01*
X158509444Y-93084835D01*
X158562127Y-93090500D01*
X159557872Y-93090499D01*
X159617483Y-93084091D01*
X159752331Y-93033796D01*
X159867546Y-92947546D01*
X159953796Y-92832331D01*
X160004091Y-92697483D01*
X160010500Y-92637873D01*
X160010499Y-91990000D01*
X161510000Y-91990000D01*
X161510000Y-92637844D01*
X161516401Y-92697372D01*
X161516403Y-92697379D01*
X161566645Y-92832086D01*
X161566649Y-92832093D01*
X161652809Y-92947187D01*
X161652812Y-92947190D01*
X161767906Y-93033350D01*
X161767913Y-93033354D01*
X161902620Y-93083596D01*
X161902627Y-93083598D01*
X161962155Y-93089999D01*
X161962172Y-93090000D01*
X162210000Y-93090000D01*
X162210000Y-91990000D01*
X162710000Y-91990000D01*
X162710000Y-93090000D01*
X162957828Y-93090000D01*
X162957844Y-93089999D01*
X163017372Y-93083598D01*
X163017379Y-93083596D01*
X163152086Y-93033354D01*
X163152093Y-93033350D01*
X163267187Y-92947190D01*
X163267190Y-92947187D01*
X163353350Y-92832093D01*
X163353354Y-92832086D01*
X163403596Y-92697379D01*
X163403598Y-92697372D01*
X163409999Y-92637844D01*
X163410000Y-92637827D01*
X163410000Y-91990000D01*
X162710000Y-91990000D01*
X162210000Y-91990000D01*
X161510000Y-91990000D01*
X160010499Y-91990000D01*
X160010499Y-91490000D01*
X161510000Y-91490000D01*
X162210000Y-91490000D01*
X162210000Y-90390000D01*
X162710000Y-90390000D01*
X162710000Y-91490000D01*
X163410000Y-91490000D01*
X163410000Y-90842172D01*
X163409999Y-90842155D01*
X163403598Y-90782627D01*
X163403596Y-90782620D01*
X163353354Y-90647913D01*
X163353350Y-90647906D01*
X163267190Y-90532812D01*
X163267187Y-90532809D01*
X163152093Y-90446649D01*
X163152086Y-90446645D01*
X163017379Y-90396403D01*
X163017372Y-90396401D01*
X162957844Y-90390000D01*
X162710000Y-90390000D01*
X162210000Y-90390000D01*
X161962155Y-90390000D01*
X161902627Y-90396401D01*
X161902620Y-90396403D01*
X161767913Y-90446645D01*
X161767906Y-90446649D01*
X161652812Y-90532809D01*
X161652809Y-90532812D01*
X161566649Y-90647906D01*
X161566645Y-90647913D01*
X161516403Y-90782620D01*
X161516401Y-90782627D01*
X161510000Y-90842155D01*
X161510000Y-91490000D01*
X160010499Y-91490000D01*
X160010499Y-90842128D01*
X160004091Y-90782517D01*
X159992251Y-90750773D01*
X159953797Y-90647671D01*
X159953793Y-90647664D01*
X159867547Y-90532455D01*
X159867544Y-90532452D01*
X159752335Y-90446206D01*
X159752328Y-90446202D01*
X159617482Y-90395908D01*
X159617483Y-90395908D01*
X159557883Y-90389501D01*
X159557881Y-90389500D01*
X159557873Y-90389500D01*
X159557865Y-90389500D01*
X158645453Y-90389500D01*
X158578414Y-90369815D01*
X158557772Y-90353181D01*
X157170802Y-88966211D01*
X157160979Y-88953949D01*
X157160758Y-88954133D01*
X157155785Y-88948121D01*
X157106775Y-88902098D01*
X157103976Y-88899385D01*
X157084476Y-88879884D01*
X157084470Y-88879879D01*
X157081285Y-88877408D01*
X157072433Y-88869847D01*
X157040581Y-88839937D01*
X157040579Y-88839935D01*
X157040576Y-88839934D01*
X157023028Y-88830287D01*
X157006762Y-88819603D01*
X156990931Y-88807323D01*
X156950848Y-88789977D01*
X156940362Y-88784840D01*
X156902093Y-88763802D01*
X156902091Y-88763801D01*
X156882692Y-88758821D01*
X156864280Y-88752517D01*
X156845897Y-88744561D01*
X156845891Y-88744559D01*
X156802759Y-88737728D01*
X156791321Y-88735360D01*
X156749019Y-88724499D01*
X156749018Y-88724499D01*
X156728983Y-88724499D01*
X156709585Y-88722972D01*
X156702161Y-88721796D01*
X156689804Y-88719839D01*
X156689803Y-88719839D01*
X156646324Y-88723949D01*
X156634655Y-88724499D01*
X156270900Y-88724499D01*
X156203861Y-88704814D01*
X156158106Y-88652010D01*
X156146900Y-88600499D01*
X156146899Y-88298931D01*
X156146898Y-88298924D01*
X156146863Y-88298599D01*
X156140491Y-88239318D01*
X156135565Y-88226110D01*
X156087097Y-88096160D01*
X156089782Y-88095158D01*
X156078017Y-88041113D01*
X156088102Y-88006836D01*
X156085853Y-88005998D01*
X156139197Y-87862975D01*
X156139198Y-87862971D01*
X156145599Y-87803443D01*
X156145600Y-87803426D01*
X156145600Y-87649999D01*
X155167699Y-87649999D01*
X155100660Y-87630314D01*
X155054905Y-87577510D01*
X155043699Y-87525999D01*
X155043699Y-86995730D01*
X155043698Y-86995724D01*
X155043697Y-86995718D01*
X155041503Y-86975309D01*
X155040710Y-86967922D01*
X155040000Y-86954669D01*
X155040000Y-86544399D01*
X155540000Y-86544399D01*
X155540000Y-87149999D01*
X156145600Y-87149999D01*
X156145600Y-86996571D01*
X156145599Y-86996554D01*
X156139198Y-86937026D01*
X156139196Y-86937019D01*
X156088954Y-86802312D01*
X156088950Y-86802305D01*
X156002790Y-86687211D01*
X156002787Y-86687208D01*
X155887693Y-86601048D01*
X155887686Y-86601044D01*
X155752979Y-86550802D01*
X155752972Y-86550800D01*
X155693444Y-86544399D01*
X155540000Y-86544399D01*
X155040000Y-86544399D01*
X154886555Y-86544399D01*
X154827027Y-86550800D01*
X154827016Y-86550803D01*
X154783916Y-86566878D01*
X154714224Y-86571862D01*
X154697252Y-86566878D01*
X154650685Y-86549510D01*
X154650683Y-86549509D01*
X154591083Y-86543102D01*
X154591081Y-86543101D01*
X154591073Y-86543101D01*
X154591065Y-86543101D01*
X154232000Y-86543101D01*
X154164961Y-86523416D01*
X154119206Y-86470612D01*
X154108000Y-86419101D01*
X154108000Y-85811386D01*
X154127685Y-85744347D01*
X154180489Y-85698592D01*
X154249647Y-85688648D01*
X154277647Y-85696094D01*
X154277903Y-85696195D01*
X154277905Y-85696195D01*
X154277908Y-85696197D01*
X154297316Y-85701180D01*
X154315719Y-85707481D01*
X154334101Y-85715436D01*
X154334102Y-85715436D01*
X154334104Y-85715437D01*
X154377250Y-85722270D01*
X154388672Y-85724636D01*
X154430981Y-85735500D01*
X154451016Y-85735500D01*
X154470414Y-85737026D01*
X154490194Y-85740159D01*
X154490195Y-85740160D01*
X154490195Y-85740159D01*
X154490196Y-85740160D01*
X154533675Y-85736050D01*
X154545344Y-85735500D01*
X159427257Y-85735500D01*
X159442877Y-85737224D01*
X159442904Y-85736939D01*
X159450660Y-85737671D01*
X159450667Y-85737673D01*
X159517873Y-85735561D01*
X159521768Y-85735500D01*
X159549346Y-85735500D01*
X159549350Y-85735500D01*
X159553324Y-85734997D01*
X159564963Y-85734080D01*
X159608627Y-85732709D01*
X159627869Y-85727117D01*
X159646912Y-85723174D01*
X159666792Y-85720664D01*
X159707401Y-85704585D01*
X159718444Y-85700803D01*
X159760390Y-85688618D01*
X159777629Y-85678422D01*
X159795103Y-85669862D01*
X159813729Y-85662487D01*
X159813728Y-85662487D01*
X159813732Y-85662486D01*
X159849069Y-85636810D01*
X159858820Y-85630405D01*
X159896420Y-85608170D01*
X159903783Y-85600806D01*
X159916045Y-85590984D01*
X159915862Y-85590763D01*
X159927888Y-85580813D01*
X159927951Y-85580889D01*
X159936904Y-85572996D01*
X159941587Y-85569594D01*
X159969426Y-85535939D01*
X159977277Y-85527311D01*
X159990120Y-85514471D01*
X159992583Y-85511294D01*
X160000167Y-85502416D01*
X160030061Y-85470583D01*
X160030062Y-85470582D01*
X160039713Y-85453024D01*
X160050396Y-85436761D01*
X160062673Y-85420936D01*
X160080021Y-85380844D01*
X160085151Y-85370371D01*
X160106197Y-85332092D01*
X160111180Y-85312680D01*
X160117481Y-85294280D01*
X160125437Y-85275896D01*
X160132270Y-85232748D01*
X160134633Y-85221338D01*
X160145500Y-85179019D01*
X160145500Y-85158983D01*
X160147027Y-85139582D01*
X160150160Y-85119804D01*
X160146050Y-85076324D01*
X160145500Y-85064655D01*
X160145500Y-82252742D01*
X160147224Y-82237122D01*
X160146939Y-82237096D01*
X160147671Y-82229340D01*
X160147673Y-82229333D01*
X160145561Y-82162126D01*
X160145500Y-82158231D01*
X160145500Y-82130654D01*
X160145500Y-82130650D01*
X160144996Y-82126665D01*
X160144080Y-82115021D01*
X160143560Y-82098478D01*
X160142709Y-82071373D01*
X160139142Y-82059096D01*
X160139338Y-81989232D01*
X160177277Y-81930560D01*
X160240914Y-81901713D01*
X160258217Y-81900500D01*
X169047770Y-81900500D01*
X169114809Y-81920185D01*
G37*
%TD.AperFunction*%
%TA.AperFunction,Conductor*%
G36*
X157563834Y-101743269D02*
G01*
X157619767Y-101785141D01*
X157644184Y-101850605D01*
X157644500Y-101859451D01*
X157644500Y-102360001D01*
X157644501Y-102360019D01*
X157655000Y-102462796D01*
X157655001Y-102462799D01*
X157710185Y-102629331D01*
X157710187Y-102629336D01*
X157730957Y-102663009D01*
X157802288Y-102778656D01*
X157926344Y-102902712D01*
X157929628Y-102904737D01*
X157929653Y-102904753D01*
X157931445Y-102906746D01*
X157932011Y-102907193D01*
X157931934Y-102907289D01*
X157976379Y-102956699D01*
X157987603Y-103025661D01*
X157959761Y-103089744D01*
X157929665Y-103115826D01*
X157926660Y-103117679D01*
X157926655Y-103117683D01*
X157802684Y-103241654D01*
X157710643Y-103390875D01*
X157710641Y-103390880D01*
X157655494Y-103557302D01*
X157655493Y-103557309D01*
X157645000Y-103660013D01*
X157645000Y-103710000D01*
X160094999Y-103710000D01*
X160094999Y-103660028D01*
X160094998Y-103660013D01*
X160084505Y-103557302D01*
X160029358Y-103390880D01*
X160029356Y-103390875D01*
X159937315Y-103241654D01*
X159813344Y-103117683D01*
X159807677Y-103113202D01*
X159809237Y-103111227D01*
X159770437Y-103068088D01*
X159759217Y-102999125D01*
X159787062Y-102935044D01*
X159845131Y-102896189D01*
X159882260Y-102890500D01*
X161128480Y-102890500D01*
X161195519Y-102910185D01*
X161216161Y-102926819D01*
X161291661Y-103002319D01*
X161325146Y-103063642D01*
X161320162Y-103133334D01*
X161291662Y-103177681D01*
X161189528Y-103279815D01*
X161189526Y-103279817D01*
X161184226Y-103285118D01*
X161182718Y-103283610D01*
X161140023Y-103315494D01*
X161127601Y-103320412D01*
X161116554Y-103324194D01*
X161074614Y-103336379D01*
X161074610Y-103336381D01*
X161057366Y-103346579D01*
X161039905Y-103355133D01*
X161021274Y-103362510D01*
X161021262Y-103362517D01*
X160985933Y-103388185D01*
X160976173Y-103394596D01*
X160938580Y-103416829D01*
X160924414Y-103430995D01*
X160909624Y-103443627D01*
X160893414Y-103455404D01*
X160893411Y-103455407D01*
X160865573Y-103489058D01*
X160857711Y-103497697D01*
X160181727Y-104173681D01*
X160120404Y-104207166D01*
X160094046Y-104210000D01*
X157645001Y-104210000D01*
X157645001Y-104259986D01*
X157655494Y-104362697D01*
X157711429Y-104531496D01*
X157713831Y-104601324D01*
X157678099Y-104661366D01*
X157615579Y-104692559D01*
X157593723Y-104694500D01*
X154662743Y-104694500D01*
X154647122Y-104692775D01*
X154647096Y-104693061D01*
X154639334Y-104692327D01*
X154639333Y-104692327D01*
X154577109Y-104694282D01*
X154572127Y-104694439D01*
X154568232Y-104694500D01*
X154540647Y-104694500D01*
X154536661Y-104695003D01*
X154525032Y-104695918D01*
X154478396Y-104697384D01*
X154410771Y-104679815D01*
X154363380Y-104628475D01*
X154350500Y-104573445D01*
X154350500Y-103177338D01*
X154352224Y-103161718D01*
X154351939Y-103161692D01*
X154352671Y-103153936D01*
X154352673Y-103153929D01*
X154350561Y-103086722D01*
X154350500Y-103082827D01*
X154350500Y-103055250D01*
X154350500Y-103055246D01*
X154349996Y-103051261D01*
X154349080Y-103039617D01*
X154347709Y-102995969D01*
X154342122Y-102976740D01*
X154338174Y-102957680D01*
X154338050Y-102956699D01*
X154335664Y-102937804D01*
X154335663Y-102937802D01*
X154335663Y-102937800D01*
X154319588Y-102897200D01*
X154315804Y-102886148D01*
X154303618Y-102844205D01*
X154303616Y-102844202D01*
X154293423Y-102826967D01*
X154284861Y-102809490D01*
X154277487Y-102790865D01*
X154251816Y-102755533D01*
X154245405Y-102745773D01*
X154223170Y-102708176D01*
X154223168Y-102708174D01*
X154223165Y-102708170D01*
X154209006Y-102694011D01*
X154196368Y-102679215D01*
X154184594Y-102663009D01*
X154184271Y-102662742D01*
X154150940Y-102635168D01*
X154142299Y-102627305D01*
X154112175Y-102597181D01*
X154078690Y-102535858D01*
X154083674Y-102466166D01*
X154125546Y-102410233D01*
X154191010Y-102385816D01*
X154199856Y-102385500D01*
X156477257Y-102385500D01*
X156492877Y-102387224D01*
X156492904Y-102386939D01*
X156500660Y-102387671D01*
X156500667Y-102387673D01*
X156567873Y-102385561D01*
X156571768Y-102385500D01*
X156599346Y-102385500D01*
X156599350Y-102385500D01*
X156603324Y-102384997D01*
X156614963Y-102384080D01*
X156658627Y-102382709D01*
X156677869Y-102377117D01*
X156696912Y-102373174D01*
X156716792Y-102370664D01*
X156757401Y-102354585D01*
X156768444Y-102350803D01*
X156810390Y-102338618D01*
X156827629Y-102328422D01*
X156845103Y-102319862D01*
X156863727Y-102312488D01*
X156863727Y-102312487D01*
X156863732Y-102312486D01*
X156899083Y-102286800D01*
X156908814Y-102280408D01*
X156946420Y-102258170D01*
X156960589Y-102243999D01*
X156975379Y-102231368D01*
X156991587Y-102219594D01*
X157019438Y-102185926D01*
X157027279Y-102177309D01*
X157432820Y-101771769D01*
X157494142Y-101738285D01*
X157563834Y-101743269D01*
G37*
%TD.AperFunction*%
%TA.AperFunction,Conductor*%
G36*
X172779052Y-101944363D02*
G01*
X172897424Y-101985000D01*
X172991073Y-101985000D01*
X173083446Y-101969586D01*
X173193514Y-101910019D01*
X173210000Y-101892110D01*
X173210000Y-102956257D01*
X173321409Y-102929229D01*
X173512504Y-102841960D01*
X173658572Y-102737945D01*
X173724599Y-102715092D01*
X173792499Y-102731564D01*
X173840715Y-102782131D01*
X173854500Y-102838952D01*
X173854500Y-103580500D01*
X173834815Y-103647539D01*
X173782011Y-103693294D01*
X173730500Y-103704500D01*
X170720453Y-103704500D01*
X170653414Y-103684815D01*
X170632772Y-103668181D01*
X170591819Y-103627228D01*
X170558334Y-103565905D01*
X170555500Y-103539547D01*
X170555500Y-103081762D01*
X170575185Y-103014723D01*
X170627989Y-102968968D01*
X170697147Y-102959024D01*
X170699362Y-102959342D01*
X170699367Y-102959344D01*
X170907398Y-102989254D01*
X171117330Y-102979254D01*
X171321576Y-102929704D01*
X171404666Y-102891758D01*
X171512743Y-102842401D01*
X171512746Y-102842399D01*
X171512753Y-102842396D01*
X171683952Y-102720486D01*
X171695696Y-102708170D01*
X171828986Y-102568378D01*
X171838010Y-102554336D01*
X171855826Y-102526613D01*
X171908629Y-102480858D01*
X171977788Y-102470914D01*
X172041344Y-102499938D01*
X172057612Y-102517000D01*
X172160268Y-102647537D01*
X172160271Y-102647540D01*
X172319030Y-102785105D01*
X172319041Y-102785114D01*
X172500960Y-102890144D01*
X172500967Y-102890147D01*
X172699487Y-102958856D01*
X172710000Y-102960367D01*
X172710000Y-101890617D01*
X172779052Y-101944363D01*
G37*
%TD.AperFunction*%
%TA.AperFunction,Conductor*%
G36*
X172446587Y-91845185D02*
G01*
X172467229Y-91861819D01*
X173818181Y-93212771D01*
X173851666Y-93274094D01*
X173854500Y-93300452D01*
X173854500Y-100383057D01*
X173834815Y-100450096D01*
X173782011Y-100495851D01*
X173712853Y-100505795D01*
X173649297Y-100476770D01*
X173600969Y-100434894D01*
X173600958Y-100434885D01*
X173419039Y-100329855D01*
X173419032Y-100329852D01*
X173220516Y-100261144D01*
X173210000Y-100259632D01*
X173210000Y-101329382D01*
X173140948Y-101275637D01*
X173022576Y-101235000D01*
X172928927Y-101235000D01*
X172836554Y-101250414D01*
X172726486Y-101309981D01*
X172710000Y-101327889D01*
X172710000Y-100263740D01*
X172709999Y-100263740D01*
X172598594Y-100290768D01*
X172598582Y-100290772D01*
X172407497Y-100378037D01*
X172407496Y-100378038D01*
X172236380Y-100499889D01*
X172236374Y-100499895D01*
X172091408Y-100651932D01*
X172064784Y-100693359D01*
X172011979Y-100739113D01*
X171942821Y-100749056D01*
X171879265Y-100720030D01*
X171862999Y-100702970D01*
X171760094Y-100572116D01*
X171760090Y-100572112D01*
X171628297Y-100457912D01*
X171590523Y-100399133D01*
X171585500Y-100364199D01*
X171585500Y-98607183D01*
X171603384Y-98543032D01*
X171608478Y-98534606D01*
X171659086Y-98372196D01*
X171665500Y-98301616D01*
X171665500Y-97638384D01*
X171659086Y-97567804D01*
X171608478Y-97405394D01*
X171603381Y-97396962D01*
X171585500Y-97332815D01*
X171585500Y-96035242D01*
X171587224Y-96019622D01*
X171586939Y-96019595D01*
X171587673Y-96011833D01*
X171585561Y-95944612D01*
X171585500Y-95940718D01*
X171585500Y-95913156D01*
X171585500Y-95913150D01*
X171584996Y-95909168D01*
X171584081Y-95897529D01*
X171583908Y-95892011D01*
X171582710Y-95853873D01*
X171577119Y-95834630D01*
X171573173Y-95815578D01*
X171570664Y-95795708D01*
X171554579Y-95755083D01*
X171550806Y-95744062D01*
X171538618Y-95702110D01*
X171538617Y-95702109D01*
X171538617Y-95702107D01*
X171538616Y-95702106D01*
X171528423Y-95684871D01*
X171519861Y-95667394D01*
X171512487Y-95648769D01*
X171486816Y-95613437D01*
X171480405Y-95603677D01*
X171458170Y-95566080D01*
X171458168Y-95566078D01*
X171458165Y-95566074D01*
X171444006Y-95551915D01*
X171431368Y-95537119D01*
X171419594Y-95520913D01*
X171409505Y-95512567D01*
X171385940Y-95493072D01*
X171377299Y-95485209D01*
X170582404Y-94690314D01*
X170548919Y-94628991D01*
X170551011Y-94568030D01*
X170552598Y-94562568D01*
X170553364Y-94552837D01*
X170555500Y-94525694D01*
X170555500Y-94094306D01*
X170552598Y-94057431D01*
X170547402Y-94039547D01*
X170506745Y-93899606D01*
X170506744Y-93899603D01*
X170506744Y-93899602D01*
X170423081Y-93758135D01*
X170423079Y-93758133D01*
X170423076Y-93758129D01*
X170306870Y-93641923D01*
X170306862Y-93641917D01*
X170165396Y-93558255D01*
X170165393Y-93558254D01*
X170007573Y-93512402D01*
X170007567Y-93512401D01*
X169970701Y-93509500D01*
X169970694Y-93509500D01*
X168804500Y-93509500D01*
X168737461Y-93489815D01*
X168691706Y-93437011D01*
X168680500Y-93385500D01*
X168680500Y-93144313D01*
X168680499Y-93144298D01*
X168677598Y-93107432D01*
X168677597Y-93107426D01*
X168629568Y-92942110D01*
X168632137Y-92941363D01*
X168625720Y-92889407D01*
X168624522Y-92889256D01*
X168625500Y-92881516D01*
X168625500Y-92861483D01*
X168627027Y-92842082D01*
X168630160Y-92822304D01*
X168626050Y-92778824D01*
X168625500Y-92767155D01*
X168625500Y-91949500D01*
X168645185Y-91882461D01*
X168697989Y-91836706D01*
X168749500Y-91825500D01*
X172379548Y-91825500D01*
X172446587Y-91845185D01*
G37*
%TD.AperFunction*%
%TA.AperFunction,Conductor*%
G36*
X152967539Y-80320185D02*
G01*
X153013294Y-80372989D01*
X153024500Y-80424500D01*
X153024500Y-81345138D01*
X153004815Y-81412177D01*
X152952011Y-81457932D01*
X152882853Y-81467876D01*
X152819297Y-81438851D01*
X152812819Y-81432819D01*
X152811819Y-81431819D01*
X152778334Y-81370496D01*
X152775500Y-81344138D01*
X152775500Y-80424500D01*
X152795185Y-80357461D01*
X152847989Y-80311706D01*
X152899500Y-80300500D01*
X152900500Y-80300500D01*
X152967539Y-80320185D01*
G37*
%TD.AperFunction*%
%TA.AperFunction,Conductor*%
G36*
X156334126Y-77579246D02*
G01*
X156384117Y-77628059D01*
X156400000Y-77688778D01*
X156400000Y-78751000D01*
X156380315Y-78818039D01*
X156327511Y-78863794D01*
X156276000Y-78875000D01*
X156274500Y-78875000D01*
X156207461Y-78855315D01*
X156161706Y-78802511D01*
X156150500Y-78751000D01*
X156150499Y-77852129D01*
X156150498Y-77852123D01*
X156150497Y-77852116D01*
X156144091Y-77792517D01*
X156130074Y-77754935D01*
X156125090Y-77685243D01*
X156158575Y-77623920D01*
X156170762Y-77613232D01*
X156200451Y-77590451D01*
X156200453Y-77590448D01*
X156200512Y-77590403D01*
X156265681Y-77565208D01*
X156334126Y-77579246D01*
G37*
%TD.AperFunction*%
%TD*%
M02*
