%TF.GenerationSoftware,KiCad,Pcbnew,7.0.10*%
%TF.CreationDate,2024-08-20T03:50:42-07:00*%
%TF.ProjectId,kicad,6b696361-642e-46b6-9963-61645f706362,rev?*%
%TF.SameCoordinates,Original*%
%TF.FileFunction,Copper,L2,Bot*%
%TF.FilePolarity,Positive*%
%FSLAX46Y46*%
G04 Gerber Fmt 4.6, Leading zero omitted, Abs format (unit mm)*
G04 Created by KiCad (PCBNEW 7.0.10) date 2024-08-20 03:50:42*
%MOMM*%
%LPD*%
G01*
G04 APERTURE LIST*
G04 Aperture macros list*
%AMRoundRect*
0 Rectangle with rounded corners*
0 $1 Rounding radius*
0 $2 $3 $4 $5 $6 $7 $8 $9 X,Y pos of 4 corners*
0 Add a 4 corners polygon primitive as box body*
4,1,4,$2,$3,$4,$5,$6,$7,$8,$9,$2,$3,0*
0 Add four circle primitives for the rounded corners*
1,1,$1+$1,$2,$3*
1,1,$1+$1,$4,$5*
1,1,$1+$1,$6,$7*
1,1,$1+$1,$8,$9*
0 Add four rect primitives between the rounded corners*
20,1,$1+$1,$2,$3,$4,$5,0*
20,1,$1+$1,$4,$5,$6,$7,0*
20,1,$1+$1,$6,$7,$8,$9,0*
20,1,$1+$1,$8,$9,$2,$3,0*%
G04 Aperture macros list end*
%TA.AperFunction,ComponentPad*%
%ADD10RoundRect,0.250000X-0.350000X-0.625000X0.350000X-0.625000X0.350000X0.625000X-0.350000X0.625000X0*%
%TD*%
%TA.AperFunction,ComponentPad*%
%ADD11O,1.200000X1.750000*%
%TD*%
%TA.AperFunction,ComponentPad*%
%ADD12O,1.000000X2.100000*%
%TD*%
%TA.AperFunction,ComponentPad*%
%ADD13O,1.000000X1.600000*%
%TD*%
%TA.AperFunction,ViaPad*%
%ADD14C,0.800000*%
%TD*%
G04 APERTURE END LIST*
D10*
%TO.P,J1,1,Pin_1*%
%TO.N,+5V*%
X168960000Y-101610000D03*
D11*
%TO.P,J1,2,Pin_2*%
%TO.N,Net-(J1-Pin_2)*%
X170960000Y-101610000D03*
%TO.P,J1,3,Pin_3*%
%TO.N,GND*%
X172960000Y-101610000D03*
%TD*%
D12*
%TO.P,J6,S1,SHIELD*%
%TO.N,GND*%
X157220000Y-77710000D03*
D13*
X157220000Y-73530000D03*
D12*
X148580000Y-77710000D03*
D13*
X148580000Y-73530000D03*
%TD*%
D14*
%TO.N,GND*%
X152900000Y-81130000D03*
X151970000Y-107740000D03*
X151480000Y-103720000D03*
X151860000Y-115060000D03*
X154030000Y-95750000D03*
X153960000Y-94090000D03*
X154170000Y-92060000D03*
X146750000Y-92520000D03*
X146880000Y-94530000D03*
X147120000Y-97210000D03*
X147670000Y-89440000D03*
X153450000Y-89220000D03*
X151578239Y-89608551D03*
X148769692Y-97538565D03*
X152130000Y-97480000D03*
X172340000Y-94290000D03*
X161990000Y-85420000D03*
X167493338Y-83881318D03*
X171403275Y-87956464D03*
X168925146Y-87570978D03*
X166450000Y-86080000D03*
X163638470Y-78209155D03*
X166447016Y-77658460D03*
X171072858Y-77658460D03*
X174211822Y-79530824D03*
X176690000Y-79480000D03*
X175700000Y-74630000D03*
X173550988Y-74684704D03*
X166230000Y-74520000D03*
X160830000Y-74740000D03*
X139740000Y-75020000D03*
X145575659Y-78925059D03*
X144750000Y-74680000D03*
X143152599Y-76006373D03*
X141555582Y-79145337D03*
X138306479Y-79255476D03*
X137210000Y-74410000D03*
X138416618Y-109323448D03*
X140288983Y-115326028D03*
X138800000Y-120610000D03*
X144310000Y-120670000D03*
X147390000Y-118190000D03*
X167660000Y-117580000D03*
X171570000Y-115930000D03*
X162757357Y-116041932D03*
X161660000Y-110760000D03*
X164130000Y-110530000D03*
X167440000Y-110530000D03*
X172120000Y-110150000D03*
X176080000Y-110370000D03*
X176030000Y-113950000D03*
X176250000Y-118300000D03*
X176360000Y-122210000D03*
X173060000Y-122100000D03*
X168210000Y-122320000D03*
X164350000Y-122320000D03*
X145390000Y-85730000D03*
X145390000Y-100860000D03*
X155290000Y-100860000D03*
X156860000Y-99440000D03*
X155480000Y-85950000D03*
X156980000Y-87200000D03*
X164090000Y-91720000D03*
X164150000Y-98660000D03*
X155770000Y-114510000D03*
X158140000Y-112280000D03*
X156760000Y-103950000D03*
X160080000Y-106290000D03*
X146560000Y-104770000D03*
X142680000Y-110760000D03*
X151210000Y-122030000D03*
X161250000Y-122320000D03*
X158420000Y-83750000D03*
X147660000Y-81120000D03*
X173060000Y-98440000D03*
%TD*%
%TA.AperFunction,Conductor*%
%TO.N,GND*%
G36*
X147699370Y-72519685D02*
G01*
X147745125Y-72572489D01*
X147755069Y-72641647D01*
X147734106Y-72694837D01*
X147701143Y-72742195D01*
X147620940Y-72929092D01*
X147580000Y-73128309D01*
X147580000Y-73280000D01*
X148280000Y-73280000D01*
X148280000Y-73780000D01*
X147580000Y-73780000D01*
X147580000Y-73880713D01*
X147595418Y-74032338D01*
X147656299Y-74226381D01*
X147656304Y-74226391D01*
X147755005Y-74404215D01*
X147755005Y-74404216D01*
X147887478Y-74558530D01*
X147887479Y-74558531D01*
X148048304Y-74683018D01*
X148230907Y-74772589D01*
X148330000Y-74798244D01*
X148330000Y-73996110D01*
X148354457Y-74035610D01*
X148443962Y-74103201D01*
X148551840Y-74133895D01*
X148663521Y-74123546D01*
X148763922Y-74073552D01*
X148830000Y-74001069D01*
X148830000Y-74803366D01*
X148831944Y-74803069D01*
X148831945Y-74803069D01*
X149022660Y-74732436D01*
X149022664Y-74732434D01*
X149195267Y-74624850D01*
X149342668Y-74484735D01*
X149342669Y-74484733D01*
X149458856Y-74317804D01*
X149539059Y-74130907D01*
X149580000Y-73931690D01*
X149580000Y-73780000D01*
X148880000Y-73780000D01*
X148880000Y-73280000D01*
X149580000Y-73280000D01*
X149580000Y-73179286D01*
X149564581Y-73027661D01*
X149503700Y-72833618D01*
X149503695Y-72833608D01*
X149420755Y-72684178D01*
X149405432Y-72616009D01*
X149429396Y-72550377D01*
X149485039Y-72508120D01*
X149529174Y-72500000D01*
X156272331Y-72500000D01*
X156339370Y-72519685D01*
X156385125Y-72572489D01*
X156395069Y-72641647D01*
X156374106Y-72694837D01*
X156341143Y-72742195D01*
X156260940Y-72929092D01*
X156220000Y-73128309D01*
X156220000Y-73280000D01*
X156920000Y-73280000D01*
X156920000Y-73780000D01*
X156220000Y-73780000D01*
X156220000Y-73880713D01*
X156235418Y-74032338D01*
X156296299Y-74226381D01*
X156296304Y-74226391D01*
X156395005Y-74404215D01*
X156395005Y-74404216D01*
X156527478Y-74558530D01*
X156527479Y-74558531D01*
X156688304Y-74683018D01*
X156870907Y-74772589D01*
X156970000Y-74798244D01*
X156970000Y-73996110D01*
X156994457Y-74035610D01*
X157083962Y-74103201D01*
X157191840Y-74133895D01*
X157303521Y-74123546D01*
X157403922Y-74073552D01*
X157470000Y-74001069D01*
X157470000Y-74803366D01*
X157471944Y-74803069D01*
X157471945Y-74803069D01*
X157662660Y-74732436D01*
X157662664Y-74732434D01*
X157835267Y-74624850D01*
X157982668Y-74484735D01*
X157982669Y-74484733D01*
X158098856Y-74317804D01*
X158179059Y-74130907D01*
X158220000Y-73931690D01*
X158220000Y-73780000D01*
X157520000Y-73780000D01*
X157520000Y-73280000D01*
X158220000Y-73280000D01*
X158220000Y-73179286D01*
X158204581Y-73027661D01*
X158143700Y-72833618D01*
X158143695Y-72833608D01*
X158060755Y-72684178D01*
X158045432Y-72616009D01*
X158069396Y-72550377D01*
X158125039Y-72508120D01*
X158169174Y-72500000D01*
X178078638Y-72500000D01*
X178145677Y-72519685D01*
X178166319Y-72536319D01*
X178483681Y-72853681D01*
X178517166Y-72915004D01*
X178520000Y-72941362D01*
X178520000Y-123416000D01*
X178500315Y-123483039D01*
X178447511Y-123528794D01*
X178396000Y-123540000D01*
X157090886Y-123540000D01*
X157023847Y-123520315D01*
X156978092Y-123467511D01*
X156968148Y-123398353D01*
X156969073Y-123392815D01*
X156979227Y-123339588D01*
X156969304Y-123181862D01*
X156920467Y-123031559D01*
X156835786Y-122898123D01*
X156720582Y-122789938D01*
X156720579Y-122789936D01*
X156720577Y-122789934D01*
X156582095Y-122713804D01*
X156582087Y-122713801D01*
X156429021Y-122674500D01*
X156429019Y-122674500D01*
X156310650Y-122674500D01*
X156310640Y-122674500D01*
X156193208Y-122689336D01*
X156193206Y-122689336D01*
X156046269Y-122747513D01*
X156046260Y-122747518D01*
X155918416Y-122840402D01*
X155918415Y-122840403D01*
X155817674Y-122962178D01*
X155750387Y-123105171D01*
X155750385Y-123105174D01*
X155735757Y-123181862D01*
X155720773Y-123260412D01*
X155720773Y-123260414D01*
X155720773Y-123260415D01*
X155722949Y-123294996D01*
X155729451Y-123398353D01*
X155730072Y-123408214D01*
X155714636Y-123476357D01*
X155664809Y-123525337D01*
X155606317Y-123540000D01*
X136031362Y-123540000D01*
X135964323Y-123520315D01*
X135943681Y-123503681D01*
X135796319Y-123356319D01*
X135762834Y-123294996D01*
X135760000Y-123268638D01*
X135760000Y-120510415D01*
X155720773Y-120510415D01*
X155730696Y-120668137D01*
X155730696Y-120668140D01*
X155755614Y-120744828D01*
X155779533Y-120818441D01*
X155864214Y-120951877D01*
X155979418Y-121060062D01*
X155979420Y-121060063D01*
X155979422Y-121060065D01*
X156056578Y-121102481D01*
X156117908Y-121136197D01*
X156270981Y-121175500D01*
X156270984Y-121175500D01*
X156389348Y-121175500D01*
X156389350Y-121175500D01*
X156389355Y-121175499D01*
X156389359Y-121175499D01*
X156402088Y-121173890D01*
X156506792Y-121160664D01*
X156653732Y-121102486D01*
X156781587Y-121009594D01*
X156882324Y-120887823D01*
X156949614Y-120744826D01*
X156979227Y-120589588D01*
X156969304Y-120431862D01*
X156920467Y-120281559D01*
X156835786Y-120148123D01*
X156720582Y-120039938D01*
X156720579Y-120039936D01*
X156720577Y-120039934D01*
X156582095Y-119963804D01*
X156582087Y-119963801D01*
X156429021Y-119924500D01*
X156429019Y-119924500D01*
X156310650Y-119924500D01*
X156310640Y-119924500D01*
X156193208Y-119939336D01*
X156193206Y-119939336D01*
X156046269Y-119997513D01*
X156046260Y-119997518D01*
X155918416Y-120090402D01*
X155918415Y-120090403D01*
X155817674Y-120212178D01*
X155750387Y-120355171D01*
X155750385Y-120355174D01*
X155735757Y-120431862D01*
X155720773Y-120510412D01*
X155720773Y-120510414D01*
X155720773Y-120510415D01*
X135760000Y-120510415D01*
X135760000Y-83250000D01*
X137980000Y-83250000D01*
X137980000Y-101040000D01*
X137980000Y-104375829D01*
X144810000Y-104381543D01*
X144810000Y-102285001D01*
X167859500Y-102285001D01*
X167859501Y-102285018D01*
X167870000Y-102387796D01*
X167870001Y-102387799D01*
X167925185Y-102554331D01*
X167925187Y-102554336D01*
X167933848Y-102568378D01*
X168017288Y-102703656D01*
X168141344Y-102827712D01*
X168290666Y-102919814D01*
X168457203Y-102974999D01*
X168559991Y-102985500D01*
X169360008Y-102985499D01*
X169360016Y-102985498D01*
X169360019Y-102985498D01*
X169421143Y-102979254D01*
X169462797Y-102974999D01*
X169629334Y-102919814D01*
X169778656Y-102827712D01*
X169902712Y-102703656D01*
X169941815Y-102640258D01*
X169993761Y-102593535D01*
X170062723Y-102582312D01*
X170126806Y-102610155D01*
X170144824Y-102628705D01*
X170159907Y-102647885D01*
X170159909Y-102647887D01*
X170318746Y-102785521D01*
X170500750Y-102890601D01*
X170500752Y-102890601D01*
X170500756Y-102890604D01*
X170699367Y-102959344D01*
X170907398Y-102989254D01*
X171117330Y-102979254D01*
X171321576Y-102929704D01*
X171408200Y-102890144D01*
X171512743Y-102842401D01*
X171512746Y-102842399D01*
X171512753Y-102842396D01*
X171683952Y-102720486D01*
X171684317Y-102720104D01*
X171828986Y-102568378D01*
X171838010Y-102554336D01*
X171855826Y-102526613D01*
X171908629Y-102480858D01*
X171977788Y-102470914D01*
X172041344Y-102499938D01*
X172057612Y-102517000D01*
X172160268Y-102647537D01*
X172160271Y-102647540D01*
X172319030Y-102785105D01*
X172319041Y-102785114D01*
X172500960Y-102890144D01*
X172500967Y-102890147D01*
X172699487Y-102958856D01*
X172710000Y-102960367D01*
X172710000Y-101890617D01*
X172779052Y-101944363D01*
X172897424Y-101985000D01*
X172991073Y-101985000D01*
X173083446Y-101969586D01*
X173193514Y-101910019D01*
X173210000Y-101892110D01*
X173210000Y-102956257D01*
X173321409Y-102929229D01*
X173512507Y-102841959D01*
X173683619Y-102720110D01*
X173683625Y-102720104D01*
X173828592Y-102568067D01*
X173942166Y-102391342D01*
X174020244Y-102196314D01*
X174060000Y-101990037D01*
X174060000Y-101860000D01*
X173239560Y-101860000D01*
X173278278Y-101817941D01*
X173328551Y-101703330D01*
X173338886Y-101578605D01*
X173308163Y-101457281D01*
X173244606Y-101360000D01*
X174060000Y-101360000D01*
X174060000Y-101282601D01*
X174045034Y-101125877D01*
X174045033Y-101125873D01*
X173985850Y-100924313D01*
X173889586Y-100737585D01*
X173759731Y-100572462D01*
X173759728Y-100572459D01*
X173600969Y-100434894D01*
X173600958Y-100434885D01*
X173419039Y-100329855D01*
X173419032Y-100329852D01*
X173220516Y-100261144D01*
X173210000Y-100259632D01*
X173210000Y-101329382D01*
X173140948Y-101275637D01*
X173022576Y-101235000D01*
X172928927Y-101235000D01*
X172836554Y-101250414D01*
X172726486Y-101309981D01*
X172710000Y-101327889D01*
X172710000Y-100263740D01*
X172709999Y-100263740D01*
X172598594Y-100290768D01*
X172598582Y-100290772D01*
X172407497Y-100378037D01*
X172407496Y-100378038D01*
X172236380Y-100499889D01*
X172236374Y-100499895D01*
X172091408Y-100651932D01*
X172064784Y-100693359D01*
X172011979Y-100739113D01*
X171942821Y-100749056D01*
X171879265Y-100720030D01*
X171862999Y-100702970D01*
X171760094Y-100572116D01*
X171760090Y-100572112D01*
X171601253Y-100434478D01*
X171419249Y-100329398D01*
X171419245Y-100329396D01*
X171419244Y-100329396D01*
X171220633Y-100260656D01*
X171012602Y-100230746D01*
X171012598Y-100230746D01*
X170802672Y-100240745D01*
X170598421Y-100290296D01*
X170598417Y-100290298D01*
X170407256Y-100377598D01*
X170407251Y-100377601D01*
X170236046Y-100499515D01*
X170236045Y-100499515D01*
X170138249Y-100602082D01*
X170077740Y-100637017D01*
X170007949Y-100633692D01*
X169951035Y-100593164D01*
X169942967Y-100581608D01*
X169937110Y-100572112D01*
X169902712Y-100516344D01*
X169778656Y-100392288D01*
X169677431Y-100329852D01*
X169629336Y-100300187D01*
X169629331Y-100300185D01*
X169599488Y-100290296D01*
X169462797Y-100245001D01*
X169462795Y-100245000D01*
X169360010Y-100234500D01*
X168559998Y-100234500D01*
X168559980Y-100234501D01*
X168457203Y-100245000D01*
X168457200Y-100245001D01*
X168290668Y-100300185D01*
X168290663Y-100300187D01*
X168141342Y-100392289D01*
X168017289Y-100516342D01*
X167925187Y-100665663D01*
X167925185Y-100665668D01*
X167901443Y-100737318D01*
X167870001Y-100832203D01*
X167870001Y-100832204D01*
X167870000Y-100832204D01*
X167859500Y-100934983D01*
X167859500Y-102285001D01*
X144810000Y-102285001D01*
X144810000Y-83250000D01*
X137980000Y-83250000D01*
X135760000Y-83250000D01*
X135760000Y-78310713D01*
X147580000Y-78310713D01*
X147595418Y-78462338D01*
X147656299Y-78656381D01*
X147656304Y-78656391D01*
X147755005Y-78834215D01*
X147755005Y-78834216D01*
X147887478Y-78988530D01*
X147887479Y-78988531D01*
X148048304Y-79113018D01*
X148230907Y-79202589D01*
X148330000Y-79228244D01*
X148330000Y-78426110D01*
X148354457Y-78465610D01*
X148443962Y-78533201D01*
X148551840Y-78563895D01*
X148663521Y-78553546D01*
X148763922Y-78503552D01*
X148830000Y-78431069D01*
X148830000Y-79233366D01*
X148831944Y-79233069D01*
X148831945Y-79233069D01*
X149022660Y-79162436D01*
X149022664Y-79162434D01*
X149195267Y-79054850D01*
X149342668Y-78914735D01*
X149342669Y-78914733D01*
X149458856Y-78747804D01*
X149539059Y-78560907D01*
X149580000Y-78361690D01*
X149580000Y-77810384D01*
X149599685Y-77743345D01*
X149652489Y-77697590D01*
X149721647Y-77687646D01*
X149751454Y-77695823D01*
X149859764Y-77740687D01*
X149972280Y-77755500D01*
X149972287Y-77755500D01*
X150047713Y-77755500D01*
X150047720Y-77755500D01*
X150160236Y-77740687D01*
X150300233Y-77682698D01*
X150420451Y-77590451D01*
X150512698Y-77470233D01*
X150570687Y-77330236D01*
X150590466Y-77180000D01*
X155209534Y-77180000D01*
X155229312Y-77330234D01*
X155229313Y-77330236D01*
X155287302Y-77470233D01*
X155379549Y-77590451D01*
X155499767Y-77682698D01*
X155639764Y-77740687D01*
X155752280Y-77755500D01*
X155752287Y-77755500D01*
X155827713Y-77755500D01*
X155827720Y-77755500D01*
X155940236Y-77740687D01*
X156048547Y-77695823D01*
X156118017Y-77688354D01*
X156180496Y-77719629D01*
X156216148Y-77779718D01*
X156220000Y-77810384D01*
X156220000Y-78310713D01*
X156235418Y-78462338D01*
X156296299Y-78656381D01*
X156296304Y-78656391D01*
X156395005Y-78834215D01*
X156395005Y-78834216D01*
X156527478Y-78988530D01*
X156527479Y-78988531D01*
X156688304Y-79113018D01*
X156870907Y-79202589D01*
X156970000Y-79228244D01*
X156970000Y-78426110D01*
X156994457Y-78465610D01*
X157083962Y-78533201D01*
X157191840Y-78563895D01*
X157303521Y-78553546D01*
X157403922Y-78503552D01*
X157470000Y-78431069D01*
X157470000Y-79233366D01*
X157471944Y-79233069D01*
X157471945Y-79233069D01*
X157662660Y-79162436D01*
X157662664Y-79162434D01*
X157835267Y-79054850D01*
X157982668Y-78914735D01*
X157982669Y-78914733D01*
X158098856Y-78747804D01*
X158179059Y-78560907D01*
X158220000Y-78361690D01*
X158220000Y-77960000D01*
X157520000Y-77960000D01*
X157520000Y-77460000D01*
X158220000Y-77460000D01*
X158220000Y-77109286D01*
X158204581Y-76957661D01*
X158143700Y-76763618D01*
X158143695Y-76763608D01*
X158044994Y-76585784D01*
X158044994Y-76585783D01*
X157912521Y-76431469D01*
X157912520Y-76431468D01*
X157751695Y-76306981D01*
X157569093Y-76217411D01*
X157470000Y-76191753D01*
X157470000Y-76993889D01*
X157445543Y-76954390D01*
X157356038Y-76886799D01*
X157248160Y-76856105D01*
X157136479Y-76866454D01*
X157036078Y-76916448D01*
X156970000Y-76988930D01*
X156970000Y-76186633D01*
X156968053Y-76186931D01*
X156968047Y-76186933D01*
X156777342Y-76257562D01*
X156777335Y-76257565D01*
X156604732Y-76365149D01*
X156457331Y-76505264D01*
X156457330Y-76505266D01*
X156341142Y-76672197D01*
X156341140Y-76672200D01*
X156337760Y-76680078D01*
X156293232Y-76733921D01*
X156226663Y-76755142D01*
X156159189Y-76737005D01*
X156148332Y-76729556D01*
X156080233Y-76677302D01*
X156080232Y-76677301D01*
X156080230Y-76677300D01*
X155989731Y-76639814D01*
X155940236Y-76619313D01*
X155926171Y-76617461D01*
X155827727Y-76604500D01*
X155827720Y-76604500D01*
X155752280Y-76604500D01*
X155752272Y-76604500D01*
X155639764Y-76619313D01*
X155639763Y-76619313D01*
X155499770Y-76677300D01*
X155499767Y-76677301D01*
X155499767Y-76677302D01*
X155379549Y-76769549D01*
X155289580Y-76886799D01*
X155287300Y-76889770D01*
X155229313Y-77029763D01*
X155229312Y-77029765D01*
X155209534Y-77179999D01*
X155209534Y-77180000D01*
X150590466Y-77180000D01*
X150570687Y-77029764D01*
X150512698Y-76889767D01*
X150420451Y-76769549D01*
X150300233Y-76677302D01*
X150300229Y-76677300D01*
X150236801Y-76651027D01*
X150160236Y-76619313D01*
X150146171Y-76617461D01*
X150047727Y-76604500D01*
X150047720Y-76604500D01*
X149972280Y-76604500D01*
X149972272Y-76604500D01*
X149859764Y-76619313D01*
X149859763Y-76619313D01*
X149719769Y-76677300D01*
X149697821Y-76694142D01*
X149648743Y-76731800D01*
X149583575Y-76756994D01*
X149515131Y-76742956D01*
X149465141Y-76694142D01*
X149464839Y-76693602D01*
X149404994Y-76585784D01*
X149404994Y-76585783D01*
X149272521Y-76431469D01*
X149272520Y-76431468D01*
X149111695Y-76306981D01*
X148929093Y-76217411D01*
X148830000Y-76191753D01*
X148830000Y-76993889D01*
X148805543Y-76954390D01*
X148716038Y-76886799D01*
X148608160Y-76856105D01*
X148496479Y-76866454D01*
X148396078Y-76916448D01*
X148330000Y-76988930D01*
X148330000Y-76186633D01*
X148328053Y-76186931D01*
X148328047Y-76186933D01*
X148137342Y-76257562D01*
X148137335Y-76257565D01*
X147964732Y-76365149D01*
X147817331Y-76505264D01*
X147817330Y-76505266D01*
X147701143Y-76672195D01*
X147620940Y-76859092D01*
X147580000Y-77058309D01*
X147580000Y-77460000D01*
X148280000Y-77460000D01*
X148280000Y-77960000D01*
X147580000Y-77960000D01*
X147580000Y-78310713D01*
X135760000Y-78310713D01*
X135760000Y-72661362D01*
X135779685Y-72594323D01*
X135796319Y-72573681D01*
X135833681Y-72536319D01*
X135895004Y-72502834D01*
X135921362Y-72500000D01*
X147632331Y-72500000D01*
X147699370Y-72519685D01*
G37*
%TD.AperFunction*%
%TD*%
M02*
